G04 #@! TF.GenerationSoftware,KiCad,Pcbnew,5.0.0-fee4fd1~66~ubuntu16.04.1*
G04 #@! TF.CreationDate,2019-02-25T08:40:39-05:00*
G04 #@! TF.ProjectId,circuit,636972637569742E6B696361645F7063,rev?*
G04 #@! TF.SameCoordinates,Original*
G04 #@! TF.FileFunction,Legend,Top*
G04 #@! TF.FilePolarity,Positive*
%FSLAX46Y46*%
G04 Gerber Fmt 4.6, Leading zero omitted, Abs format (unit mm)*
G04 Created by KiCad (PCBNEW 5.0.0-fee4fd1~66~ubuntu16.04.1) date Mon Feb 25 08:40:39 2019*
%MOMM*%
%LPD*%
G01*
G04 APERTURE LIST*
%ADD10C,0.200000*%
%ADD11C,0.150000*%
%ADD12C,0.120000*%
%ADD13C,0.100000*%
%ADD14C,0.500000*%
%ADD15C,0.125000*%
G04 APERTURE END LIST*
D10*
X194630459Y-81059411D02*
X194630459Y-79559411D01*
X194935220Y-79559411D01*
X195011411Y-79630840D01*
X195049506Y-79702268D01*
X195087601Y-79845125D01*
X195087601Y-80059411D01*
X195049506Y-80202268D01*
X195011411Y-80273697D01*
X194935220Y-80345125D01*
X194630459Y-80345125D01*
X195811411Y-81059411D02*
X195430459Y-81059411D01*
X195430459Y-79559411D01*
X196078078Y-79559411D02*
X196078078Y-80773697D01*
X196116173Y-80916554D01*
X196154268Y-80987982D01*
X196230459Y-81059411D01*
X196382840Y-81059411D01*
X196459030Y-80987982D01*
X196497125Y-80916554D01*
X196535220Y-80773697D01*
X196535220Y-79559411D01*
X197335220Y-79630840D02*
X197259030Y-79559411D01*
X197144744Y-79559411D01*
X197030459Y-79630840D01*
X196954268Y-79773697D01*
X196916173Y-79916554D01*
X196878078Y-80202268D01*
X196878078Y-80416554D01*
X196916173Y-80702268D01*
X196954268Y-80845125D01*
X197030459Y-80987982D01*
X197144744Y-81059411D01*
X197220935Y-81059411D01*
X197335220Y-80987982D01*
X197373316Y-80916554D01*
X197373316Y-80416554D01*
X197220935Y-80416554D01*
X198325697Y-81059411D02*
X198325697Y-79559411D01*
X198706649Y-81059411D02*
X198706649Y-79559411D01*
X199163792Y-81059411D01*
X199163792Y-79559411D01*
X200116173Y-80987982D02*
X200230459Y-81059411D01*
X200420935Y-81059411D01*
X200497125Y-80987982D01*
X200535220Y-80916554D01*
X200573316Y-80773697D01*
X200573316Y-80630840D01*
X200535220Y-80487982D01*
X200497125Y-80416554D01*
X200420935Y-80345125D01*
X200268554Y-80273697D01*
X200192363Y-80202268D01*
X200154268Y-80130840D01*
X200116173Y-79987982D01*
X200116173Y-79845125D01*
X200154268Y-79702268D01*
X200192363Y-79630840D01*
X200268554Y-79559411D01*
X200459030Y-79559411D01*
X200573316Y-79630840D01*
X200916173Y-81059411D02*
X200916173Y-79559411D01*
X201106649Y-79559411D01*
X201220935Y-79630840D01*
X201297125Y-79773697D01*
X201335220Y-79916554D01*
X201373316Y-80202268D01*
X201373316Y-80416554D01*
X201335220Y-80702268D01*
X201297125Y-80845125D01*
X201220935Y-80987982D01*
X201106649Y-81059411D01*
X200916173Y-81059411D01*
D11*
G04 #@! TO.C,U3*
X192392300Y-89095580D02*
X189090300Y-89095580D01*
X192392300Y-83761580D02*
X192392300Y-89095580D01*
X189090300Y-83761580D02*
X192392300Y-83761580D01*
X189090300Y-89095580D02*
X189090300Y-83761580D01*
D12*
G04 #@! TO.C,C1*
X194837420Y-109522640D02*
X194837420Y-108522640D01*
X193137420Y-108522640D02*
X193137420Y-109522640D01*
G04 #@! TO.C,C4*
X208477220Y-99318700D02*
X208477220Y-98318700D01*
X206777220Y-98318700D02*
X206777220Y-99318700D01*
G04 #@! TO.C,C5*
X205505940Y-94560020D02*
X204505940Y-94560020D01*
X204505940Y-96260020D02*
X205505940Y-96260020D01*
G04 #@! TO.C,C6*
X190267220Y-99568380D02*
X190267220Y-100568380D01*
X191967220Y-100568380D02*
X191967220Y-99568380D01*
G04 #@! TO.C,C7*
X203249160Y-102072060D02*
X203249160Y-103072060D01*
X204949160Y-103072060D02*
X204949160Y-102072060D01*
G04 #@! TO.C,D1*
X199648400Y-76948260D02*
X196848400Y-76948260D01*
X199648400Y-75548260D02*
X196848400Y-75548260D01*
X199648400Y-76948260D02*
X199648400Y-75548260D01*
D13*
X198048400Y-76248260D02*
X197748400Y-76548260D01*
X197748400Y-76548260D02*
X197698400Y-76598260D01*
X197698400Y-76598260D02*
X197698400Y-75948260D01*
X197698400Y-75898260D02*
X197698400Y-75948260D01*
X197698400Y-75948260D02*
X197698400Y-75898260D01*
X197698400Y-75898260D02*
X198048400Y-76248260D01*
X198048400Y-76248260D02*
X198048400Y-76598260D01*
X198048400Y-75898260D02*
X198048400Y-76248260D01*
G04 #@! TO.C,D2*
X205523580Y-111116720D02*
X205173580Y-111116720D01*
X205173580Y-111116720D02*
X204823580Y-111116720D01*
X205523580Y-110766720D02*
X205173580Y-111116720D01*
X205473580Y-110766720D02*
X205523580Y-110766720D01*
X205523580Y-110766720D02*
X205473580Y-110766720D01*
X204823580Y-110766720D02*
X205473580Y-110766720D01*
X204873580Y-110816720D02*
X204823580Y-110766720D01*
X205173580Y-111116720D02*
X204873580Y-110816720D01*
D12*
X204473580Y-112716720D02*
X205873580Y-112716720D01*
X205873580Y-112716720D02*
X205873580Y-109916720D01*
X204473580Y-112716720D02*
X204473580Y-109916720D01*
D13*
G04 #@! TO.C,D3*
X211878660Y-80951500D02*
X211528660Y-80951500D01*
X211528660Y-80951500D02*
X211178660Y-80951500D01*
X211878660Y-80601500D02*
X211528660Y-80951500D01*
X211828660Y-80601500D02*
X211878660Y-80601500D01*
X211878660Y-80601500D02*
X211828660Y-80601500D01*
X211178660Y-80601500D02*
X211828660Y-80601500D01*
X211228660Y-80651500D02*
X211178660Y-80601500D01*
X211528660Y-80951500D02*
X211228660Y-80651500D01*
D12*
X210828660Y-82551500D02*
X212228660Y-82551500D01*
X212228660Y-82551500D02*
X212228660Y-79751500D01*
X210828660Y-82551500D02*
X210828660Y-79751500D01*
D11*
G04 #@! TO.C,J1*
X210066680Y-73744260D02*
X202166680Y-73744260D01*
X210066680Y-84094260D02*
X202166680Y-84094260D01*
X210164680Y-73708260D02*
X210164680Y-84122260D01*
X202036680Y-84122260D02*
X202036680Y-73708260D01*
D12*
G04 #@! TO.C,R1*
X206300180Y-111918040D02*
X206300180Y-110718040D01*
X208060180Y-110718040D02*
X208060180Y-111918040D01*
G04 #@! TO.C,R2*
X197200000Y-77435820D02*
X198400000Y-77435820D01*
X198400000Y-79195820D02*
X197200000Y-79195820D01*
G04 #@! TO.C,R3*
X210696920Y-85100720D02*
X210696920Y-83900720D01*
X212456920Y-83900720D02*
X212456920Y-85100720D01*
G04 #@! TO.C,R4*
X198344680Y-92297960D02*
X198344680Y-93497960D01*
X196584680Y-93497960D02*
X196584680Y-92297960D01*
G04 #@! TO.C,R5*
X188175380Y-105131980D02*
X189375380Y-105131980D01*
X189375380Y-106891980D02*
X188175380Y-106891980D01*
G04 #@! TO.C,R6*
X198817940Y-106308000D02*
X200017940Y-106308000D01*
X200017940Y-108068000D02*
X198817940Y-108068000D01*
G04 #@! TO.C,R7*
X190234680Y-97145400D02*
X190234680Y-95945400D01*
X191994680Y-95945400D02*
X191994680Y-97145400D01*
D11*
G04 #@! TO.C,U1*
X187443820Y-113057920D02*
X187443820Y-107657920D01*
X187443820Y-107665520D02*
X192443820Y-107665520D01*
X187443820Y-113057920D02*
X192443820Y-113057920D01*
X192438020Y-113057920D02*
X192438020Y-107657920D01*
G36*
X192438020Y-108021120D02*
X192920620Y-108021120D01*
X192920620Y-107309920D01*
X192438020Y-107309920D01*
X192438020Y-108021120D01*
G37*
X192438020Y-108021120D02*
X192920620Y-108021120D01*
X192920620Y-107309920D01*
X192438020Y-107309920D01*
X192438020Y-108021120D01*
D14*
G04 #@! TO.C,U4*
X200324720Y-103398320D02*
G75*
G03X200324720Y-103398320I-50800J0D01*
G01*
X201874120Y-105150920D02*
G75*
G03X201874120Y-105150920I-50800J0D01*
G01*
D11*
X201231920Y-104381720D02*
X201231920Y-104156720D01*
X193981920Y-104381720D02*
X193981920Y-104056720D01*
X193981920Y-97131720D02*
X193981920Y-97456720D01*
X201231920Y-97131720D02*
X201231920Y-97456720D01*
X201231920Y-104381720D02*
X200906920Y-104381720D01*
X201231920Y-97131720D02*
X200906920Y-97131720D01*
X193981920Y-97131720D02*
X194306920Y-97131720D01*
X193981920Y-104381720D02*
X194306920Y-104381720D01*
X201231920Y-104156720D02*
X202656920Y-104156720D01*
D13*
G04 #@! TO.C,Y1*
X203263700Y-100628200D02*
X203263700Y-98628200D01*
X203263700Y-100628200D02*
X204863700Y-100628200D01*
D12*
G04 #@! TO.C,J5*
X191049380Y-79633680D02*
X191049380Y-79183680D01*
X191049380Y-79633680D02*
X190599380Y-79633680D01*
X185449380Y-79083680D02*
X185899380Y-79083680D01*
X185449380Y-77233680D02*
X185449380Y-79083680D01*
X193249380Y-74683680D02*
X193249380Y-74933680D01*
X185449380Y-74683680D02*
X185449380Y-74933680D01*
X193249380Y-77233680D02*
X193249380Y-79083680D01*
X193249380Y-79083680D02*
X192799380Y-79083680D01*
G04 #@! TO.C,C2*
X210344120Y-86748240D02*
X210344120Y-85748240D01*
X208644120Y-85748240D02*
X208644120Y-86748240D01*
G04 #@! TO.C,C3*
X203319760Y-93308540D02*
X204319760Y-93308540D01*
X204319760Y-91608540D02*
X203319760Y-91608540D01*
G04 #@! TO.C,U2*
X208082320Y-91184780D02*
X202072320Y-91184780D01*
X205832320Y-84364780D02*
X202072320Y-84364780D01*
X202072320Y-91184780D02*
X202072320Y-89924780D01*
X202072320Y-84364780D02*
X202072320Y-85624780D01*
G04 #@! TO.C,C8*
X188606800Y-85937980D02*
X188606800Y-84937980D01*
X186906800Y-84937980D02*
X186906800Y-85937980D01*
G04 #@! TO.C,C9*
X184872260Y-84940520D02*
X184872260Y-85940520D01*
X186572260Y-85940520D02*
X186572260Y-84940520D01*
G04 #@! TO.C,U3*
D15*
X192201847Y-82751984D02*
X192201847Y-83399603D01*
X192225657Y-83475794D01*
X192249466Y-83513889D01*
X192297085Y-83551984D01*
X192392323Y-83551984D01*
X192439942Y-83513889D01*
X192463752Y-83475794D01*
X192487561Y-83399603D01*
X192487561Y-82751984D01*
X192678038Y-82751984D02*
X192987561Y-82751984D01*
X192820895Y-83056746D01*
X192892323Y-83056746D01*
X192939942Y-83094841D01*
X192963752Y-83132937D01*
X192987561Y-83209127D01*
X192987561Y-83399603D01*
X192963752Y-83475794D01*
X192939942Y-83513889D01*
X192892323Y-83551984D01*
X192749466Y-83551984D01*
X192701847Y-83513889D01*
X192678038Y-83475794D01*
X189236314Y-83490060D02*
X188664885Y-83490060D01*
X188950600Y-83490060D02*
X188950600Y-82490060D01*
X188855361Y-82632918D01*
X188760123Y-82728156D01*
X188664885Y-82775775D01*
D11*
X193606680Y-89087532D02*
X192940014Y-88563722D01*
X192940014Y-89087532D02*
X193606680Y-88563722D01*
X192940014Y-88182770D02*
X193225728Y-87420865D01*
X193511442Y-88182770D01*
X191503300Y-89643294D02*
X190741395Y-89929008D01*
X191503300Y-90214722D01*
X191884252Y-89643294D02*
X192122347Y-90309960D01*
X192360442Y-89643294D02*
X192122347Y-90309960D01*
X192027109Y-90548056D01*
X191979490Y-90595675D01*
X191884252Y-90643294D01*
G04 #@! TO.C,C1*
D15*
X195575406Y-110334514D02*
X195551597Y-110372609D01*
X195480168Y-110410704D01*
X195432549Y-110410704D01*
X195361120Y-110372609D01*
X195313501Y-110296419D01*
X195289692Y-110220228D01*
X195265882Y-110067847D01*
X195265882Y-109953561D01*
X195289692Y-109801180D01*
X195313501Y-109724990D01*
X195361120Y-109648800D01*
X195432549Y-109610704D01*
X195480168Y-109610704D01*
X195551597Y-109648800D01*
X195575406Y-109686895D01*
X196051597Y-110410704D02*
X195765882Y-110410704D01*
X195908740Y-110410704D02*
X195908740Y-109610704D01*
X195861120Y-109724990D01*
X195813501Y-109801180D01*
X195765882Y-109839276D01*
G04 #@! TO.C,C4*
X209179646Y-99091714D02*
X209155837Y-99129809D01*
X209084408Y-99167904D01*
X209036789Y-99167904D01*
X208965360Y-99129809D01*
X208917741Y-99053619D01*
X208893932Y-98977428D01*
X208870122Y-98825047D01*
X208870122Y-98710761D01*
X208893932Y-98558380D01*
X208917741Y-98482190D01*
X208965360Y-98406000D01*
X209036789Y-98367904D01*
X209084408Y-98367904D01*
X209155837Y-98406000D01*
X209179646Y-98444095D01*
X209608218Y-98634571D02*
X209608218Y-99167904D01*
X209489170Y-98329809D02*
X209370122Y-98901238D01*
X209679646Y-98901238D01*
G04 #@! TO.C,C5*
X207277186Y-96226594D02*
X207253377Y-96264689D01*
X207181948Y-96302784D01*
X207134329Y-96302784D01*
X207062900Y-96264689D01*
X207015281Y-96188499D01*
X206991472Y-96112308D01*
X206967662Y-95959927D01*
X206967662Y-95845641D01*
X206991472Y-95693260D01*
X207015281Y-95617070D01*
X207062900Y-95540880D01*
X207134329Y-95502784D01*
X207181948Y-95502784D01*
X207253377Y-95540880D01*
X207277186Y-95578975D01*
X207729567Y-95502784D02*
X207491472Y-95502784D01*
X207467662Y-95883737D01*
X207491472Y-95845641D01*
X207539091Y-95807546D01*
X207658139Y-95807546D01*
X207705758Y-95845641D01*
X207729567Y-95883737D01*
X207753377Y-95959927D01*
X207753377Y-96150403D01*
X207729567Y-96226594D01*
X207705758Y-96264689D01*
X207658139Y-96302784D01*
X207539091Y-96302784D01*
X207491472Y-96264689D01*
X207467662Y-96226594D01*
G04 #@! TO.C,C6*
X189700386Y-100006114D02*
X189676577Y-100044209D01*
X189605148Y-100082304D01*
X189557529Y-100082304D01*
X189486100Y-100044209D01*
X189438481Y-99968019D01*
X189414672Y-99891828D01*
X189390862Y-99739447D01*
X189390862Y-99625161D01*
X189414672Y-99472780D01*
X189438481Y-99396590D01*
X189486100Y-99320400D01*
X189557529Y-99282304D01*
X189605148Y-99282304D01*
X189676577Y-99320400D01*
X189700386Y-99358495D01*
X190128958Y-99282304D02*
X190033720Y-99282304D01*
X189986100Y-99320400D01*
X189962291Y-99358495D01*
X189914672Y-99472780D01*
X189890862Y-99625161D01*
X189890862Y-99929923D01*
X189914672Y-100006114D01*
X189938481Y-100044209D01*
X189986100Y-100082304D01*
X190081339Y-100082304D01*
X190128958Y-100044209D01*
X190152767Y-100006114D01*
X190176577Y-99929923D01*
X190176577Y-99739447D01*
X190152767Y-99663257D01*
X190128958Y-99625161D01*
X190081339Y-99587066D01*
X189986100Y-99587066D01*
X189938481Y-99625161D01*
X189914672Y-99663257D01*
X189890862Y-99739447D01*
G04 #@! TO.C,C7*
X205509346Y-102819674D02*
X205485537Y-102857769D01*
X205414108Y-102895864D01*
X205366489Y-102895864D01*
X205295060Y-102857769D01*
X205247441Y-102781579D01*
X205223632Y-102705388D01*
X205199822Y-102553007D01*
X205199822Y-102438721D01*
X205223632Y-102286340D01*
X205247441Y-102210150D01*
X205295060Y-102133960D01*
X205366489Y-102095864D01*
X205414108Y-102095864D01*
X205485537Y-102133960D01*
X205509346Y-102172055D01*
X205676013Y-102095864D02*
X206009346Y-102095864D01*
X205795060Y-102895864D01*
G04 #@! TO.C,D1*
X194771532Y-76808284D02*
X194771532Y-76008284D01*
X194890580Y-76008284D01*
X194962008Y-76046380D01*
X195009627Y-76122570D01*
X195033437Y-76198760D01*
X195057246Y-76351141D01*
X195057246Y-76465427D01*
X195033437Y-76617808D01*
X195009627Y-76693999D01*
X194962008Y-76770189D01*
X194890580Y-76808284D01*
X194771532Y-76808284D01*
X195533437Y-76808284D02*
X195247722Y-76808284D01*
X195390580Y-76808284D02*
X195390580Y-76008284D01*
X195342960Y-76122570D01*
X195295341Y-76198760D01*
X195247722Y-76236856D01*
G04 #@! TO.C,D2*
X205195692Y-108677664D02*
X205195692Y-107877664D01*
X205314740Y-107877664D01*
X205386168Y-107915760D01*
X205433787Y-107991950D01*
X205457597Y-108068140D01*
X205481406Y-108220521D01*
X205481406Y-108334807D01*
X205457597Y-108487188D01*
X205433787Y-108563379D01*
X205386168Y-108639569D01*
X205314740Y-108677664D01*
X205195692Y-108677664D01*
X205671882Y-107953855D02*
X205695692Y-107915760D01*
X205743311Y-107877664D01*
X205862359Y-107877664D01*
X205909978Y-107915760D01*
X205933787Y-107953855D01*
X205957597Y-108030045D01*
X205957597Y-108106236D01*
X205933787Y-108220521D01*
X205648073Y-108677664D01*
X205957597Y-108677664D01*
G04 #@! TO.C,D3*
X210849732Y-78278944D02*
X210849732Y-77478944D01*
X210968780Y-77478944D01*
X211040208Y-77517040D01*
X211087827Y-77593230D01*
X211111637Y-77669420D01*
X211135446Y-77821801D01*
X211135446Y-77936087D01*
X211111637Y-78088468D01*
X211087827Y-78164659D01*
X211040208Y-78240849D01*
X210968780Y-78278944D01*
X210849732Y-78278944D01*
X211302113Y-77478944D02*
X211611637Y-77478944D01*
X211444970Y-77783706D01*
X211516399Y-77783706D01*
X211564018Y-77821801D01*
X211587827Y-77859897D01*
X211611637Y-77936087D01*
X211611637Y-78126563D01*
X211587827Y-78202754D01*
X211564018Y-78240849D01*
X211516399Y-78278944D01*
X211373541Y-78278944D01*
X211325922Y-78240849D01*
X211302113Y-78202754D01*
G04 #@! TO.C,J1*
X205934013Y-79162964D02*
X205934013Y-79734393D01*
X205910203Y-79848679D01*
X205862584Y-79924869D01*
X205791156Y-79962964D01*
X205743537Y-79962964D01*
X206434013Y-79962964D02*
X206148299Y-79962964D01*
X206291156Y-79962964D02*
X206291156Y-79162964D01*
X206243537Y-79277250D01*
X206195918Y-79353440D01*
X206148299Y-79391536D01*
G04 #@! TO.C,R1*
X207554046Y-109475224D02*
X207387380Y-109094272D01*
X207268332Y-109475224D02*
X207268332Y-108675224D01*
X207458808Y-108675224D01*
X207506427Y-108713320D01*
X207530237Y-108751415D01*
X207554046Y-108827605D01*
X207554046Y-108941891D01*
X207530237Y-109018081D01*
X207506427Y-109056177D01*
X207458808Y-109094272D01*
X207268332Y-109094272D01*
X208030237Y-109475224D02*
X207744522Y-109475224D01*
X207887380Y-109475224D02*
X207887380Y-108675224D01*
X207839760Y-108789510D01*
X207792141Y-108865700D01*
X207744522Y-108903796D01*
G04 #@! TO.C,R2*
X195057246Y-78578664D02*
X194890580Y-78197712D01*
X194771532Y-78578664D02*
X194771532Y-77778664D01*
X194962008Y-77778664D01*
X195009627Y-77816760D01*
X195033437Y-77854855D01*
X195057246Y-77931045D01*
X195057246Y-78045331D01*
X195033437Y-78121521D01*
X195009627Y-78159617D01*
X194962008Y-78197712D01*
X194771532Y-78197712D01*
X195247722Y-77854855D02*
X195271532Y-77816760D01*
X195319151Y-77778664D01*
X195438199Y-77778664D01*
X195485818Y-77816760D01*
X195509627Y-77854855D01*
X195533437Y-77931045D01*
X195533437Y-78007236D01*
X195509627Y-78121521D01*
X195223913Y-78578664D01*
X195533437Y-78578664D01*
G04 #@! TO.C,R3*
X212072706Y-87102904D02*
X211906040Y-86721952D01*
X211786992Y-87102904D02*
X211786992Y-86302904D01*
X211977468Y-86302904D01*
X212025087Y-86341000D01*
X212048897Y-86379095D01*
X212072706Y-86455285D01*
X212072706Y-86569571D01*
X212048897Y-86645761D01*
X212025087Y-86683857D01*
X211977468Y-86721952D01*
X211786992Y-86721952D01*
X212239373Y-86302904D02*
X212548897Y-86302904D01*
X212382230Y-86607666D01*
X212453659Y-86607666D01*
X212501278Y-86645761D01*
X212525087Y-86683857D01*
X212548897Y-86760047D01*
X212548897Y-86950523D01*
X212525087Y-87026714D01*
X212501278Y-87064809D01*
X212453659Y-87102904D01*
X212310801Y-87102904D01*
X212263182Y-87064809D01*
X212239373Y-87026714D01*
G04 #@! TO.C,R4*
X195943706Y-93371624D02*
X195777040Y-92990672D01*
X195657992Y-93371624D02*
X195657992Y-92571624D01*
X195848468Y-92571624D01*
X195896087Y-92609720D01*
X195919897Y-92647815D01*
X195943706Y-92724005D01*
X195943706Y-92838291D01*
X195919897Y-92914481D01*
X195896087Y-92952577D01*
X195848468Y-92990672D01*
X195657992Y-92990672D01*
X196372278Y-92838291D02*
X196372278Y-93371624D01*
X196253230Y-92533529D02*
X196134182Y-93104958D01*
X196443706Y-93104958D01*
G04 #@! TO.C,R5*
X186408586Y-106452624D02*
X186241920Y-106071672D01*
X186122872Y-106452624D02*
X186122872Y-105652624D01*
X186313348Y-105652624D01*
X186360967Y-105690720D01*
X186384777Y-105728815D01*
X186408586Y-105805005D01*
X186408586Y-105919291D01*
X186384777Y-105995481D01*
X186360967Y-106033577D01*
X186313348Y-106071672D01*
X186122872Y-106071672D01*
X186860967Y-105652624D02*
X186622872Y-105652624D01*
X186599062Y-106033577D01*
X186622872Y-105995481D01*
X186670491Y-105957386D01*
X186789539Y-105957386D01*
X186837158Y-105995481D01*
X186860967Y-106033577D01*
X186884777Y-106109767D01*
X186884777Y-106300243D01*
X186860967Y-106376434D01*
X186837158Y-106414529D01*
X186789539Y-106452624D01*
X186670491Y-106452624D01*
X186622872Y-106414529D01*
X186599062Y-106376434D01*
G04 #@! TO.C,R6*
X199365086Y-109109464D02*
X199198420Y-108728512D01*
X199079372Y-109109464D02*
X199079372Y-108309464D01*
X199269848Y-108309464D01*
X199317467Y-108347560D01*
X199341277Y-108385655D01*
X199365086Y-108461845D01*
X199365086Y-108576131D01*
X199341277Y-108652321D01*
X199317467Y-108690417D01*
X199269848Y-108728512D01*
X199079372Y-108728512D01*
X199793658Y-108309464D02*
X199698420Y-108309464D01*
X199650800Y-108347560D01*
X199626991Y-108385655D01*
X199579372Y-108499940D01*
X199555562Y-108652321D01*
X199555562Y-108957083D01*
X199579372Y-109033274D01*
X199603181Y-109071369D01*
X199650800Y-109109464D01*
X199746039Y-109109464D01*
X199793658Y-109071369D01*
X199817467Y-109033274D01*
X199841277Y-108957083D01*
X199841277Y-108766607D01*
X199817467Y-108690417D01*
X199793658Y-108652321D01*
X199746039Y-108614226D01*
X199650800Y-108614226D01*
X199603181Y-108652321D01*
X199579372Y-108690417D01*
X199555562Y-108766607D01*
G04 #@! TO.C,R7*
X189492106Y-96754904D02*
X189325440Y-96373952D01*
X189206392Y-96754904D02*
X189206392Y-95954904D01*
X189396868Y-95954904D01*
X189444487Y-95993000D01*
X189468297Y-96031095D01*
X189492106Y-96107285D01*
X189492106Y-96221571D01*
X189468297Y-96297761D01*
X189444487Y-96335857D01*
X189396868Y-96373952D01*
X189206392Y-96373952D01*
X189658773Y-95954904D02*
X189992106Y-95954904D01*
X189777820Y-96754904D01*
G04 #@! TO.C,U1*
X189588187Y-109879184D02*
X189588187Y-110526803D01*
X189611997Y-110602994D01*
X189635806Y-110641089D01*
X189683425Y-110679184D01*
X189778663Y-110679184D01*
X189826282Y-110641089D01*
X189850092Y-110602994D01*
X189873901Y-110526803D01*
X189873901Y-109879184D01*
X190373901Y-110679184D02*
X190088187Y-110679184D01*
X190231044Y-110679184D02*
X190231044Y-109879184D01*
X190183425Y-109993470D01*
X190135806Y-110069660D01*
X190088187Y-110107756D01*
G04 #@! TO.C,U4*
X197302167Y-101522584D02*
X197302167Y-102170203D01*
X197325977Y-102246394D01*
X197349786Y-102284489D01*
X197397405Y-102322584D01*
X197492643Y-102322584D01*
X197540262Y-102284489D01*
X197564072Y-102246394D01*
X197587881Y-102170203D01*
X197587881Y-101522584D01*
X198040262Y-101789251D02*
X198040262Y-102322584D01*
X197921215Y-101484489D02*
X197802167Y-102055918D01*
X198111691Y-102055918D01*
G04 #@! TO.C,Y1*
X202182732Y-99541935D02*
X202563684Y-99541935D01*
X201763684Y-99708601D02*
X202182732Y-99541935D01*
X201763684Y-99375268D01*
X202563684Y-98946697D02*
X202563684Y-99232411D01*
X202563684Y-99089554D02*
X201763684Y-99089554D01*
X201877970Y-99137173D01*
X201954160Y-99184792D01*
X201992256Y-99232411D01*
G04 #@! TO.C,J5*
X185039973Y-79963064D02*
X185039973Y-80534493D01*
X185016163Y-80648779D01*
X184968544Y-80724969D01*
X184897116Y-80763064D01*
X184849497Y-80763064D01*
X185516163Y-79963064D02*
X185278068Y-79963064D01*
X185254259Y-80344017D01*
X185278068Y-80305921D01*
X185325687Y-80267826D01*
X185444735Y-80267826D01*
X185492354Y-80305921D01*
X185516163Y-80344017D01*
X185539973Y-80420207D01*
X185539973Y-80610683D01*
X185516163Y-80686874D01*
X185492354Y-80724969D01*
X185444735Y-80763064D01*
X185325687Y-80763064D01*
X185278068Y-80724969D01*
X185254259Y-80686874D01*
G04 #@! TO.C,C2*
X210696026Y-88819954D02*
X210672217Y-88858049D01*
X210600788Y-88896144D01*
X210553169Y-88896144D01*
X210481740Y-88858049D01*
X210434121Y-88781859D01*
X210410312Y-88705668D01*
X210386502Y-88553287D01*
X210386502Y-88439001D01*
X210410312Y-88286620D01*
X210434121Y-88210430D01*
X210481740Y-88134240D01*
X210553169Y-88096144D01*
X210600788Y-88096144D01*
X210672217Y-88134240D01*
X210696026Y-88172335D01*
X210886502Y-88172335D02*
X210910312Y-88134240D01*
X210957931Y-88096144D01*
X211076979Y-88096144D01*
X211124598Y-88134240D01*
X211148407Y-88172335D01*
X211172217Y-88248525D01*
X211172217Y-88324716D01*
X211148407Y-88439001D01*
X210862693Y-88896144D01*
X211172217Y-88896144D01*
G04 #@! TO.C,C3*
X206380566Y-92741714D02*
X206356757Y-92779809D01*
X206285328Y-92817904D01*
X206237709Y-92817904D01*
X206166280Y-92779809D01*
X206118661Y-92703619D01*
X206094852Y-92627428D01*
X206071042Y-92475047D01*
X206071042Y-92360761D01*
X206094852Y-92208380D01*
X206118661Y-92132190D01*
X206166280Y-92056000D01*
X206237709Y-92017904D01*
X206285328Y-92017904D01*
X206356757Y-92056000D01*
X206380566Y-92094095D01*
X206547233Y-92017904D02*
X206856757Y-92017904D01*
X206690090Y-92322666D01*
X206761519Y-92322666D01*
X206809138Y-92360761D01*
X206832947Y-92398857D01*
X206856757Y-92475047D01*
X206856757Y-92665523D01*
X206832947Y-92741714D01*
X206809138Y-92779809D01*
X206761519Y-92817904D01*
X206618661Y-92817904D01*
X206571042Y-92779809D01*
X206547233Y-92741714D01*
G04 #@! TO.C,U2*
X203575967Y-87252864D02*
X203575967Y-87900483D01*
X203599777Y-87976674D01*
X203623586Y-88014769D01*
X203671205Y-88052864D01*
X203766443Y-88052864D01*
X203814062Y-88014769D01*
X203837872Y-87976674D01*
X203861681Y-87900483D01*
X203861681Y-87252864D01*
X204075967Y-87329055D02*
X204099777Y-87290960D01*
X204147396Y-87252864D01*
X204266443Y-87252864D01*
X204314062Y-87290960D01*
X204337872Y-87329055D01*
X204361681Y-87405245D01*
X204361681Y-87481436D01*
X204337872Y-87595721D01*
X204052158Y-88052864D01*
X204361681Y-88052864D01*
G04 #@! TO.C,C8*
X187902066Y-88571034D02*
X187878257Y-88609129D01*
X187806828Y-88647224D01*
X187759209Y-88647224D01*
X187687780Y-88609129D01*
X187640161Y-88532939D01*
X187616352Y-88456748D01*
X187592542Y-88304367D01*
X187592542Y-88190081D01*
X187616352Y-88037700D01*
X187640161Y-87961510D01*
X187687780Y-87885320D01*
X187759209Y-87847224D01*
X187806828Y-87847224D01*
X187878257Y-87885320D01*
X187902066Y-87923415D01*
X188187780Y-88190081D02*
X188140161Y-88151986D01*
X188116352Y-88113891D01*
X188092542Y-88037700D01*
X188092542Y-87999605D01*
X188116352Y-87923415D01*
X188140161Y-87885320D01*
X188187780Y-87847224D01*
X188283019Y-87847224D01*
X188330638Y-87885320D01*
X188354447Y-87923415D01*
X188378257Y-87999605D01*
X188378257Y-88037700D01*
X188354447Y-88113891D01*
X188330638Y-88151986D01*
X188283019Y-88190081D01*
X188187780Y-88190081D01*
X188140161Y-88228177D01*
X188116352Y-88266272D01*
X188092542Y-88342462D01*
X188092542Y-88494843D01*
X188116352Y-88571034D01*
X188140161Y-88609129D01*
X188187780Y-88647224D01*
X188283019Y-88647224D01*
X188330638Y-88609129D01*
X188354447Y-88571034D01*
X188378257Y-88494843D01*
X188378257Y-88342462D01*
X188354447Y-88266272D01*
X188330638Y-88228177D01*
X188283019Y-88190081D01*
G04 #@! TO.C,C9*
X185834506Y-88621834D02*
X185810697Y-88659929D01*
X185739268Y-88698024D01*
X185691649Y-88698024D01*
X185620220Y-88659929D01*
X185572601Y-88583739D01*
X185548792Y-88507548D01*
X185524982Y-88355167D01*
X185524982Y-88240881D01*
X185548792Y-88088500D01*
X185572601Y-88012310D01*
X185620220Y-87936120D01*
X185691649Y-87898024D01*
X185739268Y-87898024D01*
X185810697Y-87936120D01*
X185834506Y-87974215D01*
X186072601Y-88698024D02*
X186167840Y-88698024D01*
X186215459Y-88659929D01*
X186239268Y-88621834D01*
X186286887Y-88507548D01*
X186310697Y-88355167D01*
X186310697Y-88050405D01*
X186286887Y-87974215D01*
X186263078Y-87936120D01*
X186215459Y-87898024D01*
X186120220Y-87898024D01*
X186072601Y-87936120D01*
X186048792Y-87974215D01*
X186024982Y-88050405D01*
X186024982Y-88240881D01*
X186048792Y-88317072D01*
X186072601Y-88355167D01*
X186120220Y-88393262D01*
X186215459Y-88393262D01*
X186263078Y-88355167D01*
X186286887Y-88317072D01*
X186310697Y-88240881D01*
G04 #@! TD*
M02*
