M48
;DRILL file {KiCad 5.0.0-fee4fd1~66~ubuntu16.04.1} date Mon Feb 25 08:40:43 2019
;FORMAT={-:-/ absolute / inch / decimal}
FMAT,2
INCH,TZ
T1C0.0120
T2C0.0236
T3C0.0335
%
G90
G05
M72
T1
X7.2842Y-3.4726
X7.3346Y-4.3824
X7.3606Y-3.4724
X7.3989Y-3.1819
X7.4306Y-3.15
X7.4564Y-3.5384
X7.472Y-3.956
X7.4852Y-3.2756
X7.4874Y-3.224
X7.4974Y-3.1572
X7.5018Y-3.5666
X7.51Y-3.3932
X7.525Y-3.2528
X7.5317Y-3.5366
X7.5338Y-3.1908
X7.6092Y-3.6824
X7.612Y-3.3552
X7.6164Y-3.6533
X7.6374Y-3.4102
X7.647Y-3.3546
X7.6718Y-3.971
X7.6748Y-4.3884
X7.6825Y-3.7143
X7.6844Y-3.6834
X7.688Y-3.193
X7.692Y-3.028
X7.6936Y-3.3066
X7.7032Y-3.5506
X7.7088Y-3.1582
X7.7094Y-3.2612
X7.7234Y-3.361
X7.7254Y-3.5792
X7.7444Y-3.3238
X7.7446Y-4.2964
X7.7628Y-3.1552
X7.7776Y-3.4782
X7.785Y-3.2158
X7.7908Y-3.5712
X7.8228Y-3.4436
X7.8364Y-3.2292
X7.8512Y-4.297
X7.8678Y-3.872
X7.8818Y-4.069
X7.8832Y-3.0124
X7.889Y-3.9458
X7.8902Y-4.0096
X7.922Y-3.1506
X7.9332Y-3.3654
X7.9346Y-3.8116
X7.9434Y-4.1318
X7.9674Y-3.231
X7.974Y-3.326
X8.017Y-3.1906
X8.0854Y-3.3926
X8.0918Y-4.1064
X8.1346Y-3.6602
X8.157Y-4.2932
X8.1682Y-3.728
X8.2046Y-3.7932
X8.2098Y-3.2438
X8.2182Y-3.6646
X8.2596Y-3.548
X8.2606Y-3.6364
X8.3284Y-3.433
T3
X7.3563Y-3.1017
X7.5531Y-3.1017
T2
X7.3169Y-3.0092G85X7.3169Y-2.9816
G05
X7.5925Y-2.9816G85X7.5925Y-3.0092
G05
T0
M30
