G04 #@! TF.GenerationSoftware,KiCad,Pcbnew,5.0.0-fee4fd1~66~ubuntu16.04.1*
G04 #@! TF.CreationDate,2019-02-25T08:40:39-05:00*
G04 #@! TF.ProjectId,circuit,636972637569742E6B696361645F7063,rev?*
G04 #@! TF.SameCoordinates,Original*
G04 #@! TF.FileFunction,Copper,L1,Top,Signal*
G04 #@! TF.FilePolarity,Positive*
%FSLAX46Y46*%
G04 Gerber Fmt 4.6, Leading zero omitted, Abs format (unit mm)*
G04 Created by KiCad (PCBNEW 5.0.0-fee4fd1~66~ubuntu16.04.1) date Mon Feb 25 08:40:39 2019*
%MOMM*%
%LPD*%
G01*
G04 APERTURE LIST*
G04 #@! TA.AperFunction,SMDPad,CuDef*
%ADD10R,1.145000X0.550000*%
G04 #@! TD*
G04 #@! TA.AperFunction,SMDPad,CuDef*
%ADD11R,0.550000X1.145000*%
G04 #@! TD*
G04 #@! TA.AperFunction,SMDPad,CuDef*
%ADD12R,1.250000X1.000000*%
G04 #@! TD*
G04 #@! TA.AperFunction,SMDPad,CuDef*
%ADD13R,1.000000X1.250000*%
G04 #@! TD*
G04 #@! TA.AperFunction,SMDPad,CuDef*
%ADD14R,1.200000X1.200000*%
G04 #@! TD*
G04 #@! TA.AperFunction,SMDPad,CuDef*
%ADD15R,1.000000X3.500000*%
G04 #@! TD*
G04 #@! TA.AperFunction,SMDPad,CuDef*
%ADD16R,1.500000X3.400000*%
G04 #@! TD*
G04 #@! TA.AperFunction,SMDPad,CuDef*
%ADD17R,1.300000X0.700000*%
G04 #@! TD*
G04 #@! TA.AperFunction,SMDPad,CuDef*
%ADD18R,0.700000X1.300000*%
G04 #@! TD*
G04 #@! TA.AperFunction,SMDPad,CuDef*
%ADD19R,1.400000X1.500000*%
G04 #@! TD*
G04 #@! TA.AperFunction,SMDPad,CuDef*
%ADD20R,1.600000X0.550000*%
G04 #@! TD*
G04 #@! TA.AperFunction,SMDPad,CuDef*
%ADD21R,0.550000X1.600000*%
G04 #@! TD*
G04 #@! TA.AperFunction,SMDPad,CuDef*
%ADD22R,1.200000X1.400000*%
G04 #@! TD*
G04 #@! TA.AperFunction,SMDPad,CuDef*
%ADD23R,1.200000X1.900000*%
G04 #@! TD*
G04 #@! TA.AperFunction,ComponentPad*
%ADD24O,1.200000X1.900000*%
G04 #@! TD*
G04 #@! TA.AperFunction,SMDPad,CuDef*
%ADD25R,1.500000X1.900000*%
G04 #@! TD*
G04 #@! TA.AperFunction,ComponentPad*
%ADD26C,1.450000*%
G04 #@! TD*
G04 #@! TA.AperFunction,SMDPad,CuDef*
%ADD27R,0.400000X1.350000*%
G04 #@! TD*
G04 #@! TA.AperFunction,SMDPad,CuDef*
%ADD28R,2.000000X1.500000*%
G04 #@! TD*
G04 #@! TA.AperFunction,SMDPad,CuDef*
%ADD29R,2.000000X3.800000*%
G04 #@! TD*
G04 #@! TA.AperFunction,ViaPad*
%ADD30C,0.609600*%
G04 #@! TD*
G04 #@! TA.AperFunction,Conductor*
%ADD31C,0.508000*%
G04 #@! TD*
G04 #@! TA.AperFunction,Conductor*
%ADD32C,0.381000*%
G04 #@! TD*
G04 #@! TA.AperFunction,Conductor*
%ADD33C,0.254000*%
G04 #@! TD*
G04 #@! TA.AperFunction,Conductor*
%ADD34C,0.152400*%
G04 #@! TD*
G04 APERTURE END LIST*
D10*
G04 #@! TO.P,U3,6*
G04 #@! TO.N,VCC*
X189643800Y-88428580D03*
G04 #@! TO.P,U3,1*
X189643800Y-84428580D03*
G04 #@! TO.P,U3,5*
G04 #@! TO.N,GND*
X189643800Y-87628580D03*
G04 #@! TO.P,U3,2*
X189643800Y-85228580D03*
G04 #@! TO.P,U3,13*
G04 #@! TO.N,/miso*
X191838800Y-84428580D03*
G04 #@! TO.P,U3,12*
G04 #@! TO.N,/mosi*
X191838800Y-85228580D03*
G04 #@! TO.P,U3,8*
G04 #@! TO.N,/INT1*
X191838800Y-88428580D03*
G04 #@! TO.P,U3,9*
G04 #@! TO.N,/INT2*
X191838800Y-87628580D03*
G04 #@! TO.P,U3,*
G04 #@! TO.N,*
X189643800Y-86028580D03*
G04 #@! TO.P,U3,4*
G04 #@! TO.N,GND*
X189643800Y-86828580D03*
G04 #@! TO.P,U3,*
G04 #@! TO.N,*
X191838800Y-86028580D03*
X191838800Y-86828580D03*
D11*
G04 #@! TO.P,U3,14*
G04 #@! TO.N,/sck*
X190741300Y-84331080D03*
G04 #@! TO.P,U3,7*
G04 #@! TO.N,/Slave_Select*
X190741300Y-88526080D03*
G04 #@! TD*
D12*
G04 #@! TO.P,C1,1*
G04 #@! TO.N,VCC*
X193987420Y-108022640D03*
G04 #@! TO.P,C1,2*
G04 #@! TO.N,GND*
X193987420Y-110022640D03*
G04 #@! TD*
G04 #@! TO.P,C4,2*
G04 #@! TO.N,GND*
X207627220Y-97818700D03*
G04 #@! TO.P,C4,1*
G04 #@! TO.N,Net-(C4-Pad1)*
X207627220Y-99818700D03*
G04 #@! TD*
D13*
G04 #@! TO.P,C5,1*
G04 #@! TO.N,Net-(C5-Pad1)*
X204005940Y-95410020D03*
G04 #@! TO.P,C5,2*
G04 #@! TO.N,GND*
X206005940Y-95410020D03*
G04 #@! TD*
D12*
G04 #@! TO.P,C6,2*
G04 #@! TO.N,GND*
X191117220Y-101068380D03*
G04 #@! TO.P,C6,1*
G04 #@! TO.N,Net-(C6-Pad1)*
X191117220Y-99068380D03*
G04 #@! TD*
G04 #@! TO.P,C7,1*
G04 #@! TO.N,GND*
X204099160Y-103572060D03*
G04 #@! TO.P,C7,2*
G04 #@! TO.N,VCC*
X204099160Y-101572060D03*
G04 #@! TD*
D14*
G04 #@! TO.P,D1,1*
G04 #@! TO.N,GND*
X198948400Y-76248260D03*
G04 #@! TO.P,D1,2*
G04 #@! TO.N,Net-(D1-Pad2)*
X196748400Y-76248260D03*
G04 #@! TD*
G04 #@! TO.P,D2,2*
G04 #@! TO.N,/P_LED_1*
X205173580Y-109816720D03*
G04 #@! TO.P,D2,1*
G04 #@! TO.N,Net-(D2-Pad1)*
X205173580Y-112016720D03*
G04 #@! TD*
G04 #@! TO.P,D3,2*
G04 #@! TO.N,VCC*
X211528660Y-79651500D03*
G04 #@! TO.P,D3,1*
G04 #@! TO.N,Net-(D3-Pad1)*
X211528660Y-81851500D03*
G04 #@! TD*
D15*
G04 #@! TO.P,J1,1*
G04 #@! TO.N,/Battery+*
X207116680Y-82344260D03*
G04 #@! TO.P,J1,2*
G04 #@! TO.N,GND*
X205116680Y-82344260D03*
D16*
G04 #@! TO.P,J1,*
G04 #@! TO.N,*
X209466680Y-76794260D03*
X202766680Y-76794260D03*
G04 #@! TD*
D17*
G04 #@! TO.P,R1,1*
G04 #@! TO.N,GND*
X207180180Y-110368040D03*
G04 #@! TO.P,R1,2*
G04 #@! TO.N,Net-(D2-Pad1)*
X207180180Y-112268040D03*
G04 #@! TD*
D18*
G04 #@! TO.P,R2,1*
G04 #@! TO.N,/cardIN*
X198750000Y-78315820D03*
G04 #@! TO.P,R2,2*
G04 #@! TO.N,Net-(D1-Pad2)*
X196850000Y-78315820D03*
G04 #@! TD*
D17*
G04 #@! TO.P,R3,2*
G04 #@! TO.N,Net-(D3-Pad1)*
X211576920Y-83550720D03*
G04 #@! TO.P,R3,1*
G04 #@! TO.N,GND*
X211576920Y-85450720D03*
G04 #@! TD*
G04 #@! TO.P,R4,1*
G04 #@! TO.N,/cardIN*
X197464680Y-93847960D03*
G04 #@! TO.P,R4,2*
G04 #@! TO.N,GND*
X197464680Y-91947960D03*
G04 #@! TD*
D18*
G04 #@! TO.P,R5,2*
G04 #@! TO.N,/Neopix*
X189725380Y-106011980D03*
G04 #@! TO.P,R5,1*
G04 #@! TO.N,Net-(R5-Pad1)*
X187825380Y-106011980D03*
G04 #@! TD*
G04 #@! TO.P,R6,2*
G04 #@! TO.N,VCC*
X200367940Y-107188000D03*
G04 #@! TO.P,R6,1*
G04 #@! TO.N,/RESET*
X198467940Y-107188000D03*
G04 #@! TD*
D17*
G04 #@! TO.P,R7,1*
G04 #@! TO.N,VCC*
X191114680Y-95595400D03*
G04 #@! TO.P,R7,2*
G04 #@! TO.N,Net-(C6-Pad1)*
X191114680Y-97495400D03*
G04 #@! TD*
D19*
G04 #@! TO.P,U1,1*
G04 #@! TO.N,VCC*
X191843820Y-108157920D03*
G04 #@! TO.P,U1,2*
G04 #@! TO.N,Net-(R5-Pad1)*
X188043820Y-108157920D03*
G04 #@! TO.P,U1,4*
G04 #@! TO.N,Net-(U1-Pad4)*
X191843820Y-112557920D03*
G04 #@! TO.P,U1,3*
G04 #@! TO.N,GND*
X188043820Y-112557920D03*
G04 #@! TD*
D20*
G04 #@! TO.P,U4,1*
G04 #@! TO.N,Net-(U4-Pad1)*
X201856920Y-103556720D03*
G04 #@! TO.P,U4,2*
G04 #@! TO.N,Net-(U4-Pad2)*
X201856920Y-102756720D03*
G04 #@! TO.P,U4,3*
G04 #@! TO.N,GND*
X201856920Y-101956720D03*
G04 #@! TO.P,U4,4*
G04 #@! TO.N,VCC*
X201856920Y-101156720D03*
G04 #@! TO.P,U4,5*
G04 #@! TO.N,GND*
X201856920Y-100356720D03*
G04 #@! TO.P,U4,6*
G04 #@! TO.N,VCC*
X201856920Y-99556720D03*
G04 #@! TO.P,U4,7*
G04 #@! TO.N,Net-(C4-Pad1)*
X201856920Y-98756720D03*
G04 #@! TO.P,U4,8*
G04 #@! TO.N,Net-(C5-Pad1)*
X201856920Y-97956720D03*
D21*
G04 #@! TO.P,U4,9*
G04 #@! TO.N,Net-(U4-Pad9)*
X200406920Y-96506720D03*
G04 #@! TO.P,U4,10*
G04 #@! TO.N,Net-(U4-Pad10)*
X199606920Y-96506720D03*
G04 #@! TO.P,U4,11*
G04 #@! TO.N,/SD_Select*
X198806920Y-96506720D03*
G04 #@! TO.P,U4,12*
G04 #@! TO.N,/cardIN*
X198006920Y-96506720D03*
G04 #@! TO.P,U4,13*
G04 #@! TO.N,/INT2*
X197206920Y-96506720D03*
G04 #@! TO.P,U4,14*
G04 #@! TO.N,/INT1*
X196406920Y-96506720D03*
G04 #@! TO.P,U4,15*
G04 #@! TO.N,/mosi*
X195606920Y-96506720D03*
G04 #@! TO.P,U4,16*
G04 #@! TO.N,/miso*
X194806920Y-96506720D03*
D20*
G04 #@! TO.P,U4,17*
G04 #@! TO.N,/sck*
X193356920Y-97956720D03*
G04 #@! TO.P,U4,18*
G04 #@! TO.N,Net-(C6-Pad1)*
X193356920Y-98756720D03*
G04 #@! TO.P,U4,19*
G04 #@! TO.N,Net-(U4-Pad19)*
X193356920Y-99556720D03*
G04 #@! TO.P,U4,20*
G04 #@! TO.N,Net-(U4-Pad20)*
X193356920Y-100356720D03*
G04 #@! TO.P,U4,21*
G04 #@! TO.N,GND*
X193356920Y-101156720D03*
G04 #@! TO.P,U4,22*
G04 #@! TO.N,Net-(U4-Pad22)*
X193356920Y-101956720D03*
G04 #@! TO.P,U4,23*
G04 #@! TO.N,Net-(U4-Pad23)*
X193356920Y-102756720D03*
G04 #@! TO.P,U4,24*
G04 #@! TO.N,/Slave_Select*
X193356920Y-103556720D03*
D21*
G04 #@! TO.P,U4,25*
G04 #@! TO.N,Net-(U4-Pad25)*
X194806920Y-105006720D03*
G04 #@! TO.P,U4,26*
G04 #@! TO.N,/Neopix*
X195606920Y-105006720D03*
G04 #@! TO.P,U4,27*
G04 #@! TO.N,/P_LED_1*
X196406920Y-105006720D03*
G04 #@! TO.P,U4,28*
G04 #@! TO.N,Net-(U4-Pad28)*
X197206920Y-105006720D03*
G04 #@! TO.P,U4,29*
G04 #@! TO.N,/RESET*
X198006920Y-105006720D03*
G04 #@! TO.P,U4,30*
G04 #@! TO.N,Net-(U4-Pad30)*
X198806920Y-105006720D03*
G04 #@! TO.P,U4,31*
G04 #@! TO.N,Net-(U4-Pad31)*
X199606920Y-105006720D03*
G04 #@! TO.P,U4,32*
G04 #@! TO.N,Net-(U4-Pad32)*
X200406920Y-105006720D03*
G04 #@! TD*
D22*
G04 #@! TO.P,Y1,1*
G04 #@! TO.N,Net-(C4-Pad1)*
X205663700Y-99728200D03*
G04 #@! TO.P,Y1,2*
G04 #@! TO.N,GND*
X205663700Y-97528200D03*
G04 #@! TO.P,Y1,3*
G04 #@! TO.N,Net-(C5-Pad1)*
X204063700Y-97528200D03*
G04 #@! TO.P,Y1,4*
G04 #@! TO.N,GND*
X204063700Y-99728200D03*
G04 #@! TD*
D23*
G04 #@! TO.P,J5,6*
G04 #@! TO.N,GND*
X192249380Y-76083680D03*
X186449380Y-76083680D03*
D24*
X185849380Y-76083680D03*
X192849380Y-76083680D03*
D25*
X190349380Y-76083680D03*
D26*
X186849380Y-78783680D03*
D27*
G04 #@! TO.P,J5,3*
G04 #@! TO.N,/miso*
X189349380Y-78783680D03*
G04 #@! TO.P,J5,4*
G04 #@! TO.N,/RESET*
X188699380Y-78783680D03*
G04 #@! TO.P,J5,5*
G04 #@! TO.N,/mosi*
X188049380Y-78783680D03*
G04 #@! TO.P,J5,1*
G04 #@! TO.N,VCC*
X190649380Y-78783680D03*
G04 #@! TO.P,J5,2*
G04 #@! TO.N,/sck*
X189999380Y-78783680D03*
D26*
G04 #@! TO.P,J5,6*
G04 #@! TO.N,GND*
X191849380Y-78783680D03*
D25*
X188349380Y-76083680D03*
G04 #@! TD*
D12*
G04 #@! TO.P,C2,1*
G04 #@! TO.N,/Battery+*
X209494120Y-85248240D03*
G04 #@! TO.P,C2,2*
G04 #@! TO.N,GND*
X209494120Y-87248240D03*
G04 #@! TD*
D13*
G04 #@! TO.P,C3,2*
G04 #@! TO.N,GND*
X204819760Y-92458540D03*
G04 #@! TO.P,C3,1*
G04 #@! TO.N,VCC*
X202819760Y-92458540D03*
G04 #@! TD*
D28*
G04 #@! TO.P,U2,1*
G04 #@! TO.N,GND*
X207132320Y-90074780D03*
G04 #@! TO.P,U2,3*
G04 #@! TO.N,/Battery+*
X207132320Y-85474780D03*
G04 #@! TO.P,U2,2*
G04 #@! TO.N,VCC*
X207132320Y-87774780D03*
D29*
G04 #@! TO.P,U2,4*
X200832320Y-87774780D03*
G04 #@! TD*
D12*
G04 #@! TO.P,C8,1*
G04 #@! TO.N,VCC*
X187756800Y-84437980D03*
G04 #@! TO.P,C8,2*
G04 #@! TO.N,GND*
X187756800Y-86437980D03*
G04 #@! TD*
G04 #@! TO.P,C9,2*
G04 #@! TO.N,GND*
X185722260Y-86440520D03*
G04 #@! TO.P,C9,1*
G04 #@! TO.N,VCC*
X185722260Y-84440520D03*
G04 #@! TD*
D30*
G04 #@! TO.N,GND*
X185018680Y-88204040D03*
X186959240Y-88198960D03*
X211541360Y-87198200D03*
X206618840Y-92969080D03*
X208742280Y-93080840D03*
X209819240Y-92364560D03*
X209793840Y-90119200D03*
X203631800Y-81041240D03*
X202371960Y-82067400D03*
X202539600Y-84480400D03*
X207472280Y-94691200D03*
X208396840Y-96347280D03*
X205531720Y-104302560D03*
X207187800Y-109047280D03*
X194863720Y-100863400D03*
X194939920Y-111465360D03*
X186298840Y-111312960D03*
X197886320Y-90708480D03*
X200380600Y-100223320D03*
X200411080Y-101843840D03*
X189788800Y-100482400D03*
X200233280Y-76514960D03*
G04 #@! TO.N,/miso*
X193988709Y-86620331D03*
X194233800Y-85206840D03*
X201218800Y-80025240D03*
G04 #@! TO.N,/sck*
X190178709Y-81890851D03*
X190433801Y-80193039D03*
X195376800Y-76911200D03*
X190754000Y-86187280D03*
X191305400Y-89829640D03*
G04 #@! TO.N,/mosi*
X193344800Y-85222080D03*
X191135000Y-82621120D03*
X195417440Y-83987640D03*
X197175120Y-80142080D03*
G04 #@! TO.N,/RESET*
X188737240Y-80010000D03*
X187930809Y-80821511D03*
G04 #@! TO.N,/cardIN*
X195661280Y-90185240D03*
X197739000Y-81681320D03*
X196174360Y-85369400D03*
G04 #@! TO.N,/SD_Select*
X196707760Y-84424520D03*
X195817509Y-82833229D03*
X195803520Y-80218280D03*
G04 #@! TO.N,/INT2*
X195183760Y-93558360D03*
X193456560Y-92793230D03*
G04 #@! TO.N,/INT1*
X195135500Y-94343220D03*
X193273680Y-93532960D03*
G04 #@! TO.N,VCC*
X205369160Y-86172040D03*
X208528920Y-82392520D03*
X196712840Y-109128560D03*
X199420480Y-109143800D03*
X198699120Y-87467440D03*
X197551040Y-88346280D03*
X196225160Y-90911680D03*
X189392448Y-89875248D03*
X201503280Y-85481160D03*
X190124080Y-83200240D03*
X191358520Y-81046320D03*
X190545720Y-90591641D03*
X195275200Y-81102200D03*
X201538840Y-96814640D03*
X199842120Y-98348800D03*
X200197720Y-103352600D03*
X201762360Y-104947720D03*
X199044560Y-82021680D03*
G04 #@! TD*
D31*
G04 #@! TO.N,GND*
X187754260Y-86440520D02*
X187756800Y-86437980D01*
X185722260Y-86440520D02*
X187754260Y-86440520D01*
X189643800Y-86828580D02*
X189643800Y-87628580D01*
D32*
X193268580Y-101068380D02*
X193356920Y-101156720D01*
X191117220Y-101068380D02*
X193268580Y-101068380D01*
X185722260Y-87500460D02*
X185018680Y-88204040D01*
X185722260Y-86440520D02*
X185722260Y-87500460D01*
X187756800Y-87401400D02*
X186959240Y-88198960D01*
X187756800Y-86437980D02*
X187756800Y-87401400D01*
D33*
X210373120Y-87248240D02*
X209494120Y-87248240D01*
X210383400Y-87248240D02*
X210373120Y-87248240D01*
X211576920Y-86054720D02*
X210383400Y-87248240D01*
X211576920Y-85450720D02*
X211576920Y-86054720D01*
X209494120Y-87248240D02*
X209494120Y-87751920D01*
X211576920Y-87162640D02*
X211541360Y-87198200D01*
X211576920Y-85450720D02*
X211576920Y-87162640D01*
X206108300Y-92458540D02*
X206618840Y-92969080D01*
X204819760Y-92458540D02*
X206108300Y-92458540D01*
X209102960Y-93080840D02*
X209819240Y-92364560D01*
X208742280Y-93080840D02*
X209102960Y-93080840D01*
X209793840Y-87547960D02*
X209494120Y-87248240D01*
X209793840Y-90119200D02*
X209793840Y-87547960D01*
X204934820Y-82344260D02*
X203631800Y-81041240D01*
X205116680Y-82344260D02*
X204934820Y-82344260D01*
X202371960Y-84312760D02*
X202539600Y-84480400D01*
X202371960Y-82067400D02*
X202371960Y-84312760D01*
X205573760Y-92458540D02*
X206005940Y-92890720D01*
X206005940Y-92890720D02*
X206005940Y-95410020D01*
X204819760Y-92458540D02*
X205573760Y-92458540D01*
X206005940Y-97185960D02*
X205663700Y-97528200D01*
X206005940Y-95410020D02*
X206005940Y-97185960D01*
X205954200Y-97818700D02*
X205663700Y-97528200D01*
X207627220Y-97818700D02*
X205954200Y-97818700D01*
X206753460Y-95410020D02*
X207472280Y-94691200D01*
X206005940Y-95410020D02*
X206753460Y-95410020D01*
X207627220Y-97116900D02*
X208396840Y-96347280D01*
X207627220Y-97818700D02*
X207627220Y-97116900D01*
D34*
X204063700Y-99728200D02*
X204020240Y-99728200D01*
X203391720Y-100356720D02*
X201856920Y-100356720D01*
X204020240Y-99728200D02*
X203391720Y-100356720D01*
X202809320Y-101956720D02*
X201856920Y-101956720D01*
X202885521Y-102032921D02*
X202809320Y-101956720D01*
X202885521Y-102483421D02*
X202885521Y-102032921D01*
X203974160Y-103572060D02*
X202885521Y-102483421D01*
X204099160Y-103572060D02*
X203974160Y-103572060D01*
X204876560Y-103572060D02*
X205531720Y-104227220D01*
X205531720Y-104227220D02*
X205531720Y-104302560D01*
X204099160Y-103572060D02*
X204876560Y-103572060D01*
X207180180Y-109054900D02*
X207187800Y-109047280D01*
X207180180Y-110368040D02*
X207180180Y-109054900D01*
X194570400Y-101156720D02*
X194863720Y-100863400D01*
X193356920Y-101156720D02*
X194570400Y-101156720D01*
X194777740Y-111465360D02*
X194939920Y-111465360D01*
X193987420Y-110675040D02*
X194777740Y-111465360D01*
X193987420Y-110022640D02*
X193987420Y-110675040D01*
D32*
X187543800Y-112557920D02*
X186298840Y-111312960D01*
X188043820Y-112557920D02*
X187543800Y-112557920D01*
D34*
X187446980Y-76083680D02*
X186449380Y-76083680D01*
X188349380Y-76083680D02*
X187446980Y-76083680D01*
X191251780Y-76083680D02*
X192249380Y-76083680D01*
X190349380Y-76083680D02*
X191251780Y-76083680D01*
X188349380Y-76083680D02*
X190349380Y-76083680D01*
X197464680Y-91130120D02*
X197886320Y-90708480D01*
X197464680Y-91947960D02*
X197464680Y-91130120D01*
X200514000Y-100356720D02*
X200380600Y-100223320D01*
X201856920Y-100356720D02*
X200514000Y-100356720D01*
X200523960Y-101956720D02*
X200411080Y-101843840D01*
X201856920Y-101956720D02*
X200523960Y-101956720D01*
X189788800Y-100517360D02*
X189788800Y-100482400D01*
X190339820Y-101068380D02*
X189788800Y-100517360D01*
X191117220Y-101068380D02*
X190339820Y-101068380D01*
X199966580Y-76248260D02*
X200233280Y-76514960D01*
X198948400Y-76248260D02*
X199966580Y-76248260D01*
X187756800Y-86437980D02*
X188027820Y-86437980D01*
X188418420Y-86828580D02*
X189643800Y-86828580D01*
X188027820Y-86437980D02*
X188418420Y-86828580D01*
X188918900Y-85228580D02*
X189643800Y-85228580D01*
X187756800Y-86309200D02*
X188837420Y-85228580D01*
X188837420Y-85228580D02*
X188918900Y-85228580D01*
X187756800Y-86437980D02*
X187756800Y-86309200D01*
D31*
G04 #@! TO.N,/Battery+*
X207116680Y-85459140D02*
X207132320Y-85474780D01*
X207116680Y-82344260D02*
X207116680Y-85459140D01*
X209267580Y-85474780D02*
X209494120Y-85248240D01*
X207132320Y-85474780D02*
X209267580Y-85474780D01*
D34*
G04 #@! TO.N,Net-(D1-Pad2)*
X196850000Y-76349860D02*
X196748400Y-76248260D01*
X196850000Y-78315820D02*
X196850000Y-76349860D01*
G04 #@! TO.N,Net-(D2-Pad1)*
X206928860Y-112016720D02*
X207180180Y-112268040D01*
X205173580Y-112016720D02*
X206928860Y-112016720D01*
G04 #@! TO.N,/P_LED_1*
X205173580Y-109816720D02*
X198157920Y-109816720D01*
X196406920Y-108065720D02*
X196406920Y-105006720D01*
X198157920Y-109816720D02*
X196406920Y-108065720D01*
D33*
G04 #@! TO.N,Net-(D3-Pad1)*
X211528660Y-83502460D02*
X211576920Y-83550720D01*
X211528660Y-81851500D02*
X211528660Y-83502460D01*
D34*
G04 #@! TO.N,/miso*
X189349380Y-79862960D02*
X189349380Y-78783680D01*
X191838800Y-82352380D02*
X189349380Y-79862960D01*
X191838800Y-84428580D02*
X191838800Y-82352380D01*
X193989961Y-92537197D02*
X193988709Y-92535945D01*
X193988709Y-92535945D02*
X193988709Y-86620331D01*
X193989961Y-93049263D02*
X193989961Y-92537197D01*
X194806920Y-95451304D02*
X193988709Y-94633093D01*
X194806920Y-96506720D02*
X194806920Y-95451304D01*
X193988709Y-94633093D02*
X193988709Y-93050515D01*
X193988709Y-93050515D02*
X193989961Y-93049263D01*
X192563700Y-84428580D02*
X191838800Y-84428580D01*
X193340734Y-84428580D02*
X192563700Y-84428580D01*
X193814195Y-84902041D02*
X193340734Y-84428580D01*
X193929001Y-84902041D02*
X193814195Y-84902041D01*
X194233800Y-85206840D02*
X193929001Y-84902041D01*
X194987674Y-85206840D02*
X197850760Y-82343754D01*
X194233800Y-85206840D02*
X194987674Y-85206840D01*
X197850760Y-82343754D02*
X197850760Y-82331560D01*
X200157080Y-80025240D02*
X201218800Y-80025240D01*
X197850760Y-82331560D02*
X200157080Y-80025240D01*
G04 #@! TO.N,/sck*
X190178709Y-82454263D02*
X190178709Y-81890851D01*
X190741300Y-83016854D02*
X190178709Y-82454263D01*
X190741300Y-84331080D02*
X190741300Y-83016854D01*
X189999380Y-79758618D02*
X189999380Y-78783680D01*
X190433801Y-80193039D02*
X189999380Y-79758618D01*
X189999380Y-78147198D02*
X190564818Y-77581760D01*
X189999380Y-78783680D02*
X189999380Y-78147198D01*
X190564818Y-77581760D02*
X193741040Y-77581760D01*
X194411600Y-76911200D02*
X195376800Y-76911200D01*
X193741040Y-77581760D02*
X194411600Y-76911200D01*
X193356920Y-97529320D02*
X193356920Y-97956720D01*
X193356920Y-94860800D02*
X193356920Y-97529320D01*
X191305400Y-92809280D02*
X193356920Y-94860800D01*
X191305400Y-89829640D02*
X191305400Y-92809280D01*
X190754000Y-84343780D02*
X190741300Y-84331080D01*
X190754000Y-86187280D02*
X190754000Y-84343780D01*
G04 #@! TO.N,/mosi*
X193338300Y-85228580D02*
X193344800Y-85222080D01*
X191838800Y-85228580D02*
X193338300Y-85228580D01*
X190830201Y-82316321D02*
X190830201Y-81788001D01*
X191135000Y-82621120D02*
X190830201Y-82316321D01*
X190830201Y-81788001D02*
X189616080Y-80573880D01*
X189616080Y-80573880D02*
X188437520Y-80573880D01*
X188049380Y-80185740D02*
X188049380Y-78783680D01*
X188437520Y-80573880D02*
X188049380Y-80185740D01*
X195606920Y-95820238D02*
X194599560Y-94812878D01*
X195606920Y-96506720D02*
X195606920Y-95820238D01*
X194599560Y-86476840D02*
X193344800Y-85222080D01*
X194599560Y-94812878D02*
X194599560Y-86476840D01*
X195417440Y-83987640D02*
X196895720Y-82509360D01*
X196895720Y-82509360D02*
X196895720Y-82504280D01*
X197175120Y-82224880D02*
X197175120Y-80142080D01*
X196895720Y-82504280D02*
X197175120Y-82224880D01*
G04 #@! TO.N,/RESET*
X198006920Y-106726980D02*
X198467940Y-107188000D01*
X198006920Y-105006720D02*
X198006920Y-106726980D01*
X188699380Y-79972140D02*
X188737240Y-80010000D01*
X188699380Y-78783680D02*
X188699380Y-79972140D01*
X187930809Y-80821511D02*
X187499757Y-80821511D01*
X194263358Y-104063800D02*
X194735798Y-103591360D01*
X184078869Y-96957875D02*
X191184794Y-104063800D01*
X187499757Y-80821511D02*
X184078869Y-84242399D01*
X191184794Y-104063800D02*
X194263358Y-104063800D01*
X184078869Y-84242399D02*
X184078869Y-96957875D01*
X198006920Y-104054320D02*
X198006920Y-105006720D01*
X197543960Y-103591360D02*
X198006920Y-104054320D01*
X194735798Y-103591360D02*
X197543960Y-103591360D01*
G04 #@! TO.N,/Neopix*
X190227780Y-106011980D02*
X190799280Y-106583480D01*
X189725380Y-106011980D02*
X190227780Y-106011980D01*
X195606920Y-105959120D02*
X195606920Y-105006720D01*
X194982560Y-106583480D02*
X195606920Y-105959120D01*
X190799280Y-106583480D02*
X194982560Y-106583480D01*
G04 #@! TO.N,/cardIN*
X195661280Y-91679080D02*
X195661280Y-90185240D01*
X197703160Y-93720960D02*
X195661280Y-91679080D01*
X198006920Y-94390200D02*
X197464680Y-93847960D01*
X198006920Y-96506720D02*
X198006920Y-94390200D01*
X198750000Y-80670320D02*
X197739000Y-81681320D01*
X198750000Y-78315820D02*
X198750000Y-80670320D01*
X195661280Y-85882480D02*
X195661280Y-90185240D01*
X196174360Y-85369400D02*
X195661280Y-85882480D01*
G04 #@! TO.N,Net-(C4-Pad1)*
X202809320Y-98756720D02*
X201856920Y-98756720D01*
X205663700Y-99728200D02*
X205663700Y-98875800D01*
X205405940Y-98618040D02*
X202948000Y-98618040D01*
X205663700Y-98875800D02*
X205405940Y-98618040D01*
X202948000Y-98618040D02*
X202809320Y-98756720D01*
X205754200Y-99818700D02*
X205663700Y-99728200D01*
X207627220Y-99818700D02*
X205754200Y-99818700D01*
G04 #@! TO.N,Net-(C5-Pad1)*
X204063700Y-97528200D02*
X203736120Y-97528200D01*
X203307600Y-97956720D02*
X201856920Y-97956720D01*
X203736120Y-97528200D02*
X203307600Y-97956720D01*
X204005940Y-97470440D02*
X204063700Y-97528200D01*
X204005940Y-95410020D02*
X204005940Y-97470440D01*
D32*
G04 #@! TO.N,Net-(C6-Pad1)*
X191428880Y-98756720D02*
X193356920Y-98756720D01*
X191117220Y-99068380D02*
X191428880Y-98756720D01*
X191114680Y-99065840D02*
X191117220Y-99068380D01*
X191114680Y-97495400D02*
X191114680Y-99065840D01*
D34*
G04 #@! TO.N,Net-(R5-Pad1)*
X188043820Y-106230420D02*
X187825380Y-106011980D01*
X188043820Y-108157920D02*
X188043820Y-106230420D01*
G04 #@! TO.N,/SD_Select*
X196707760Y-86265514D02*
X196707760Y-84424520D01*
X198806920Y-88364674D02*
X196707760Y-86265514D01*
X198806920Y-96506720D02*
X198806920Y-88364674D01*
X195817509Y-80232269D02*
X195803520Y-80218280D01*
X195817509Y-82833229D02*
X195817509Y-80232269D01*
G04 #@! TO.N,/Slave_Select*
X190741300Y-89250980D02*
X190741300Y-88526080D01*
X190741300Y-89315830D02*
X190741300Y-89250980D01*
X192073686Y-103556720D02*
X189255399Y-100738433D01*
X189255399Y-90801731D02*
X190741300Y-89315830D01*
X189255399Y-100738433D02*
X189255399Y-90801731D01*
X193356920Y-103556720D02*
X192073686Y-103556720D01*
G04 #@! TO.N,/INT2*
X193456560Y-92362178D02*
X192971420Y-91877038D01*
X193456560Y-92793230D02*
X193456560Y-92362178D01*
X192971420Y-88036300D02*
X192563700Y-87628580D01*
X192563700Y-87628580D02*
X191838800Y-87628580D01*
X192971420Y-91877038D02*
X192971420Y-88036300D01*
X197206920Y-95554320D02*
X195210960Y-93558360D01*
X195210960Y-93558360D02*
X195183760Y-93558360D01*
X197206920Y-96506720D02*
X197206920Y-95554320D01*
G04 #@! TO.N,/INT1*
X196406920Y-95554320D02*
X195195820Y-94343220D01*
X195195820Y-94343220D02*
X195135500Y-94343220D01*
X196406920Y-96506720D02*
X196406920Y-95554320D01*
X191838800Y-92098080D02*
X191838800Y-88428580D01*
X193273680Y-93532960D02*
X191838800Y-92098080D01*
D31*
G04 #@! TO.N,VCC*
X187754260Y-84440520D02*
X187756800Y-84437980D01*
X185722260Y-84440520D02*
X187754260Y-84440520D01*
D33*
X207132320Y-87774780D02*
X206882320Y-87774780D01*
X206971900Y-87774780D02*
X205369160Y-86172040D01*
X207132320Y-87774780D02*
X206971900Y-87774780D01*
X211269940Y-79651500D02*
X211528660Y-79651500D01*
X208528920Y-82392520D02*
X211269940Y-79651500D01*
D34*
X203683820Y-101156720D02*
X204099160Y-101572060D01*
X201856920Y-101156720D02*
X203683820Y-101156720D01*
X206065121Y-104558593D02*
X206065121Y-102133401D01*
X203435714Y-107188000D02*
X206065121Y-104558593D01*
X200367940Y-107188000D02*
X203435714Y-107188000D01*
X205503780Y-101572060D02*
X204099160Y-101572060D01*
X206065121Y-102133401D02*
X205503780Y-101572060D01*
D32*
X193852140Y-108157920D02*
X193987420Y-108022640D01*
X191843820Y-108157920D02*
X193852140Y-108157920D01*
X195606920Y-108022640D02*
X196712840Y-109128560D01*
X193987420Y-108022640D02*
X195606920Y-108022640D01*
X199420480Y-108135460D02*
X200367940Y-107188000D01*
X199420480Y-109143800D02*
X199420480Y-108135460D01*
X193987420Y-108022640D02*
X194227200Y-108022640D01*
D33*
X199006460Y-87774780D02*
X198699120Y-87467440D01*
X200832320Y-87774780D02*
X199006460Y-87774780D01*
X197551040Y-89585800D02*
X196225160Y-90911680D01*
X197551040Y-88346280D02*
X197551040Y-89585800D01*
X189392448Y-88679932D02*
X189643800Y-88428580D01*
X189392448Y-89875248D02*
X189392448Y-88679932D01*
X189392448Y-89875248D02*
X185460528Y-89875248D01*
X185597260Y-84440520D02*
X185722260Y-84440520D01*
X184434479Y-85603301D02*
X185597260Y-84440520D01*
X184434479Y-88849199D02*
X184434479Y-85603301D01*
X185460528Y-89875248D02*
X184434479Y-88849199D01*
D34*
X201073540Y-85481160D02*
X201503280Y-85481160D01*
X200832320Y-85722380D02*
X201073540Y-85481160D01*
X200832320Y-87774780D02*
X200832320Y-85722380D01*
X189643800Y-83680520D02*
X190124080Y-83200240D01*
X189643800Y-84428580D02*
X189643800Y-83680520D01*
X191358520Y-79704150D02*
X190649380Y-78995010D01*
X190649380Y-78995010D02*
X190649380Y-78783680D01*
X191358520Y-81046320D02*
X191358520Y-79704150D01*
X190545720Y-92480666D02*
X190545720Y-90591641D01*
X191114680Y-93049626D02*
X190545720Y-92480666D01*
X191114680Y-95595400D02*
X191114680Y-93049626D01*
X195219320Y-81046320D02*
X195275200Y-81102200D01*
X191358520Y-81046320D02*
X195219320Y-81046320D01*
D32*
X202819760Y-95533720D02*
X201538840Y-96814640D01*
X202819760Y-92458540D02*
X202819760Y-95533720D01*
X199537321Y-102692201D02*
X200197720Y-103352600D01*
X199842120Y-98348800D02*
X199537321Y-98653599D01*
X201762360Y-105793580D02*
X200367940Y-107188000D01*
X201762360Y-104947720D02*
X201762360Y-105793580D01*
D34*
X199537321Y-99034600D02*
X199567800Y-99034600D01*
D32*
X199537321Y-98653599D02*
X199537321Y-99034600D01*
D34*
X200089920Y-99556720D02*
X201856920Y-99556720D01*
X199567800Y-99034600D02*
X200089920Y-99556720D01*
X199537321Y-100594160D02*
X199552560Y-100594160D01*
D32*
X199537321Y-99034600D02*
X199537321Y-100594160D01*
X199537321Y-100594160D02*
X199537321Y-102692201D01*
D34*
X200115120Y-101156720D02*
X201856920Y-101156720D01*
X199552560Y-100594160D02*
X200115120Y-101156720D01*
X200832320Y-83809440D02*
X200832320Y-87774780D01*
X199044560Y-82021680D02*
X200832320Y-83809440D01*
X189634400Y-84437980D02*
X189643800Y-84428580D01*
X187756800Y-84437980D02*
X189634400Y-84437980D01*
G04 #@! TD*
G04 #@! TO.N,GND*
G36*
X205765400Y-84225316D02*
X204964758Y-85025958D01*
X204948240Y-85050680D01*
X204942440Y-85079840D01*
X204942440Y-85844418D01*
X204916965Y-85869893D01*
X204835760Y-86065940D01*
X204835760Y-86278140D01*
X204916965Y-86474187D01*
X204942440Y-86499662D01*
X204942440Y-88381840D01*
X204948240Y-88411000D01*
X204964758Y-88435722D01*
X205716598Y-89187562D01*
X205741320Y-89204080D01*
X205770480Y-89209880D01*
X208351120Y-89209880D01*
X208380280Y-89204080D01*
X208405002Y-89187562D01*
X208730122Y-88862442D01*
X208746640Y-88837720D01*
X208752440Y-88808560D01*
X208752440Y-86787804D01*
X208921164Y-86619080D01*
X210077236Y-86619080D01*
X210225640Y-86767484D01*
X210225640Y-93059436D01*
X209706396Y-93578680D01*
X204455844Y-93578680D01*
X204165200Y-93288036D01*
X204165200Y-91749880D01*
X204159400Y-91720720D01*
X204142882Y-91695998D01*
X203802522Y-91355638D01*
X203777800Y-91339120D01*
X203748640Y-91333320D01*
X202931844Y-91333320D01*
X202570080Y-90971556D01*
X202570080Y-85328760D01*
X202564280Y-85299600D01*
X202547762Y-85274878D01*
X202031600Y-84758716D01*
X202031600Y-80671484D01*
X202240964Y-80462120D01*
X205765400Y-80462120D01*
X205765400Y-84225316D01*
X205765400Y-84225316D01*
G37*
X205765400Y-84225316D02*
X204964758Y-85025958D01*
X204948240Y-85050680D01*
X204942440Y-85079840D01*
X204942440Y-85844418D01*
X204916965Y-85869893D01*
X204835760Y-86065940D01*
X204835760Y-86278140D01*
X204916965Y-86474187D01*
X204942440Y-86499662D01*
X204942440Y-88381840D01*
X204948240Y-88411000D01*
X204964758Y-88435722D01*
X205716598Y-89187562D01*
X205741320Y-89204080D01*
X205770480Y-89209880D01*
X208351120Y-89209880D01*
X208380280Y-89204080D01*
X208405002Y-89187562D01*
X208730122Y-88862442D01*
X208746640Y-88837720D01*
X208752440Y-88808560D01*
X208752440Y-86787804D01*
X208921164Y-86619080D01*
X210077236Y-86619080D01*
X210225640Y-86767484D01*
X210225640Y-93059436D01*
X209706396Y-93578680D01*
X204455844Y-93578680D01*
X204165200Y-93288036D01*
X204165200Y-91749880D01*
X204159400Y-91720720D01*
X204142882Y-91695998D01*
X203802522Y-91355638D01*
X203777800Y-91339120D01*
X203748640Y-91333320D01*
X202931844Y-91333320D01*
X202570080Y-90971556D01*
X202570080Y-85328760D01*
X202564280Y-85299600D01*
X202547762Y-85274878D01*
X202031600Y-84758716D01*
X202031600Y-80671484D01*
X202240964Y-80462120D01*
X205765400Y-80462120D01*
X205765400Y-84225316D01*
G04 #@! TO.N,VCC*
G36*
X201945240Y-91506040D02*
X201951040Y-91535200D01*
X201967558Y-91559922D01*
X202104718Y-91697082D01*
X202129440Y-91713600D01*
X202158600Y-91719400D01*
X203351316Y-91719400D01*
X203448920Y-91817004D01*
X203448920Y-93125476D01*
X203361476Y-93212920D01*
X200168324Y-93212920D01*
X199674480Y-92719076D01*
X199674480Y-85853084D01*
X199777164Y-85750400D01*
X201945240Y-85750400D01*
X201945240Y-91506040D01*
X201945240Y-91506040D01*
G37*
X201945240Y-91506040D02*
X201951040Y-91535200D01*
X201967558Y-91559922D01*
X202104718Y-91697082D01*
X202129440Y-91713600D01*
X202158600Y-91719400D01*
X203351316Y-91719400D01*
X203448920Y-91817004D01*
X203448920Y-93125476D01*
X203361476Y-93212920D01*
X200168324Y-93212920D01*
X199674480Y-92719076D01*
X199674480Y-85853084D01*
X199777164Y-85750400D01*
X201945240Y-85750400D01*
X201945240Y-91506040D01*
G04 #@! TD*
M02*
