G04 #@! TF.GenerationSoftware,KiCad,Pcbnew,5.0.0-fee4fd1~66~ubuntu16.04.1*
G04 #@! TF.CreationDate,2019-02-25T08:40:39-05:00*
G04 #@! TF.ProjectId,circuit,636972637569742E6B696361645F7063,rev?*
G04 #@! TF.SameCoordinates,Original*
G04 #@! TF.FileFunction,Copper,L2,Bot,Signal*
G04 #@! TF.FilePolarity,Positive*
%FSLAX46Y46*%
G04 Gerber Fmt 4.6, Leading zero omitted, Abs format (unit mm)*
G04 Created by KiCad (PCBNEW 5.0.0-fee4fd1~66~ubuntu16.04.1) date Mon Feb 25 08:40:39 2019*
%MOMM*%
%LPD*%
G01*
G04 APERTURE LIST*
G04 #@! TA.AperFunction,SMDPad,CuDef*
%ADD10R,0.800000X1.400000*%
G04 #@! TD*
G04 #@! TA.AperFunction,SMDPad,CuDef*
%ADD11R,1.160000X1.500000*%
G04 #@! TD*
G04 #@! TA.AperFunction,SMDPad,CuDef*
%ADD12R,0.600000X1.150000*%
G04 #@! TD*
G04 #@! TA.AperFunction,SMDPad,CuDef*
%ADD13R,0.650000X1.300000*%
G04 #@! TD*
G04 #@! TA.AperFunction,SMDPad,CuDef*
%ADD14R,1.150000X0.450000*%
G04 #@! TD*
G04 #@! TA.AperFunction,SMDPad,CuDef*
%ADD15R,0.650000X1.600000*%
G04 #@! TD*
G04 #@! TA.AperFunction,SMDPad,CuDef*
%ADD16R,0.650000X2.140000*%
G04 #@! TD*
G04 #@! TA.AperFunction,ComponentPad*
%ADD17O,1.200000X1.900000*%
G04 #@! TD*
G04 #@! TA.AperFunction,ComponentPad*
%ADD18C,1.450000*%
G04 #@! TD*
G04 #@! TA.AperFunction,ViaPad*
%ADD19C,0.609600*%
G04 #@! TD*
G04 #@! TA.AperFunction,Conductor*
%ADD20C,0.254000*%
G04 #@! TD*
G04 #@! TA.AperFunction,Conductor*
%ADD21C,0.152400*%
G04 #@! TD*
G04 #@! TA.AperFunction,Conductor*
%ADD22C,0.381000*%
G04 #@! TD*
G04 APERTURE END LIST*
D10*
G04 #@! TO.P,SD1,4*
G04 #@! TO.N,VCC*
X198141660Y-78281300D03*
G04 #@! TO.P,SD1,5*
G04 #@! TO.N,/sck*
X199241660Y-78281300D03*
G04 #@! TO.P,SD1,6*
G04 #@! TO.N,GND*
X200341660Y-78281300D03*
G04 #@! TO.P,SD1,7*
G04 #@! TO.N,/miso*
X201441660Y-78281300D03*
G04 #@! TO.P,SD1,8*
G04 #@! TO.N,Net-(SD1-Pad8)*
X202541660Y-78281300D03*
G04 #@! TO.P,SD1,3*
G04 #@! TO.N,/mosi*
X197041660Y-78281300D03*
G04 #@! TO.P,SD1,2*
G04 #@! TO.N,/SD_Select*
X195941660Y-78281300D03*
G04 #@! TO.P,SD1,1*
G04 #@! TO.N,Net-(SD1-Pad1)*
X194841660Y-78281300D03*
D11*
G04 #@! TO.P,SD1,*
G04 #@! TO.N,*
X207561660Y-75981300D03*
D12*
X207561660Y-83956300D03*
D13*
X207586660Y-89881300D03*
D14*
G04 #@! TO.P,SD1,9*
G04 #@! TO.N,VCC*
X194201660Y-90106300D03*
D15*
G04 #@! TO.P,SD1,*
G04 #@! TO.N,*
X193961660Y-87941300D03*
D16*
X193961660Y-82861300D03*
D14*
G04 #@! TO.P,SD1,10*
G04 #@! TO.N,/cardIN*
X194201660Y-89446300D03*
G04 #@! TD*
D17*
G04 #@! TO.P,J5,6*
G04 #@! TO.N,GND*
X185849380Y-76083680D03*
X192849380Y-76083680D03*
D18*
X186849380Y-78783680D03*
X191849380Y-78783680D03*
G04 #@! TD*
D19*
G04 #@! TO.N,GND*
X185018680Y-88204040D03*
X186959240Y-88198960D03*
X211541360Y-87198200D03*
X206618840Y-92969080D03*
X208742280Y-93080840D03*
X209819240Y-92364560D03*
X209793840Y-90119200D03*
X203631800Y-81041240D03*
X202371960Y-82067400D03*
X202539600Y-84480400D03*
X207472280Y-94691200D03*
X208396840Y-96347280D03*
X205531720Y-104302560D03*
X207187800Y-109047280D03*
X194863720Y-100863400D03*
X194939920Y-111465360D03*
X186298840Y-111312960D03*
X197886320Y-90708480D03*
X200380600Y-100223320D03*
X200411080Y-101843840D03*
X189788800Y-100482400D03*
X200233280Y-76514960D03*
G04 #@! TO.N,/miso*
X193988709Y-86620331D03*
X194233800Y-85206840D03*
X201218800Y-80025240D03*
G04 #@! TO.N,/sck*
X190178709Y-81890851D03*
X190433801Y-80193039D03*
X195376800Y-76911200D03*
X190754000Y-86187280D03*
X191305400Y-89829640D03*
G04 #@! TO.N,/mosi*
X193344800Y-85222080D03*
X191135000Y-82621120D03*
X195417440Y-83987640D03*
X197175120Y-80142080D03*
G04 #@! TO.N,/RESET*
X188737240Y-80010000D03*
X187930809Y-80821511D03*
G04 #@! TO.N,/cardIN*
X195661280Y-90185240D03*
X197739000Y-81681320D03*
X196174360Y-85369400D03*
G04 #@! TO.N,/SD_Select*
X196707760Y-84424520D03*
X195817509Y-82833229D03*
X195803520Y-80218280D03*
G04 #@! TO.N,/INT2*
X195183760Y-93558360D03*
X193456560Y-92793230D03*
G04 #@! TO.N,/INT1*
X195135500Y-94343220D03*
X193273680Y-93532960D03*
G04 #@! TO.N,VCC*
X205369160Y-86172040D03*
X208528920Y-82392520D03*
X196712840Y-109128560D03*
X199420480Y-109143800D03*
X198699120Y-87467440D03*
X197551040Y-88346280D03*
X196225160Y-90911680D03*
X189392448Y-89875248D03*
X201503280Y-85481160D03*
X190124080Y-83200240D03*
X191358520Y-81046320D03*
X190545720Y-90591641D03*
X195275200Y-81102200D03*
X201538840Y-96814640D03*
X199842120Y-98348800D03*
X200197720Y-103352600D03*
X201762360Y-104947720D03*
X199044560Y-82021680D03*
G04 #@! TD*
D20*
G04 #@! TO.N,GND*
X208630520Y-92969080D02*
X208742280Y-93080840D01*
X206618840Y-92969080D02*
X208630520Y-92969080D01*
X209819240Y-90144600D02*
X209793840Y-90119200D01*
X209819240Y-92364560D02*
X209819240Y-90144600D01*
X203398120Y-81041240D02*
X202371960Y-82067400D01*
X203631800Y-81041240D02*
X203398120Y-81041240D01*
D21*
G04 #@! TO.N,/miso*
X193988709Y-85451931D02*
X194233800Y-85206840D01*
X193988709Y-86620331D02*
X193988709Y-85451931D01*
X201218800Y-78504160D02*
X201441660Y-78281300D01*
X201218800Y-80025240D02*
X201218800Y-78504160D01*
G04 #@! TO.N,/sck*
X190178709Y-80448131D02*
X190433801Y-80193039D01*
X190178709Y-81890851D02*
X190178709Y-80448131D01*
X199241660Y-77428900D02*
X199241660Y-78281300D01*
X198723960Y-76911200D02*
X199241660Y-77428900D01*
X195376800Y-76911200D02*
X198723960Y-76911200D01*
X191305400Y-86738680D02*
X190754000Y-86187280D01*
X191305400Y-89829640D02*
X191305400Y-86738680D01*
G04 #@! TO.N,/mosi*
X191135000Y-83012280D02*
X191135000Y-82621120D01*
X193344800Y-85222080D02*
X191135000Y-83012280D01*
X193893441Y-84673439D02*
X194731641Y-84673439D01*
X194731641Y-84673439D02*
X195417440Y-83987640D01*
X193344800Y-85222080D02*
X193893441Y-84673439D01*
X197175120Y-78414760D02*
X197041660Y-78281300D01*
X197175120Y-80142080D02*
X197175120Y-78414760D01*
G04 #@! TO.N,/RESET*
X188737240Y-80015080D02*
X187930809Y-80821511D01*
X188737240Y-80010000D02*
X188737240Y-80015080D01*
G04 #@! TO.N,/cardIN*
X195661280Y-90185240D02*
X195661280Y-89738200D01*
X195369380Y-89446300D02*
X194201660Y-89446300D01*
X195661280Y-89738200D02*
X195369380Y-89446300D01*
X196552314Y-85369400D02*
X196174360Y-85369400D01*
X197739000Y-84182714D02*
X196552314Y-85369400D01*
X197739000Y-81681320D02*
X197739000Y-84182714D01*
G04 #@! TO.N,/SD_Select*
X196707760Y-83723480D02*
X195817509Y-82833229D01*
X196707760Y-84424520D02*
X196707760Y-83723480D01*
X195803520Y-78419440D02*
X195941660Y-78281300D01*
X195803520Y-80218280D02*
X195803520Y-78419440D01*
G04 #@! TO.N,/INT2*
X194221690Y-93558360D02*
X193456560Y-92793230D01*
X195183760Y-93558360D02*
X194221690Y-93558360D01*
G04 #@! TO.N,/INT1*
X194083940Y-94343220D02*
X193273680Y-93532960D01*
X195135500Y-94343220D02*
X194083940Y-94343220D01*
D20*
G04 #@! TO.N,VCC*
X205369160Y-86172040D02*
X205369160Y-84510880D01*
X207487520Y-82392520D02*
X208528920Y-82392520D01*
X205369160Y-84510880D02*
X207487520Y-82392520D01*
D22*
X199405240Y-109128560D02*
X199420480Y-109143800D01*
X196712840Y-109128560D02*
X199405240Y-109128560D01*
D20*
X198429880Y-87467440D02*
X197551040Y-88346280D01*
X198699120Y-87467440D02*
X198429880Y-87467440D01*
X194201660Y-90585300D02*
X194201660Y-90106300D01*
X194528040Y-90911680D02*
X194201660Y-90585300D01*
X196225160Y-90911680D02*
X194528040Y-90911680D01*
X194201660Y-90106300D02*
X192007438Y-90106300D01*
X190108841Y-90591641D02*
X189392448Y-89875248D01*
X192007438Y-90106300D02*
X191522097Y-90591641D01*
D21*
X204678280Y-85481160D02*
X205369160Y-86172040D01*
X201503280Y-85481160D02*
X204678280Y-85481160D01*
X190124080Y-83200240D02*
X190601599Y-82722721D01*
X190601599Y-82722721D02*
X190601599Y-82365087D01*
X190601599Y-82365087D02*
X191358520Y-81608166D01*
X191358520Y-81608166D02*
X191358520Y-81046320D01*
D20*
X191522097Y-90591641D02*
X190545720Y-90591641D01*
X190545720Y-90591641D02*
X190108841Y-90591641D01*
D21*
X198141660Y-79133700D02*
X198141660Y-78281300D01*
X198141660Y-79964974D02*
X198141660Y-79133700D01*
X197004434Y-81102200D02*
X198141660Y-79964974D01*
X195275200Y-81102200D02*
X197004434Y-81102200D01*
D22*
X201376280Y-96814640D02*
X199842120Y-98348800D01*
X201538840Y-96814640D02*
X201376280Y-96814640D01*
X200197720Y-103383080D02*
X201762360Y-104947720D01*
X200197720Y-103352600D02*
X200197720Y-103383080D01*
D21*
X198141660Y-81118780D02*
X199044560Y-82021680D01*
X198141660Y-78281300D02*
X198141660Y-81118780D01*
G04 #@! TD*
G04 #@! TO.N,GND*
G36*
X210757442Y-74989169D02*
X211338545Y-75200100D01*
X211855543Y-75539059D01*
X212280691Y-75987854D01*
X212591193Y-76522423D01*
X212771694Y-77118388D01*
X212814801Y-77601399D01*
X212814800Y-111567665D01*
X212740985Y-112200796D01*
X212530054Y-112781901D01*
X212191097Y-113298895D01*
X211742301Y-113724044D01*
X211207731Y-114034547D01*
X210611764Y-114215048D01*
X210128766Y-114258154D01*
X186162489Y-114258154D01*
X185529358Y-114184339D01*
X184948253Y-113973408D01*
X184431259Y-113634451D01*
X184006110Y-113185655D01*
X183695607Y-112651085D01*
X183515106Y-112055118D01*
X183472000Y-111572120D01*
X183472000Y-109022460D01*
X196179440Y-109022460D01*
X196179440Y-109234660D01*
X196260645Y-109430707D01*
X196410693Y-109580755D01*
X196606740Y-109661960D01*
X196818940Y-109661960D01*
X197014987Y-109580755D01*
X197048082Y-109547660D01*
X199069998Y-109547660D01*
X199118333Y-109595995D01*
X199314380Y-109677200D01*
X199526580Y-109677200D01*
X199722627Y-109595995D01*
X199872675Y-109445947D01*
X199953880Y-109249900D01*
X199953880Y-109037700D01*
X199872675Y-108841653D01*
X199722627Y-108691605D01*
X199526580Y-108610400D01*
X199314380Y-108610400D01*
X199118333Y-108691605D01*
X199100478Y-108709460D01*
X197048082Y-108709460D01*
X197014987Y-108676365D01*
X196818940Y-108595160D01*
X196606740Y-108595160D01*
X196410693Y-108676365D01*
X196260645Y-108826413D01*
X196179440Y-109022460D01*
X183472000Y-109022460D01*
X183472000Y-103246500D01*
X199664320Y-103246500D01*
X199664320Y-103458700D01*
X199745525Y-103654747D01*
X199895573Y-103804795D01*
X200091620Y-103886000D01*
X200107944Y-103886000D01*
X201228960Y-105007017D01*
X201228960Y-105053820D01*
X201310165Y-105249867D01*
X201460213Y-105399915D01*
X201656260Y-105481120D01*
X201868460Y-105481120D01*
X202064507Y-105399915D01*
X202214555Y-105249867D01*
X202295760Y-105053820D01*
X202295760Y-104841620D01*
X202214555Y-104645573D01*
X202064507Y-104495525D01*
X201868460Y-104414320D01*
X201821657Y-104414320D01*
X200731120Y-103323784D01*
X200731120Y-103246500D01*
X200649915Y-103050453D01*
X200499867Y-102900405D01*
X200303820Y-102819200D01*
X200091620Y-102819200D01*
X199895573Y-102900405D01*
X199745525Y-103050453D01*
X199664320Y-103246500D01*
X183472000Y-103246500D01*
X183472000Y-98242700D01*
X199308720Y-98242700D01*
X199308720Y-98454900D01*
X199389925Y-98650947D01*
X199539973Y-98800995D01*
X199736020Y-98882200D01*
X199948220Y-98882200D01*
X200144267Y-98800995D01*
X200294315Y-98650947D01*
X200375520Y-98454900D01*
X200375520Y-98408096D01*
X201435577Y-97348040D01*
X201644940Y-97348040D01*
X201840987Y-97266835D01*
X201991035Y-97116787D01*
X202072240Y-96920740D01*
X202072240Y-96708540D01*
X201991035Y-96512493D01*
X201840987Y-96362445D01*
X201644940Y-96281240D01*
X201432740Y-96281240D01*
X201236693Y-96362445D01*
X201111875Y-96487263D01*
X201074126Y-96512486D01*
X201050746Y-96547477D01*
X199782824Y-97815400D01*
X199736020Y-97815400D01*
X199539973Y-97896605D01*
X199389925Y-98046653D01*
X199308720Y-98242700D01*
X183472000Y-98242700D01*
X183472000Y-93426860D01*
X192740280Y-93426860D01*
X192740280Y-93639060D01*
X192821485Y-93835107D01*
X192971533Y-93985155D01*
X193167580Y-94066360D01*
X193376028Y-94066360D01*
X193847188Y-94537520D01*
X193864192Y-94562968D01*
X193965013Y-94630335D01*
X194053922Y-94648020D01*
X194053925Y-94648020D01*
X194083940Y-94653990D01*
X194113955Y-94648020D01*
X194685958Y-94648020D01*
X194833353Y-94795415D01*
X195029400Y-94876620D01*
X195241600Y-94876620D01*
X195437647Y-94795415D01*
X195587695Y-94645367D01*
X195668900Y-94449320D01*
X195668900Y-94237120D01*
X195587695Y-94041073D01*
X195521542Y-93974920D01*
X195635955Y-93860507D01*
X195717160Y-93664460D01*
X195717160Y-93452260D01*
X195635955Y-93256213D01*
X195485907Y-93106165D01*
X195289860Y-93024960D01*
X195077660Y-93024960D01*
X194881613Y-93106165D01*
X194734218Y-93253560D01*
X194347942Y-93253560D01*
X193989960Y-92895578D01*
X193989960Y-92687130D01*
X193908755Y-92491083D01*
X193758707Y-92341035D01*
X193562660Y-92259830D01*
X193350460Y-92259830D01*
X193154413Y-92341035D01*
X193004365Y-92491083D01*
X192923160Y-92687130D01*
X192923160Y-92899330D01*
X192994391Y-93071297D01*
X192971533Y-93080765D01*
X192821485Y-93230813D01*
X192740280Y-93426860D01*
X183472000Y-93426860D01*
X183472000Y-89769148D01*
X188859048Y-89769148D01*
X188859048Y-89981348D01*
X188940253Y-90177395D01*
X189090301Y-90327443D01*
X189286348Y-90408648D01*
X189422954Y-90408648D01*
X189832632Y-90818327D01*
X189852468Y-90848014D01*
X189882155Y-90867850D01*
X189882156Y-90867851D01*
X189970093Y-90926608D01*
X190108841Y-90954207D01*
X190143861Y-90947241D01*
X190146978Y-90947241D01*
X190243573Y-91043836D01*
X190439620Y-91125041D01*
X190651820Y-91125041D01*
X190847867Y-91043836D01*
X190944462Y-90947241D01*
X191487077Y-90947241D01*
X191522097Y-90954207D01*
X191557117Y-90947241D01*
X191660845Y-90926608D01*
X191778470Y-90848014D01*
X191798308Y-90818324D01*
X192154733Y-90461900D01*
X193438990Y-90461900D01*
X193461849Y-90496111D01*
X193537465Y-90546636D01*
X193626660Y-90564378D01*
X193843256Y-90564378D01*
X193839094Y-90585300D01*
X193853020Y-90655307D01*
X193866693Y-90724047D01*
X193945287Y-90841672D01*
X193974975Y-90861509D01*
X194251830Y-91138365D01*
X194271667Y-91168053D01*
X194301354Y-91187889D01*
X194301355Y-91187890D01*
X194389292Y-91246647D01*
X194528039Y-91274246D01*
X194563059Y-91267280D01*
X195826418Y-91267280D01*
X195923013Y-91363875D01*
X196119060Y-91445080D01*
X196331260Y-91445080D01*
X196527307Y-91363875D01*
X196677355Y-91213827D01*
X196758560Y-91017780D01*
X196758560Y-90805580D01*
X196677355Y-90609533D01*
X196527307Y-90459485D01*
X196331260Y-90378280D01*
X196158668Y-90378280D01*
X196194680Y-90291340D01*
X196194680Y-90079140D01*
X196113475Y-89883093D01*
X195971475Y-89741093D01*
X195972050Y-89738200D01*
X195966080Y-89708185D01*
X195966080Y-89708182D01*
X195948395Y-89619273D01*
X195917544Y-89573101D01*
X195898032Y-89543899D01*
X195898030Y-89543897D01*
X195881028Y-89518452D01*
X195855583Y-89501450D01*
X195606132Y-89251999D01*
X195592301Y-89231300D01*
X207028582Y-89231300D01*
X207028582Y-90531300D01*
X207046324Y-90620495D01*
X207096849Y-90696111D01*
X207172465Y-90746636D01*
X207261660Y-90764378D01*
X207911660Y-90764378D01*
X208000855Y-90746636D01*
X208076471Y-90696111D01*
X208126996Y-90620495D01*
X208144738Y-90531300D01*
X208144738Y-89231300D01*
X208126996Y-89142105D01*
X208076471Y-89066489D01*
X208000855Y-89015964D01*
X207911660Y-88998222D01*
X207261660Y-88998222D01*
X207172465Y-89015964D01*
X207096849Y-89066489D01*
X207046324Y-89142105D01*
X207028582Y-89231300D01*
X195592301Y-89231300D01*
X195589128Y-89226552D01*
X195488307Y-89159185D01*
X195399398Y-89141500D01*
X195399394Y-89141500D01*
X195369380Y-89135530D01*
X195339366Y-89141500D01*
X194993865Y-89141500D01*
X194991996Y-89132105D01*
X194941471Y-89056489D01*
X194865855Y-89005964D01*
X194776660Y-88988222D01*
X193626660Y-88988222D01*
X193537465Y-89005964D01*
X193461849Y-89056489D01*
X193411324Y-89132105D01*
X193393582Y-89221300D01*
X193393582Y-89671300D01*
X193409376Y-89750700D01*
X192042458Y-89750700D01*
X192007438Y-89743734D01*
X191972418Y-89750700D01*
X191868690Y-89771333D01*
X191838800Y-89791305D01*
X191838800Y-89723540D01*
X191757595Y-89527493D01*
X191610200Y-89380098D01*
X191610200Y-86768692D01*
X191616170Y-86738679D01*
X191610200Y-86708666D01*
X191610200Y-86708662D01*
X191592515Y-86619753D01*
X191525148Y-86518932D01*
X191499700Y-86501928D01*
X191287400Y-86289628D01*
X191287400Y-86081180D01*
X191206195Y-85885133D01*
X191056147Y-85735085D01*
X190860100Y-85653880D01*
X190647900Y-85653880D01*
X190451853Y-85735085D01*
X190301805Y-85885133D01*
X190220600Y-86081180D01*
X190220600Y-86293380D01*
X190301805Y-86489427D01*
X190451853Y-86639475D01*
X190647900Y-86720680D01*
X190856348Y-86720680D01*
X191000601Y-86864933D01*
X191000600Y-89380098D01*
X190853205Y-89527493D01*
X190772000Y-89723540D01*
X190772000Y-89935740D01*
X190853205Y-90131787D01*
X190957459Y-90236041D01*
X190944462Y-90236041D01*
X190847867Y-90139446D01*
X190651820Y-90058241D01*
X190439620Y-90058241D01*
X190243573Y-90139446D01*
X190201557Y-90181462D01*
X189925848Y-89905754D01*
X189925848Y-89769148D01*
X189844643Y-89573101D01*
X189694595Y-89423053D01*
X189498548Y-89341848D01*
X189286348Y-89341848D01*
X189090301Y-89423053D01*
X188940253Y-89573101D01*
X188859048Y-89769148D01*
X183472000Y-89769148D01*
X183472000Y-83094140D01*
X189590680Y-83094140D01*
X189590680Y-83306340D01*
X189671885Y-83502387D01*
X189821933Y-83652435D01*
X190017980Y-83733640D01*
X190230180Y-83733640D01*
X190426227Y-83652435D01*
X190576275Y-83502387D01*
X190657480Y-83306340D01*
X190657480Y-83097893D01*
X190757455Y-82997917D01*
X190832853Y-83073315D01*
X190836686Y-83074903D01*
X190847885Y-83131206D01*
X190871110Y-83165964D01*
X190915252Y-83232028D01*
X190940700Y-83249032D01*
X192811400Y-85119732D01*
X192811400Y-85328180D01*
X192892605Y-85524227D01*
X193042653Y-85674275D01*
X193238700Y-85755480D01*
X193450900Y-85755480D01*
X193646947Y-85674275D01*
X193683910Y-85637312D01*
X193683909Y-86170789D01*
X193536514Y-86318184D01*
X193455309Y-86514231D01*
X193455309Y-86726431D01*
X193536514Y-86922478D01*
X193542990Y-86928954D01*
X193471849Y-86976489D01*
X193421324Y-87052105D01*
X193403582Y-87141300D01*
X193403582Y-88741300D01*
X193421324Y-88830495D01*
X193471849Y-88906111D01*
X193547465Y-88956636D01*
X193636660Y-88974378D01*
X194286660Y-88974378D01*
X194375855Y-88956636D01*
X194451471Y-88906111D01*
X194501996Y-88830495D01*
X194519738Y-88741300D01*
X194519738Y-88240180D01*
X197017640Y-88240180D01*
X197017640Y-88452380D01*
X197098845Y-88648427D01*
X197248893Y-88798475D01*
X197444940Y-88879680D01*
X197657140Y-88879680D01*
X197853187Y-88798475D01*
X198003235Y-88648427D01*
X198084440Y-88452380D01*
X198084440Y-88315774D01*
X198456091Y-87944123D01*
X198593020Y-88000840D01*
X198805220Y-88000840D01*
X199001267Y-87919635D01*
X199151315Y-87769587D01*
X199232520Y-87573540D01*
X199232520Y-87361340D01*
X199151315Y-87165293D01*
X199001267Y-87015245D01*
X198805220Y-86934040D01*
X198593020Y-86934040D01*
X198396973Y-87015245D01*
X198256816Y-87155402D01*
X198173507Y-87211067D01*
X198153669Y-87240757D01*
X197581546Y-87812880D01*
X197444940Y-87812880D01*
X197248893Y-87894085D01*
X197098845Y-88044133D01*
X197017640Y-88240180D01*
X194519738Y-88240180D01*
X194519738Y-87141300D01*
X194501996Y-87052105D01*
X194451471Y-86976489D01*
X194412759Y-86950623D01*
X194440904Y-86922478D01*
X194522109Y-86726431D01*
X194522109Y-86514231D01*
X194440904Y-86318184D01*
X194293509Y-86170789D01*
X194293509Y-85740240D01*
X194339900Y-85740240D01*
X194535947Y-85659035D01*
X194685995Y-85508987D01*
X194767200Y-85312940D01*
X194767200Y-85100740D01*
X194717790Y-84981454D01*
X194731641Y-84984209D01*
X194761655Y-84978239D01*
X194761659Y-84978239D01*
X194850568Y-84960554D01*
X194951389Y-84893187D01*
X194968393Y-84867739D01*
X195315092Y-84521040D01*
X195523540Y-84521040D01*
X195719587Y-84439835D01*
X195869635Y-84289787D01*
X195950840Y-84093740D01*
X195950840Y-83881540D01*
X195869635Y-83685493D01*
X195719587Y-83535445D01*
X195523540Y-83454240D01*
X195311340Y-83454240D01*
X195115293Y-83535445D01*
X194965245Y-83685493D01*
X194884040Y-83881540D01*
X194884040Y-84089988D01*
X194605389Y-84368639D01*
X193923456Y-84368639D01*
X193893441Y-84362669D01*
X193863426Y-84368639D01*
X193863423Y-84368639D01*
X193774514Y-84386324D01*
X193673693Y-84453691D01*
X193656689Y-84479139D01*
X193447148Y-84688680D01*
X193242452Y-84688680D01*
X191532117Y-82978345D01*
X191587195Y-82923267D01*
X191668400Y-82727220D01*
X191668400Y-82515020D01*
X191587195Y-82318973D01*
X191437147Y-82168925D01*
X191289833Y-82107906D01*
X191552824Y-81844915D01*
X191578268Y-81827914D01*
X191595270Y-81802469D01*
X191595272Y-81802467D01*
X191602733Y-81791300D01*
X193403582Y-81791300D01*
X193403582Y-83931300D01*
X193421324Y-84020495D01*
X193471849Y-84096111D01*
X193547465Y-84146636D01*
X193636660Y-84164378D01*
X194286660Y-84164378D01*
X194375855Y-84146636D01*
X194451471Y-84096111D01*
X194501996Y-84020495D01*
X194519738Y-83931300D01*
X194519738Y-81791300D01*
X194501996Y-81702105D01*
X194451471Y-81626489D01*
X194375855Y-81575964D01*
X194286660Y-81558222D01*
X193636660Y-81558222D01*
X193547465Y-81575964D01*
X193471849Y-81626489D01*
X193421324Y-81702105D01*
X193403582Y-81791300D01*
X191602733Y-81791300D01*
X191645635Y-81727093D01*
X191660710Y-81651303D01*
X191663320Y-81638184D01*
X191663320Y-81638181D01*
X191669290Y-81608166D01*
X191663320Y-81578152D01*
X191663320Y-81495862D01*
X191810715Y-81348467D01*
X191891920Y-81152420D01*
X191891920Y-80940220D01*
X191810715Y-80744173D01*
X191660667Y-80594125D01*
X191464620Y-80512920D01*
X191252420Y-80512920D01*
X191056373Y-80594125D01*
X190906325Y-80744173D01*
X190825120Y-80940220D01*
X190825120Y-81152420D01*
X190906325Y-81348467D01*
X191046746Y-81488888D01*
X190712109Y-81823525D01*
X190712109Y-81784751D01*
X190630904Y-81588704D01*
X190483509Y-81441309D01*
X190483509Y-80726439D01*
X190539901Y-80726439D01*
X190735948Y-80645234D01*
X190885996Y-80495186D01*
X190967201Y-80299139D01*
X190967201Y-80086939D01*
X190885996Y-79890892D01*
X190735948Y-79740844D01*
X190539901Y-79659639D01*
X190327701Y-79659639D01*
X190131654Y-79740844D01*
X189981606Y-79890892D01*
X189900401Y-80086939D01*
X189900401Y-80299139D01*
X189904719Y-80309563D01*
X189891594Y-80329205D01*
X189867939Y-80448131D01*
X189873910Y-80478150D01*
X189873909Y-81441309D01*
X189726514Y-81588704D01*
X189645309Y-81784751D01*
X189645309Y-81996951D01*
X189726514Y-82192998D01*
X189876562Y-82343046D01*
X190072609Y-82424251D01*
X190284809Y-82424251D01*
X190296799Y-82419285D01*
X190296799Y-82596468D01*
X190226427Y-82666840D01*
X190017980Y-82666840D01*
X189821933Y-82748045D01*
X189671885Y-82898093D01*
X189590680Y-83094140D01*
X183472000Y-83094140D01*
X183472000Y-80715411D01*
X187397409Y-80715411D01*
X187397409Y-80927611D01*
X187478614Y-81123658D01*
X187628662Y-81273706D01*
X187824709Y-81354911D01*
X188036909Y-81354911D01*
X188232956Y-81273706D01*
X188383004Y-81123658D01*
X188464209Y-80927611D01*
X188464209Y-80719163D01*
X188639972Y-80543400D01*
X188843340Y-80543400D01*
X189039387Y-80462195D01*
X189189435Y-80312147D01*
X189270640Y-80116100D01*
X189270640Y-79903900D01*
X189189435Y-79707853D01*
X189039387Y-79557805D01*
X188843340Y-79476600D01*
X188631140Y-79476600D01*
X188435093Y-79557805D01*
X188285045Y-79707853D01*
X188203840Y-79903900D01*
X188203840Y-80116100D01*
X188204229Y-80117039D01*
X188033157Y-80288111D01*
X187824709Y-80288111D01*
X187628662Y-80369316D01*
X187478614Y-80519364D01*
X187397409Y-80715411D01*
X183472000Y-80715411D01*
X183472000Y-77605843D01*
X183474861Y-77581300D01*
X194208582Y-77581300D01*
X194208582Y-78981300D01*
X194226324Y-79070495D01*
X194276849Y-79146111D01*
X194352465Y-79196636D01*
X194441660Y-79214378D01*
X195241660Y-79214378D01*
X195330855Y-79196636D01*
X195391660Y-79156007D01*
X195452465Y-79196636D01*
X195498721Y-79205837D01*
X195498720Y-79768738D01*
X195351325Y-79916133D01*
X195270120Y-80112180D01*
X195270120Y-80324380D01*
X195351325Y-80520427D01*
X195412707Y-80581809D01*
X195381300Y-80568800D01*
X195169100Y-80568800D01*
X194973053Y-80650005D01*
X194823005Y-80800053D01*
X194741800Y-80996100D01*
X194741800Y-81208300D01*
X194823005Y-81404347D01*
X194973053Y-81554395D01*
X195169100Y-81635600D01*
X195381300Y-81635600D01*
X195577347Y-81554395D01*
X195724742Y-81407000D01*
X196974420Y-81407000D01*
X197004434Y-81412970D01*
X197034448Y-81407000D01*
X197034452Y-81407000D01*
X197123361Y-81389315D01*
X197224182Y-81321948D01*
X197241186Y-81296500D01*
X197836861Y-80700825D01*
X197836861Y-81088761D01*
X197830890Y-81118780D01*
X197836686Y-81147920D01*
X197632900Y-81147920D01*
X197436853Y-81229125D01*
X197286805Y-81379173D01*
X197205600Y-81575220D01*
X197205600Y-81787420D01*
X197286805Y-81983467D01*
X197434200Y-82130862D01*
X197434201Y-84056461D01*
X197220974Y-84269688D01*
X197159955Y-84122373D01*
X197012560Y-83974978D01*
X197012560Y-83753494D01*
X197018530Y-83723479D01*
X197012560Y-83693465D01*
X197012560Y-83693462D01*
X196994875Y-83604553D01*
X196944512Y-83529179D01*
X196944510Y-83529177D01*
X196927508Y-83503732D01*
X196902063Y-83486730D01*
X196350909Y-82935577D01*
X196350909Y-82727129D01*
X196269704Y-82531082D01*
X196119656Y-82381034D01*
X195923609Y-82299829D01*
X195711409Y-82299829D01*
X195515362Y-82381034D01*
X195365314Y-82531082D01*
X195284109Y-82727129D01*
X195284109Y-82939329D01*
X195365314Y-83135376D01*
X195515362Y-83285424D01*
X195711409Y-83366629D01*
X195919857Y-83366629D01*
X196402961Y-83849734D01*
X196402961Y-83974977D01*
X196255565Y-84122373D01*
X196174360Y-84318420D01*
X196174360Y-84530620D01*
X196255565Y-84726667D01*
X196405613Y-84876715D01*
X196552928Y-84937734D01*
X196524982Y-84965680D01*
X196476507Y-84917205D01*
X196280460Y-84836000D01*
X196068260Y-84836000D01*
X195872213Y-84917205D01*
X195722165Y-85067253D01*
X195640960Y-85263300D01*
X195640960Y-85475500D01*
X195722165Y-85671547D01*
X195872213Y-85821595D01*
X196068260Y-85902800D01*
X196280460Y-85902800D01*
X196476507Y-85821595D01*
X196626555Y-85671547D01*
X196629328Y-85664852D01*
X196671241Y-85656515D01*
X196772062Y-85589148D01*
X196789066Y-85563700D01*
X196977706Y-85375060D01*
X200969880Y-85375060D01*
X200969880Y-85587260D01*
X201051085Y-85783307D01*
X201201133Y-85933355D01*
X201397180Y-86014560D01*
X201609380Y-86014560D01*
X201805427Y-85933355D01*
X201952822Y-85785960D01*
X204552028Y-85785960D01*
X204835760Y-86069693D01*
X204835760Y-86278140D01*
X204916965Y-86474187D01*
X205067013Y-86624235D01*
X205263060Y-86705440D01*
X205475260Y-86705440D01*
X205671307Y-86624235D01*
X205821355Y-86474187D01*
X205902560Y-86278140D01*
X205902560Y-86065940D01*
X205821355Y-85869893D01*
X205724760Y-85773298D01*
X205724760Y-84658174D01*
X207035273Y-83347661D01*
X207028582Y-83381300D01*
X207028582Y-84531300D01*
X207046324Y-84620495D01*
X207096849Y-84696111D01*
X207172465Y-84746636D01*
X207261660Y-84764378D01*
X207861660Y-84764378D01*
X207950855Y-84746636D01*
X208026471Y-84696111D01*
X208076996Y-84620495D01*
X208094738Y-84531300D01*
X208094738Y-83381300D01*
X208076996Y-83292105D01*
X208026471Y-83216489D01*
X207950855Y-83165964D01*
X207861660Y-83148222D01*
X207261660Y-83148222D01*
X207228021Y-83154913D01*
X207634814Y-82748120D01*
X208130178Y-82748120D01*
X208226773Y-82844715D01*
X208422820Y-82925920D01*
X208635020Y-82925920D01*
X208831067Y-82844715D01*
X208981115Y-82694667D01*
X209062320Y-82498620D01*
X209062320Y-82286420D01*
X208981115Y-82090373D01*
X208831067Y-81940325D01*
X208635020Y-81859120D01*
X208422820Y-81859120D01*
X208226773Y-81940325D01*
X208130178Y-82036920D01*
X207522534Y-82036920D01*
X207487519Y-82029955D01*
X207452504Y-82036920D01*
X207452500Y-82036920D01*
X207348772Y-82057553D01*
X207231147Y-82136147D01*
X207211309Y-82165837D01*
X205142475Y-84234671D01*
X205112788Y-84254507D01*
X205092952Y-84284194D01*
X205092950Y-84284196D01*
X205034193Y-84372133D01*
X205006594Y-84510880D01*
X205013561Y-84545905D01*
X205013560Y-85385388D01*
X204915032Y-85286860D01*
X204898028Y-85261412D01*
X204797207Y-85194045D01*
X204708298Y-85176360D01*
X204708294Y-85176360D01*
X204678280Y-85170390D01*
X204648266Y-85176360D01*
X201952822Y-85176360D01*
X201805427Y-85028965D01*
X201609380Y-84947760D01*
X201397180Y-84947760D01*
X201201133Y-85028965D01*
X201051085Y-85179013D01*
X200969880Y-85375060D01*
X196977706Y-85375060D01*
X197933300Y-84419466D01*
X197958748Y-84402462D01*
X198026115Y-84301641D01*
X198043800Y-84212732D01*
X198043800Y-84212728D01*
X198049770Y-84182715D01*
X198043800Y-84152702D01*
X198043800Y-82130862D01*
X198191195Y-81983467D01*
X198272400Y-81787420D01*
X198272400Y-81680572D01*
X198511160Y-81919332D01*
X198511160Y-82127780D01*
X198592365Y-82323827D01*
X198742413Y-82473875D01*
X198938460Y-82555080D01*
X199150660Y-82555080D01*
X199346707Y-82473875D01*
X199496755Y-82323827D01*
X199577960Y-82127780D01*
X199577960Y-81915580D01*
X199496755Y-81719533D01*
X199346707Y-81569485D01*
X199150660Y-81488280D01*
X198942212Y-81488280D01*
X198446460Y-80992528D01*
X198446460Y-79994988D01*
X198452430Y-79964975D01*
X198446460Y-79934962D01*
X198446460Y-79919140D01*
X200685400Y-79919140D01*
X200685400Y-80131340D01*
X200766605Y-80327387D01*
X200916653Y-80477435D01*
X201112700Y-80558640D01*
X201324900Y-80558640D01*
X201520947Y-80477435D01*
X201670995Y-80327387D01*
X201752200Y-80131340D01*
X201752200Y-79919140D01*
X201670995Y-79723093D01*
X201523600Y-79575698D01*
X201523600Y-79214378D01*
X201841660Y-79214378D01*
X201930855Y-79196636D01*
X201991660Y-79156007D01*
X202052465Y-79196636D01*
X202141660Y-79214378D01*
X202941660Y-79214378D01*
X203030855Y-79196636D01*
X203106471Y-79146111D01*
X203156996Y-79070495D01*
X203174738Y-78981300D01*
X203174738Y-77581300D01*
X203156996Y-77492105D01*
X203106471Y-77416489D01*
X203030855Y-77365964D01*
X202941660Y-77348222D01*
X202141660Y-77348222D01*
X202052465Y-77365964D01*
X201991660Y-77406593D01*
X201930855Y-77365964D01*
X201841660Y-77348222D01*
X201041660Y-77348222D01*
X200952465Y-77365964D01*
X200876849Y-77416489D01*
X200826324Y-77492105D01*
X200808582Y-77581300D01*
X200808582Y-78981300D01*
X200826324Y-79070495D01*
X200876849Y-79146111D01*
X200914001Y-79170935D01*
X200914000Y-79575698D01*
X200766605Y-79723093D01*
X200685400Y-79919140D01*
X198446460Y-79919140D01*
X198446460Y-79214378D01*
X198541660Y-79214378D01*
X198630855Y-79196636D01*
X198691660Y-79156007D01*
X198752465Y-79196636D01*
X198841660Y-79214378D01*
X199641660Y-79214378D01*
X199730855Y-79196636D01*
X199806471Y-79146111D01*
X199856996Y-79070495D01*
X199874738Y-78981300D01*
X199874738Y-77581300D01*
X199856996Y-77492105D01*
X199806471Y-77416489D01*
X199730855Y-77365964D01*
X199641660Y-77348222D01*
X199536383Y-77348222D01*
X199528775Y-77309973D01*
X199461408Y-77209152D01*
X199435961Y-77192149D01*
X198960712Y-76716900D01*
X198943708Y-76691452D01*
X198842887Y-76624085D01*
X198753978Y-76606400D01*
X198753974Y-76606400D01*
X198723960Y-76600430D01*
X198693946Y-76606400D01*
X195826342Y-76606400D01*
X195678947Y-76459005D01*
X195482900Y-76377800D01*
X195270700Y-76377800D01*
X195074653Y-76459005D01*
X194924605Y-76609053D01*
X194843400Y-76805100D01*
X194843400Y-77017300D01*
X194924605Y-77213347D01*
X195059480Y-77348222D01*
X194441660Y-77348222D01*
X194352465Y-77365964D01*
X194276849Y-77416489D01*
X194226324Y-77492105D01*
X194208582Y-77581300D01*
X183474861Y-77581300D01*
X183545815Y-76972712D01*
X183756746Y-76391609D01*
X184095705Y-75874611D01*
X184544500Y-75449463D01*
X184920095Y-75231300D01*
X206748582Y-75231300D01*
X206748582Y-76731300D01*
X206766324Y-76820495D01*
X206816849Y-76896111D01*
X206892465Y-76946636D01*
X206981660Y-76964378D01*
X208141660Y-76964378D01*
X208230855Y-76946636D01*
X208306471Y-76896111D01*
X208356996Y-76820495D01*
X208374738Y-76731300D01*
X208374738Y-75231300D01*
X208356996Y-75142105D01*
X208306471Y-75066489D01*
X208230855Y-75015964D01*
X208141660Y-74998222D01*
X206981660Y-74998222D01*
X206892465Y-75015964D01*
X206816849Y-75066489D01*
X206766324Y-75142105D01*
X206748582Y-75231300D01*
X184920095Y-75231300D01*
X185079069Y-75138961D01*
X185675034Y-74958460D01*
X186158034Y-74915354D01*
X210124311Y-74915354D01*
X210757442Y-74989169D01*
X210757442Y-74989169D01*
G37*
X210757442Y-74989169D02*
X211338545Y-75200100D01*
X211855543Y-75539059D01*
X212280691Y-75987854D01*
X212591193Y-76522423D01*
X212771694Y-77118388D01*
X212814801Y-77601399D01*
X212814800Y-111567665D01*
X212740985Y-112200796D01*
X212530054Y-112781901D01*
X212191097Y-113298895D01*
X211742301Y-113724044D01*
X211207731Y-114034547D01*
X210611764Y-114215048D01*
X210128766Y-114258154D01*
X186162489Y-114258154D01*
X185529358Y-114184339D01*
X184948253Y-113973408D01*
X184431259Y-113634451D01*
X184006110Y-113185655D01*
X183695607Y-112651085D01*
X183515106Y-112055118D01*
X183472000Y-111572120D01*
X183472000Y-109022460D01*
X196179440Y-109022460D01*
X196179440Y-109234660D01*
X196260645Y-109430707D01*
X196410693Y-109580755D01*
X196606740Y-109661960D01*
X196818940Y-109661960D01*
X197014987Y-109580755D01*
X197048082Y-109547660D01*
X199069998Y-109547660D01*
X199118333Y-109595995D01*
X199314380Y-109677200D01*
X199526580Y-109677200D01*
X199722627Y-109595995D01*
X199872675Y-109445947D01*
X199953880Y-109249900D01*
X199953880Y-109037700D01*
X199872675Y-108841653D01*
X199722627Y-108691605D01*
X199526580Y-108610400D01*
X199314380Y-108610400D01*
X199118333Y-108691605D01*
X199100478Y-108709460D01*
X197048082Y-108709460D01*
X197014987Y-108676365D01*
X196818940Y-108595160D01*
X196606740Y-108595160D01*
X196410693Y-108676365D01*
X196260645Y-108826413D01*
X196179440Y-109022460D01*
X183472000Y-109022460D01*
X183472000Y-103246500D01*
X199664320Y-103246500D01*
X199664320Y-103458700D01*
X199745525Y-103654747D01*
X199895573Y-103804795D01*
X200091620Y-103886000D01*
X200107944Y-103886000D01*
X201228960Y-105007017D01*
X201228960Y-105053820D01*
X201310165Y-105249867D01*
X201460213Y-105399915D01*
X201656260Y-105481120D01*
X201868460Y-105481120D01*
X202064507Y-105399915D01*
X202214555Y-105249867D01*
X202295760Y-105053820D01*
X202295760Y-104841620D01*
X202214555Y-104645573D01*
X202064507Y-104495525D01*
X201868460Y-104414320D01*
X201821657Y-104414320D01*
X200731120Y-103323784D01*
X200731120Y-103246500D01*
X200649915Y-103050453D01*
X200499867Y-102900405D01*
X200303820Y-102819200D01*
X200091620Y-102819200D01*
X199895573Y-102900405D01*
X199745525Y-103050453D01*
X199664320Y-103246500D01*
X183472000Y-103246500D01*
X183472000Y-98242700D01*
X199308720Y-98242700D01*
X199308720Y-98454900D01*
X199389925Y-98650947D01*
X199539973Y-98800995D01*
X199736020Y-98882200D01*
X199948220Y-98882200D01*
X200144267Y-98800995D01*
X200294315Y-98650947D01*
X200375520Y-98454900D01*
X200375520Y-98408096D01*
X201435577Y-97348040D01*
X201644940Y-97348040D01*
X201840987Y-97266835D01*
X201991035Y-97116787D01*
X202072240Y-96920740D01*
X202072240Y-96708540D01*
X201991035Y-96512493D01*
X201840987Y-96362445D01*
X201644940Y-96281240D01*
X201432740Y-96281240D01*
X201236693Y-96362445D01*
X201111875Y-96487263D01*
X201074126Y-96512486D01*
X201050746Y-96547477D01*
X199782824Y-97815400D01*
X199736020Y-97815400D01*
X199539973Y-97896605D01*
X199389925Y-98046653D01*
X199308720Y-98242700D01*
X183472000Y-98242700D01*
X183472000Y-93426860D01*
X192740280Y-93426860D01*
X192740280Y-93639060D01*
X192821485Y-93835107D01*
X192971533Y-93985155D01*
X193167580Y-94066360D01*
X193376028Y-94066360D01*
X193847188Y-94537520D01*
X193864192Y-94562968D01*
X193965013Y-94630335D01*
X194053922Y-94648020D01*
X194053925Y-94648020D01*
X194083940Y-94653990D01*
X194113955Y-94648020D01*
X194685958Y-94648020D01*
X194833353Y-94795415D01*
X195029400Y-94876620D01*
X195241600Y-94876620D01*
X195437647Y-94795415D01*
X195587695Y-94645367D01*
X195668900Y-94449320D01*
X195668900Y-94237120D01*
X195587695Y-94041073D01*
X195521542Y-93974920D01*
X195635955Y-93860507D01*
X195717160Y-93664460D01*
X195717160Y-93452260D01*
X195635955Y-93256213D01*
X195485907Y-93106165D01*
X195289860Y-93024960D01*
X195077660Y-93024960D01*
X194881613Y-93106165D01*
X194734218Y-93253560D01*
X194347942Y-93253560D01*
X193989960Y-92895578D01*
X193989960Y-92687130D01*
X193908755Y-92491083D01*
X193758707Y-92341035D01*
X193562660Y-92259830D01*
X193350460Y-92259830D01*
X193154413Y-92341035D01*
X193004365Y-92491083D01*
X192923160Y-92687130D01*
X192923160Y-92899330D01*
X192994391Y-93071297D01*
X192971533Y-93080765D01*
X192821485Y-93230813D01*
X192740280Y-93426860D01*
X183472000Y-93426860D01*
X183472000Y-89769148D01*
X188859048Y-89769148D01*
X188859048Y-89981348D01*
X188940253Y-90177395D01*
X189090301Y-90327443D01*
X189286348Y-90408648D01*
X189422954Y-90408648D01*
X189832632Y-90818327D01*
X189852468Y-90848014D01*
X189882155Y-90867850D01*
X189882156Y-90867851D01*
X189970093Y-90926608D01*
X190108841Y-90954207D01*
X190143861Y-90947241D01*
X190146978Y-90947241D01*
X190243573Y-91043836D01*
X190439620Y-91125041D01*
X190651820Y-91125041D01*
X190847867Y-91043836D01*
X190944462Y-90947241D01*
X191487077Y-90947241D01*
X191522097Y-90954207D01*
X191557117Y-90947241D01*
X191660845Y-90926608D01*
X191778470Y-90848014D01*
X191798308Y-90818324D01*
X192154733Y-90461900D01*
X193438990Y-90461900D01*
X193461849Y-90496111D01*
X193537465Y-90546636D01*
X193626660Y-90564378D01*
X193843256Y-90564378D01*
X193839094Y-90585300D01*
X193853020Y-90655307D01*
X193866693Y-90724047D01*
X193945287Y-90841672D01*
X193974975Y-90861509D01*
X194251830Y-91138365D01*
X194271667Y-91168053D01*
X194301354Y-91187889D01*
X194301355Y-91187890D01*
X194389292Y-91246647D01*
X194528039Y-91274246D01*
X194563059Y-91267280D01*
X195826418Y-91267280D01*
X195923013Y-91363875D01*
X196119060Y-91445080D01*
X196331260Y-91445080D01*
X196527307Y-91363875D01*
X196677355Y-91213827D01*
X196758560Y-91017780D01*
X196758560Y-90805580D01*
X196677355Y-90609533D01*
X196527307Y-90459485D01*
X196331260Y-90378280D01*
X196158668Y-90378280D01*
X196194680Y-90291340D01*
X196194680Y-90079140D01*
X196113475Y-89883093D01*
X195971475Y-89741093D01*
X195972050Y-89738200D01*
X195966080Y-89708185D01*
X195966080Y-89708182D01*
X195948395Y-89619273D01*
X195917544Y-89573101D01*
X195898032Y-89543899D01*
X195898030Y-89543897D01*
X195881028Y-89518452D01*
X195855583Y-89501450D01*
X195606132Y-89251999D01*
X195592301Y-89231300D01*
X207028582Y-89231300D01*
X207028582Y-90531300D01*
X207046324Y-90620495D01*
X207096849Y-90696111D01*
X207172465Y-90746636D01*
X207261660Y-90764378D01*
X207911660Y-90764378D01*
X208000855Y-90746636D01*
X208076471Y-90696111D01*
X208126996Y-90620495D01*
X208144738Y-90531300D01*
X208144738Y-89231300D01*
X208126996Y-89142105D01*
X208076471Y-89066489D01*
X208000855Y-89015964D01*
X207911660Y-88998222D01*
X207261660Y-88998222D01*
X207172465Y-89015964D01*
X207096849Y-89066489D01*
X207046324Y-89142105D01*
X207028582Y-89231300D01*
X195592301Y-89231300D01*
X195589128Y-89226552D01*
X195488307Y-89159185D01*
X195399398Y-89141500D01*
X195399394Y-89141500D01*
X195369380Y-89135530D01*
X195339366Y-89141500D01*
X194993865Y-89141500D01*
X194991996Y-89132105D01*
X194941471Y-89056489D01*
X194865855Y-89005964D01*
X194776660Y-88988222D01*
X193626660Y-88988222D01*
X193537465Y-89005964D01*
X193461849Y-89056489D01*
X193411324Y-89132105D01*
X193393582Y-89221300D01*
X193393582Y-89671300D01*
X193409376Y-89750700D01*
X192042458Y-89750700D01*
X192007438Y-89743734D01*
X191972418Y-89750700D01*
X191868690Y-89771333D01*
X191838800Y-89791305D01*
X191838800Y-89723540D01*
X191757595Y-89527493D01*
X191610200Y-89380098D01*
X191610200Y-86768692D01*
X191616170Y-86738679D01*
X191610200Y-86708666D01*
X191610200Y-86708662D01*
X191592515Y-86619753D01*
X191525148Y-86518932D01*
X191499700Y-86501928D01*
X191287400Y-86289628D01*
X191287400Y-86081180D01*
X191206195Y-85885133D01*
X191056147Y-85735085D01*
X190860100Y-85653880D01*
X190647900Y-85653880D01*
X190451853Y-85735085D01*
X190301805Y-85885133D01*
X190220600Y-86081180D01*
X190220600Y-86293380D01*
X190301805Y-86489427D01*
X190451853Y-86639475D01*
X190647900Y-86720680D01*
X190856348Y-86720680D01*
X191000601Y-86864933D01*
X191000600Y-89380098D01*
X190853205Y-89527493D01*
X190772000Y-89723540D01*
X190772000Y-89935740D01*
X190853205Y-90131787D01*
X190957459Y-90236041D01*
X190944462Y-90236041D01*
X190847867Y-90139446D01*
X190651820Y-90058241D01*
X190439620Y-90058241D01*
X190243573Y-90139446D01*
X190201557Y-90181462D01*
X189925848Y-89905754D01*
X189925848Y-89769148D01*
X189844643Y-89573101D01*
X189694595Y-89423053D01*
X189498548Y-89341848D01*
X189286348Y-89341848D01*
X189090301Y-89423053D01*
X188940253Y-89573101D01*
X188859048Y-89769148D01*
X183472000Y-89769148D01*
X183472000Y-83094140D01*
X189590680Y-83094140D01*
X189590680Y-83306340D01*
X189671885Y-83502387D01*
X189821933Y-83652435D01*
X190017980Y-83733640D01*
X190230180Y-83733640D01*
X190426227Y-83652435D01*
X190576275Y-83502387D01*
X190657480Y-83306340D01*
X190657480Y-83097893D01*
X190757455Y-82997917D01*
X190832853Y-83073315D01*
X190836686Y-83074903D01*
X190847885Y-83131206D01*
X190871110Y-83165964D01*
X190915252Y-83232028D01*
X190940700Y-83249032D01*
X192811400Y-85119732D01*
X192811400Y-85328180D01*
X192892605Y-85524227D01*
X193042653Y-85674275D01*
X193238700Y-85755480D01*
X193450900Y-85755480D01*
X193646947Y-85674275D01*
X193683910Y-85637312D01*
X193683909Y-86170789D01*
X193536514Y-86318184D01*
X193455309Y-86514231D01*
X193455309Y-86726431D01*
X193536514Y-86922478D01*
X193542990Y-86928954D01*
X193471849Y-86976489D01*
X193421324Y-87052105D01*
X193403582Y-87141300D01*
X193403582Y-88741300D01*
X193421324Y-88830495D01*
X193471849Y-88906111D01*
X193547465Y-88956636D01*
X193636660Y-88974378D01*
X194286660Y-88974378D01*
X194375855Y-88956636D01*
X194451471Y-88906111D01*
X194501996Y-88830495D01*
X194519738Y-88741300D01*
X194519738Y-88240180D01*
X197017640Y-88240180D01*
X197017640Y-88452380D01*
X197098845Y-88648427D01*
X197248893Y-88798475D01*
X197444940Y-88879680D01*
X197657140Y-88879680D01*
X197853187Y-88798475D01*
X198003235Y-88648427D01*
X198084440Y-88452380D01*
X198084440Y-88315774D01*
X198456091Y-87944123D01*
X198593020Y-88000840D01*
X198805220Y-88000840D01*
X199001267Y-87919635D01*
X199151315Y-87769587D01*
X199232520Y-87573540D01*
X199232520Y-87361340D01*
X199151315Y-87165293D01*
X199001267Y-87015245D01*
X198805220Y-86934040D01*
X198593020Y-86934040D01*
X198396973Y-87015245D01*
X198256816Y-87155402D01*
X198173507Y-87211067D01*
X198153669Y-87240757D01*
X197581546Y-87812880D01*
X197444940Y-87812880D01*
X197248893Y-87894085D01*
X197098845Y-88044133D01*
X197017640Y-88240180D01*
X194519738Y-88240180D01*
X194519738Y-87141300D01*
X194501996Y-87052105D01*
X194451471Y-86976489D01*
X194412759Y-86950623D01*
X194440904Y-86922478D01*
X194522109Y-86726431D01*
X194522109Y-86514231D01*
X194440904Y-86318184D01*
X194293509Y-86170789D01*
X194293509Y-85740240D01*
X194339900Y-85740240D01*
X194535947Y-85659035D01*
X194685995Y-85508987D01*
X194767200Y-85312940D01*
X194767200Y-85100740D01*
X194717790Y-84981454D01*
X194731641Y-84984209D01*
X194761655Y-84978239D01*
X194761659Y-84978239D01*
X194850568Y-84960554D01*
X194951389Y-84893187D01*
X194968393Y-84867739D01*
X195315092Y-84521040D01*
X195523540Y-84521040D01*
X195719587Y-84439835D01*
X195869635Y-84289787D01*
X195950840Y-84093740D01*
X195950840Y-83881540D01*
X195869635Y-83685493D01*
X195719587Y-83535445D01*
X195523540Y-83454240D01*
X195311340Y-83454240D01*
X195115293Y-83535445D01*
X194965245Y-83685493D01*
X194884040Y-83881540D01*
X194884040Y-84089988D01*
X194605389Y-84368639D01*
X193923456Y-84368639D01*
X193893441Y-84362669D01*
X193863426Y-84368639D01*
X193863423Y-84368639D01*
X193774514Y-84386324D01*
X193673693Y-84453691D01*
X193656689Y-84479139D01*
X193447148Y-84688680D01*
X193242452Y-84688680D01*
X191532117Y-82978345D01*
X191587195Y-82923267D01*
X191668400Y-82727220D01*
X191668400Y-82515020D01*
X191587195Y-82318973D01*
X191437147Y-82168925D01*
X191289833Y-82107906D01*
X191552824Y-81844915D01*
X191578268Y-81827914D01*
X191595270Y-81802469D01*
X191595272Y-81802467D01*
X191602733Y-81791300D01*
X193403582Y-81791300D01*
X193403582Y-83931300D01*
X193421324Y-84020495D01*
X193471849Y-84096111D01*
X193547465Y-84146636D01*
X193636660Y-84164378D01*
X194286660Y-84164378D01*
X194375855Y-84146636D01*
X194451471Y-84096111D01*
X194501996Y-84020495D01*
X194519738Y-83931300D01*
X194519738Y-81791300D01*
X194501996Y-81702105D01*
X194451471Y-81626489D01*
X194375855Y-81575964D01*
X194286660Y-81558222D01*
X193636660Y-81558222D01*
X193547465Y-81575964D01*
X193471849Y-81626489D01*
X193421324Y-81702105D01*
X193403582Y-81791300D01*
X191602733Y-81791300D01*
X191645635Y-81727093D01*
X191660710Y-81651303D01*
X191663320Y-81638184D01*
X191663320Y-81638181D01*
X191669290Y-81608166D01*
X191663320Y-81578152D01*
X191663320Y-81495862D01*
X191810715Y-81348467D01*
X191891920Y-81152420D01*
X191891920Y-80940220D01*
X191810715Y-80744173D01*
X191660667Y-80594125D01*
X191464620Y-80512920D01*
X191252420Y-80512920D01*
X191056373Y-80594125D01*
X190906325Y-80744173D01*
X190825120Y-80940220D01*
X190825120Y-81152420D01*
X190906325Y-81348467D01*
X191046746Y-81488888D01*
X190712109Y-81823525D01*
X190712109Y-81784751D01*
X190630904Y-81588704D01*
X190483509Y-81441309D01*
X190483509Y-80726439D01*
X190539901Y-80726439D01*
X190735948Y-80645234D01*
X190885996Y-80495186D01*
X190967201Y-80299139D01*
X190967201Y-80086939D01*
X190885996Y-79890892D01*
X190735948Y-79740844D01*
X190539901Y-79659639D01*
X190327701Y-79659639D01*
X190131654Y-79740844D01*
X189981606Y-79890892D01*
X189900401Y-80086939D01*
X189900401Y-80299139D01*
X189904719Y-80309563D01*
X189891594Y-80329205D01*
X189867939Y-80448131D01*
X189873910Y-80478150D01*
X189873909Y-81441309D01*
X189726514Y-81588704D01*
X189645309Y-81784751D01*
X189645309Y-81996951D01*
X189726514Y-82192998D01*
X189876562Y-82343046D01*
X190072609Y-82424251D01*
X190284809Y-82424251D01*
X190296799Y-82419285D01*
X190296799Y-82596468D01*
X190226427Y-82666840D01*
X190017980Y-82666840D01*
X189821933Y-82748045D01*
X189671885Y-82898093D01*
X189590680Y-83094140D01*
X183472000Y-83094140D01*
X183472000Y-80715411D01*
X187397409Y-80715411D01*
X187397409Y-80927611D01*
X187478614Y-81123658D01*
X187628662Y-81273706D01*
X187824709Y-81354911D01*
X188036909Y-81354911D01*
X188232956Y-81273706D01*
X188383004Y-81123658D01*
X188464209Y-80927611D01*
X188464209Y-80719163D01*
X188639972Y-80543400D01*
X188843340Y-80543400D01*
X189039387Y-80462195D01*
X189189435Y-80312147D01*
X189270640Y-80116100D01*
X189270640Y-79903900D01*
X189189435Y-79707853D01*
X189039387Y-79557805D01*
X188843340Y-79476600D01*
X188631140Y-79476600D01*
X188435093Y-79557805D01*
X188285045Y-79707853D01*
X188203840Y-79903900D01*
X188203840Y-80116100D01*
X188204229Y-80117039D01*
X188033157Y-80288111D01*
X187824709Y-80288111D01*
X187628662Y-80369316D01*
X187478614Y-80519364D01*
X187397409Y-80715411D01*
X183472000Y-80715411D01*
X183472000Y-77605843D01*
X183474861Y-77581300D01*
X194208582Y-77581300D01*
X194208582Y-78981300D01*
X194226324Y-79070495D01*
X194276849Y-79146111D01*
X194352465Y-79196636D01*
X194441660Y-79214378D01*
X195241660Y-79214378D01*
X195330855Y-79196636D01*
X195391660Y-79156007D01*
X195452465Y-79196636D01*
X195498721Y-79205837D01*
X195498720Y-79768738D01*
X195351325Y-79916133D01*
X195270120Y-80112180D01*
X195270120Y-80324380D01*
X195351325Y-80520427D01*
X195412707Y-80581809D01*
X195381300Y-80568800D01*
X195169100Y-80568800D01*
X194973053Y-80650005D01*
X194823005Y-80800053D01*
X194741800Y-80996100D01*
X194741800Y-81208300D01*
X194823005Y-81404347D01*
X194973053Y-81554395D01*
X195169100Y-81635600D01*
X195381300Y-81635600D01*
X195577347Y-81554395D01*
X195724742Y-81407000D01*
X196974420Y-81407000D01*
X197004434Y-81412970D01*
X197034448Y-81407000D01*
X197034452Y-81407000D01*
X197123361Y-81389315D01*
X197224182Y-81321948D01*
X197241186Y-81296500D01*
X197836861Y-80700825D01*
X197836861Y-81088761D01*
X197830890Y-81118780D01*
X197836686Y-81147920D01*
X197632900Y-81147920D01*
X197436853Y-81229125D01*
X197286805Y-81379173D01*
X197205600Y-81575220D01*
X197205600Y-81787420D01*
X197286805Y-81983467D01*
X197434200Y-82130862D01*
X197434201Y-84056461D01*
X197220974Y-84269688D01*
X197159955Y-84122373D01*
X197012560Y-83974978D01*
X197012560Y-83753494D01*
X197018530Y-83723479D01*
X197012560Y-83693465D01*
X197012560Y-83693462D01*
X196994875Y-83604553D01*
X196944512Y-83529179D01*
X196944510Y-83529177D01*
X196927508Y-83503732D01*
X196902063Y-83486730D01*
X196350909Y-82935577D01*
X196350909Y-82727129D01*
X196269704Y-82531082D01*
X196119656Y-82381034D01*
X195923609Y-82299829D01*
X195711409Y-82299829D01*
X195515362Y-82381034D01*
X195365314Y-82531082D01*
X195284109Y-82727129D01*
X195284109Y-82939329D01*
X195365314Y-83135376D01*
X195515362Y-83285424D01*
X195711409Y-83366629D01*
X195919857Y-83366629D01*
X196402961Y-83849734D01*
X196402961Y-83974977D01*
X196255565Y-84122373D01*
X196174360Y-84318420D01*
X196174360Y-84530620D01*
X196255565Y-84726667D01*
X196405613Y-84876715D01*
X196552928Y-84937734D01*
X196524982Y-84965680D01*
X196476507Y-84917205D01*
X196280460Y-84836000D01*
X196068260Y-84836000D01*
X195872213Y-84917205D01*
X195722165Y-85067253D01*
X195640960Y-85263300D01*
X195640960Y-85475500D01*
X195722165Y-85671547D01*
X195872213Y-85821595D01*
X196068260Y-85902800D01*
X196280460Y-85902800D01*
X196476507Y-85821595D01*
X196626555Y-85671547D01*
X196629328Y-85664852D01*
X196671241Y-85656515D01*
X196772062Y-85589148D01*
X196789066Y-85563700D01*
X196977706Y-85375060D01*
X200969880Y-85375060D01*
X200969880Y-85587260D01*
X201051085Y-85783307D01*
X201201133Y-85933355D01*
X201397180Y-86014560D01*
X201609380Y-86014560D01*
X201805427Y-85933355D01*
X201952822Y-85785960D01*
X204552028Y-85785960D01*
X204835760Y-86069693D01*
X204835760Y-86278140D01*
X204916965Y-86474187D01*
X205067013Y-86624235D01*
X205263060Y-86705440D01*
X205475260Y-86705440D01*
X205671307Y-86624235D01*
X205821355Y-86474187D01*
X205902560Y-86278140D01*
X205902560Y-86065940D01*
X205821355Y-85869893D01*
X205724760Y-85773298D01*
X205724760Y-84658174D01*
X207035273Y-83347661D01*
X207028582Y-83381300D01*
X207028582Y-84531300D01*
X207046324Y-84620495D01*
X207096849Y-84696111D01*
X207172465Y-84746636D01*
X207261660Y-84764378D01*
X207861660Y-84764378D01*
X207950855Y-84746636D01*
X208026471Y-84696111D01*
X208076996Y-84620495D01*
X208094738Y-84531300D01*
X208094738Y-83381300D01*
X208076996Y-83292105D01*
X208026471Y-83216489D01*
X207950855Y-83165964D01*
X207861660Y-83148222D01*
X207261660Y-83148222D01*
X207228021Y-83154913D01*
X207634814Y-82748120D01*
X208130178Y-82748120D01*
X208226773Y-82844715D01*
X208422820Y-82925920D01*
X208635020Y-82925920D01*
X208831067Y-82844715D01*
X208981115Y-82694667D01*
X209062320Y-82498620D01*
X209062320Y-82286420D01*
X208981115Y-82090373D01*
X208831067Y-81940325D01*
X208635020Y-81859120D01*
X208422820Y-81859120D01*
X208226773Y-81940325D01*
X208130178Y-82036920D01*
X207522534Y-82036920D01*
X207487519Y-82029955D01*
X207452504Y-82036920D01*
X207452500Y-82036920D01*
X207348772Y-82057553D01*
X207231147Y-82136147D01*
X207211309Y-82165837D01*
X205142475Y-84234671D01*
X205112788Y-84254507D01*
X205092952Y-84284194D01*
X205092950Y-84284196D01*
X205034193Y-84372133D01*
X205006594Y-84510880D01*
X205013561Y-84545905D01*
X205013560Y-85385388D01*
X204915032Y-85286860D01*
X204898028Y-85261412D01*
X204797207Y-85194045D01*
X204708298Y-85176360D01*
X204708294Y-85176360D01*
X204678280Y-85170390D01*
X204648266Y-85176360D01*
X201952822Y-85176360D01*
X201805427Y-85028965D01*
X201609380Y-84947760D01*
X201397180Y-84947760D01*
X201201133Y-85028965D01*
X201051085Y-85179013D01*
X200969880Y-85375060D01*
X196977706Y-85375060D01*
X197933300Y-84419466D01*
X197958748Y-84402462D01*
X198026115Y-84301641D01*
X198043800Y-84212732D01*
X198043800Y-84212728D01*
X198049770Y-84182715D01*
X198043800Y-84152702D01*
X198043800Y-82130862D01*
X198191195Y-81983467D01*
X198272400Y-81787420D01*
X198272400Y-81680572D01*
X198511160Y-81919332D01*
X198511160Y-82127780D01*
X198592365Y-82323827D01*
X198742413Y-82473875D01*
X198938460Y-82555080D01*
X199150660Y-82555080D01*
X199346707Y-82473875D01*
X199496755Y-82323827D01*
X199577960Y-82127780D01*
X199577960Y-81915580D01*
X199496755Y-81719533D01*
X199346707Y-81569485D01*
X199150660Y-81488280D01*
X198942212Y-81488280D01*
X198446460Y-80992528D01*
X198446460Y-79994988D01*
X198452430Y-79964975D01*
X198446460Y-79934962D01*
X198446460Y-79919140D01*
X200685400Y-79919140D01*
X200685400Y-80131340D01*
X200766605Y-80327387D01*
X200916653Y-80477435D01*
X201112700Y-80558640D01*
X201324900Y-80558640D01*
X201520947Y-80477435D01*
X201670995Y-80327387D01*
X201752200Y-80131340D01*
X201752200Y-79919140D01*
X201670995Y-79723093D01*
X201523600Y-79575698D01*
X201523600Y-79214378D01*
X201841660Y-79214378D01*
X201930855Y-79196636D01*
X201991660Y-79156007D01*
X202052465Y-79196636D01*
X202141660Y-79214378D01*
X202941660Y-79214378D01*
X203030855Y-79196636D01*
X203106471Y-79146111D01*
X203156996Y-79070495D01*
X203174738Y-78981300D01*
X203174738Y-77581300D01*
X203156996Y-77492105D01*
X203106471Y-77416489D01*
X203030855Y-77365964D01*
X202941660Y-77348222D01*
X202141660Y-77348222D01*
X202052465Y-77365964D01*
X201991660Y-77406593D01*
X201930855Y-77365964D01*
X201841660Y-77348222D01*
X201041660Y-77348222D01*
X200952465Y-77365964D01*
X200876849Y-77416489D01*
X200826324Y-77492105D01*
X200808582Y-77581300D01*
X200808582Y-78981300D01*
X200826324Y-79070495D01*
X200876849Y-79146111D01*
X200914001Y-79170935D01*
X200914000Y-79575698D01*
X200766605Y-79723093D01*
X200685400Y-79919140D01*
X198446460Y-79919140D01*
X198446460Y-79214378D01*
X198541660Y-79214378D01*
X198630855Y-79196636D01*
X198691660Y-79156007D01*
X198752465Y-79196636D01*
X198841660Y-79214378D01*
X199641660Y-79214378D01*
X199730855Y-79196636D01*
X199806471Y-79146111D01*
X199856996Y-79070495D01*
X199874738Y-78981300D01*
X199874738Y-77581300D01*
X199856996Y-77492105D01*
X199806471Y-77416489D01*
X199730855Y-77365964D01*
X199641660Y-77348222D01*
X199536383Y-77348222D01*
X199528775Y-77309973D01*
X199461408Y-77209152D01*
X199435961Y-77192149D01*
X198960712Y-76716900D01*
X198943708Y-76691452D01*
X198842887Y-76624085D01*
X198753978Y-76606400D01*
X198753974Y-76606400D01*
X198723960Y-76600430D01*
X198693946Y-76606400D01*
X195826342Y-76606400D01*
X195678947Y-76459005D01*
X195482900Y-76377800D01*
X195270700Y-76377800D01*
X195074653Y-76459005D01*
X194924605Y-76609053D01*
X194843400Y-76805100D01*
X194843400Y-77017300D01*
X194924605Y-77213347D01*
X195059480Y-77348222D01*
X194441660Y-77348222D01*
X194352465Y-77365964D01*
X194276849Y-77416489D01*
X194226324Y-77492105D01*
X194208582Y-77581300D01*
X183474861Y-77581300D01*
X183545815Y-76972712D01*
X183756746Y-76391609D01*
X184095705Y-75874611D01*
X184544500Y-75449463D01*
X184920095Y-75231300D01*
X206748582Y-75231300D01*
X206748582Y-76731300D01*
X206766324Y-76820495D01*
X206816849Y-76896111D01*
X206892465Y-76946636D01*
X206981660Y-76964378D01*
X208141660Y-76964378D01*
X208230855Y-76946636D01*
X208306471Y-76896111D01*
X208356996Y-76820495D01*
X208374738Y-76731300D01*
X208374738Y-75231300D01*
X208356996Y-75142105D01*
X208306471Y-75066489D01*
X208230855Y-75015964D01*
X208141660Y-74998222D01*
X206981660Y-74998222D01*
X206892465Y-75015964D01*
X206816849Y-75066489D01*
X206766324Y-75142105D01*
X206748582Y-75231300D01*
X184920095Y-75231300D01*
X185079069Y-75138961D01*
X185675034Y-74958460D01*
X186158034Y-74915354D01*
X210124311Y-74915354D01*
X210757442Y-74989169D01*
G04 #@! TD*
M02*
