G04 #@! TF.GenerationSoftware,KiCad,Pcbnew,5.0.0-fee4fd1~66~ubuntu16.04.1*
G04 #@! TF.CreationDate,2019-02-25T08:40:39-05:00*
G04 #@! TF.ProjectId,circuit,636972637569742E6B696361645F7063,rev?*
G04 #@! TF.SameCoordinates,Original*
G04 #@! TF.FileFunction,Paste,Top*
G04 #@! TF.FilePolarity,Positive*
%FSLAX46Y46*%
G04 Gerber Fmt 4.6, Leading zero omitted, Abs format (unit mm)*
G04 Created by KiCad (PCBNEW 5.0.0-fee4fd1~66~ubuntu16.04.1) date Mon Feb 25 08:40:39 2019*
%MOMM*%
%LPD*%
G01*
G04 APERTURE LIST*
%ADD10R,1.145000X0.550000*%
%ADD11R,0.550000X1.145000*%
%ADD12R,1.250000X1.000000*%
%ADD13R,1.000000X1.250000*%
%ADD14R,1.200000X1.200000*%
%ADD15R,1.000000X3.500000*%
%ADD16R,1.500000X3.400000*%
%ADD17R,1.300000X0.700000*%
%ADD18R,0.700000X1.300000*%
%ADD19R,1.400000X1.500000*%
%ADD20R,1.600000X0.550000*%
%ADD21R,0.550000X1.600000*%
%ADD22R,1.500000X1.900000*%
%ADD23R,0.400000X1.350000*%
%ADD24R,2.000000X1.500000*%
%ADD25R,2.000000X3.800000*%
G04 APERTURE END LIST*
D10*
G04 #@! TO.C,U3*
X189643800Y-88428580D03*
X189643800Y-84428580D03*
X189643800Y-87628580D03*
X189643800Y-85228580D03*
X191838800Y-84428580D03*
X191838800Y-85228580D03*
X191838800Y-88428580D03*
X191838800Y-87628580D03*
X189643800Y-86028580D03*
X189643800Y-86828580D03*
X191838800Y-86028580D03*
X191838800Y-86828580D03*
D11*
X190741300Y-84331080D03*
X190741300Y-88526080D03*
G04 #@! TD*
D12*
G04 #@! TO.C,C1*
X193987420Y-108022640D03*
X193987420Y-110022640D03*
G04 #@! TD*
G04 #@! TO.C,C4*
X207627220Y-97818700D03*
X207627220Y-99818700D03*
G04 #@! TD*
D13*
G04 #@! TO.C,C5*
X204005940Y-95410020D03*
X206005940Y-95410020D03*
G04 #@! TD*
D12*
G04 #@! TO.C,C6*
X191117220Y-101068380D03*
X191117220Y-99068380D03*
G04 #@! TD*
G04 #@! TO.C,C7*
X204099160Y-103572060D03*
X204099160Y-101572060D03*
G04 #@! TD*
D14*
G04 #@! TO.C,D1*
X198948400Y-76248260D03*
X196748400Y-76248260D03*
G04 #@! TD*
G04 #@! TO.C,D2*
X205173580Y-109816720D03*
X205173580Y-112016720D03*
G04 #@! TD*
G04 #@! TO.C,D3*
X211528660Y-79651500D03*
X211528660Y-81851500D03*
G04 #@! TD*
D15*
G04 #@! TO.C,J1*
X207116680Y-82344260D03*
X205116680Y-82344260D03*
D16*
X209466680Y-76794260D03*
X202766680Y-76794260D03*
G04 #@! TD*
D17*
G04 #@! TO.C,R1*
X207180180Y-110368040D03*
X207180180Y-112268040D03*
G04 #@! TD*
D18*
G04 #@! TO.C,R2*
X198750000Y-78315820D03*
X196850000Y-78315820D03*
G04 #@! TD*
D17*
G04 #@! TO.C,R3*
X211576920Y-83550720D03*
X211576920Y-85450720D03*
G04 #@! TD*
G04 #@! TO.C,R4*
X197464680Y-93847960D03*
X197464680Y-91947960D03*
G04 #@! TD*
D18*
G04 #@! TO.C,R5*
X189725380Y-106011980D03*
X187825380Y-106011980D03*
G04 #@! TD*
G04 #@! TO.C,R6*
X200367940Y-107188000D03*
X198467940Y-107188000D03*
G04 #@! TD*
D17*
G04 #@! TO.C,R7*
X191114680Y-95595400D03*
X191114680Y-97495400D03*
G04 #@! TD*
D19*
G04 #@! TO.C,U1*
X191843820Y-108157920D03*
X188043820Y-108157920D03*
X191843820Y-112557920D03*
X188043820Y-112557920D03*
G04 #@! TD*
D20*
G04 #@! TO.C,U4*
X201856920Y-103556720D03*
X201856920Y-102756720D03*
X201856920Y-101956720D03*
X201856920Y-101156720D03*
X201856920Y-100356720D03*
X201856920Y-99556720D03*
X201856920Y-98756720D03*
X201856920Y-97956720D03*
D21*
X200406920Y-96506720D03*
X199606920Y-96506720D03*
X198806920Y-96506720D03*
X198006920Y-96506720D03*
X197206920Y-96506720D03*
X196406920Y-96506720D03*
X195606920Y-96506720D03*
X194806920Y-96506720D03*
D20*
X193356920Y-97956720D03*
X193356920Y-98756720D03*
X193356920Y-99556720D03*
X193356920Y-100356720D03*
X193356920Y-101156720D03*
X193356920Y-101956720D03*
X193356920Y-102756720D03*
X193356920Y-103556720D03*
D21*
X194806920Y-105006720D03*
X195606920Y-105006720D03*
X196406920Y-105006720D03*
X197206920Y-105006720D03*
X198006920Y-105006720D03*
X198806920Y-105006720D03*
X199606920Y-105006720D03*
X200406920Y-105006720D03*
G04 #@! TD*
D22*
G04 #@! TO.C,J5*
X190349380Y-76083680D03*
D23*
X189349380Y-78783680D03*
X188699380Y-78783680D03*
X188049380Y-78783680D03*
X190649380Y-78783680D03*
X189999380Y-78783680D03*
D22*
X188349380Y-76083680D03*
G04 #@! TD*
D12*
G04 #@! TO.C,C2*
X209494120Y-85248240D03*
X209494120Y-87248240D03*
G04 #@! TD*
D13*
G04 #@! TO.C,C3*
X204819760Y-92458540D03*
X202819760Y-92458540D03*
G04 #@! TD*
D24*
G04 #@! TO.C,U2*
X207132320Y-90074780D03*
X207132320Y-85474780D03*
X207132320Y-87774780D03*
D25*
X200832320Y-87774780D03*
G04 #@! TD*
D12*
G04 #@! TO.C,C8*
X187756800Y-84437980D03*
X187756800Y-86437980D03*
G04 #@! TD*
G04 #@! TO.C,C9*
X185722260Y-86440520D03*
X185722260Y-84440520D03*
G04 #@! TD*
M02*
