G04 #@! TF.GenerationSoftware,KiCad,Pcbnew,5.0.0-fee4fd1~66~ubuntu16.04.1*
G04 #@! TF.CreationDate,2019-03-22T18:21:00-04:00*
G04 #@! TF.ProjectId,circuit,636972637569742E6B696361645F7063,rev?*
G04 #@! TF.SameCoordinates,Original*
G04 #@! TF.FileFunction,Copper,L1,Top,Signal*
G04 #@! TF.FilePolarity,Positive*
%FSLAX46Y46*%
G04 Gerber Fmt 4.6, Leading zero omitted, Abs format (unit mm)*
G04 Created by KiCad (PCBNEW 5.0.0-fee4fd1~66~ubuntu16.04.1) date Fri Mar 22 18:21:00 2019*
%MOMM*%
%LPD*%
G01*
G04 APERTURE LIST*
G04 #@! TA.AperFunction,SMDPad,CuDef*
%ADD10R,1.500000X0.600000*%
G04 #@! TD*
G04 #@! TA.AperFunction,SMDPad,CuDef*
%ADD11R,0.550000X1.545000*%
G04 #@! TD*
G04 #@! TA.AperFunction,SMDPad,CuDef*
%ADD12R,1.545000X0.550000*%
G04 #@! TD*
G04 #@! TA.AperFunction,SMDPad,CuDef*
%ADD13R,1.250000X1.000000*%
G04 #@! TD*
G04 #@! TA.AperFunction,SMDPad,CuDef*
%ADD14R,1.000000X1.250000*%
G04 #@! TD*
G04 #@! TA.AperFunction,SMDPad,CuDef*
%ADD15R,1.200000X1.200000*%
G04 #@! TD*
G04 #@! TA.AperFunction,SMDPad,CuDef*
%ADD16R,1.000000X3.500000*%
G04 #@! TD*
G04 #@! TA.AperFunction,SMDPad,CuDef*
%ADD17R,1.500000X3.400000*%
G04 #@! TD*
G04 #@! TA.AperFunction,SMDPad,CuDef*
%ADD18R,1.300000X0.700000*%
G04 #@! TD*
G04 #@! TA.AperFunction,SMDPad,CuDef*
%ADD19R,0.700000X1.300000*%
G04 #@! TD*
G04 #@! TA.AperFunction,SMDPad,CuDef*
%ADD20R,1.400000X1.500000*%
G04 #@! TD*
G04 #@! TA.AperFunction,SMDPad,CuDef*
%ADD21R,1.600000X0.550000*%
G04 #@! TD*
G04 #@! TA.AperFunction,SMDPad,CuDef*
%ADD22R,0.550000X1.600000*%
G04 #@! TD*
G04 #@! TA.AperFunction,SMDPad,CuDef*
%ADD23R,1.200000X1.400000*%
G04 #@! TD*
G04 #@! TA.AperFunction,SMDPad,CuDef*
%ADD24R,0.800000X0.550000*%
G04 #@! TD*
G04 #@! TA.AperFunction,SMDPad,CuDef*
%ADD25R,1.200000X1.900000*%
G04 #@! TD*
G04 #@! TA.AperFunction,ComponentPad*
%ADD26O,1.200000X1.900000*%
G04 #@! TD*
G04 #@! TA.AperFunction,SMDPad,CuDef*
%ADD27R,1.500000X1.900000*%
G04 #@! TD*
G04 #@! TA.AperFunction,ComponentPad*
%ADD28C,1.450000*%
G04 #@! TD*
G04 #@! TA.AperFunction,SMDPad,CuDef*
%ADD29R,0.400000X1.350000*%
G04 #@! TD*
G04 #@! TA.AperFunction,ViaPad*
%ADD30C,0.609600*%
G04 #@! TD*
G04 #@! TA.AperFunction,Conductor*
%ADD31C,0.254000*%
G04 #@! TD*
G04 #@! TA.AperFunction,Conductor*
%ADD32C,0.152400*%
G04 #@! TD*
G04 #@! TA.AperFunction,Conductor*
%ADD33C,0.381000*%
G04 #@! TD*
G04 APERTURE END LIST*
D10*
G04 #@! TO.P,U6,16*
G04 #@! TO.N,Net-(U6-Pad16)*
X191320000Y-87665000D03*
G04 #@! TO.P,U6,15*
G04 #@! TO.N,/SCL*
X191320000Y-88935000D03*
G04 #@! TO.P,U6,14*
G04 #@! TO.N,/SCL_3V*
X191320000Y-90205000D03*
G04 #@! TO.P,U6,13*
G04 #@! TO.N,Net-(U6-Pad13)*
X191320000Y-91475000D03*
G04 #@! TO.P,U6,12*
G04 #@! TO.N,/SDA*
X191320000Y-92745000D03*
G04 #@! TO.P,U6,11*
G04 #@! TO.N,/SDA_3V*
X191320000Y-94015000D03*
G04 #@! TO.P,U6,10*
G04 #@! TO.N,/SD_CS*
X191320000Y-95285000D03*
G04 #@! TO.P,U6,9*
G04 #@! TO.N,/SD_CS_3V*
X191320000Y-96555000D03*
G04 #@! TO.P,U6,8*
G04 #@! TO.N,GND*
X185920000Y-96555000D03*
G04 #@! TO.P,U6,7*
G04 #@! TO.N,/SCK_3V*
X185920000Y-95285000D03*
G04 #@! TO.P,U6,6*
G04 #@! TO.N,/SCK*
X185920000Y-94015000D03*
G04 #@! TO.P,U6,5*
G04 #@! TO.N,/MISO_3V*
X185920000Y-92745000D03*
G04 #@! TO.P,U6,4*
G04 #@! TO.N,/MISO*
X185920000Y-91475000D03*
G04 #@! TO.P,U6,3*
G04 #@! TO.N,/MOSI_3V*
X185920000Y-90205000D03*
G04 #@! TO.P,U6,2*
G04 #@! TO.N,/MOSI*
X185920000Y-88935000D03*
G04 #@! TO.P,U6,1*
G04 #@! TO.N,VCC*
X185920000Y-87665000D03*
G04 #@! TD*
D11*
G04 #@! TO.P,U3,7*
G04 #@! TO.N,Net-(R9-Pad2)*
X205210000Y-95847500D03*
G04 #@! TO.P,U3,14*
G04 #@! TO.N,/SCL_3V*
X205210000Y-91252500D03*
D12*
G04 #@! TO.P,U3,*
G04 #@! TO.N,*
X206507500Y-93950000D03*
X206507500Y-93150000D03*
G04 #@! TO.P,U3,4*
G04 #@! TO.N,GND*
X203912500Y-93950000D03*
G04 #@! TO.P,U3,*
G04 #@! TO.N,*
X203912500Y-93150000D03*
G04 #@! TO.P,U3,9*
G04 #@! TO.N,/INT2*
X206507500Y-94750000D03*
G04 #@! TO.P,U3,8*
G04 #@! TO.N,/INT1*
X206507500Y-95550000D03*
G04 #@! TO.P,U3,12*
G04 #@! TO.N,Net-(R11-Pad1)*
X206507500Y-92350000D03*
G04 #@! TO.P,U3,13*
G04 #@! TO.N,/SDA_3V*
X206507500Y-91550000D03*
G04 #@! TO.P,U3,2*
G04 #@! TO.N,GND*
X203912500Y-92350000D03*
G04 #@! TO.P,U3,5*
X203912500Y-94750000D03*
G04 #@! TO.P,U3,1*
G04 #@! TO.N,VCC*
X203912500Y-91550000D03*
G04 #@! TO.P,U3,6*
X203912500Y-95550000D03*
G04 #@! TD*
D13*
G04 #@! TO.P,C1,1*
G04 #@! TO.N,/Battery+*
X186070000Y-112640000D03*
G04 #@! TO.P,C1,2*
G04 #@! TO.N,GND*
X186070000Y-110640000D03*
G04 #@! TD*
G04 #@! TO.P,C4,2*
G04 #@! TO.N,GND*
X209857220Y-101508700D03*
G04 #@! TO.P,C4,1*
G04 #@! TO.N,Net-(C4-Pad1)*
X209857220Y-103508700D03*
G04 #@! TD*
D14*
G04 #@! TO.P,C5,1*
G04 #@! TO.N,Net-(C5-Pad1)*
X206235940Y-99100020D03*
G04 #@! TO.P,C5,2*
G04 #@! TO.N,GND*
X208235940Y-99100020D03*
G04 #@! TD*
D13*
G04 #@! TO.P,C6,2*
G04 #@! TO.N,GND*
X193370000Y-104970000D03*
G04 #@! TO.P,C6,1*
G04 #@! TO.N,Net-(C6-Pad1)*
X193370000Y-102970000D03*
G04 #@! TD*
G04 #@! TO.P,C7,1*
G04 #@! TO.N,GND*
X206329160Y-107262060D03*
G04 #@! TO.P,C7,2*
G04 #@! TO.N,/Battery+*
X206329160Y-105262060D03*
G04 #@! TD*
D15*
G04 #@! TO.P,D1,1*
G04 #@! TO.N,GND*
X200660000Y-75750000D03*
G04 #@! TO.P,D1,2*
G04 #@! TO.N,Net-(D1-Pad2)*
X198460000Y-75750000D03*
G04 #@! TD*
G04 #@! TO.P,D2,2*
G04 #@! TO.N,/P_LED_1*
X208373580Y-110446720D03*
G04 #@! TO.P,D2,1*
G04 #@! TO.N,Net-(D2-Pad1)*
X208373580Y-112646720D03*
G04 #@! TD*
G04 #@! TO.P,D3,2*
G04 #@! TO.N,VCC*
X211528660Y-79651500D03*
G04 #@! TO.P,D3,1*
G04 #@! TO.N,Net-(D3-Pad1)*
X211528660Y-81851500D03*
G04 #@! TD*
D16*
G04 #@! TO.P,J1,1*
G04 #@! TO.N,/Battery+*
X207116680Y-82344260D03*
G04 #@! TO.P,J1,2*
G04 #@! TO.N,GND*
X205116680Y-82344260D03*
D17*
G04 #@! TO.P,J1,*
G04 #@! TO.N,*
X209466680Y-76794260D03*
X202766680Y-76794260D03*
G04 #@! TD*
D18*
G04 #@! TO.P,R1,1*
G04 #@! TO.N,GND*
X210380180Y-110998040D03*
G04 #@! TO.P,R1,2*
G04 #@! TO.N,Net-(D2-Pad1)*
X210380180Y-112898040D03*
G04 #@! TD*
D19*
G04 #@! TO.P,R2,1*
G04 #@! TO.N,/cardIN*
X194860000Y-75780000D03*
G04 #@! TO.P,R2,2*
G04 #@! TO.N,Net-(D1-Pad2)*
X196760000Y-75780000D03*
G04 #@! TD*
D18*
G04 #@! TO.P,R3,2*
G04 #@! TO.N,Net-(D3-Pad1)*
X211576920Y-83550720D03*
G04 #@! TO.P,R3,1*
G04 #@! TO.N,GND*
X211576920Y-85450720D03*
G04 #@! TD*
G04 #@! TO.P,R4,1*
G04 #@! TO.N,/cardIN*
X200930000Y-83630000D03*
G04 #@! TO.P,R4,2*
G04 #@! TO.N,GND*
X200930000Y-81730000D03*
G04 #@! TD*
D19*
G04 #@! TO.P,R5,2*
G04 #@! TO.N,/Neopix*
X189725380Y-106011980D03*
G04 #@! TO.P,R5,1*
G04 #@! TO.N,Net-(R5-Pad1)*
X187825380Y-106011980D03*
G04 #@! TD*
G04 #@! TO.P,R6,2*
G04 #@! TO.N,/Battery+*
X202597940Y-110878000D03*
G04 #@! TO.P,R6,1*
G04 #@! TO.N,/RESET*
X200697940Y-110878000D03*
G04 #@! TD*
D18*
G04 #@! TO.P,R7,1*
G04 #@! TO.N,/Battery+*
X191360000Y-102830000D03*
G04 #@! TO.P,R7,2*
G04 #@! TO.N,Net-(C6-Pad1)*
X191360000Y-104730000D03*
G04 #@! TD*
D20*
G04 #@! TO.P,U1,1*
G04 #@! TO.N,GND*
X191843820Y-108157920D03*
G04 #@! TO.P,U1,2*
G04 #@! TO.N,Net-(R5-Pad1)*
X188043820Y-108157920D03*
G04 #@! TO.P,U1,4*
G04 #@! TO.N,Net-(U1-Pad4)*
X191843820Y-112557920D03*
G04 #@! TO.P,U1,3*
G04 #@! TO.N,/Battery+*
X188043820Y-112557920D03*
G04 #@! TD*
D21*
G04 #@! TO.P,U4,1*
G04 #@! TO.N,Net-(U4-Pad1)*
X204086920Y-107246720D03*
G04 #@! TO.P,U4,2*
G04 #@! TO.N,Net-(U4-Pad2)*
X204086920Y-106446720D03*
G04 #@! TO.P,U4,3*
G04 #@! TO.N,GND*
X204086920Y-105646720D03*
G04 #@! TO.P,U4,4*
G04 #@! TO.N,/Battery+*
X204086920Y-104846720D03*
G04 #@! TO.P,U4,5*
G04 #@! TO.N,GND*
X204086920Y-104046720D03*
G04 #@! TO.P,U4,6*
G04 #@! TO.N,/Battery+*
X204086920Y-103246720D03*
G04 #@! TO.P,U4,7*
G04 #@! TO.N,Net-(C4-Pad1)*
X204086920Y-102446720D03*
G04 #@! TO.P,U4,8*
G04 #@! TO.N,Net-(C5-Pad1)*
X204086920Y-101646720D03*
D22*
G04 #@! TO.P,U4,9*
G04 #@! TO.N,Net-(U4-Pad9)*
X202636920Y-100196720D03*
G04 #@! TO.P,U4,10*
G04 #@! TO.N,Net-(U4-Pad10)*
X201836920Y-100196720D03*
G04 #@! TO.P,U4,11*
G04 #@! TO.N,/SD_CS*
X201036920Y-100196720D03*
G04 #@! TO.P,U4,12*
G04 #@! TO.N,/cardIN*
X200236920Y-100196720D03*
G04 #@! TO.P,U4,13*
G04 #@! TO.N,/INT2*
X199436920Y-100196720D03*
G04 #@! TO.P,U4,14*
G04 #@! TO.N,/INT1*
X198636920Y-100196720D03*
G04 #@! TO.P,U4,15*
G04 #@! TO.N,/MOSI*
X197836920Y-100196720D03*
G04 #@! TO.P,U4,16*
G04 #@! TO.N,/MISO*
X197036920Y-100196720D03*
D21*
G04 #@! TO.P,U4,17*
G04 #@! TO.N,/SCK*
X195586920Y-101646720D03*
G04 #@! TO.P,U4,18*
G04 #@! TO.N,Net-(C6-Pad1)*
X195586920Y-102446720D03*
G04 #@! TO.P,U4,19*
G04 #@! TO.N,Net-(U4-Pad19)*
X195586920Y-103246720D03*
G04 #@! TO.P,U4,20*
G04 #@! TO.N,Net-(U4-Pad20)*
X195586920Y-104046720D03*
G04 #@! TO.P,U4,21*
G04 #@! TO.N,GND*
X195586920Y-104846720D03*
G04 #@! TO.P,U4,22*
G04 #@! TO.N,Net-(U4-Pad22)*
X195586920Y-105646720D03*
G04 #@! TO.P,U4,23*
G04 #@! TO.N,Net-(U4-Pad23)*
X195586920Y-106446720D03*
G04 #@! TO.P,U4,24*
G04 #@! TO.N,/P_LED_1*
X195586920Y-107246720D03*
D22*
G04 #@! TO.P,U4,25*
G04 #@! TO.N,Net-(U4-Pad25)*
X197036920Y-108696720D03*
G04 #@! TO.P,U4,26*
G04 #@! TO.N,/Neopix*
X197836920Y-108696720D03*
G04 #@! TO.P,U4,27*
G04 #@! TO.N,/SDA*
X198636920Y-108696720D03*
G04 #@! TO.P,U4,28*
G04 #@! TO.N,/SCL*
X199436920Y-108696720D03*
G04 #@! TO.P,U4,29*
G04 #@! TO.N,/RESET*
X200236920Y-108696720D03*
G04 #@! TO.P,U4,30*
G04 #@! TO.N,Net-(U4-Pad30)*
X201036920Y-108696720D03*
G04 #@! TO.P,U4,31*
G04 #@! TO.N,Net-(U4-Pad31)*
X201836920Y-108696720D03*
G04 #@! TO.P,U4,32*
G04 #@! TO.N,Net-(U4-Pad32)*
X202636920Y-108696720D03*
G04 #@! TD*
D23*
G04 #@! TO.P,Y1,1*
G04 #@! TO.N,Net-(C4-Pad1)*
X207893700Y-103418200D03*
G04 #@! TO.P,Y1,2*
G04 #@! TO.N,GND*
X207893700Y-101218200D03*
G04 #@! TO.P,Y1,3*
G04 #@! TO.N,Net-(C5-Pad1)*
X206293700Y-101218200D03*
G04 #@! TO.P,Y1,4*
G04 #@! TO.N,GND*
X206293700Y-103418200D03*
G04 #@! TD*
D13*
G04 #@! TO.P,C2,2*
G04 #@! TO.N,GND*
X205360000Y-85870000D03*
G04 #@! TO.P,C2,1*
G04 #@! TO.N,/Battery+*
X205360000Y-87870000D03*
G04 #@! TD*
G04 #@! TO.P,C3,1*
G04 #@! TO.N,VCC*
X199800000Y-87890000D03*
G04 #@! TO.P,C3,2*
G04 #@! TO.N,GND*
X199800000Y-85890000D03*
G04 #@! TD*
D18*
G04 #@! TO.P,R8,2*
G04 #@! TO.N,/SCL_3V*
X195490000Y-87830000D03*
G04 #@! TO.P,R8,1*
G04 #@! TO.N,VCC*
X195490000Y-85930000D03*
G04 #@! TD*
D19*
G04 #@! TO.P,R9,1*
G04 #@! TO.N,VCC*
X199280000Y-95630000D03*
G04 #@! TO.P,R9,2*
G04 #@! TO.N,Net-(R9-Pad2)*
X201180000Y-95630000D03*
G04 #@! TD*
D18*
G04 #@! TO.P,R10,2*
G04 #@! TO.N,/SDA_3V*
X197570000Y-87850000D03*
G04 #@! TO.P,R10,1*
G04 #@! TO.N,VCC*
X197570000Y-85950000D03*
G04 #@! TD*
G04 #@! TO.P,R11,1*
G04 #@! TO.N,Net-(R11-Pad1)*
X210810000Y-92350000D03*
G04 #@! TO.P,R11,2*
G04 #@! TO.N,GND*
X210810000Y-90450000D03*
G04 #@! TD*
D24*
G04 #@! TO.P,U2,5*
G04 #@! TO.N,VCC*
X201350000Y-87710000D03*
G04 #@! TO.P,U2,4*
G04 #@! TO.N,Net-(U2-Pad4)*
X201350000Y-85810000D03*
G04 #@! TO.P,U2,3*
G04 #@! TO.N,/Battery+*
X203750000Y-85810000D03*
G04 #@! TO.P,U2,2*
G04 #@! TO.N,GND*
X203750000Y-86760000D03*
G04 #@! TO.P,U2,1*
G04 #@! TO.N,/Battery+*
X203750000Y-87710000D03*
G04 #@! TD*
D25*
G04 #@! TO.P,U5,6*
G04 #@! TO.N,GND*
X192250000Y-76080000D03*
X186450000Y-76080000D03*
D26*
X185850000Y-76080000D03*
X192850000Y-76080000D03*
D27*
X190350000Y-76080000D03*
D28*
X186850000Y-78780000D03*
D29*
G04 #@! TO.P,U5,3*
G04 #@! TO.N,/MISO*
X189350000Y-78780000D03*
G04 #@! TO.P,U5,4*
G04 #@! TO.N,/RESET*
X188700000Y-78780000D03*
G04 #@! TO.P,U5,5*
G04 #@! TO.N,/MOSI*
X188050000Y-78780000D03*
G04 #@! TO.P,U5,1*
G04 #@! TO.N,/Battery+*
X190650000Y-78780000D03*
G04 #@! TO.P,U5,2*
G04 #@! TO.N,/SCK*
X190000000Y-78780000D03*
D28*
G04 #@! TO.P,U5,6*
G04 #@! TO.N,GND*
X191850000Y-78780000D03*
D27*
X188350000Y-76080000D03*
G04 #@! TD*
D13*
G04 #@! TO.P,C8,2*
G04 #@! TO.N,GND*
X199550000Y-93830000D03*
G04 #@! TO.P,C8,1*
G04 #@! TO.N,VCC*
X199550000Y-91830000D03*
G04 #@! TD*
G04 #@! TO.P,C9,1*
G04 #@! TO.N,VCC*
X201580000Y-91830000D03*
G04 #@! TO.P,C9,2*
G04 #@! TO.N,GND*
X201580000Y-93830000D03*
G04 #@! TD*
D30*
G04 #@! TO.N,GND*
X211541360Y-87198200D03*
X209702280Y-98381200D03*
X210387800Y-109677280D03*
X197093720Y-104553400D03*
X200460000Y-76990000D03*
X207720000Y-107270000D03*
X207730000Y-104940000D03*
X190370000Y-108120000D03*
X186050000Y-109470000D03*
X193260000Y-106270000D03*
X185900000Y-97510000D03*
X202400000Y-81720000D03*
X203400000Y-81020000D03*
X203340000Y-82730000D03*
X202430000Y-83650000D03*
X199810000Y-84730000D03*
X206462300Y-85809506D03*
X198290000Y-93790000D03*
X210790000Y-89330000D03*
X184310000Y-79700000D03*
X184290000Y-83340000D03*
X211960000Y-107910000D03*
X211980000Y-101920000D03*
X211960000Y-95750000D03*
X184520000Y-108110000D03*
X184520000Y-102010000D03*
G04 #@! TO.N,/Battery+*
X202450000Y-107000000D03*
X204040000Y-108790000D03*
X204040000Y-100140000D03*
X202470000Y-102590000D03*
X199779940Y-102612792D03*
X193310000Y-101640000D03*
G04 #@! TO.N,/P_LED_1*
X195610000Y-108600000D03*
X195620000Y-110320000D03*
X196950000Y-111612300D03*
X198380000Y-112907700D03*
G04 #@! TO.N,/RESET*
X198944868Y-102037950D03*
X195690000Y-97990000D03*
G04 #@! TO.N,/cardIN*
X200323324Y-98743324D03*
X198170000Y-96236600D03*
X196266409Y-92690000D03*
X192850000Y-88140000D03*
X193004902Y-86336723D03*
X193650000Y-85260000D03*
X196920000Y-83700000D03*
X198490000Y-83720000D03*
X194998237Y-82458237D03*
X193932296Y-80722296D03*
X193930000Y-78364200D03*
X194660000Y-77100000D03*
G04 #@! TO.N,VCC*
X199770000Y-88956600D03*
X199740000Y-90510000D03*
X201340000Y-88910000D03*
X201350000Y-90480000D03*
X197913164Y-91343164D03*
X188254431Y-85650000D03*
X192438237Y-85018237D03*
X197800000Y-81474810D03*
X206462300Y-84612956D03*
X208330000Y-83170000D03*
G04 #@! TO.N,/SCL_3V*
X194260000Y-91540000D03*
X195428210Y-91530000D03*
X196970993Y-91530993D03*
G04 #@! TO.N,Net-(R9-Pad2)*
X202530000Y-96296600D03*
X204265406Y-96876600D03*
G04 #@! TO.N,/SDA_3V*
X194056600Y-93590000D03*
X195428210Y-93560000D03*
G04 #@! TO.N,Net-(R11-Pad1)*
X209360000Y-92330000D03*
X208010000Y-92330000D03*
G04 #@! TO.N,/SCK_3V*
X187340000Y-95230000D03*
X189321231Y-94950000D03*
X198680000Y-81170000D03*
G04 #@! TO.N,/MISO_3V*
X187360000Y-92670000D03*
X189321231Y-92400000D03*
X201160000Y-80550000D03*
G04 #@! TO.N,/MOSI_3V*
X196840000Y-80103199D03*
X187380000Y-90140000D03*
X189372829Y-85712829D03*
G04 #@! TO.N,/SD_CS_3V*
X195592704Y-81474810D03*
G04 #@! TO.N,/SD_CS*
X201040000Y-98248210D03*
X199928449Y-97198449D03*
X197480000Y-96780000D03*
X195279529Y-97270471D03*
G04 #@! TO.N,/MISO*
X187486129Y-83319529D03*
X189350000Y-82043400D03*
G04 #@! TO.N,/SCK*
X186607829Y-83757829D03*
X189140000Y-83570000D03*
G04 #@! TO.N,/SDA*
X197420000Y-102050000D03*
X196880000Y-98116600D03*
G04 #@! TO.N,/SCL*
X198183152Y-102058809D03*
X197641206Y-98151427D03*
G04 #@! TD*
D31*
G04 #@! TO.N,GND*
X211576920Y-87162640D02*
X211541360Y-87198200D01*
X211576920Y-85450720D02*
X211576920Y-87162640D01*
X208235940Y-100875960D02*
X207893700Y-101218200D01*
X208235940Y-99100020D02*
X208235940Y-100875960D01*
X208184200Y-101508700D02*
X207893700Y-101218200D01*
X209857220Y-101508700D02*
X208184200Y-101508700D01*
X208983460Y-99100020D02*
X209702280Y-98381200D01*
X208235940Y-99100020D02*
X208983460Y-99100020D01*
D32*
X210380180Y-109684900D02*
X210387800Y-109677280D01*
X210380180Y-110998040D02*
X210380180Y-109684900D01*
X196800400Y-104846720D02*
X197093720Y-104553400D01*
X195586920Y-104846720D02*
X196800400Y-104846720D01*
X187446980Y-76083680D02*
X186449380Y-76083680D01*
X188349380Y-76083680D02*
X187446980Y-76083680D01*
X191251780Y-76083680D02*
X192249380Y-76083680D01*
X190349380Y-76083680D02*
X191251780Y-76083680D01*
X188349380Y-76083680D02*
X190349380Y-76083680D01*
X200660000Y-76790000D02*
X200460000Y-76990000D01*
X200660000Y-75750000D02*
X200660000Y-76790000D01*
D31*
X205665180Y-104046720D02*
X204086920Y-104046720D01*
X206293700Y-103418200D02*
X205665180Y-104046720D01*
D32*
X206329160Y-106936560D02*
X206329160Y-107262060D01*
X205039320Y-105646720D02*
X206329160Y-106936560D01*
X204086920Y-105646720D02*
X205039320Y-105646720D01*
X207712060Y-107262060D02*
X207720000Y-107270000D01*
X206329160Y-107262060D02*
X207712060Y-107262060D01*
X207715500Y-104940000D02*
X207730000Y-104940000D01*
X206293700Y-103518200D02*
X207715500Y-104940000D01*
X206293700Y-103418200D02*
X206293700Y-103518200D01*
D31*
X189411740Y-110640000D02*
X191843820Y-108207920D01*
X191843820Y-108207920D02*
X191843820Y-108157920D01*
X186070000Y-110640000D02*
X189411740Y-110640000D01*
X190407920Y-108157920D02*
X190370000Y-108120000D01*
X191843820Y-108157920D02*
X190407920Y-108157920D01*
X186070000Y-109490000D02*
X186050000Y-109470000D01*
X186070000Y-110640000D02*
X186070000Y-109490000D01*
X193290000Y-104650000D02*
X193290000Y-104670000D01*
X193466720Y-104846720D02*
X195586920Y-104846720D01*
X193290000Y-104670000D02*
X193466720Y-104846720D01*
X204470000Y-86760000D02*
X205360000Y-85870000D01*
X203750000Y-86760000D02*
X204470000Y-86760000D01*
D32*
X193370000Y-106160000D02*
X193260000Y-106270000D01*
X193370000Y-104970000D02*
X193370000Y-106160000D01*
X185920000Y-97490000D02*
X185900000Y-97510000D01*
X185920000Y-96555000D02*
X185920000Y-97490000D01*
D31*
X199550000Y-93830000D02*
X201580000Y-93830000D01*
D32*
X202357400Y-93830000D02*
X202477400Y-93950000D01*
X201580000Y-93830000D02*
X202357400Y-93830000D01*
X202477400Y-93950000D02*
X203912500Y-93950000D01*
X203912500Y-93950000D02*
X203912500Y-94750000D01*
X202987600Y-92350000D02*
X203912500Y-92350000D01*
X202680000Y-92657600D02*
X202987600Y-92350000D01*
X202680000Y-93507400D02*
X202680000Y-92657600D01*
X202357400Y-93830000D02*
X202680000Y-93507400D01*
X205116680Y-82344260D02*
X205116680Y-82046680D01*
X202390000Y-81730000D02*
X202400000Y-81720000D01*
X200930000Y-81730000D02*
X202390000Y-81730000D01*
X203400000Y-82670000D02*
X203340000Y-82730000D01*
X203400000Y-81020000D02*
X203400000Y-82670000D01*
X199800000Y-84740000D02*
X199810000Y-84730000D01*
X199800000Y-85890000D02*
X199800000Y-84740000D01*
X206401806Y-85870000D02*
X206462300Y-85809506D01*
X205360000Y-85870000D02*
X206401806Y-85870000D01*
D31*
X198330000Y-93830000D02*
X198290000Y-93790000D01*
X199550000Y-93830000D02*
X198330000Y-93830000D01*
D32*
X210810000Y-90450000D02*
X210810000Y-89350000D01*
D33*
X185230000Y-78780000D02*
X184310000Y-79700000D01*
X186850000Y-78780000D02*
X185230000Y-78780000D01*
X210387800Y-109482200D02*
X211960000Y-107910000D01*
X210387800Y-109677280D02*
X210387800Y-109482200D01*
X211980000Y-95770000D02*
X211960000Y-95750000D01*
X211980000Y-101920000D02*
X211980000Y-95770000D01*
X185880000Y-109470000D02*
X184520000Y-108110000D01*
X186050000Y-109470000D02*
X185880000Y-109470000D01*
D31*
G04 #@! TO.N,/Battery+*
X205913820Y-104846720D02*
X204086920Y-104846720D01*
X206329160Y-105262060D02*
X205913820Y-104846720D01*
D33*
X202470000Y-106980000D02*
X202450000Y-107000000D01*
X204040000Y-109435940D02*
X202597940Y-110878000D01*
X204040000Y-108790000D02*
X204040000Y-109435940D01*
X202597940Y-111909000D02*
X202246940Y-112260000D01*
X202597940Y-110878000D02*
X202597940Y-111909000D01*
X194620000Y-112260000D02*
X193400000Y-111040000D01*
X202246940Y-112260000D02*
X194620000Y-112260000D01*
X189124820Y-112557920D02*
X188043820Y-112557920D01*
X190642740Y-111040000D02*
X189124820Y-112557920D01*
X193400000Y-111040000D02*
X190642740Y-111040000D01*
X186152080Y-112557920D02*
X186070000Y-112640000D01*
X188043820Y-112557920D02*
X186152080Y-112557920D01*
D31*
X202470000Y-102590000D02*
X202470000Y-102750000D01*
X202966720Y-103246720D02*
X204086920Y-103246720D01*
X202470000Y-102750000D02*
X202966720Y-103246720D01*
X202470000Y-104370000D02*
X202470000Y-104420000D01*
D33*
X202470000Y-102590000D02*
X202470000Y-104370000D01*
X202470000Y-104370000D02*
X202470000Y-106980000D01*
D31*
X202896720Y-104846720D02*
X204086920Y-104846720D01*
X202470000Y-104420000D02*
X202896720Y-104846720D01*
X205200000Y-87710000D02*
X205360000Y-87870000D01*
X203750000Y-87710000D02*
X205200000Y-87710000D01*
D33*
X207116680Y-84475260D02*
X207110000Y-84481940D01*
X207116680Y-82344260D02*
X207116680Y-84475260D01*
X205485000Y-87870000D02*
X205360000Y-87870000D01*
X207110000Y-86245000D02*
X205485000Y-87870000D01*
X207110000Y-84481940D02*
X207110000Y-86245000D01*
D31*
X203096000Y-85810000D02*
X202600000Y-86306000D01*
X203750000Y-85810000D02*
X203096000Y-85810000D01*
X202600000Y-87214000D02*
X203096000Y-87710000D01*
X203096000Y-87710000D02*
X203750000Y-87710000D01*
X202600000Y-86306000D02*
X202600000Y-87214000D01*
X199802732Y-102590000D02*
X199779940Y-102612792D01*
X202470000Y-102590000D02*
X199802732Y-102590000D01*
X191360000Y-102226000D02*
X191360000Y-102830000D01*
X191946000Y-101640000D02*
X191360000Y-102226000D01*
X193310000Y-101640000D02*
X191946000Y-101640000D01*
X192332113Y-77775599D02*
X192336514Y-77780000D01*
X191367887Y-77775599D02*
X192332113Y-77775599D01*
X190650000Y-78780000D02*
X190650000Y-78305000D01*
X190650000Y-78305000D02*
X191175000Y-77780000D01*
X191175000Y-77780000D02*
X191363486Y-77780000D01*
X191363486Y-77780000D02*
X191367887Y-77775599D01*
X192336514Y-77780000D02*
X200050000Y-77780000D01*
X200050000Y-77780000D02*
X201750000Y-79480000D01*
X205502420Y-79480000D02*
X207116680Y-81094260D01*
X207116680Y-81094260D02*
X207116680Y-82344260D01*
X201750000Y-79480000D02*
X205502420Y-79480000D01*
D33*
X204040000Y-99553738D02*
X204040000Y-100140000D01*
X206784629Y-96809109D02*
X204040000Y-99553738D01*
X207703601Y-96809109D02*
X206784629Y-96809109D01*
X207110000Y-86245000D02*
X207110000Y-88620000D01*
X208670000Y-90180000D02*
X208670000Y-95842711D01*
X207110000Y-88620000D02*
X208670000Y-90180000D01*
X208670000Y-95842711D02*
X207703601Y-96809109D01*
D32*
G04 #@! TO.N,Net-(D1-Pad2)*
X198430000Y-75780000D02*
X198460000Y-75750000D01*
X196760000Y-75780000D02*
X198430000Y-75780000D01*
G04 #@! TO.N,Net-(D2-Pad1)*
X210128860Y-112646720D02*
X210380180Y-112898040D01*
X208373580Y-112646720D02*
X210128860Y-112646720D01*
G04 #@! TO.N,/P_LED_1*
X195586920Y-108576920D02*
X195610000Y-108600000D01*
X195586920Y-107246720D02*
X195586920Y-108576920D01*
X196912300Y-111612300D02*
X196950000Y-111612300D01*
X195620000Y-110320000D02*
X196912300Y-111612300D01*
X198380000Y-112907700D02*
X203652300Y-112907700D01*
X206113280Y-110446720D02*
X208373580Y-110446720D01*
X203652300Y-112907700D02*
X206113280Y-110446720D01*
D31*
G04 #@! TO.N,Net-(D3-Pad1)*
X211528660Y-83502460D02*
X211576920Y-83550720D01*
X211528660Y-81851500D02*
X211528660Y-83502460D01*
D32*
G04 #@! TO.N,/RESET*
X200236920Y-110416980D02*
X200697940Y-110878000D01*
X200236920Y-108696720D02*
X200236920Y-110416980D01*
X188700000Y-78780000D02*
X188700000Y-79520566D01*
X200236920Y-107744320D02*
X199246540Y-106753940D01*
X200236920Y-108696720D02*
X200236920Y-107744320D01*
X199246540Y-102339622D02*
X198944868Y-102037950D01*
X199246540Y-106753940D02*
X199246540Y-102339622D01*
X190111066Y-98340000D02*
X195340000Y-98340000D01*
X188787831Y-84917831D02*
X188787831Y-97016765D01*
X188787831Y-97016765D02*
X190111066Y-98340000D01*
X188700000Y-78780000D02*
X188700000Y-82950000D01*
X195340000Y-98340000D02*
X195690000Y-97990000D01*
X188700000Y-82950000D02*
X188520000Y-83130000D01*
X188520000Y-83130000D02*
X188520000Y-84650000D01*
X188520000Y-84650000D02*
X188787831Y-84917831D01*
G04 #@! TO.N,/Neopix*
X192212546Y-106011980D02*
X196520566Y-110320000D01*
X189725380Y-106011980D02*
X192212546Y-106011980D01*
X196520566Y-110320000D02*
X197420000Y-110320000D01*
X197836920Y-109903080D02*
X197836920Y-108696720D01*
X197420000Y-110320000D02*
X197836920Y-109903080D01*
G04 #@! TO.N,/cardIN*
X200236920Y-98829728D02*
X200323324Y-98743324D01*
X200236920Y-100196720D02*
X200236920Y-98829728D01*
X198170000Y-96236600D02*
X196320000Y-94386600D01*
X196320000Y-92743591D02*
X196266409Y-92690000D01*
X196320000Y-94386600D02*
X196320000Y-92743591D01*
X192850000Y-86491625D02*
X193004902Y-86336723D01*
X192850000Y-88140000D02*
X192850000Y-86491625D01*
X195210000Y-83700000D02*
X196920000Y-83700000D01*
X200840000Y-83720000D02*
X200930000Y-83630000D01*
X198490000Y-83720000D02*
X200840000Y-83720000D01*
X194820000Y-84090000D02*
X195210000Y-83700000D01*
X194820000Y-82636474D02*
X194998237Y-82458237D01*
X193650000Y-85260000D02*
X194820000Y-84090000D01*
X194820000Y-84090000D02*
X194820000Y-82636474D01*
X193932296Y-78366496D02*
X193930000Y-78364200D01*
X193932296Y-80722296D02*
X193932296Y-78366496D01*
X194660000Y-75980000D02*
X194860000Y-75780000D01*
X194660000Y-77100000D02*
X194660000Y-75980000D01*
G04 #@! TO.N,Net-(C4-Pad1)*
X205039320Y-102446720D02*
X204086920Y-102446720D01*
X207893700Y-103418200D02*
X207893700Y-102565800D01*
X207635940Y-102308040D02*
X205178000Y-102308040D01*
X207893700Y-102565800D02*
X207635940Y-102308040D01*
X205178000Y-102308040D02*
X205039320Y-102446720D01*
X207984200Y-103508700D02*
X207893700Y-103418200D01*
X209857220Y-103508700D02*
X207984200Y-103508700D01*
G04 #@! TO.N,Net-(C5-Pad1)*
X206293700Y-101218200D02*
X205966120Y-101218200D01*
X205537600Y-101646720D02*
X204086920Y-101646720D01*
X205966120Y-101218200D02*
X205537600Y-101646720D01*
X206235940Y-101160440D02*
X206293700Y-101218200D01*
X206235940Y-99100020D02*
X206235940Y-101160440D01*
D31*
G04 #@! TO.N,Net-(C6-Pad1)*
X193290000Y-102650000D02*
X193690000Y-102650000D01*
X193893280Y-102446720D02*
X195586920Y-102446720D01*
X193690000Y-102650000D02*
X193893280Y-102446720D01*
D32*
X191360000Y-104227600D02*
X191457600Y-104130000D01*
X191360000Y-104730000D02*
X191360000Y-104227600D01*
X193245000Y-102970000D02*
X193370000Y-102970000D01*
X192085000Y-104130000D02*
X193245000Y-102970000D01*
X191457600Y-104130000D02*
X192085000Y-104130000D01*
G04 #@! TO.N,Net-(R5-Pad1)*
X188043820Y-106230420D02*
X187825380Y-106011980D01*
X188043820Y-108157920D02*
X188043820Y-106230420D01*
G04 #@! TO.N,/INT2*
X199436920Y-100196720D02*
X199436920Y-98875386D01*
X200597497Y-97714809D02*
X205232739Y-97714809D01*
X199436920Y-98875386D02*
X200597497Y-97714809D01*
X205232739Y-97714809D02*
X206557548Y-96390000D01*
X206557548Y-96390000D02*
X207530000Y-96390000D01*
X207530000Y-96390000D02*
X207810000Y-96110000D01*
X207432400Y-94750000D02*
X206507500Y-94750000D01*
X207810000Y-95127600D02*
X207432400Y-94750000D01*
X207810000Y-96110000D02*
X207810000Y-95127600D01*
G04 #@! TO.N,/INT1*
X198636920Y-99244320D02*
X200471240Y-97410000D01*
X198636920Y-100196720D02*
X198636920Y-99244320D01*
X206507500Y-96008982D02*
X206507500Y-95550000D01*
X205106482Y-97410000D02*
X206507500Y-96008982D01*
X200471240Y-97410000D02*
X205106482Y-97410000D01*
D31*
G04 #@! TO.N,VCC*
X195890000Y-85980000D02*
X195900000Y-85970000D01*
D32*
X199800000Y-88926600D02*
X199770000Y-88956600D01*
X199800000Y-87890000D02*
X199800000Y-88926600D01*
X199740000Y-91640000D02*
X199550000Y-91830000D01*
X199740000Y-90510000D02*
X199740000Y-91640000D01*
X201350000Y-88900000D02*
X201340000Y-88910000D01*
X201350000Y-87710000D02*
X201350000Y-88900000D01*
X201350000Y-91600000D02*
X201580000Y-91830000D01*
X201350000Y-90480000D02*
X201350000Y-91600000D01*
D31*
X199550000Y-91830000D02*
X201580000Y-91830000D01*
D32*
X201580000Y-91830000D02*
X202530000Y-91830000D01*
X202810000Y-91550000D02*
X203912500Y-91550000D01*
X202530000Y-91830000D02*
X202810000Y-91550000D01*
D31*
X197550000Y-85930000D02*
X197570000Y-85950000D01*
X195490000Y-85930000D02*
X197550000Y-85930000D01*
X197870000Y-85950000D02*
X199800000Y-87880000D01*
X199800000Y-87880000D02*
X199800000Y-87890000D01*
X197570000Y-85950000D02*
X197870000Y-85950000D01*
X201170000Y-87890000D02*
X201350000Y-87710000D01*
X199800000Y-87890000D02*
X201170000Y-87890000D01*
D32*
X198400000Y-91830000D02*
X197913164Y-91343164D01*
X199550000Y-91830000D02*
X198400000Y-91830000D01*
X188254431Y-85780569D02*
X188254431Y-85650000D01*
X186370000Y-87665000D02*
X188254431Y-85780569D01*
X185920000Y-87665000D02*
X186370000Y-87665000D01*
X193350000Y-85930000D02*
X195490000Y-85930000D01*
X192438237Y-85018237D02*
X193350000Y-85930000D01*
X197570000Y-81704810D02*
X197800000Y-81474810D01*
X197570000Y-85950000D02*
X197570000Y-81704810D01*
X202244390Y-87368010D02*
X202244390Y-85835610D01*
X201902400Y-87710000D02*
X202244390Y-87368010D01*
X201350000Y-87710000D02*
X201902400Y-87710000D01*
X203467044Y-84612956D02*
X206462300Y-84612956D01*
X202244390Y-85835610D02*
X203467044Y-84612956D01*
X208330000Y-83170000D02*
X210070000Y-81430000D01*
X210776260Y-79651500D02*
X211528660Y-79651500D01*
X210070000Y-80357760D02*
X210776260Y-79651500D01*
X210070000Y-81430000D02*
X210070000Y-80357760D01*
X198777600Y-95630000D02*
X199280000Y-95630000D01*
X197756599Y-94608999D02*
X198777600Y-95630000D01*
X197756599Y-92846001D02*
X197756599Y-94608999D01*
X198772600Y-91830000D02*
X197756599Y-92846001D01*
X199550000Y-91830000D02*
X198772600Y-91830000D01*
X203912500Y-95977400D02*
X203059900Y-96830000D01*
X203912500Y-95550000D02*
X203912500Y-95977400D01*
X199782400Y-95630000D02*
X199280000Y-95630000D01*
X200982400Y-96830000D02*
X199782400Y-95630000D01*
X203059900Y-96830000D02*
X200982400Y-96830000D01*
G04 #@! TO.N,/SCL_3V*
X192925000Y-90205000D02*
X194260000Y-91540000D01*
X191320000Y-90205000D02*
X192925000Y-90205000D01*
X195850000Y-88190000D02*
X195490000Y-87830000D01*
X195880000Y-88190000D02*
X195850000Y-88190000D01*
X195880000Y-91078210D02*
X195880000Y-88190000D01*
X195428210Y-91530000D02*
X195880000Y-91078210D01*
X196970993Y-91530993D02*
X198701986Y-89800000D01*
X204255000Y-89800000D02*
X205210000Y-90755000D01*
X205210000Y-90755000D02*
X205210000Y-91252500D01*
X198701986Y-89800000D02*
X204255000Y-89800000D01*
G04 #@! TO.N,Net-(R9-Pad2)*
X201863400Y-95630000D02*
X202530000Y-96296600D01*
X201180000Y-95630000D02*
X201863400Y-95630000D01*
X204265406Y-96876600D02*
X204265406Y-96792094D01*
X204696458Y-96876600D02*
X204703058Y-96870000D01*
X204265406Y-96876600D02*
X204696458Y-96876600D01*
X204703058Y-96851942D02*
X205210000Y-96345000D01*
X205210000Y-96345000D02*
X205210000Y-95847500D01*
X204703058Y-96870000D02*
X204703058Y-96851942D01*
G04 #@! TO.N,/SDA_3V*
X193631600Y-94015000D02*
X194056600Y-93590000D01*
X191320000Y-94015000D02*
X193631600Y-94015000D01*
X197570000Y-88352400D02*
X197570000Y-87850000D01*
X197570000Y-90177644D02*
X197570000Y-88352400D01*
X195733009Y-93255201D02*
X195733009Y-92014635D01*
X195428210Y-93560000D02*
X195733009Y-93255201D01*
X195733009Y-92014635D02*
X197157644Y-90590000D01*
X197157644Y-90590000D02*
X197160000Y-90590000D01*
X197157644Y-90590000D02*
X197570000Y-90177644D01*
X197160000Y-90590000D02*
X198260000Y-89490000D01*
X206507500Y-91091018D02*
X206507500Y-91550000D01*
X204906482Y-89490000D02*
X206507500Y-91091018D01*
X198260000Y-89490000D02*
X204906482Y-89490000D01*
G04 #@! TO.N,Net-(R11-Pad1)*
X209380000Y-92350000D02*
X209360000Y-92330000D01*
X210810000Y-92350000D02*
X209380000Y-92350000D01*
X206527500Y-92330000D02*
X206507500Y-92350000D01*
X208010000Y-92330000D02*
X206527500Y-92330000D01*
G04 #@! TO.N,/SCK_3V*
X185920000Y-95285000D02*
X187285000Y-95285000D01*
X187285000Y-95285000D02*
X187340000Y-95230000D01*
X189854632Y-92071283D02*
X189397451Y-91614102D01*
X189321231Y-94518948D02*
X189854632Y-93985547D01*
X189854632Y-93985547D02*
X189854632Y-92071283D01*
X189321231Y-94950000D02*
X189321231Y-94518948D01*
X189397451Y-91614102D02*
X189397451Y-91060000D01*
X189397451Y-91060000D02*
X189397451Y-86873615D01*
X189397451Y-86873615D02*
X189750533Y-86520533D01*
X189750533Y-86520533D02*
X190390533Y-85880533D01*
X190390533Y-85880533D02*
X195329656Y-80941410D01*
X198451410Y-80941410D02*
X198680000Y-81170000D01*
X195329656Y-80941410D02*
X198451410Y-80941410D01*
G04 #@! TO.N,/MISO_3V*
X187285000Y-92745000D02*
X187360000Y-92670000D01*
X185920000Y-92745000D02*
X187285000Y-92745000D01*
X201073400Y-80636600D02*
X201160000Y-80550000D01*
X195203400Y-80636600D02*
X201073400Y-80636600D01*
X189092641Y-86747359D02*
X195203400Y-80636600D01*
X189321231Y-91968948D02*
X189092641Y-91740358D01*
X189321231Y-92400000D02*
X189321231Y-91968948D01*
X189092641Y-91740358D02*
X189092641Y-86747359D01*
G04 #@! TO.N,/MOSI_3V*
X195986801Y-80103199D02*
X196840000Y-80103199D01*
X187315000Y-90205000D02*
X187380000Y-90140000D01*
X185920000Y-90205000D02*
X187315000Y-90205000D01*
X195305735Y-80103199D02*
X195986801Y-80103199D01*
X190000904Y-85408030D02*
X195305735Y-80103199D01*
X189677628Y-85408030D02*
X190000904Y-85408030D01*
X189372829Y-85712829D02*
X189677628Y-85408030D01*
G04 #@! TO.N,/SD_CS_3V*
X190159442Y-95844442D02*
X190159442Y-92780000D01*
X190870000Y-96555000D02*
X190159442Y-95844442D01*
X191320000Y-96555000D02*
X190870000Y-96555000D01*
X190159441Y-91945026D02*
X189702261Y-91487846D01*
X190159442Y-92780000D02*
X190159441Y-91945026D01*
X189702261Y-91487846D02*
X189702261Y-86999871D01*
X189702261Y-86999871D02*
X189916066Y-86786066D01*
X189916066Y-86786066D02*
X190516790Y-86185342D01*
X195227322Y-81474810D02*
X195592704Y-81474810D01*
X190516790Y-86185342D02*
X195227322Y-81474810D01*
G04 #@! TO.N,/SD_CS*
X201036920Y-98251290D02*
X201040000Y-98248210D01*
X201036920Y-100196720D02*
X201036920Y-98251290D01*
X199928449Y-97198449D02*
X199500000Y-96770000D01*
X197490000Y-96770000D02*
X197480000Y-96780000D01*
X199500000Y-96770000D02*
X197490000Y-96770000D01*
X195279529Y-97270471D02*
X193259058Y-95250000D01*
X193224058Y-95285000D02*
X191320000Y-95285000D01*
X193259058Y-95250000D02*
X193224058Y-95285000D01*
G04 #@! TO.N,/MOSI*
X185017600Y-88935000D02*
X184680000Y-88597400D01*
X185920000Y-88935000D02*
X185017600Y-88935000D01*
X184680000Y-88597400D02*
X184680000Y-86880000D01*
X188050000Y-83510000D02*
X188050000Y-78780000D01*
X184680000Y-86880000D02*
X188050000Y-83510000D01*
X197242600Y-98650000D02*
X197836920Y-99244320D01*
X189990000Y-98650000D02*
X197242600Y-98650000D01*
X197836920Y-99244320D02*
X197836920Y-100196720D01*
X185920000Y-88935000D02*
X186954434Y-88935000D01*
X186954434Y-88935000D02*
X188483021Y-90463587D01*
X188483021Y-90463587D02*
X188483021Y-97143021D01*
X188483021Y-97143021D02*
X189990000Y-98650000D01*
G04 #@! TO.N,/MISO*
X186954434Y-91475000D02*
X185920000Y-91475000D01*
X188178211Y-92698777D02*
X186954434Y-91475000D01*
X188178211Y-97297145D02*
X188178211Y-92698777D01*
X197036920Y-100196720D02*
X197036920Y-99244320D01*
X196747410Y-98954810D02*
X189835875Y-98954809D01*
X189835875Y-98954809D02*
X188178211Y-97297145D01*
X197036920Y-99244320D02*
X196747410Y-98954810D01*
X185920000Y-91475000D02*
X185017600Y-91475000D01*
X185017600Y-91475000D02*
X184375190Y-90832590D01*
X184375190Y-86744810D02*
X187486129Y-83633871D01*
X187486129Y-83633871D02*
X187486129Y-83319529D01*
X184375190Y-90832590D02*
X184375190Y-86744810D01*
X189350000Y-82043400D02*
X189350000Y-78780000D01*
G04 #@! TO.N,/SCK*
X195586920Y-101219320D02*
X195586920Y-101646720D01*
X193627219Y-99259619D02*
X195586920Y-101219320D01*
X189709618Y-99259618D02*
X193627219Y-99259619D01*
X185920000Y-94015000D02*
X187155000Y-94015000D01*
X187155000Y-94015000D02*
X187873401Y-94733401D01*
X187873401Y-94733401D02*
X187873401Y-97423401D01*
X187873401Y-97423401D02*
X189709618Y-99259618D01*
X185017600Y-94015000D02*
X184070000Y-93067400D01*
X185920000Y-94015000D02*
X185017600Y-94015000D01*
X184070000Y-86295658D02*
X186607829Y-83757829D01*
X184070000Y-93067400D02*
X184070000Y-86295658D01*
X190000000Y-82710000D02*
X190000000Y-78780000D01*
X189140000Y-83570000D02*
X190000000Y-82710000D01*
G04 #@! TO.N,/SDA*
X198636920Y-103266920D02*
X197420000Y-102050000D01*
X198636920Y-108696720D02*
X198636920Y-103266920D01*
X196880000Y-98116600D02*
X194590000Y-95826600D01*
X194590000Y-95826600D02*
X194590000Y-93100000D01*
X194235000Y-92745000D02*
X191320000Y-92745000D01*
X194590000Y-93100000D02*
X194235000Y-92745000D01*
G04 #@! TO.N,/SCL*
X199436920Y-107744320D02*
X198941730Y-107249130D01*
X199436920Y-108696720D02*
X199436920Y-107744320D01*
X198941730Y-102817387D02*
X198183152Y-102058809D01*
X198941730Y-107249130D02*
X198941730Y-102817387D01*
X197641206Y-97720375D02*
X194894810Y-94973979D01*
X197641206Y-98151427D02*
X197641206Y-97720375D01*
X194894810Y-94973979D02*
X194894810Y-90844810D01*
X192985000Y-88935000D02*
X191320000Y-88935000D01*
X194894810Y-90844810D02*
X192985000Y-88935000D01*
G04 #@! TD*
G04 #@! TO.N,GND*
G36*
X194345189Y-74965189D02*
X194294664Y-75040805D01*
X194276922Y-75130000D01*
X194276922Y-76430000D01*
X194294664Y-76519195D01*
X194345189Y-76594811D01*
X194355200Y-76601500D01*
X194355200Y-76650458D01*
X194207805Y-76797853D01*
X194126600Y-76993900D01*
X194126600Y-77206100D01*
X194207805Y-77402147D01*
X194230058Y-77424400D01*
X193496580Y-77424400D01*
X193692915Y-77297210D01*
X193960619Y-76908628D01*
X194059241Y-76447179D01*
X193900991Y-76257800D01*
X190527800Y-76257800D01*
X190527800Y-77468150D01*
X190673850Y-77614200D01*
X190837906Y-77614200D01*
X190580184Y-77871922D01*
X190450000Y-77871922D01*
X190360805Y-77889664D01*
X190325000Y-77913588D01*
X190289195Y-77889664D01*
X190200000Y-77871922D01*
X189800000Y-77871922D01*
X189710805Y-77889664D01*
X189675000Y-77913588D01*
X189639195Y-77889664D01*
X189550000Y-77871922D01*
X189150000Y-77871922D01*
X189060805Y-77889664D01*
X189025000Y-77913588D01*
X188989195Y-77889664D01*
X188900000Y-77871922D01*
X188500000Y-77871922D01*
X188410805Y-77889664D01*
X188375000Y-77913588D01*
X188339195Y-77889664D01*
X188250000Y-77871922D01*
X187850000Y-77871922D01*
X187760805Y-77889664D01*
X187685189Y-77940189D01*
X187634664Y-78015805D01*
X187616922Y-78105000D01*
X187616922Y-78264525D01*
X187101447Y-78780000D01*
X187115590Y-78794143D01*
X186864143Y-79045590D01*
X186850000Y-79031447D01*
X186144570Y-79736877D01*
X186216230Y-79954801D01*
X186714050Y-80107908D01*
X187232567Y-80058854D01*
X187483770Y-79954801D01*
X187555429Y-79736879D01*
X187667100Y-79848550D01*
X187745201Y-79770449D01*
X187745200Y-82849491D01*
X187592229Y-82786129D01*
X187380029Y-82786129D01*
X187183982Y-82867334D01*
X187033934Y-83017382D01*
X186952729Y-83213429D01*
X186952729Y-83348387D01*
X186909976Y-83305634D01*
X186713929Y-83224429D01*
X186501729Y-83224429D01*
X186305682Y-83305634D01*
X186155634Y-83455682D01*
X186074429Y-83651729D01*
X186074429Y-83860177D01*
X183875698Y-86058908D01*
X183850253Y-86075910D01*
X183833251Y-86101355D01*
X183833248Y-86101358D01*
X183782885Y-86176732D01*
X183759230Y-86295658D01*
X183765201Y-86325677D01*
X183765200Y-93037386D01*
X183759230Y-93067400D01*
X183765200Y-93097414D01*
X183765200Y-93097417D01*
X183782885Y-93186326D01*
X183850252Y-93287148D01*
X183875700Y-93304152D01*
X184780850Y-94209303D01*
X184797852Y-94234748D01*
X184823297Y-94251750D01*
X184823299Y-94251752D01*
X184889997Y-94296318D01*
X184898673Y-94302115D01*
X184936922Y-94309723D01*
X184936922Y-94315000D01*
X184954664Y-94404195D01*
X185005189Y-94479811D01*
X185080805Y-94530336D01*
X185170000Y-94548078D01*
X186670000Y-94548078D01*
X186759195Y-94530336D01*
X186834811Y-94479811D01*
X186885336Y-94404195D01*
X186902123Y-94319800D01*
X187028748Y-94319800D01*
X187405548Y-94696600D01*
X187233900Y-94696600D01*
X187037853Y-94777805D01*
X186891063Y-94924595D01*
X186885336Y-94895805D01*
X186834811Y-94820189D01*
X186759195Y-94769664D01*
X186670000Y-94751922D01*
X185170000Y-94751922D01*
X185080805Y-94769664D01*
X185005189Y-94820189D01*
X184954664Y-94895805D01*
X184936922Y-94985000D01*
X184936922Y-95585000D01*
X184954664Y-95674195D01*
X184974376Y-95703696D01*
X184839077Y-95759739D01*
X184674739Y-95924078D01*
X184585800Y-96138796D01*
X184585800Y-96258950D01*
X184731850Y-96405000D01*
X185742200Y-96405000D01*
X185742200Y-96357200D01*
X186097800Y-96357200D01*
X186097800Y-96405000D01*
X187108150Y-96405000D01*
X187254200Y-96258950D01*
X187254200Y-96138796D01*
X187165261Y-95924078D01*
X187000923Y-95759739D01*
X186865624Y-95703696D01*
X186885336Y-95674195D01*
X186902123Y-95589800D01*
X186945458Y-95589800D01*
X187037853Y-95682195D01*
X187233900Y-95763400D01*
X187446100Y-95763400D01*
X187568601Y-95712658D01*
X187568602Y-97393382D01*
X187562631Y-97423401D01*
X187586286Y-97542327D01*
X187636649Y-97617701D01*
X187636652Y-97617704D01*
X187653654Y-97643149D01*
X187679099Y-97660151D01*
X189472870Y-99453923D01*
X189489870Y-99479365D01*
X189515312Y-99496365D01*
X189515317Y-99496370D01*
X189590691Y-99546733D01*
X189709618Y-99570388D01*
X189739637Y-99564417D01*
X193500967Y-99564419D01*
X195075189Y-101138642D01*
X194786920Y-101138642D01*
X194697725Y-101156384D01*
X194622109Y-101206909D01*
X194571584Y-101282525D01*
X194553842Y-101371720D01*
X194553842Y-101921720D01*
X194571584Y-102010915D01*
X194595508Y-102046720D01*
X194571584Y-102082525D01*
X194569874Y-102091120D01*
X193928294Y-102091120D01*
X193893279Y-102084155D01*
X193858264Y-102091120D01*
X193858260Y-102091120D01*
X193754532Y-102111753D01*
X193636907Y-102190347D01*
X193617067Y-102220040D01*
X193600185Y-102236922D01*
X192745000Y-102236922D01*
X192655805Y-102254664D01*
X192580189Y-102305189D01*
X192529664Y-102380805D01*
X192511922Y-102470000D01*
X192511922Y-103272025D01*
X191958748Y-103825200D01*
X191487612Y-103825200D01*
X191457599Y-103819230D01*
X191427586Y-103825200D01*
X191427582Y-103825200D01*
X191338673Y-103842885D01*
X191237852Y-103910252D01*
X191220847Y-103935702D01*
X191165699Y-103990850D01*
X191140253Y-104007852D01*
X191123251Y-104033297D01*
X191123248Y-104033300D01*
X191072885Y-104108674D01*
X191065277Y-104146922D01*
X190710000Y-104146922D01*
X190620805Y-104164664D01*
X190545189Y-104215189D01*
X190494664Y-104290805D01*
X190476922Y-104380000D01*
X190476922Y-105080000D01*
X190494664Y-105169195D01*
X190545189Y-105244811D01*
X190620805Y-105295336D01*
X190710000Y-105313078D01*
X192010000Y-105313078D01*
X192099195Y-105295336D01*
X192174811Y-105244811D01*
X192225336Y-105169195D01*
X192229591Y-105147802D01*
X192306848Y-105147802D01*
X192160800Y-105293850D01*
X192160800Y-105586205D01*
X192208749Y-105701965D01*
X192182532Y-105707180D01*
X190308458Y-105707180D01*
X190308458Y-105361980D01*
X190290716Y-105272785D01*
X190240191Y-105197169D01*
X190164575Y-105146644D01*
X190075380Y-105128902D01*
X189375380Y-105128902D01*
X189286185Y-105146644D01*
X189210569Y-105197169D01*
X189160044Y-105272785D01*
X189142302Y-105361980D01*
X189142302Y-106661980D01*
X189160044Y-106751175D01*
X189210569Y-106826791D01*
X189286185Y-106877316D01*
X189375380Y-106895058D01*
X190075380Y-106895058D01*
X190164575Y-106877316D01*
X190240191Y-106826791D01*
X190290716Y-106751175D01*
X190308458Y-106661980D01*
X190308458Y-106316780D01*
X192086294Y-106316780D01*
X192593234Y-106823720D01*
X192167670Y-106823720D01*
X192021620Y-106969770D01*
X192021620Y-107980120D01*
X192981970Y-107980120D01*
X193128020Y-107834070D01*
X193128020Y-107358506D01*
X195556114Y-109786600D01*
X195513900Y-109786600D01*
X195317853Y-109867805D01*
X195167805Y-110017853D01*
X195086600Y-110213900D01*
X195086600Y-110426100D01*
X195167805Y-110622147D01*
X195317853Y-110772195D01*
X195513900Y-110853400D01*
X195722348Y-110853400D01*
X196416600Y-111547652D01*
X196416600Y-111718400D01*
X196467341Y-111840900D01*
X194793597Y-111840900D01*
X193725536Y-110772840D01*
X193702154Y-110737846D01*
X193563524Y-110645217D01*
X193441274Y-110620900D01*
X193441273Y-110620900D01*
X193400000Y-110612690D01*
X193358727Y-110620900D01*
X190684012Y-110620900D01*
X190642739Y-110612690D01*
X190601466Y-110620900D01*
X190479216Y-110645217D01*
X190340586Y-110737846D01*
X190317206Y-110772837D01*
X188976898Y-112113146D01*
X188976898Y-111807920D01*
X188959156Y-111718725D01*
X188908631Y-111643109D01*
X188833015Y-111592584D01*
X188743820Y-111574842D01*
X187343820Y-111574842D01*
X187254625Y-111592584D01*
X187179009Y-111643109D01*
X187128484Y-111718725D01*
X187110742Y-111807920D01*
X187110742Y-112138820D01*
X186927843Y-112138820D01*
X186910336Y-112050805D01*
X186859811Y-111975189D01*
X186784195Y-111924664D01*
X186695000Y-111906922D01*
X185445000Y-111906922D01*
X185355805Y-111924664D01*
X185280189Y-111975189D01*
X185229664Y-112050805D01*
X185211922Y-112140000D01*
X185211922Y-113140000D01*
X185229664Y-113229195D01*
X185280189Y-113304811D01*
X185355805Y-113355336D01*
X185445000Y-113373078D01*
X186695000Y-113373078D01*
X186784195Y-113355336D01*
X186859811Y-113304811D01*
X186910336Y-113229195D01*
X186928078Y-113140000D01*
X186928078Y-112977020D01*
X187110742Y-112977020D01*
X187110742Y-113307920D01*
X187128484Y-113397115D01*
X187179009Y-113472731D01*
X187254625Y-113523256D01*
X187343820Y-113540998D01*
X188743820Y-113540998D01*
X188833015Y-113523256D01*
X188908631Y-113472731D01*
X188959156Y-113397115D01*
X188976898Y-113307920D01*
X188976898Y-112977020D01*
X189083547Y-112977020D01*
X189124820Y-112985230D01*
X189166093Y-112977020D01*
X189166094Y-112977020D01*
X189288344Y-112952703D01*
X189426974Y-112860074D01*
X189450356Y-112825080D01*
X190467516Y-111807920D01*
X190910742Y-111807920D01*
X190910742Y-113307920D01*
X190928484Y-113397115D01*
X190979009Y-113472731D01*
X191054625Y-113523256D01*
X191143820Y-113540998D01*
X192543820Y-113540998D01*
X192633015Y-113523256D01*
X192708631Y-113472731D01*
X192759156Y-113397115D01*
X192776898Y-113307920D01*
X192776898Y-111807920D01*
X192759156Y-111718725D01*
X192708631Y-111643109D01*
X192633015Y-111592584D01*
X192543820Y-111574842D01*
X191143820Y-111574842D01*
X191054625Y-111592584D01*
X190979009Y-111643109D01*
X190928484Y-111718725D01*
X190910742Y-111807920D01*
X190467516Y-111807920D01*
X190816337Y-111459100D01*
X193226404Y-111459100D01*
X194294466Y-112527163D01*
X194317846Y-112562154D01*
X194456476Y-112654783D01*
X194578726Y-112679100D01*
X194578727Y-112679100D01*
X194620000Y-112687310D01*
X194661273Y-112679100D01*
X197897341Y-112679100D01*
X197846600Y-112801600D01*
X197846600Y-113013800D01*
X197927805Y-113209847D01*
X198077853Y-113359895D01*
X198273900Y-113441100D01*
X198486100Y-113441100D01*
X198682147Y-113359895D01*
X198829542Y-113212500D01*
X203622286Y-113212500D01*
X203652300Y-113218470D01*
X203682314Y-113212500D01*
X203682318Y-113212500D01*
X203771227Y-113194815D01*
X203872048Y-113127448D01*
X203889052Y-113102000D01*
X204944332Y-112046720D01*
X207540502Y-112046720D01*
X207540502Y-113246720D01*
X207558244Y-113335915D01*
X207608769Y-113411531D01*
X207684385Y-113462056D01*
X207773580Y-113479798D01*
X208973580Y-113479798D01*
X209062775Y-113462056D01*
X209138391Y-113411531D01*
X209188916Y-113335915D01*
X209206658Y-113246720D01*
X209206658Y-112951520D01*
X209497102Y-112951520D01*
X209497102Y-113248040D01*
X209514844Y-113337235D01*
X209565369Y-113412851D01*
X209640985Y-113463376D01*
X209730180Y-113481118D01*
X211030180Y-113481118D01*
X211119375Y-113463376D01*
X211194991Y-113412851D01*
X211245516Y-113337235D01*
X211263258Y-113248040D01*
X211263258Y-112548040D01*
X211245516Y-112458845D01*
X211194991Y-112383229D01*
X211119375Y-112332704D01*
X211030180Y-112314962D01*
X209730180Y-112314962D01*
X209640985Y-112332704D01*
X209627192Y-112341920D01*
X209206658Y-112341920D01*
X209206658Y-112046720D01*
X209188916Y-111957525D01*
X209138391Y-111881909D01*
X209062775Y-111831384D01*
X208973580Y-111813642D01*
X207773580Y-111813642D01*
X207684385Y-111831384D01*
X207608769Y-111881909D01*
X207558244Y-111957525D01*
X207540502Y-112046720D01*
X204944332Y-112046720D01*
X206239532Y-110751520D01*
X207540502Y-110751520D01*
X207540502Y-111046720D01*
X207558244Y-111135915D01*
X207608769Y-111211531D01*
X207684385Y-111262056D01*
X207773580Y-111279798D01*
X208973580Y-111279798D01*
X209062775Y-111262056D01*
X209138391Y-111211531D01*
X209162238Y-111175842D01*
X209289228Y-111175842D01*
X209145980Y-111319090D01*
X209145980Y-111464245D01*
X209234919Y-111678963D01*
X209399258Y-111843301D01*
X209613976Y-111932240D01*
X210056330Y-111932240D01*
X210202380Y-111786190D01*
X210202380Y-111173040D01*
X210557980Y-111173040D01*
X210557980Y-111786190D01*
X210704030Y-111932240D01*
X211146384Y-111932240D01*
X211361102Y-111843301D01*
X211525441Y-111678963D01*
X211614380Y-111464245D01*
X211614380Y-111319090D01*
X211468330Y-111173040D01*
X210557980Y-111173040D01*
X210202380Y-111173040D01*
X210182380Y-111173040D01*
X210182380Y-110823040D01*
X210202380Y-110823040D01*
X210202380Y-110209890D01*
X210557980Y-110209890D01*
X210557980Y-110823040D01*
X211468330Y-110823040D01*
X211614380Y-110676990D01*
X211614380Y-110531835D01*
X211525441Y-110317117D01*
X211361102Y-110152779D01*
X211146384Y-110063840D01*
X210704030Y-110063840D01*
X210557980Y-110209890D01*
X210202380Y-110209890D01*
X210056330Y-110063840D01*
X209613976Y-110063840D01*
X209399258Y-110152779D01*
X209234919Y-110317117D01*
X209206658Y-110385345D01*
X209206658Y-109846720D01*
X209188916Y-109757525D01*
X209138391Y-109681909D01*
X209062775Y-109631384D01*
X208973580Y-109613642D01*
X207773580Y-109613642D01*
X207684385Y-109631384D01*
X207608769Y-109681909D01*
X207558244Y-109757525D01*
X207540502Y-109846720D01*
X207540502Y-110141920D01*
X206143292Y-110141920D01*
X206113279Y-110135950D01*
X206083266Y-110141920D01*
X206083262Y-110141920D01*
X205994353Y-110159605D01*
X205893532Y-110226972D01*
X205876528Y-110252420D01*
X203526048Y-112602900D01*
X202488113Y-112602900D01*
X202549094Y-112562154D01*
X202572476Y-112527160D01*
X202865102Y-112234535D01*
X202900094Y-112211154D01*
X202992723Y-112072524D01*
X203017040Y-111950274D01*
X203017040Y-111950273D01*
X203025250Y-111909000D01*
X203017040Y-111867727D01*
X203017040Y-111747333D01*
X203037135Y-111743336D01*
X203112751Y-111692811D01*
X203163276Y-111617195D01*
X203181018Y-111528000D01*
X203181018Y-110887618D01*
X204307163Y-109761474D01*
X204342154Y-109738094D01*
X204434783Y-109599464D01*
X204459100Y-109477214D01*
X204459100Y-109477213D01*
X204467310Y-109435940D01*
X204459100Y-109394667D01*
X204459100Y-109125242D01*
X204492195Y-109092147D01*
X204573400Y-108896100D01*
X204573400Y-108683900D01*
X204492195Y-108487853D01*
X204342147Y-108337805D01*
X204146100Y-108256600D01*
X203933900Y-108256600D01*
X203737853Y-108337805D01*
X203587805Y-108487853D01*
X203506600Y-108683900D01*
X203506600Y-108896100D01*
X203587805Y-109092147D01*
X203620901Y-109125243D01*
X203620901Y-109262342D01*
X202888322Y-109994922D01*
X202247940Y-109994922D01*
X202158745Y-110012664D01*
X202083129Y-110063189D01*
X202032604Y-110138805D01*
X202014862Y-110228000D01*
X202014862Y-111528000D01*
X202032604Y-111617195D01*
X202083129Y-111692811D01*
X202158745Y-111743336D01*
X202168890Y-111745354D01*
X202073344Y-111840900D01*
X197432659Y-111840900D01*
X197483400Y-111718400D01*
X197483400Y-111506200D01*
X197402195Y-111310153D01*
X197252147Y-111160105D01*
X197056100Y-111078900D01*
X196843900Y-111078900D01*
X196819895Y-111088843D01*
X196153400Y-110422348D01*
X196153400Y-110383886D01*
X196283814Y-110514300D01*
X196300818Y-110539748D01*
X196401639Y-110607115D01*
X196490548Y-110624800D01*
X196490552Y-110624800D01*
X196520565Y-110630770D01*
X196550578Y-110624800D01*
X197389986Y-110624800D01*
X197420000Y-110630770D01*
X197450014Y-110624800D01*
X197450018Y-110624800D01*
X197538927Y-110607115D01*
X197639748Y-110539748D01*
X197656752Y-110514300D01*
X198031223Y-110139830D01*
X198056668Y-110122828D01*
X198073670Y-110097383D01*
X198073672Y-110097381D01*
X198124035Y-110022007D01*
X198126576Y-110009230D01*
X198141720Y-109933098D01*
X198141720Y-109933095D01*
X198147690Y-109903080D01*
X198141720Y-109873066D01*
X198141720Y-109723870D01*
X198201115Y-109712056D01*
X198236920Y-109688132D01*
X198272725Y-109712056D01*
X198361920Y-109729798D01*
X198911920Y-109729798D01*
X199001115Y-109712056D01*
X199036920Y-109688132D01*
X199072725Y-109712056D01*
X199161920Y-109729798D01*
X199711920Y-109729798D01*
X199801115Y-109712056D01*
X199836920Y-109688132D01*
X199872725Y-109712056D01*
X199932121Y-109723871D01*
X199932121Y-110386961D01*
X199926150Y-110416980D01*
X199949805Y-110535906D01*
X200000168Y-110611280D01*
X200000171Y-110611283D01*
X200017173Y-110636728D01*
X200042618Y-110653730D01*
X200114862Y-110725974D01*
X200114862Y-111528000D01*
X200132604Y-111617195D01*
X200183129Y-111692811D01*
X200258745Y-111743336D01*
X200347940Y-111761078D01*
X201047940Y-111761078D01*
X201137135Y-111743336D01*
X201212751Y-111692811D01*
X201263276Y-111617195D01*
X201281018Y-111528000D01*
X201281018Y-110228000D01*
X201263276Y-110138805D01*
X201212751Y-110063189D01*
X201137135Y-110012664D01*
X201047940Y-109994922D01*
X200541720Y-109994922D01*
X200541720Y-109723870D01*
X200601115Y-109712056D01*
X200636920Y-109688132D01*
X200672725Y-109712056D01*
X200761920Y-109729798D01*
X201311920Y-109729798D01*
X201401115Y-109712056D01*
X201436920Y-109688132D01*
X201472725Y-109712056D01*
X201561920Y-109729798D01*
X202111920Y-109729798D01*
X202201115Y-109712056D01*
X202236920Y-109688132D01*
X202272725Y-109712056D01*
X202361920Y-109729798D01*
X202911920Y-109729798D01*
X203001115Y-109712056D01*
X203076731Y-109661531D01*
X203127256Y-109585915D01*
X203144998Y-109496720D01*
X203144998Y-107896720D01*
X203127256Y-107807525D01*
X203076731Y-107731909D01*
X203001115Y-107681384D01*
X202911920Y-107663642D01*
X202361920Y-107663642D01*
X202272725Y-107681384D01*
X202236920Y-107705308D01*
X202201115Y-107681384D01*
X202111920Y-107663642D01*
X201561920Y-107663642D01*
X201472725Y-107681384D01*
X201436920Y-107705308D01*
X201401115Y-107681384D01*
X201311920Y-107663642D01*
X200761920Y-107663642D01*
X200672725Y-107681384D01*
X200636920Y-107705308D01*
X200601115Y-107681384D01*
X200532456Y-107667727D01*
X200524035Y-107625393D01*
X200497653Y-107585910D01*
X200473672Y-107550019D01*
X200473670Y-107550017D01*
X200456668Y-107524572D01*
X200431223Y-107507570D01*
X199551340Y-106627688D01*
X199551340Y-103095451D01*
X199673840Y-103146192D01*
X199886040Y-103146192D01*
X200082087Y-103064987D01*
X200201474Y-102945600D01*
X202050900Y-102945600D01*
X202050901Y-104328722D01*
X202050900Y-104328727D01*
X202050901Y-106644757D01*
X201997805Y-106697853D01*
X201916600Y-106893900D01*
X201916600Y-107106100D01*
X201997805Y-107302147D01*
X202147853Y-107452195D01*
X202343900Y-107533400D01*
X202556100Y-107533400D01*
X202752147Y-107452195D01*
X202902195Y-107302147D01*
X202983400Y-107106100D01*
X202983400Y-106893900D01*
X202902195Y-106697853D01*
X202889100Y-106684758D01*
X202889100Y-106350084D01*
X202955997Y-106416981D01*
X203053842Y-106457510D01*
X203053842Y-106721720D01*
X203071584Y-106810915D01*
X203095508Y-106846720D01*
X203071584Y-106882525D01*
X203053842Y-106971720D01*
X203053842Y-107521720D01*
X203071584Y-107610915D01*
X203122109Y-107686531D01*
X203197725Y-107737056D01*
X203286920Y-107754798D01*
X204886920Y-107754798D01*
X204976115Y-107737056D01*
X205051731Y-107686531D01*
X205102256Y-107610915D01*
X205119998Y-107521720D01*
X205119998Y-107439862D01*
X205266008Y-107439862D01*
X205119960Y-107585910D01*
X205119960Y-107878265D01*
X205208899Y-108092983D01*
X205373238Y-108257321D01*
X205587956Y-108346260D01*
X206005310Y-108346260D01*
X206151360Y-108200210D01*
X206151360Y-107439860D01*
X206506960Y-107439860D01*
X206506960Y-108200210D01*
X206653010Y-108346260D01*
X207070364Y-108346260D01*
X207285082Y-108257321D01*
X207449421Y-108092983D01*
X207538360Y-107878265D01*
X207538360Y-107585910D01*
X207392310Y-107439860D01*
X206506960Y-107439860D01*
X206151360Y-107439860D01*
X206131360Y-107439860D01*
X206131360Y-107084260D01*
X206151360Y-107084260D01*
X206151360Y-106323910D01*
X206506960Y-106323910D01*
X206506960Y-107084260D01*
X207392310Y-107084260D01*
X207538360Y-106938210D01*
X207538360Y-106645855D01*
X207449421Y-106431137D01*
X207285082Y-106266799D01*
X207070364Y-106177860D01*
X206653010Y-106177860D01*
X206506960Y-106323910D01*
X206151360Y-106323910D01*
X206005310Y-106177860D01*
X205587956Y-106177860D01*
X205373238Y-106266799D01*
X205208899Y-106431137D01*
X205119998Y-106645763D01*
X205119998Y-106457510D01*
X205217843Y-106416981D01*
X205382181Y-106252642D01*
X205471120Y-106037924D01*
X205471120Y-105930270D01*
X205365372Y-105824522D01*
X205471120Y-105824522D01*
X205471120Y-105762251D01*
X205488824Y-105851255D01*
X205539349Y-105926871D01*
X205614965Y-105977396D01*
X205704160Y-105995138D01*
X206954160Y-105995138D01*
X207043355Y-105977396D01*
X207118971Y-105926871D01*
X207169496Y-105851255D01*
X207187238Y-105762060D01*
X207187238Y-104762060D01*
X207169496Y-104672865D01*
X207150358Y-104644222D01*
X207224622Y-104613461D01*
X207388961Y-104449123D01*
X207429490Y-104351278D01*
X208493700Y-104351278D01*
X208582895Y-104333536D01*
X208658511Y-104283011D01*
X208709036Y-104207395D01*
X208726778Y-104118200D01*
X208726778Y-103813500D01*
X208999142Y-103813500D01*
X208999142Y-104008700D01*
X209016884Y-104097895D01*
X209067409Y-104173511D01*
X209143025Y-104224036D01*
X209232220Y-104241778D01*
X210482220Y-104241778D01*
X210571415Y-104224036D01*
X210647031Y-104173511D01*
X210697556Y-104097895D01*
X210715298Y-104008700D01*
X210715298Y-103008700D01*
X210697556Y-102919505D01*
X210647031Y-102843889D01*
X210571415Y-102793364D01*
X210482220Y-102775622D01*
X209232220Y-102775622D01*
X209143025Y-102793364D01*
X209067409Y-102843889D01*
X209016884Y-102919505D01*
X208999142Y-103008700D01*
X208999142Y-103203900D01*
X208726778Y-103203900D01*
X208726778Y-102718200D01*
X208709036Y-102629005D01*
X208658511Y-102553389D01*
X208582895Y-102502864D01*
X208580562Y-102502400D01*
X208609904Y-102502400D01*
X208814847Y-102417510D01*
X208901298Y-102503961D01*
X209116016Y-102592900D01*
X209533370Y-102592900D01*
X209679420Y-102446850D01*
X209679420Y-101686500D01*
X210035020Y-101686500D01*
X210035020Y-102446850D01*
X210181070Y-102592900D01*
X210598424Y-102592900D01*
X210813142Y-102503961D01*
X210977481Y-102339623D01*
X211066420Y-102124905D01*
X211066420Y-101832550D01*
X210920370Y-101686500D01*
X210035020Y-101686500D01*
X209679420Y-101686500D01*
X209659420Y-101686500D01*
X209659420Y-101330900D01*
X209679420Y-101330900D01*
X209679420Y-100570550D01*
X210035020Y-100570550D01*
X210035020Y-101330900D01*
X210920370Y-101330900D01*
X211066420Y-101184850D01*
X211066420Y-100892495D01*
X210977481Y-100677777D01*
X210813142Y-100513439D01*
X210598424Y-100424500D01*
X210181070Y-100424500D01*
X210035020Y-100570550D01*
X209679420Y-100570550D01*
X209533370Y-100424500D01*
X209116016Y-100424500D01*
X209077900Y-100440288D01*
X209077900Y-100401995D01*
X209012038Y-100242990D01*
X209066863Y-100220281D01*
X209231201Y-100055942D01*
X209320140Y-99841224D01*
X209320140Y-99423870D01*
X209174090Y-99277820D01*
X208413740Y-99277820D01*
X208413740Y-99297820D01*
X208058140Y-99297820D01*
X208058140Y-99277820D01*
X207297790Y-99277820D01*
X207151740Y-99423870D01*
X207151740Y-99841224D01*
X207190169Y-99934000D01*
X207177496Y-99934000D01*
X206962778Y-100022939D01*
X206798439Y-100187277D01*
X206757910Y-100285122D01*
X206540740Y-100285122D01*
X206540740Y-99958098D01*
X206735940Y-99958098D01*
X206825135Y-99940356D01*
X206900751Y-99889831D01*
X206951276Y-99814215D01*
X206969018Y-99725020D01*
X206969018Y-98475020D01*
X206951276Y-98385825D01*
X206933230Y-98358816D01*
X207151740Y-98358816D01*
X207151740Y-98776170D01*
X207297790Y-98922220D01*
X208058140Y-98922220D01*
X208058140Y-98036870D01*
X208413740Y-98036870D01*
X208413740Y-98922220D01*
X209174090Y-98922220D01*
X209320140Y-98776170D01*
X209320140Y-98358816D01*
X209231201Y-98144098D01*
X209066863Y-97979759D01*
X208852145Y-97890820D01*
X208559790Y-97890820D01*
X208413740Y-98036870D01*
X208058140Y-98036870D01*
X207912090Y-97890820D01*
X207619735Y-97890820D01*
X207405017Y-97979759D01*
X207240679Y-98144098D01*
X207151740Y-98358816D01*
X206933230Y-98358816D01*
X206900751Y-98310209D01*
X206825135Y-98259684D01*
X206735940Y-98241942D01*
X205944493Y-98241942D01*
X206958226Y-97228209D01*
X207662328Y-97228209D01*
X207703601Y-97236419D01*
X207744874Y-97228209D01*
X207744875Y-97228209D01*
X207867125Y-97203892D01*
X208005755Y-97111263D01*
X208029137Y-97076269D01*
X208937162Y-96168245D01*
X208972154Y-96144865D01*
X209064783Y-96006235D01*
X209089100Y-95883985D01*
X209097310Y-95842712D01*
X209089100Y-95801439D01*
X209089100Y-92795138D01*
X209253900Y-92863400D01*
X209466100Y-92863400D01*
X209662147Y-92782195D01*
X209789542Y-92654800D01*
X209926922Y-92654800D01*
X209926922Y-92700000D01*
X209944664Y-92789195D01*
X209995189Y-92864811D01*
X210070805Y-92915336D01*
X210160000Y-92933078D01*
X211460000Y-92933078D01*
X211549195Y-92915336D01*
X211624811Y-92864811D01*
X211675336Y-92789195D01*
X211693078Y-92700000D01*
X211693078Y-92000000D01*
X211675336Y-91910805D01*
X211624811Y-91835189D01*
X211549195Y-91784664D01*
X211460000Y-91766922D01*
X210160000Y-91766922D01*
X210070805Y-91784664D01*
X209995189Y-91835189D01*
X209944664Y-91910805D01*
X209926922Y-92000000D01*
X209926922Y-92045200D01*
X209819380Y-92045200D01*
X209812195Y-92027853D01*
X209662147Y-91877805D01*
X209466100Y-91796600D01*
X209253900Y-91796600D01*
X209089100Y-91864862D01*
X209089100Y-90771050D01*
X209575800Y-90771050D01*
X209575800Y-90916205D01*
X209664739Y-91130923D01*
X209829078Y-91295261D01*
X210043796Y-91384200D01*
X210486150Y-91384200D01*
X210632200Y-91238150D01*
X210632200Y-90625000D01*
X210987800Y-90625000D01*
X210987800Y-91238150D01*
X211133850Y-91384200D01*
X211576204Y-91384200D01*
X211790922Y-91295261D01*
X211955261Y-91130923D01*
X212044200Y-90916205D01*
X212044200Y-90771050D01*
X211898150Y-90625000D01*
X210987800Y-90625000D01*
X210632200Y-90625000D01*
X209721850Y-90625000D01*
X209575800Y-90771050D01*
X209089100Y-90771050D01*
X209089100Y-90221272D01*
X209097310Y-90179999D01*
X209078627Y-90086074D01*
X209064783Y-90016476D01*
X209042947Y-89983795D01*
X209575800Y-89983795D01*
X209575800Y-90128950D01*
X209721850Y-90275000D01*
X210632200Y-90275000D01*
X210632200Y-89661850D01*
X210987800Y-89661850D01*
X210987800Y-90275000D01*
X211898150Y-90275000D01*
X212044200Y-90128950D01*
X212044200Y-89983795D01*
X211955261Y-89769077D01*
X211790922Y-89604739D01*
X211576204Y-89515800D01*
X211133850Y-89515800D01*
X210987800Y-89661850D01*
X210632200Y-89661850D01*
X210486150Y-89515800D01*
X210043796Y-89515800D01*
X209829078Y-89604739D01*
X209664739Y-89769077D01*
X209575800Y-89983795D01*
X209042947Y-89983795D01*
X208972154Y-89877846D01*
X208937163Y-89854466D01*
X207529100Y-88446404D01*
X207529100Y-86286274D01*
X207537310Y-86245001D01*
X207529100Y-86203726D01*
X207529100Y-85771770D01*
X210342720Y-85771770D01*
X210342720Y-85916925D01*
X210431659Y-86131643D01*
X210595998Y-86295981D01*
X210810716Y-86384920D01*
X211253070Y-86384920D01*
X211399120Y-86238870D01*
X211399120Y-85625720D01*
X211754720Y-85625720D01*
X211754720Y-86238870D01*
X211900770Y-86384920D01*
X212343124Y-86384920D01*
X212557842Y-86295981D01*
X212722181Y-86131643D01*
X212811120Y-85916925D01*
X212811120Y-85771770D01*
X212665070Y-85625720D01*
X211754720Y-85625720D01*
X211399120Y-85625720D01*
X210488770Y-85625720D01*
X210342720Y-85771770D01*
X207529100Y-85771770D01*
X207529100Y-84984515D01*
X210342720Y-84984515D01*
X210342720Y-85129670D01*
X210488770Y-85275720D01*
X211399120Y-85275720D01*
X211399120Y-84662570D01*
X211754720Y-84662570D01*
X211754720Y-85275720D01*
X212665070Y-85275720D01*
X212811120Y-85129670D01*
X212811120Y-84984515D01*
X212722181Y-84769797D01*
X212557842Y-84605459D01*
X212343124Y-84516520D01*
X211900770Y-84516520D01*
X211754720Y-84662570D01*
X211399120Y-84662570D01*
X211253070Y-84516520D01*
X210810716Y-84516520D01*
X210595998Y-84605459D01*
X210431659Y-84769797D01*
X210342720Y-84984515D01*
X207529100Y-84984515D01*
X207529100Y-84550117D01*
X207535780Y-84516534D01*
X207535780Y-84516533D01*
X207543990Y-84475260D01*
X207535780Y-84433987D01*
X207535780Y-84327338D01*
X207616680Y-84327338D01*
X207705875Y-84309596D01*
X207781491Y-84259071D01*
X207832016Y-84183455D01*
X207849758Y-84094260D01*
X207849758Y-83404435D01*
X207877805Y-83472147D01*
X208027853Y-83622195D01*
X208223900Y-83703400D01*
X208436100Y-83703400D01*
X208632147Y-83622195D01*
X208782195Y-83472147D01*
X208863400Y-83276100D01*
X208863400Y-83200720D01*
X210693842Y-83200720D01*
X210693842Y-83900720D01*
X210711584Y-83989915D01*
X210762109Y-84065531D01*
X210837725Y-84116056D01*
X210926920Y-84133798D01*
X212226920Y-84133798D01*
X212316115Y-84116056D01*
X212391731Y-84065531D01*
X212442256Y-83989915D01*
X212459998Y-83900720D01*
X212459998Y-83200720D01*
X212442256Y-83111525D01*
X212391731Y-83035909D01*
X212316115Y-82985384D01*
X212226920Y-82967642D01*
X211884260Y-82967642D01*
X211884260Y-82684578D01*
X212128660Y-82684578D01*
X212217855Y-82666836D01*
X212293471Y-82616311D01*
X212343996Y-82540695D01*
X212361738Y-82451500D01*
X212361738Y-81251500D01*
X212343996Y-81162305D01*
X212293471Y-81086689D01*
X212217855Y-81036164D01*
X212128660Y-81018422D01*
X210928660Y-81018422D01*
X210839465Y-81036164D01*
X210763849Y-81086689D01*
X210713324Y-81162305D01*
X210695582Y-81251500D01*
X210695582Y-82451500D01*
X210713324Y-82540695D01*
X210763849Y-82616311D01*
X210839465Y-82666836D01*
X210928660Y-82684578D01*
X211173061Y-82684578D01*
X211173061Y-82967642D01*
X210926920Y-82967642D01*
X210837725Y-82985384D01*
X210762109Y-83035909D01*
X210711584Y-83111525D01*
X210693842Y-83200720D01*
X208863400Y-83200720D01*
X208863400Y-83067652D01*
X210264301Y-81666751D01*
X210289748Y-81649748D01*
X210308159Y-81622195D01*
X210357115Y-81548927D01*
X210357115Y-81548926D01*
X210374800Y-81460018D01*
X210374800Y-81460015D01*
X210380770Y-81430000D01*
X210374800Y-81399985D01*
X210374800Y-80484012D01*
X210695582Y-80163230D01*
X210695582Y-80251500D01*
X210713324Y-80340695D01*
X210763849Y-80416311D01*
X210839465Y-80466836D01*
X210928660Y-80484578D01*
X212128660Y-80484578D01*
X212217855Y-80466836D01*
X212293471Y-80416311D01*
X212343996Y-80340695D01*
X212361738Y-80251500D01*
X212361738Y-79051500D01*
X212343996Y-78962305D01*
X212293471Y-78886689D01*
X212217855Y-78836164D01*
X212128660Y-78818422D01*
X210928660Y-78818422D01*
X210839465Y-78836164D01*
X210763849Y-78886689D01*
X210713324Y-78962305D01*
X210695582Y-79051500D01*
X210695582Y-79356777D01*
X210657333Y-79364385D01*
X210556512Y-79431752D01*
X210539508Y-79457200D01*
X209875698Y-80121010D01*
X209850253Y-80138012D01*
X209833251Y-80163457D01*
X209833248Y-80163460D01*
X209782885Y-80238834D01*
X209759230Y-80357760D01*
X209765201Y-80387779D01*
X209765200Y-81303748D01*
X208432348Y-82636600D01*
X208223900Y-82636600D01*
X208027853Y-82717805D01*
X207877805Y-82867853D01*
X207849758Y-82935565D01*
X207849758Y-80594260D01*
X207832016Y-80505065D01*
X207781491Y-80429449D01*
X207705875Y-80378924D01*
X207616680Y-80361182D01*
X206886496Y-80361182D01*
X205778631Y-79253317D01*
X205758793Y-79223627D01*
X205641168Y-79145033D01*
X205537440Y-79124400D01*
X205502420Y-79117434D01*
X205467400Y-79124400D01*
X201897295Y-79124400D01*
X200326210Y-77553316D01*
X200306373Y-77523627D01*
X200188748Y-77445033D01*
X200085020Y-77424400D01*
X200050000Y-77417434D01*
X200014980Y-77424400D01*
X195089942Y-77424400D01*
X195112195Y-77402147D01*
X195193400Y-77206100D01*
X195193400Y-76993900D01*
X195112195Y-76797853D01*
X194977420Y-76663078D01*
X195210000Y-76663078D01*
X195299195Y-76645336D01*
X195374811Y-76594811D01*
X195425336Y-76519195D01*
X195443078Y-76430000D01*
X195443078Y-75130000D01*
X195425336Y-75040805D01*
X195374811Y-74965189D01*
X195300228Y-74915354D01*
X196319772Y-74915354D01*
X196245189Y-74965189D01*
X196194664Y-75040805D01*
X196176922Y-75130000D01*
X196176922Y-76430000D01*
X196194664Y-76519195D01*
X196245189Y-76594811D01*
X196320805Y-76645336D01*
X196410000Y-76663078D01*
X197110000Y-76663078D01*
X197199195Y-76645336D01*
X197274811Y-76594811D01*
X197325336Y-76519195D01*
X197343078Y-76430000D01*
X197343078Y-76084800D01*
X197626922Y-76084800D01*
X197626922Y-76350000D01*
X197644664Y-76439195D01*
X197695189Y-76514811D01*
X197770805Y-76565336D01*
X197860000Y-76583078D01*
X199060000Y-76583078D01*
X199149195Y-76565336D01*
X199224811Y-76514811D01*
X199275336Y-76439195D01*
X199293078Y-76350000D01*
X199293078Y-76073850D01*
X199475800Y-76073850D01*
X199475800Y-76466204D01*
X199564739Y-76680922D01*
X199729077Y-76845261D01*
X199943795Y-76934200D01*
X200336150Y-76934200D01*
X200482200Y-76788150D01*
X200482200Y-75927800D01*
X199621850Y-75927800D01*
X199475800Y-76073850D01*
X199293078Y-76073850D01*
X199293078Y-75150000D01*
X199275336Y-75060805D01*
X199224811Y-74985189D01*
X199149195Y-74934664D01*
X199060000Y-74916922D01*
X197860000Y-74916922D01*
X197770805Y-74934664D01*
X197695189Y-74985189D01*
X197644664Y-75060805D01*
X197626922Y-75150000D01*
X197626922Y-75475200D01*
X197343078Y-75475200D01*
X197343078Y-75130000D01*
X197325336Y-75040805D01*
X197274811Y-74965189D01*
X197200228Y-74915354D01*
X199524860Y-74915354D01*
X199475800Y-75033796D01*
X199475800Y-75426150D01*
X199621850Y-75572200D01*
X200482200Y-75572200D01*
X200482200Y-75552200D01*
X200837800Y-75552200D01*
X200837800Y-75572200D01*
X200857800Y-75572200D01*
X200857800Y-75927800D01*
X200837800Y-75927800D01*
X200837800Y-76788150D01*
X200983850Y-76934200D01*
X201376205Y-76934200D01*
X201590923Y-76845261D01*
X201755261Y-76680922D01*
X201783602Y-76612501D01*
X201783602Y-78494260D01*
X201801344Y-78583455D01*
X201851869Y-78659071D01*
X201927485Y-78709596D01*
X202016680Y-78727338D01*
X203516680Y-78727338D01*
X203605875Y-78709596D01*
X203681491Y-78659071D01*
X203732016Y-78583455D01*
X203749758Y-78494260D01*
X203749758Y-75094260D01*
X203732016Y-75005065D01*
X203681491Y-74929449D01*
X203660396Y-74915354D01*
X208572964Y-74915354D01*
X208551869Y-74929449D01*
X208501344Y-75005065D01*
X208483602Y-75094260D01*
X208483602Y-78494260D01*
X208501344Y-78583455D01*
X208551869Y-78659071D01*
X208627485Y-78709596D01*
X208716680Y-78727338D01*
X210216680Y-78727338D01*
X210305875Y-78709596D01*
X210381491Y-78659071D01*
X210432016Y-78583455D01*
X210449758Y-78494260D01*
X210449758Y-75094260D01*
X210432016Y-75005065D01*
X210393005Y-74946680D01*
X210757442Y-74989169D01*
X211338545Y-75200100D01*
X211855543Y-75539059D01*
X212280691Y-75987854D01*
X212591193Y-76522423D01*
X212771694Y-77118388D01*
X212814801Y-77601399D01*
X212814800Y-111567665D01*
X212740985Y-112200796D01*
X212530054Y-112781901D01*
X212191097Y-113298895D01*
X211742301Y-113724044D01*
X211207731Y-114034547D01*
X210611764Y-114215048D01*
X210128766Y-114258154D01*
X186162489Y-114258154D01*
X185529358Y-114184339D01*
X184948253Y-113973408D01*
X184431259Y-113634451D01*
X184006110Y-113185655D01*
X183695607Y-112651085D01*
X183515106Y-112055118D01*
X183472000Y-111572120D01*
X183472000Y-110963850D01*
X184860800Y-110963850D01*
X184860800Y-111256205D01*
X184949739Y-111470923D01*
X185114078Y-111635261D01*
X185328796Y-111724200D01*
X185746150Y-111724200D01*
X185892200Y-111578150D01*
X185892200Y-110817800D01*
X186247800Y-110817800D01*
X186247800Y-111578150D01*
X186393850Y-111724200D01*
X186811204Y-111724200D01*
X187025922Y-111635261D01*
X187190261Y-111470923D01*
X187279200Y-111256205D01*
X187279200Y-110963850D01*
X187133150Y-110817800D01*
X186247800Y-110817800D01*
X185892200Y-110817800D01*
X185006850Y-110817800D01*
X184860800Y-110963850D01*
X183472000Y-110963850D01*
X183472000Y-110023795D01*
X184860800Y-110023795D01*
X184860800Y-110316150D01*
X185006850Y-110462200D01*
X185892200Y-110462200D01*
X185892200Y-109701850D01*
X186247800Y-109701850D01*
X186247800Y-110462200D01*
X187133150Y-110462200D01*
X187279200Y-110316150D01*
X187279200Y-110023795D01*
X187190261Y-109809077D01*
X187025922Y-109644739D01*
X186811204Y-109555800D01*
X186393850Y-109555800D01*
X186247800Y-109701850D01*
X185892200Y-109701850D01*
X185746150Y-109555800D01*
X185328796Y-109555800D01*
X185114078Y-109644739D01*
X184949739Y-109809077D01*
X184860800Y-110023795D01*
X183472000Y-110023795D01*
X183472000Y-107407920D01*
X187110742Y-107407920D01*
X187110742Y-108907920D01*
X187128484Y-108997115D01*
X187179009Y-109072731D01*
X187254625Y-109123256D01*
X187343820Y-109140998D01*
X188743820Y-109140998D01*
X188833015Y-109123256D01*
X188908631Y-109072731D01*
X188959156Y-108997115D01*
X188976898Y-108907920D01*
X188976898Y-108481770D01*
X190559620Y-108481770D01*
X190559620Y-109024125D01*
X190648559Y-109238843D01*
X190812898Y-109403181D01*
X191027616Y-109492120D01*
X191519970Y-109492120D01*
X191666020Y-109346070D01*
X191666020Y-108335720D01*
X192021620Y-108335720D01*
X192021620Y-109346070D01*
X192167670Y-109492120D01*
X192660024Y-109492120D01*
X192874742Y-109403181D01*
X193039081Y-109238843D01*
X193128020Y-109024125D01*
X193128020Y-108481770D01*
X192981970Y-108335720D01*
X192021620Y-108335720D01*
X191666020Y-108335720D01*
X190705670Y-108335720D01*
X190559620Y-108481770D01*
X188976898Y-108481770D01*
X188976898Y-107407920D01*
X188959156Y-107318725D01*
X188941109Y-107291715D01*
X190559620Y-107291715D01*
X190559620Y-107834070D01*
X190705670Y-107980120D01*
X191666020Y-107980120D01*
X191666020Y-106969770D01*
X191519970Y-106823720D01*
X191027616Y-106823720D01*
X190812898Y-106912659D01*
X190648559Y-107076997D01*
X190559620Y-107291715D01*
X188941109Y-107291715D01*
X188908631Y-107243109D01*
X188833015Y-107192584D01*
X188743820Y-107174842D01*
X188348620Y-107174842D01*
X188348620Y-106814176D01*
X188390716Y-106751175D01*
X188408458Y-106661980D01*
X188408458Y-105361980D01*
X188390716Y-105272785D01*
X188340191Y-105197169D01*
X188264575Y-105146644D01*
X188175380Y-105128902D01*
X187475380Y-105128902D01*
X187386185Y-105146644D01*
X187310569Y-105197169D01*
X187260044Y-105272785D01*
X187242302Y-105361980D01*
X187242302Y-106661980D01*
X187260044Y-106751175D01*
X187310569Y-106826791D01*
X187386185Y-106877316D01*
X187475380Y-106895058D01*
X187739021Y-106895058D01*
X187739021Y-107174842D01*
X187343820Y-107174842D01*
X187254625Y-107192584D01*
X187179009Y-107243109D01*
X187128484Y-107318725D01*
X187110742Y-107407920D01*
X183472000Y-107407920D01*
X183472000Y-102480000D01*
X190476922Y-102480000D01*
X190476922Y-103180000D01*
X190494664Y-103269195D01*
X190545189Y-103344811D01*
X190620805Y-103395336D01*
X190710000Y-103413078D01*
X192010000Y-103413078D01*
X192099195Y-103395336D01*
X192174811Y-103344811D01*
X192225336Y-103269195D01*
X192243078Y-103180000D01*
X192243078Y-102480000D01*
X192225336Y-102390805D01*
X192174811Y-102315189D01*
X192099195Y-102264664D01*
X192010000Y-102246922D01*
X191841972Y-102246922D01*
X192093294Y-101995600D01*
X192911258Y-101995600D01*
X193007853Y-102092195D01*
X193203900Y-102173400D01*
X193416100Y-102173400D01*
X193612147Y-102092195D01*
X193762195Y-101942147D01*
X193843400Y-101746100D01*
X193843400Y-101533900D01*
X193762195Y-101337853D01*
X193612147Y-101187805D01*
X193416100Y-101106600D01*
X193203900Y-101106600D01*
X193007853Y-101187805D01*
X192911258Y-101284400D01*
X191981018Y-101284400D01*
X191945999Y-101277434D01*
X191910980Y-101284400D01*
X191807252Y-101305033D01*
X191689627Y-101383627D01*
X191669789Y-101413317D01*
X191133315Y-101949791D01*
X191103627Y-101969628D01*
X191083791Y-101999315D01*
X191083790Y-101999316D01*
X191025033Y-102087253D01*
X190997434Y-102226000D01*
X191001596Y-102246922D01*
X190710000Y-102246922D01*
X190620805Y-102264664D01*
X190545189Y-102315189D01*
X190494664Y-102390805D01*
X190476922Y-102480000D01*
X183472000Y-102480000D01*
X183472000Y-96851050D01*
X184585800Y-96851050D01*
X184585800Y-96971204D01*
X184674739Y-97185922D01*
X184839077Y-97350261D01*
X185053795Y-97439200D01*
X185596150Y-97439200D01*
X185742200Y-97293150D01*
X185742200Y-96705000D01*
X186097800Y-96705000D01*
X186097800Y-97293150D01*
X186243850Y-97439200D01*
X186786205Y-97439200D01*
X187000923Y-97350261D01*
X187165261Y-97185922D01*
X187254200Y-96971204D01*
X187254200Y-96851050D01*
X187108150Y-96705000D01*
X186097800Y-96705000D01*
X185742200Y-96705000D01*
X184731850Y-96705000D01*
X184585800Y-96851050D01*
X183472000Y-96851050D01*
X183472000Y-78644050D01*
X185522092Y-78644050D01*
X185571146Y-79162567D01*
X185675199Y-79413770D01*
X185893123Y-79485430D01*
X186598553Y-78780000D01*
X185893123Y-78074570D01*
X185675199Y-78146230D01*
X185522092Y-78644050D01*
X183472000Y-78644050D01*
X183472000Y-77605843D01*
X183545815Y-76972712D01*
X183736574Y-76447179D01*
X184640759Y-76447179D01*
X184739381Y-76908628D01*
X185007085Y-77297210D01*
X185403115Y-77553767D01*
X185491239Y-77558548D01*
X185536123Y-77532322D01*
X185733795Y-77614200D01*
X186126150Y-77614200D01*
X186191745Y-77548605D01*
X186208761Y-77558548D01*
X186272198Y-77555106D01*
X186272198Y-77582016D01*
X186216230Y-77605199D01*
X186144570Y-77823123D01*
X186850000Y-78528553D01*
X187555430Y-77823123D01*
X187486730Y-77614200D01*
X188026150Y-77614200D01*
X188172200Y-77468150D01*
X188172200Y-76257800D01*
X188527800Y-76257800D01*
X188527800Y-77468150D01*
X188673850Y-77614200D01*
X189216205Y-77614200D01*
X189350000Y-77558780D01*
X189483795Y-77614200D01*
X190026150Y-77614200D01*
X190172200Y-77468150D01*
X190172200Y-76257800D01*
X188527800Y-76257800D01*
X188172200Y-76257800D01*
X184799009Y-76257800D01*
X184640759Y-76447179D01*
X183736574Y-76447179D01*
X183756746Y-76391609D01*
X184095705Y-75874611D01*
X184544500Y-75449463D01*
X184718665Y-75348300D01*
X184640759Y-75712821D01*
X184799009Y-75902200D01*
X188172200Y-75902200D01*
X188172200Y-75882200D01*
X188527800Y-75882200D01*
X188527800Y-75902200D01*
X190172200Y-75902200D01*
X190172200Y-75882200D01*
X190527800Y-75882200D01*
X190527800Y-75902200D01*
X193900991Y-75902200D01*
X194059241Y-75712821D01*
X193960619Y-75251372D01*
X193729128Y-74915354D01*
X194419772Y-74915354D01*
X194345189Y-74965189D01*
X194345189Y-74965189D01*
G37*
X194345189Y-74965189D02*
X194294664Y-75040805D01*
X194276922Y-75130000D01*
X194276922Y-76430000D01*
X194294664Y-76519195D01*
X194345189Y-76594811D01*
X194355200Y-76601500D01*
X194355200Y-76650458D01*
X194207805Y-76797853D01*
X194126600Y-76993900D01*
X194126600Y-77206100D01*
X194207805Y-77402147D01*
X194230058Y-77424400D01*
X193496580Y-77424400D01*
X193692915Y-77297210D01*
X193960619Y-76908628D01*
X194059241Y-76447179D01*
X193900991Y-76257800D01*
X190527800Y-76257800D01*
X190527800Y-77468150D01*
X190673850Y-77614200D01*
X190837906Y-77614200D01*
X190580184Y-77871922D01*
X190450000Y-77871922D01*
X190360805Y-77889664D01*
X190325000Y-77913588D01*
X190289195Y-77889664D01*
X190200000Y-77871922D01*
X189800000Y-77871922D01*
X189710805Y-77889664D01*
X189675000Y-77913588D01*
X189639195Y-77889664D01*
X189550000Y-77871922D01*
X189150000Y-77871922D01*
X189060805Y-77889664D01*
X189025000Y-77913588D01*
X188989195Y-77889664D01*
X188900000Y-77871922D01*
X188500000Y-77871922D01*
X188410805Y-77889664D01*
X188375000Y-77913588D01*
X188339195Y-77889664D01*
X188250000Y-77871922D01*
X187850000Y-77871922D01*
X187760805Y-77889664D01*
X187685189Y-77940189D01*
X187634664Y-78015805D01*
X187616922Y-78105000D01*
X187616922Y-78264525D01*
X187101447Y-78780000D01*
X187115590Y-78794143D01*
X186864143Y-79045590D01*
X186850000Y-79031447D01*
X186144570Y-79736877D01*
X186216230Y-79954801D01*
X186714050Y-80107908D01*
X187232567Y-80058854D01*
X187483770Y-79954801D01*
X187555429Y-79736879D01*
X187667100Y-79848550D01*
X187745201Y-79770449D01*
X187745200Y-82849491D01*
X187592229Y-82786129D01*
X187380029Y-82786129D01*
X187183982Y-82867334D01*
X187033934Y-83017382D01*
X186952729Y-83213429D01*
X186952729Y-83348387D01*
X186909976Y-83305634D01*
X186713929Y-83224429D01*
X186501729Y-83224429D01*
X186305682Y-83305634D01*
X186155634Y-83455682D01*
X186074429Y-83651729D01*
X186074429Y-83860177D01*
X183875698Y-86058908D01*
X183850253Y-86075910D01*
X183833251Y-86101355D01*
X183833248Y-86101358D01*
X183782885Y-86176732D01*
X183759230Y-86295658D01*
X183765201Y-86325677D01*
X183765200Y-93037386D01*
X183759230Y-93067400D01*
X183765200Y-93097414D01*
X183765200Y-93097417D01*
X183782885Y-93186326D01*
X183850252Y-93287148D01*
X183875700Y-93304152D01*
X184780850Y-94209303D01*
X184797852Y-94234748D01*
X184823297Y-94251750D01*
X184823299Y-94251752D01*
X184889997Y-94296318D01*
X184898673Y-94302115D01*
X184936922Y-94309723D01*
X184936922Y-94315000D01*
X184954664Y-94404195D01*
X185005189Y-94479811D01*
X185080805Y-94530336D01*
X185170000Y-94548078D01*
X186670000Y-94548078D01*
X186759195Y-94530336D01*
X186834811Y-94479811D01*
X186885336Y-94404195D01*
X186902123Y-94319800D01*
X187028748Y-94319800D01*
X187405548Y-94696600D01*
X187233900Y-94696600D01*
X187037853Y-94777805D01*
X186891063Y-94924595D01*
X186885336Y-94895805D01*
X186834811Y-94820189D01*
X186759195Y-94769664D01*
X186670000Y-94751922D01*
X185170000Y-94751922D01*
X185080805Y-94769664D01*
X185005189Y-94820189D01*
X184954664Y-94895805D01*
X184936922Y-94985000D01*
X184936922Y-95585000D01*
X184954664Y-95674195D01*
X184974376Y-95703696D01*
X184839077Y-95759739D01*
X184674739Y-95924078D01*
X184585800Y-96138796D01*
X184585800Y-96258950D01*
X184731850Y-96405000D01*
X185742200Y-96405000D01*
X185742200Y-96357200D01*
X186097800Y-96357200D01*
X186097800Y-96405000D01*
X187108150Y-96405000D01*
X187254200Y-96258950D01*
X187254200Y-96138796D01*
X187165261Y-95924078D01*
X187000923Y-95759739D01*
X186865624Y-95703696D01*
X186885336Y-95674195D01*
X186902123Y-95589800D01*
X186945458Y-95589800D01*
X187037853Y-95682195D01*
X187233900Y-95763400D01*
X187446100Y-95763400D01*
X187568601Y-95712658D01*
X187568602Y-97393382D01*
X187562631Y-97423401D01*
X187586286Y-97542327D01*
X187636649Y-97617701D01*
X187636652Y-97617704D01*
X187653654Y-97643149D01*
X187679099Y-97660151D01*
X189472870Y-99453923D01*
X189489870Y-99479365D01*
X189515312Y-99496365D01*
X189515317Y-99496370D01*
X189590691Y-99546733D01*
X189709618Y-99570388D01*
X189739637Y-99564417D01*
X193500967Y-99564419D01*
X195075189Y-101138642D01*
X194786920Y-101138642D01*
X194697725Y-101156384D01*
X194622109Y-101206909D01*
X194571584Y-101282525D01*
X194553842Y-101371720D01*
X194553842Y-101921720D01*
X194571584Y-102010915D01*
X194595508Y-102046720D01*
X194571584Y-102082525D01*
X194569874Y-102091120D01*
X193928294Y-102091120D01*
X193893279Y-102084155D01*
X193858264Y-102091120D01*
X193858260Y-102091120D01*
X193754532Y-102111753D01*
X193636907Y-102190347D01*
X193617067Y-102220040D01*
X193600185Y-102236922D01*
X192745000Y-102236922D01*
X192655805Y-102254664D01*
X192580189Y-102305189D01*
X192529664Y-102380805D01*
X192511922Y-102470000D01*
X192511922Y-103272025D01*
X191958748Y-103825200D01*
X191487612Y-103825200D01*
X191457599Y-103819230D01*
X191427586Y-103825200D01*
X191427582Y-103825200D01*
X191338673Y-103842885D01*
X191237852Y-103910252D01*
X191220847Y-103935702D01*
X191165699Y-103990850D01*
X191140253Y-104007852D01*
X191123251Y-104033297D01*
X191123248Y-104033300D01*
X191072885Y-104108674D01*
X191065277Y-104146922D01*
X190710000Y-104146922D01*
X190620805Y-104164664D01*
X190545189Y-104215189D01*
X190494664Y-104290805D01*
X190476922Y-104380000D01*
X190476922Y-105080000D01*
X190494664Y-105169195D01*
X190545189Y-105244811D01*
X190620805Y-105295336D01*
X190710000Y-105313078D01*
X192010000Y-105313078D01*
X192099195Y-105295336D01*
X192174811Y-105244811D01*
X192225336Y-105169195D01*
X192229591Y-105147802D01*
X192306848Y-105147802D01*
X192160800Y-105293850D01*
X192160800Y-105586205D01*
X192208749Y-105701965D01*
X192182532Y-105707180D01*
X190308458Y-105707180D01*
X190308458Y-105361980D01*
X190290716Y-105272785D01*
X190240191Y-105197169D01*
X190164575Y-105146644D01*
X190075380Y-105128902D01*
X189375380Y-105128902D01*
X189286185Y-105146644D01*
X189210569Y-105197169D01*
X189160044Y-105272785D01*
X189142302Y-105361980D01*
X189142302Y-106661980D01*
X189160044Y-106751175D01*
X189210569Y-106826791D01*
X189286185Y-106877316D01*
X189375380Y-106895058D01*
X190075380Y-106895058D01*
X190164575Y-106877316D01*
X190240191Y-106826791D01*
X190290716Y-106751175D01*
X190308458Y-106661980D01*
X190308458Y-106316780D01*
X192086294Y-106316780D01*
X192593234Y-106823720D01*
X192167670Y-106823720D01*
X192021620Y-106969770D01*
X192021620Y-107980120D01*
X192981970Y-107980120D01*
X193128020Y-107834070D01*
X193128020Y-107358506D01*
X195556114Y-109786600D01*
X195513900Y-109786600D01*
X195317853Y-109867805D01*
X195167805Y-110017853D01*
X195086600Y-110213900D01*
X195086600Y-110426100D01*
X195167805Y-110622147D01*
X195317853Y-110772195D01*
X195513900Y-110853400D01*
X195722348Y-110853400D01*
X196416600Y-111547652D01*
X196416600Y-111718400D01*
X196467341Y-111840900D01*
X194793597Y-111840900D01*
X193725536Y-110772840D01*
X193702154Y-110737846D01*
X193563524Y-110645217D01*
X193441274Y-110620900D01*
X193441273Y-110620900D01*
X193400000Y-110612690D01*
X193358727Y-110620900D01*
X190684012Y-110620900D01*
X190642739Y-110612690D01*
X190601466Y-110620900D01*
X190479216Y-110645217D01*
X190340586Y-110737846D01*
X190317206Y-110772837D01*
X188976898Y-112113146D01*
X188976898Y-111807920D01*
X188959156Y-111718725D01*
X188908631Y-111643109D01*
X188833015Y-111592584D01*
X188743820Y-111574842D01*
X187343820Y-111574842D01*
X187254625Y-111592584D01*
X187179009Y-111643109D01*
X187128484Y-111718725D01*
X187110742Y-111807920D01*
X187110742Y-112138820D01*
X186927843Y-112138820D01*
X186910336Y-112050805D01*
X186859811Y-111975189D01*
X186784195Y-111924664D01*
X186695000Y-111906922D01*
X185445000Y-111906922D01*
X185355805Y-111924664D01*
X185280189Y-111975189D01*
X185229664Y-112050805D01*
X185211922Y-112140000D01*
X185211922Y-113140000D01*
X185229664Y-113229195D01*
X185280189Y-113304811D01*
X185355805Y-113355336D01*
X185445000Y-113373078D01*
X186695000Y-113373078D01*
X186784195Y-113355336D01*
X186859811Y-113304811D01*
X186910336Y-113229195D01*
X186928078Y-113140000D01*
X186928078Y-112977020D01*
X187110742Y-112977020D01*
X187110742Y-113307920D01*
X187128484Y-113397115D01*
X187179009Y-113472731D01*
X187254625Y-113523256D01*
X187343820Y-113540998D01*
X188743820Y-113540998D01*
X188833015Y-113523256D01*
X188908631Y-113472731D01*
X188959156Y-113397115D01*
X188976898Y-113307920D01*
X188976898Y-112977020D01*
X189083547Y-112977020D01*
X189124820Y-112985230D01*
X189166093Y-112977020D01*
X189166094Y-112977020D01*
X189288344Y-112952703D01*
X189426974Y-112860074D01*
X189450356Y-112825080D01*
X190467516Y-111807920D01*
X190910742Y-111807920D01*
X190910742Y-113307920D01*
X190928484Y-113397115D01*
X190979009Y-113472731D01*
X191054625Y-113523256D01*
X191143820Y-113540998D01*
X192543820Y-113540998D01*
X192633015Y-113523256D01*
X192708631Y-113472731D01*
X192759156Y-113397115D01*
X192776898Y-113307920D01*
X192776898Y-111807920D01*
X192759156Y-111718725D01*
X192708631Y-111643109D01*
X192633015Y-111592584D01*
X192543820Y-111574842D01*
X191143820Y-111574842D01*
X191054625Y-111592584D01*
X190979009Y-111643109D01*
X190928484Y-111718725D01*
X190910742Y-111807920D01*
X190467516Y-111807920D01*
X190816337Y-111459100D01*
X193226404Y-111459100D01*
X194294466Y-112527163D01*
X194317846Y-112562154D01*
X194456476Y-112654783D01*
X194578726Y-112679100D01*
X194578727Y-112679100D01*
X194620000Y-112687310D01*
X194661273Y-112679100D01*
X197897341Y-112679100D01*
X197846600Y-112801600D01*
X197846600Y-113013800D01*
X197927805Y-113209847D01*
X198077853Y-113359895D01*
X198273900Y-113441100D01*
X198486100Y-113441100D01*
X198682147Y-113359895D01*
X198829542Y-113212500D01*
X203622286Y-113212500D01*
X203652300Y-113218470D01*
X203682314Y-113212500D01*
X203682318Y-113212500D01*
X203771227Y-113194815D01*
X203872048Y-113127448D01*
X203889052Y-113102000D01*
X204944332Y-112046720D01*
X207540502Y-112046720D01*
X207540502Y-113246720D01*
X207558244Y-113335915D01*
X207608769Y-113411531D01*
X207684385Y-113462056D01*
X207773580Y-113479798D01*
X208973580Y-113479798D01*
X209062775Y-113462056D01*
X209138391Y-113411531D01*
X209188916Y-113335915D01*
X209206658Y-113246720D01*
X209206658Y-112951520D01*
X209497102Y-112951520D01*
X209497102Y-113248040D01*
X209514844Y-113337235D01*
X209565369Y-113412851D01*
X209640985Y-113463376D01*
X209730180Y-113481118D01*
X211030180Y-113481118D01*
X211119375Y-113463376D01*
X211194991Y-113412851D01*
X211245516Y-113337235D01*
X211263258Y-113248040D01*
X211263258Y-112548040D01*
X211245516Y-112458845D01*
X211194991Y-112383229D01*
X211119375Y-112332704D01*
X211030180Y-112314962D01*
X209730180Y-112314962D01*
X209640985Y-112332704D01*
X209627192Y-112341920D01*
X209206658Y-112341920D01*
X209206658Y-112046720D01*
X209188916Y-111957525D01*
X209138391Y-111881909D01*
X209062775Y-111831384D01*
X208973580Y-111813642D01*
X207773580Y-111813642D01*
X207684385Y-111831384D01*
X207608769Y-111881909D01*
X207558244Y-111957525D01*
X207540502Y-112046720D01*
X204944332Y-112046720D01*
X206239532Y-110751520D01*
X207540502Y-110751520D01*
X207540502Y-111046720D01*
X207558244Y-111135915D01*
X207608769Y-111211531D01*
X207684385Y-111262056D01*
X207773580Y-111279798D01*
X208973580Y-111279798D01*
X209062775Y-111262056D01*
X209138391Y-111211531D01*
X209162238Y-111175842D01*
X209289228Y-111175842D01*
X209145980Y-111319090D01*
X209145980Y-111464245D01*
X209234919Y-111678963D01*
X209399258Y-111843301D01*
X209613976Y-111932240D01*
X210056330Y-111932240D01*
X210202380Y-111786190D01*
X210202380Y-111173040D01*
X210557980Y-111173040D01*
X210557980Y-111786190D01*
X210704030Y-111932240D01*
X211146384Y-111932240D01*
X211361102Y-111843301D01*
X211525441Y-111678963D01*
X211614380Y-111464245D01*
X211614380Y-111319090D01*
X211468330Y-111173040D01*
X210557980Y-111173040D01*
X210202380Y-111173040D01*
X210182380Y-111173040D01*
X210182380Y-110823040D01*
X210202380Y-110823040D01*
X210202380Y-110209890D01*
X210557980Y-110209890D01*
X210557980Y-110823040D01*
X211468330Y-110823040D01*
X211614380Y-110676990D01*
X211614380Y-110531835D01*
X211525441Y-110317117D01*
X211361102Y-110152779D01*
X211146384Y-110063840D01*
X210704030Y-110063840D01*
X210557980Y-110209890D01*
X210202380Y-110209890D01*
X210056330Y-110063840D01*
X209613976Y-110063840D01*
X209399258Y-110152779D01*
X209234919Y-110317117D01*
X209206658Y-110385345D01*
X209206658Y-109846720D01*
X209188916Y-109757525D01*
X209138391Y-109681909D01*
X209062775Y-109631384D01*
X208973580Y-109613642D01*
X207773580Y-109613642D01*
X207684385Y-109631384D01*
X207608769Y-109681909D01*
X207558244Y-109757525D01*
X207540502Y-109846720D01*
X207540502Y-110141920D01*
X206143292Y-110141920D01*
X206113279Y-110135950D01*
X206083266Y-110141920D01*
X206083262Y-110141920D01*
X205994353Y-110159605D01*
X205893532Y-110226972D01*
X205876528Y-110252420D01*
X203526048Y-112602900D01*
X202488113Y-112602900D01*
X202549094Y-112562154D01*
X202572476Y-112527160D01*
X202865102Y-112234535D01*
X202900094Y-112211154D01*
X202992723Y-112072524D01*
X203017040Y-111950274D01*
X203017040Y-111950273D01*
X203025250Y-111909000D01*
X203017040Y-111867727D01*
X203017040Y-111747333D01*
X203037135Y-111743336D01*
X203112751Y-111692811D01*
X203163276Y-111617195D01*
X203181018Y-111528000D01*
X203181018Y-110887618D01*
X204307163Y-109761474D01*
X204342154Y-109738094D01*
X204434783Y-109599464D01*
X204459100Y-109477214D01*
X204459100Y-109477213D01*
X204467310Y-109435940D01*
X204459100Y-109394667D01*
X204459100Y-109125242D01*
X204492195Y-109092147D01*
X204573400Y-108896100D01*
X204573400Y-108683900D01*
X204492195Y-108487853D01*
X204342147Y-108337805D01*
X204146100Y-108256600D01*
X203933900Y-108256600D01*
X203737853Y-108337805D01*
X203587805Y-108487853D01*
X203506600Y-108683900D01*
X203506600Y-108896100D01*
X203587805Y-109092147D01*
X203620901Y-109125243D01*
X203620901Y-109262342D01*
X202888322Y-109994922D01*
X202247940Y-109994922D01*
X202158745Y-110012664D01*
X202083129Y-110063189D01*
X202032604Y-110138805D01*
X202014862Y-110228000D01*
X202014862Y-111528000D01*
X202032604Y-111617195D01*
X202083129Y-111692811D01*
X202158745Y-111743336D01*
X202168890Y-111745354D01*
X202073344Y-111840900D01*
X197432659Y-111840900D01*
X197483400Y-111718400D01*
X197483400Y-111506200D01*
X197402195Y-111310153D01*
X197252147Y-111160105D01*
X197056100Y-111078900D01*
X196843900Y-111078900D01*
X196819895Y-111088843D01*
X196153400Y-110422348D01*
X196153400Y-110383886D01*
X196283814Y-110514300D01*
X196300818Y-110539748D01*
X196401639Y-110607115D01*
X196490548Y-110624800D01*
X196490552Y-110624800D01*
X196520565Y-110630770D01*
X196550578Y-110624800D01*
X197389986Y-110624800D01*
X197420000Y-110630770D01*
X197450014Y-110624800D01*
X197450018Y-110624800D01*
X197538927Y-110607115D01*
X197639748Y-110539748D01*
X197656752Y-110514300D01*
X198031223Y-110139830D01*
X198056668Y-110122828D01*
X198073670Y-110097383D01*
X198073672Y-110097381D01*
X198124035Y-110022007D01*
X198126576Y-110009230D01*
X198141720Y-109933098D01*
X198141720Y-109933095D01*
X198147690Y-109903080D01*
X198141720Y-109873066D01*
X198141720Y-109723870D01*
X198201115Y-109712056D01*
X198236920Y-109688132D01*
X198272725Y-109712056D01*
X198361920Y-109729798D01*
X198911920Y-109729798D01*
X199001115Y-109712056D01*
X199036920Y-109688132D01*
X199072725Y-109712056D01*
X199161920Y-109729798D01*
X199711920Y-109729798D01*
X199801115Y-109712056D01*
X199836920Y-109688132D01*
X199872725Y-109712056D01*
X199932121Y-109723871D01*
X199932121Y-110386961D01*
X199926150Y-110416980D01*
X199949805Y-110535906D01*
X200000168Y-110611280D01*
X200000171Y-110611283D01*
X200017173Y-110636728D01*
X200042618Y-110653730D01*
X200114862Y-110725974D01*
X200114862Y-111528000D01*
X200132604Y-111617195D01*
X200183129Y-111692811D01*
X200258745Y-111743336D01*
X200347940Y-111761078D01*
X201047940Y-111761078D01*
X201137135Y-111743336D01*
X201212751Y-111692811D01*
X201263276Y-111617195D01*
X201281018Y-111528000D01*
X201281018Y-110228000D01*
X201263276Y-110138805D01*
X201212751Y-110063189D01*
X201137135Y-110012664D01*
X201047940Y-109994922D01*
X200541720Y-109994922D01*
X200541720Y-109723870D01*
X200601115Y-109712056D01*
X200636920Y-109688132D01*
X200672725Y-109712056D01*
X200761920Y-109729798D01*
X201311920Y-109729798D01*
X201401115Y-109712056D01*
X201436920Y-109688132D01*
X201472725Y-109712056D01*
X201561920Y-109729798D01*
X202111920Y-109729798D01*
X202201115Y-109712056D01*
X202236920Y-109688132D01*
X202272725Y-109712056D01*
X202361920Y-109729798D01*
X202911920Y-109729798D01*
X203001115Y-109712056D01*
X203076731Y-109661531D01*
X203127256Y-109585915D01*
X203144998Y-109496720D01*
X203144998Y-107896720D01*
X203127256Y-107807525D01*
X203076731Y-107731909D01*
X203001115Y-107681384D01*
X202911920Y-107663642D01*
X202361920Y-107663642D01*
X202272725Y-107681384D01*
X202236920Y-107705308D01*
X202201115Y-107681384D01*
X202111920Y-107663642D01*
X201561920Y-107663642D01*
X201472725Y-107681384D01*
X201436920Y-107705308D01*
X201401115Y-107681384D01*
X201311920Y-107663642D01*
X200761920Y-107663642D01*
X200672725Y-107681384D01*
X200636920Y-107705308D01*
X200601115Y-107681384D01*
X200532456Y-107667727D01*
X200524035Y-107625393D01*
X200497653Y-107585910D01*
X200473672Y-107550019D01*
X200473670Y-107550017D01*
X200456668Y-107524572D01*
X200431223Y-107507570D01*
X199551340Y-106627688D01*
X199551340Y-103095451D01*
X199673840Y-103146192D01*
X199886040Y-103146192D01*
X200082087Y-103064987D01*
X200201474Y-102945600D01*
X202050900Y-102945600D01*
X202050901Y-104328722D01*
X202050900Y-104328727D01*
X202050901Y-106644757D01*
X201997805Y-106697853D01*
X201916600Y-106893900D01*
X201916600Y-107106100D01*
X201997805Y-107302147D01*
X202147853Y-107452195D01*
X202343900Y-107533400D01*
X202556100Y-107533400D01*
X202752147Y-107452195D01*
X202902195Y-107302147D01*
X202983400Y-107106100D01*
X202983400Y-106893900D01*
X202902195Y-106697853D01*
X202889100Y-106684758D01*
X202889100Y-106350084D01*
X202955997Y-106416981D01*
X203053842Y-106457510D01*
X203053842Y-106721720D01*
X203071584Y-106810915D01*
X203095508Y-106846720D01*
X203071584Y-106882525D01*
X203053842Y-106971720D01*
X203053842Y-107521720D01*
X203071584Y-107610915D01*
X203122109Y-107686531D01*
X203197725Y-107737056D01*
X203286920Y-107754798D01*
X204886920Y-107754798D01*
X204976115Y-107737056D01*
X205051731Y-107686531D01*
X205102256Y-107610915D01*
X205119998Y-107521720D01*
X205119998Y-107439862D01*
X205266008Y-107439862D01*
X205119960Y-107585910D01*
X205119960Y-107878265D01*
X205208899Y-108092983D01*
X205373238Y-108257321D01*
X205587956Y-108346260D01*
X206005310Y-108346260D01*
X206151360Y-108200210D01*
X206151360Y-107439860D01*
X206506960Y-107439860D01*
X206506960Y-108200210D01*
X206653010Y-108346260D01*
X207070364Y-108346260D01*
X207285082Y-108257321D01*
X207449421Y-108092983D01*
X207538360Y-107878265D01*
X207538360Y-107585910D01*
X207392310Y-107439860D01*
X206506960Y-107439860D01*
X206151360Y-107439860D01*
X206131360Y-107439860D01*
X206131360Y-107084260D01*
X206151360Y-107084260D01*
X206151360Y-106323910D01*
X206506960Y-106323910D01*
X206506960Y-107084260D01*
X207392310Y-107084260D01*
X207538360Y-106938210D01*
X207538360Y-106645855D01*
X207449421Y-106431137D01*
X207285082Y-106266799D01*
X207070364Y-106177860D01*
X206653010Y-106177860D01*
X206506960Y-106323910D01*
X206151360Y-106323910D01*
X206005310Y-106177860D01*
X205587956Y-106177860D01*
X205373238Y-106266799D01*
X205208899Y-106431137D01*
X205119998Y-106645763D01*
X205119998Y-106457510D01*
X205217843Y-106416981D01*
X205382181Y-106252642D01*
X205471120Y-106037924D01*
X205471120Y-105930270D01*
X205365372Y-105824522D01*
X205471120Y-105824522D01*
X205471120Y-105762251D01*
X205488824Y-105851255D01*
X205539349Y-105926871D01*
X205614965Y-105977396D01*
X205704160Y-105995138D01*
X206954160Y-105995138D01*
X207043355Y-105977396D01*
X207118971Y-105926871D01*
X207169496Y-105851255D01*
X207187238Y-105762060D01*
X207187238Y-104762060D01*
X207169496Y-104672865D01*
X207150358Y-104644222D01*
X207224622Y-104613461D01*
X207388961Y-104449123D01*
X207429490Y-104351278D01*
X208493700Y-104351278D01*
X208582895Y-104333536D01*
X208658511Y-104283011D01*
X208709036Y-104207395D01*
X208726778Y-104118200D01*
X208726778Y-103813500D01*
X208999142Y-103813500D01*
X208999142Y-104008700D01*
X209016884Y-104097895D01*
X209067409Y-104173511D01*
X209143025Y-104224036D01*
X209232220Y-104241778D01*
X210482220Y-104241778D01*
X210571415Y-104224036D01*
X210647031Y-104173511D01*
X210697556Y-104097895D01*
X210715298Y-104008700D01*
X210715298Y-103008700D01*
X210697556Y-102919505D01*
X210647031Y-102843889D01*
X210571415Y-102793364D01*
X210482220Y-102775622D01*
X209232220Y-102775622D01*
X209143025Y-102793364D01*
X209067409Y-102843889D01*
X209016884Y-102919505D01*
X208999142Y-103008700D01*
X208999142Y-103203900D01*
X208726778Y-103203900D01*
X208726778Y-102718200D01*
X208709036Y-102629005D01*
X208658511Y-102553389D01*
X208582895Y-102502864D01*
X208580562Y-102502400D01*
X208609904Y-102502400D01*
X208814847Y-102417510D01*
X208901298Y-102503961D01*
X209116016Y-102592900D01*
X209533370Y-102592900D01*
X209679420Y-102446850D01*
X209679420Y-101686500D01*
X210035020Y-101686500D01*
X210035020Y-102446850D01*
X210181070Y-102592900D01*
X210598424Y-102592900D01*
X210813142Y-102503961D01*
X210977481Y-102339623D01*
X211066420Y-102124905D01*
X211066420Y-101832550D01*
X210920370Y-101686500D01*
X210035020Y-101686500D01*
X209679420Y-101686500D01*
X209659420Y-101686500D01*
X209659420Y-101330900D01*
X209679420Y-101330900D01*
X209679420Y-100570550D01*
X210035020Y-100570550D01*
X210035020Y-101330900D01*
X210920370Y-101330900D01*
X211066420Y-101184850D01*
X211066420Y-100892495D01*
X210977481Y-100677777D01*
X210813142Y-100513439D01*
X210598424Y-100424500D01*
X210181070Y-100424500D01*
X210035020Y-100570550D01*
X209679420Y-100570550D01*
X209533370Y-100424500D01*
X209116016Y-100424500D01*
X209077900Y-100440288D01*
X209077900Y-100401995D01*
X209012038Y-100242990D01*
X209066863Y-100220281D01*
X209231201Y-100055942D01*
X209320140Y-99841224D01*
X209320140Y-99423870D01*
X209174090Y-99277820D01*
X208413740Y-99277820D01*
X208413740Y-99297820D01*
X208058140Y-99297820D01*
X208058140Y-99277820D01*
X207297790Y-99277820D01*
X207151740Y-99423870D01*
X207151740Y-99841224D01*
X207190169Y-99934000D01*
X207177496Y-99934000D01*
X206962778Y-100022939D01*
X206798439Y-100187277D01*
X206757910Y-100285122D01*
X206540740Y-100285122D01*
X206540740Y-99958098D01*
X206735940Y-99958098D01*
X206825135Y-99940356D01*
X206900751Y-99889831D01*
X206951276Y-99814215D01*
X206969018Y-99725020D01*
X206969018Y-98475020D01*
X206951276Y-98385825D01*
X206933230Y-98358816D01*
X207151740Y-98358816D01*
X207151740Y-98776170D01*
X207297790Y-98922220D01*
X208058140Y-98922220D01*
X208058140Y-98036870D01*
X208413740Y-98036870D01*
X208413740Y-98922220D01*
X209174090Y-98922220D01*
X209320140Y-98776170D01*
X209320140Y-98358816D01*
X209231201Y-98144098D01*
X209066863Y-97979759D01*
X208852145Y-97890820D01*
X208559790Y-97890820D01*
X208413740Y-98036870D01*
X208058140Y-98036870D01*
X207912090Y-97890820D01*
X207619735Y-97890820D01*
X207405017Y-97979759D01*
X207240679Y-98144098D01*
X207151740Y-98358816D01*
X206933230Y-98358816D01*
X206900751Y-98310209D01*
X206825135Y-98259684D01*
X206735940Y-98241942D01*
X205944493Y-98241942D01*
X206958226Y-97228209D01*
X207662328Y-97228209D01*
X207703601Y-97236419D01*
X207744874Y-97228209D01*
X207744875Y-97228209D01*
X207867125Y-97203892D01*
X208005755Y-97111263D01*
X208029137Y-97076269D01*
X208937162Y-96168245D01*
X208972154Y-96144865D01*
X209064783Y-96006235D01*
X209089100Y-95883985D01*
X209097310Y-95842712D01*
X209089100Y-95801439D01*
X209089100Y-92795138D01*
X209253900Y-92863400D01*
X209466100Y-92863400D01*
X209662147Y-92782195D01*
X209789542Y-92654800D01*
X209926922Y-92654800D01*
X209926922Y-92700000D01*
X209944664Y-92789195D01*
X209995189Y-92864811D01*
X210070805Y-92915336D01*
X210160000Y-92933078D01*
X211460000Y-92933078D01*
X211549195Y-92915336D01*
X211624811Y-92864811D01*
X211675336Y-92789195D01*
X211693078Y-92700000D01*
X211693078Y-92000000D01*
X211675336Y-91910805D01*
X211624811Y-91835189D01*
X211549195Y-91784664D01*
X211460000Y-91766922D01*
X210160000Y-91766922D01*
X210070805Y-91784664D01*
X209995189Y-91835189D01*
X209944664Y-91910805D01*
X209926922Y-92000000D01*
X209926922Y-92045200D01*
X209819380Y-92045200D01*
X209812195Y-92027853D01*
X209662147Y-91877805D01*
X209466100Y-91796600D01*
X209253900Y-91796600D01*
X209089100Y-91864862D01*
X209089100Y-90771050D01*
X209575800Y-90771050D01*
X209575800Y-90916205D01*
X209664739Y-91130923D01*
X209829078Y-91295261D01*
X210043796Y-91384200D01*
X210486150Y-91384200D01*
X210632200Y-91238150D01*
X210632200Y-90625000D01*
X210987800Y-90625000D01*
X210987800Y-91238150D01*
X211133850Y-91384200D01*
X211576204Y-91384200D01*
X211790922Y-91295261D01*
X211955261Y-91130923D01*
X212044200Y-90916205D01*
X212044200Y-90771050D01*
X211898150Y-90625000D01*
X210987800Y-90625000D01*
X210632200Y-90625000D01*
X209721850Y-90625000D01*
X209575800Y-90771050D01*
X209089100Y-90771050D01*
X209089100Y-90221272D01*
X209097310Y-90179999D01*
X209078627Y-90086074D01*
X209064783Y-90016476D01*
X209042947Y-89983795D01*
X209575800Y-89983795D01*
X209575800Y-90128950D01*
X209721850Y-90275000D01*
X210632200Y-90275000D01*
X210632200Y-89661850D01*
X210987800Y-89661850D01*
X210987800Y-90275000D01*
X211898150Y-90275000D01*
X212044200Y-90128950D01*
X212044200Y-89983795D01*
X211955261Y-89769077D01*
X211790922Y-89604739D01*
X211576204Y-89515800D01*
X211133850Y-89515800D01*
X210987800Y-89661850D01*
X210632200Y-89661850D01*
X210486150Y-89515800D01*
X210043796Y-89515800D01*
X209829078Y-89604739D01*
X209664739Y-89769077D01*
X209575800Y-89983795D01*
X209042947Y-89983795D01*
X208972154Y-89877846D01*
X208937163Y-89854466D01*
X207529100Y-88446404D01*
X207529100Y-86286274D01*
X207537310Y-86245001D01*
X207529100Y-86203726D01*
X207529100Y-85771770D01*
X210342720Y-85771770D01*
X210342720Y-85916925D01*
X210431659Y-86131643D01*
X210595998Y-86295981D01*
X210810716Y-86384920D01*
X211253070Y-86384920D01*
X211399120Y-86238870D01*
X211399120Y-85625720D01*
X211754720Y-85625720D01*
X211754720Y-86238870D01*
X211900770Y-86384920D01*
X212343124Y-86384920D01*
X212557842Y-86295981D01*
X212722181Y-86131643D01*
X212811120Y-85916925D01*
X212811120Y-85771770D01*
X212665070Y-85625720D01*
X211754720Y-85625720D01*
X211399120Y-85625720D01*
X210488770Y-85625720D01*
X210342720Y-85771770D01*
X207529100Y-85771770D01*
X207529100Y-84984515D01*
X210342720Y-84984515D01*
X210342720Y-85129670D01*
X210488770Y-85275720D01*
X211399120Y-85275720D01*
X211399120Y-84662570D01*
X211754720Y-84662570D01*
X211754720Y-85275720D01*
X212665070Y-85275720D01*
X212811120Y-85129670D01*
X212811120Y-84984515D01*
X212722181Y-84769797D01*
X212557842Y-84605459D01*
X212343124Y-84516520D01*
X211900770Y-84516520D01*
X211754720Y-84662570D01*
X211399120Y-84662570D01*
X211253070Y-84516520D01*
X210810716Y-84516520D01*
X210595998Y-84605459D01*
X210431659Y-84769797D01*
X210342720Y-84984515D01*
X207529100Y-84984515D01*
X207529100Y-84550117D01*
X207535780Y-84516534D01*
X207535780Y-84516533D01*
X207543990Y-84475260D01*
X207535780Y-84433987D01*
X207535780Y-84327338D01*
X207616680Y-84327338D01*
X207705875Y-84309596D01*
X207781491Y-84259071D01*
X207832016Y-84183455D01*
X207849758Y-84094260D01*
X207849758Y-83404435D01*
X207877805Y-83472147D01*
X208027853Y-83622195D01*
X208223900Y-83703400D01*
X208436100Y-83703400D01*
X208632147Y-83622195D01*
X208782195Y-83472147D01*
X208863400Y-83276100D01*
X208863400Y-83200720D01*
X210693842Y-83200720D01*
X210693842Y-83900720D01*
X210711584Y-83989915D01*
X210762109Y-84065531D01*
X210837725Y-84116056D01*
X210926920Y-84133798D01*
X212226920Y-84133798D01*
X212316115Y-84116056D01*
X212391731Y-84065531D01*
X212442256Y-83989915D01*
X212459998Y-83900720D01*
X212459998Y-83200720D01*
X212442256Y-83111525D01*
X212391731Y-83035909D01*
X212316115Y-82985384D01*
X212226920Y-82967642D01*
X211884260Y-82967642D01*
X211884260Y-82684578D01*
X212128660Y-82684578D01*
X212217855Y-82666836D01*
X212293471Y-82616311D01*
X212343996Y-82540695D01*
X212361738Y-82451500D01*
X212361738Y-81251500D01*
X212343996Y-81162305D01*
X212293471Y-81086689D01*
X212217855Y-81036164D01*
X212128660Y-81018422D01*
X210928660Y-81018422D01*
X210839465Y-81036164D01*
X210763849Y-81086689D01*
X210713324Y-81162305D01*
X210695582Y-81251500D01*
X210695582Y-82451500D01*
X210713324Y-82540695D01*
X210763849Y-82616311D01*
X210839465Y-82666836D01*
X210928660Y-82684578D01*
X211173061Y-82684578D01*
X211173061Y-82967642D01*
X210926920Y-82967642D01*
X210837725Y-82985384D01*
X210762109Y-83035909D01*
X210711584Y-83111525D01*
X210693842Y-83200720D01*
X208863400Y-83200720D01*
X208863400Y-83067652D01*
X210264301Y-81666751D01*
X210289748Y-81649748D01*
X210308159Y-81622195D01*
X210357115Y-81548927D01*
X210357115Y-81548926D01*
X210374800Y-81460018D01*
X210374800Y-81460015D01*
X210380770Y-81430000D01*
X210374800Y-81399985D01*
X210374800Y-80484012D01*
X210695582Y-80163230D01*
X210695582Y-80251500D01*
X210713324Y-80340695D01*
X210763849Y-80416311D01*
X210839465Y-80466836D01*
X210928660Y-80484578D01*
X212128660Y-80484578D01*
X212217855Y-80466836D01*
X212293471Y-80416311D01*
X212343996Y-80340695D01*
X212361738Y-80251500D01*
X212361738Y-79051500D01*
X212343996Y-78962305D01*
X212293471Y-78886689D01*
X212217855Y-78836164D01*
X212128660Y-78818422D01*
X210928660Y-78818422D01*
X210839465Y-78836164D01*
X210763849Y-78886689D01*
X210713324Y-78962305D01*
X210695582Y-79051500D01*
X210695582Y-79356777D01*
X210657333Y-79364385D01*
X210556512Y-79431752D01*
X210539508Y-79457200D01*
X209875698Y-80121010D01*
X209850253Y-80138012D01*
X209833251Y-80163457D01*
X209833248Y-80163460D01*
X209782885Y-80238834D01*
X209759230Y-80357760D01*
X209765201Y-80387779D01*
X209765200Y-81303748D01*
X208432348Y-82636600D01*
X208223900Y-82636600D01*
X208027853Y-82717805D01*
X207877805Y-82867853D01*
X207849758Y-82935565D01*
X207849758Y-80594260D01*
X207832016Y-80505065D01*
X207781491Y-80429449D01*
X207705875Y-80378924D01*
X207616680Y-80361182D01*
X206886496Y-80361182D01*
X205778631Y-79253317D01*
X205758793Y-79223627D01*
X205641168Y-79145033D01*
X205537440Y-79124400D01*
X205502420Y-79117434D01*
X205467400Y-79124400D01*
X201897295Y-79124400D01*
X200326210Y-77553316D01*
X200306373Y-77523627D01*
X200188748Y-77445033D01*
X200085020Y-77424400D01*
X200050000Y-77417434D01*
X200014980Y-77424400D01*
X195089942Y-77424400D01*
X195112195Y-77402147D01*
X195193400Y-77206100D01*
X195193400Y-76993900D01*
X195112195Y-76797853D01*
X194977420Y-76663078D01*
X195210000Y-76663078D01*
X195299195Y-76645336D01*
X195374811Y-76594811D01*
X195425336Y-76519195D01*
X195443078Y-76430000D01*
X195443078Y-75130000D01*
X195425336Y-75040805D01*
X195374811Y-74965189D01*
X195300228Y-74915354D01*
X196319772Y-74915354D01*
X196245189Y-74965189D01*
X196194664Y-75040805D01*
X196176922Y-75130000D01*
X196176922Y-76430000D01*
X196194664Y-76519195D01*
X196245189Y-76594811D01*
X196320805Y-76645336D01*
X196410000Y-76663078D01*
X197110000Y-76663078D01*
X197199195Y-76645336D01*
X197274811Y-76594811D01*
X197325336Y-76519195D01*
X197343078Y-76430000D01*
X197343078Y-76084800D01*
X197626922Y-76084800D01*
X197626922Y-76350000D01*
X197644664Y-76439195D01*
X197695189Y-76514811D01*
X197770805Y-76565336D01*
X197860000Y-76583078D01*
X199060000Y-76583078D01*
X199149195Y-76565336D01*
X199224811Y-76514811D01*
X199275336Y-76439195D01*
X199293078Y-76350000D01*
X199293078Y-76073850D01*
X199475800Y-76073850D01*
X199475800Y-76466204D01*
X199564739Y-76680922D01*
X199729077Y-76845261D01*
X199943795Y-76934200D01*
X200336150Y-76934200D01*
X200482200Y-76788150D01*
X200482200Y-75927800D01*
X199621850Y-75927800D01*
X199475800Y-76073850D01*
X199293078Y-76073850D01*
X199293078Y-75150000D01*
X199275336Y-75060805D01*
X199224811Y-74985189D01*
X199149195Y-74934664D01*
X199060000Y-74916922D01*
X197860000Y-74916922D01*
X197770805Y-74934664D01*
X197695189Y-74985189D01*
X197644664Y-75060805D01*
X197626922Y-75150000D01*
X197626922Y-75475200D01*
X197343078Y-75475200D01*
X197343078Y-75130000D01*
X197325336Y-75040805D01*
X197274811Y-74965189D01*
X197200228Y-74915354D01*
X199524860Y-74915354D01*
X199475800Y-75033796D01*
X199475800Y-75426150D01*
X199621850Y-75572200D01*
X200482200Y-75572200D01*
X200482200Y-75552200D01*
X200837800Y-75552200D01*
X200837800Y-75572200D01*
X200857800Y-75572200D01*
X200857800Y-75927800D01*
X200837800Y-75927800D01*
X200837800Y-76788150D01*
X200983850Y-76934200D01*
X201376205Y-76934200D01*
X201590923Y-76845261D01*
X201755261Y-76680922D01*
X201783602Y-76612501D01*
X201783602Y-78494260D01*
X201801344Y-78583455D01*
X201851869Y-78659071D01*
X201927485Y-78709596D01*
X202016680Y-78727338D01*
X203516680Y-78727338D01*
X203605875Y-78709596D01*
X203681491Y-78659071D01*
X203732016Y-78583455D01*
X203749758Y-78494260D01*
X203749758Y-75094260D01*
X203732016Y-75005065D01*
X203681491Y-74929449D01*
X203660396Y-74915354D01*
X208572964Y-74915354D01*
X208551869Y-74929449D01*
X208501344Y-75005065D01*
X208483602Y-75094260D01*
X208483602Y-78494260D01*
X208501344Y-78583455D01*
X208551869Y-78659071D01*
X208627485Y-78709596D01*
X208716680Y-78727338D01*
X210216680Y-78727338D01*
X210305875Y-78709596D01*
X210381491Y-78659071D01*
X210432016Y-78583455D01*
X210449758Y-78494260D01*
X210449758Y-75094260D01*
X210432016Y-75005065D01*
X210393005Y-74946680D01*
X210757442Y-74989169D01*
X211338545Y-75200100D01*
X211855543Y-75539059D01*
X212280691Y-75987854D01*
X212591193Y-76522423D01*
X212771694Y-77118388D01*
X212814801Y-77601399D01*
X212814800Y-111567665D01*
X212740985Y-112200796D01*
X212530054Y-112781901D01*
X212191097Y-113298895D01*
X211742301Y-113724044D01*
X211207731Y-114034547D01*
X210611764Y-114215048D01*
X210128766Y-114258154D01*
X186162489Y-114258154D01*
X185529358Y-114184339D01*
X184948253Y-113973408D01*
X184431259Y-113634451D01*
X184006110Y-113185655D01*
X183695607Y-112651085D01*
X183515106Y-112055118D01*
X183472000Y-111572120D01*
X183472000Y-110963850D01*
X184860800Y-110963850D01*
X184860800Y-111256205D01*
X184949739Y-111470923D01*
X185114078Y-111635261D01*
X185328796Y-111724200D01*
X185746150Y-111724200D01*
X185892200Y-111578150D01*
X185892200Y-110817800D01*
X186247800Y-110817800D01*
X186247800Y-111578150D01*
X186393850Y-111724200D01*
X186811204Y-111724200D01*
X187025922Y-111635261D01*
X187190261Y-111470923D01*
X187279200Y-111256205D01*
X187279200Y-110963850D01*
X187133150Y-110817800D01*
X186247800Y-110817800D01*
X185892200Y-110817800D01*
X185006850Y-110817800D01*
X184860800Y-110963850D01*
X183472000Y-110963850D01*
X183472000Y-110023795D01*
X184860800Y-110023795D01*
X184860800Y-110316150D01*
X185006850Y-110462200D01*
X185892200Y-110462200D01*
X185892200Y-109701850D01*
X186247800Y-109701850D01*
X186247800Y-110462200D01*
X187133150Y-110462200D01*
X187279200Y-110316150D01*
X187279200Y-110023795D01*
X187190261Y-109809077D01*
X187025922Y-109644739D01*
X186811204Y-109555800D01*
X186393850Y-109555800D01*
X186247800Y-109701850D01*
X185892200Y-109701850D01*
X185746150Y-109555800D01*
X185328796Y-109555800D01*
X185114078Y-109644739D01*
X184949739Y-109809077D01*
X184860800Y-110023795D01*
X183472000Y-110023795D01*
X183472000Y-107407920D01*
X187110742Y-107407920D01*
X187110742Y-108907920D01*
X187128484Y-108997115D01*
X187179009Y-109072731D01*
X187254625Y-109123256D01*
X187343820Y-109140998D01*
X188743820Y-109140998D01*
X188833015Y-109123256D01*
X188908631Y-109072731D01*
X188959156Y-108997115D01*
X188976898Y-108907920D01*
X188976898Y-108481770D01*
X190559620Y-108481770D01*
X190559620Y-109024125D01*
X190648559Y-109238843D01*
X190812898Y-109403181D01*
X191027616Y-109492120D01*
X191519970Y-109492120D01*
X191666020Y-109346070D01*
X191666020Y-108335720D01*
X192021620Y-108335720D01*
X192021620Y-109346070D01*
X192167670Y-109492120D01*
X192660024Y-109492120D01*
X192874742Y-109403181D01*
X193039081Y-109238843D01*
X193128020Y-109024125D01*
X193128020Y-108481770D01*
X192981970Y-108335720D01*
X192021620Y-108335720D01*
X191666020Y-108335720D01*
X190705670Y-108335720D01*
X190559620Y-108481770D01*
X188976898Y-108481770D01*
X188976898Y-107407920D01*
X188959156Y-107318725D01*
X188941109Y-107291715D01*
X190559620Y-107291715D01*
X190559620Y-107834070D01*
X190705670Y-107980120D01*
X191666020Y-107980120D01*
X191666020Y-106969770D01*
X191519970Y-106823720D01*
X191027616Y-106823720D01*
X190812898Y-106912659D01*
X190648559Y-107076997D01*
X190559620Y-107291715D01*
X188941109Y-107291715D01*
X188908631Y-107243109D01*
X188833015Y-107192584D01*
X188743820Y-107174842D01*
X188348620Y-107174842D01*
X188348620Y-106814176D01*
X188390716Y-106751175D01*
X188408458Y-106661980D01*
X188408458Y-105361980D01*
X188390716Y-105272785D01*
X188340191Y-105197169D01*
X188264575Y-105146644D01*
X188175380Y-105128902D01*
X187475380Y-105128902D01*
X187386185Y-105146644D01*
X187310569Y-105197169D01*
X187260044Y-105272785D01*
X187242302Y-105361980D01*
X187242302Y-106661980D01*
X187260044Y-106751175D01*
X187310569Y-106826791D01*
X187386185Y-106877316D01*
X187475380Y-106895058D01*
X187739021Y-106895058D01*
X187739021Y-107174842D01*
X187343820Y-107174842D01*
X187254625Y-107192584D01*
X187179009Y-107243109D01*
X187128484Y-107318725D01*
X187110742Y-107407920D01*
X183472000Y-107407920D01*
X183472000Y-102480000D01*
X190476922Y-102480000D01*
X190476922Y-103180000D01*
X190494664Y-103269195D01*
X190545189Y-103344811D01*
X190620805Y-103395336D01*
X190710000Y-103413078D01*
X192010000Y-103413078D01*
X192099195Y-103395336D01*
X192174811Y-103344811D01*
X192225336Y-103269195D01*
X192243078Y-103180000D01*
X192243078Y-102480000D01*
X192225336Y-102390805D01*
X192174811Y-102315189D01*
X192099195Y-102264664D01*
X192010000Y-102246922D01*
X191841972Y-102246922D01*
X192093294Y-101995600D01*
X192911258Y-101995600D01*
X193007853Y-102092195D01*
X193203900Y-102173400D01*
X193416100Y-102173400D01*
X193612147Y-102092195D01*
X193762195Y-101942147D01*
X193843400Y-101746100D01*
X193843400Y-101533900D01*
X193762195Y-101337853D01*
X193612147Y-101187805D01*
X193416100Y-101106600D01*
X193203900Y-101106600D01*
X193007853Y-101187805D01*
X192911258Y-101284400D01*
X191981018Y-101284400D01*
X191945999Y-101277434D01*
X191910980Y-101284400D01*
X191807252Y-101305033D01*
X191689627Y-101383627D01*
X191669789Y-101413317D01*
X191133315Y-101949791D01*
X191103627Y-101969628D01*
X191083791Y-101999315D01*
X191083790Y-101999316D01*
X191025033Y-102087253D01*
X190997434Y-102226000D01*
X191001596Y-102246922D01*
X190710000Y-102246922D01*
X190620805Y-102264664D01*
X190545189Y-102315189D01*
X190494664Y-102390805D01*
X190476922Y-102480000D01*
X183472000Y-102480000D01*
X183472000Y-96851050D01*
X184585800Y-96851050D01*
X184585800Y-96971204D01*
X184674739Y-97185922D01*
X184839077Y-97350261D01*
X185053795Y-97439200D01*
X185596150Y-97439200D01*
X185742200Y-97293150D01*
X185742200Y-96705000D01*
X186097800Y-96705000D01*
X186097800Y-97293150D01*
X186243850Y-97439200D01*
X186786205Y-97439200D01*
X187000923Y-97350261D01*
X187165261Y-97185922D01*
X187254200Y-96971204D01*
X187254200Y-96851050D01*
X187108150Y-96705000D01*
X186097800Y-96705000D01*
X185742200Y-96705000D01*
X184731850Y-96705000D01*
X184585800Y-96851050D01*
X183472000Y-96851050D01*
X183472000Y-78644050D01*
X185522092Y-78644050D01*
X185571146Y-79162567D01*
X185675199Y-79413770D01*
X185893123Y-79485430D01*
X186598553Y-78780000D01*
X185893123Y-78074570D01*
X185675199Y-78146230D01*
X185522092Y-78644050D01*
X183472000Y-78644050D01*
X183472000Y-77605843D01*
X183545815Y-76972712D01*
X183736574Y-76447179D01*
X184640759Y-76447179D01*
X184739381Y-76908628D01*
X185007085Y-77297210D01*
X185403115Y-77553767D01*
X185491239Y-77558548D01*
X185536123Y-77532322D01*
X185733795Y-77614200D01*
X186126150Y-77614200D01*
X186191745Y-77548605D01*
X186208761Y-77558548D01*
X186272198Y-77555106D01*
X186272198Y-77582016D01*
X186216230Y-77605199D01*
X186144570Y-77823123D01*
X186850000Y-78528553D01*
X187555430Y-77823123D01*
X187486730Y-77614200D01*
X188026150Y-77614200D01*
X188172200Y-77468150D01*
X188172200Y-76257800D01*
X188527800Y-76257800D01*
X188527800Y-77468150D01*
X188673850Y-77614200D01*
X189216205Y-77614200D01*
X189350000Y-77558780D01*
X189483795Y-77614200D01*
X190026150Y-77614200D01*
X190172200Y-77468150D01*
X190172200Y-76257800D01*
X188527800Y-76257800D01*
X188172200Y-76257800D01*
X184799009Y-76257800D01*
X184640759Y-76447179D01*
X183736574Y-76447179D01*
X183756746Y-76391609D01*
X184095705Y-75874611D01*
X184544500Y-75449463D01*
X184718665Y-75348300D01*
X184640759Y-75712821D01*
X184799009Y-75902200D01*
X188172200Y-75902200D01*
X188172200Y-75882200D01*
X188527800Y-75882200D01*
X188527800Y-75902200D01*
X190172200Y-75902200D01*
X190172200Y-75882200D01*
X190527800Y-75882200D01*
X190527800Y-75902200D01*
X193900991Y-75902200D01*
X194059241Y-75712821D01*
X193960619Y-75251372D01*
X193729128Y-74915354D01*
X194419772Y-74915354D01*
X194345189Y-74965189D01*
G36*
X203772840Y-99228202D02*
X203737846Y-99251584D01*
X203645217Y-99390215D01*
X203621602Y-99508934D01*
X203612690Y-99553738D01*
X203620900Y-99595012D01*
X203620900Y-99804758D01*
X203587805Y-99837853D01*
X203506600Y-100033900D01*
X203506600Y-100246100D01*
X203587805Y-100442147D01*
X203737853Y-100592195D01*
X203933900Y-100673400D01*
X204146100Y-100673400D01*
X204342147Y-100592195D01*
X204492195Y-100442147D01*
X204573400Y-100246100D01*
X204573400Y-100033900D01*
X204492195Y-99837853D01*
X204459100Y-99804758D01*
X204459100Y-99727334D01*
X205502862Y-98683572D01*
X205502862Y-99725020D01*
X205520604Y-99814215D01*
X205571129Y-99889831D01*
X205646745Y-99940356D01*
X205735940Y-99958098D01*
X205931140Y-99958098D01*
X205931141Y-100285122D01*
X205693700Y-100285122D01*
X205604505Y-100302864D01*
X205528889Y-100353389D01*
X205478364Y-100429005D01*
X205460622Y-100518200D01*
X205460622Y-101292646D01*
X205411348Y-101341920D01*
X205114070Y-101341920D01*
X205102256Y-101282525D01*
X205051731Y-101206909D01*
X204976115Y-101156384D01*
X204886920Y-101138642D01*
X203286920Y-101138642D01*
X203197725Y-101156384D01*
X203122109Y-101206909D01*
X203071584Y-101282525D01*
X203053842Y-101371720D01*
X203053842Y-101921720D01*
X203071584Y-102010915D01*
X203095508Y-102046720D01*
X203071584Y-102082525D01*
X203053842Y-102171720D01*
X203053842Y-102721720D01*
X203071584Y-102810915D01*
X203095508Y-102846720D01*
X203085136Y-102862242D01*
X202978678Y-102755784D01*
X203003400Y-102696100D01*
X203003400Y-102483900D01*
X202922195Y-102287853D01*
X202772147Y-102137805D01*
X202576100Y-102056600D01*
X202363900Y-102056600D01*
X202167853Y-102137805D01*
X202071258Y-102234400D01*
X200155890Y-102234400D01*
X200082087Y-102160597D01*
X199886040Y-102079392D01*
X199673840Y-102079392D01*
X199490094Y-102155502D01*
X199483292Y-102145322D01*
X199478268Y-102137803D01*
X199478268Y-101931850D01*
X199397063Y-101735803D01*
X199247015Y-101585755D01*
X199050968Y-101504550D01*
X198838768Y-101504550D01*
X198642721Y-101585755D01*
X198553581Y-101674896D01*
X198485299Y-101606614D01*
X198289252Y-101525409D01*
X198077052Y-101525409D01*
X197881005Y-101606614D01*
X197805981Y-101681639D01*
X197722147Y-101597805D01*
X197526100Y-101516600D01*
X197313900Y-101516600D01*
X197117853Y-101597805D01*
X196967805Y-101747853D01*
X196886600Y-101943900D01*
X196886600Y-102156100D01*
X196967805Y-102352147D01*
X197117853Y-102502195D01*
X197313900Y-102583400D01*
X197522348Y-102583400D01*
X198332121Y-103393174D01*
X198332120Y-107669570D01*
X198272725Y-107681384D01*
X198236920Y-107705308D01*
X198201115Y-107681384D01*
X198111920Y-107663642D01*
X197561920Y-107663642D01*
X197472725Y-107681384D01*
X197436920Y-107705308D01*
X197401115Y-107681384D01*
X197311920Y-107663642D01*
X196761920Y-107663642D01*
X196672725Y-107681384D01*
X196597109Y-107731909D01*
X196546584Y-107807525D01*
X196528842Y-107896720D01*
X196528842Y-109496720D01*
X196546584Y-109585915D01*
X196597109Y-109661531D01*
X196672725Y-109712056D01*
X196761920Y-109729798D01*
X197311920Y-109729798D01*
X197401115Y-109712056D01*
X197436920Y-109688132D01*
X197472725Y-109712056D01*
X197532120Y-109723870D01*
X197532120Y-109776827D01*
X197293748Y-110015200D01*
X196646818Y-110015200D01*
X195750690Y-109119072D01*
X195912147Y-109052195D01*
X196062195Y-108902147D01*
X196143400Y-108706100D01*
X196143400Y-108493900D01*
X196062195Y-108297853D01*
X195912147Y-108147805D01*
X195891720Y-108139344D01*
X195891720Y-107754798D01*
X196386920Y-107754798D01*
X196476115Y-107737056D01*
X196551731Y-107686531D01*
X196602256Y-107610915D01*
X196619998Y-107521720D01*
X196619998Y-106971720D01*
X196602256Y-106882525D01*
X196578332Y-106846720D01*
X196602256Y-106810915D01*
X196619998Y-106721720D01*
X196619998Y-106171720D01*
X196602256Y-106082525D01*
X196578332Y-106046720D01*
X196602256Y-106010915D01*
X196619998Y-105921720D01*
X196619998Y-105657510D01*
X196717843Y-105616981D01*
X196882181Y-105452642D01*
X196971120Y-105237924D01*
X196971120Y-105130270D01*
X196825070Y-104984220D01*
X195764720Y-104984220D01*
X195764720Y-105044520D01*
X195409120Y-105044520D01*
X195409120Y-104984220D01*
X194348770Y-104984220D01*
X194202720Y-105130270D01*
X194202720Y-105147800D01*
X193547800Y-105147800D01*
X193547800Y-105908150D01*
X193693850Y-106054200D01*
X194111204Y-106054200D01*
X194325922Y-105965261D01*
X194490261Y-105800923D01*
X194550276Y-105656033D01*
X194553842Y-105657510D01*
X194553842Y-105921720D01*
X194571584Y-106010915D01*
X194595508Y-106046720D01*
X194571584Y-106082525D01*
X194553842Y-106171720D01*
X194553842Y-106721720D01*
X194571584Y-106810915D01*
X194595508Y-106846720D01*
X194571584Y-106882525D01*
X194553842Y-106971720D01*
X194553842Y-107521720D01*
X194571584Y-107610915D01*
X194622109Y-107686531D01*
X194697725Y-107737056D01*
X194786920Y-107754798D01*
X195282120Y-107754798D01*
X195282121Y-108173537D01*
X195157805Y-108297853D01*
X195090928Y-108459310D01*
X192685818Y-106054200D01*
X193046150Y-106054200D01*
X193192200Y-105908150D01*
X193192200Y-105147800D01*
X193172200Y-105147800D01*
X193172200Y-104792200D01*
X193192200Y-104792200D01*
X193192200Y-104031850D01*
X193046150Y-103885800D01*
X192760252Y-103885800D01*
X192942975Y-103703078D01*
X193995000Y-103703078D01*
X194084195Y-103685336D01*
X194159811Y-103634811D01*
X194210336Y-103559195D01*
X194228078Y-103470000D01*
X194228078Y-102802320D01*
X194569874Y-102802320D01*
X194571584Y-102810915D01*
X194595508Y-102846720D01*
X194571584Y-102882525D01*
X194553842Y-102971720D01*
X194553842Y-103521720D01*
X194571584Y-103610915D01*
X194595508Y-103646720D01*
X194571584Y-103682525D01*
X194553842Y-103771720D01*
X194553842Y-104035930D01*
X194455997Y-104076459D01*
X194441820Y-104090636D01*
X194325922Y-103974739D01*
X194111204Y-103885800D01*
X193693850Y-103885800D01*
X193547800Y-104031850D01*
X193547800Y-104792200D01*
X194433150Y-104792200D01*
X194516130Y-104709220D01*
X195409120Y-104709220D01*
X195409120Y-104648920D01*
X195764720Y-104648920D01*
X195764720Y-104709220D01*
X196825070Y-104709220D01*
X196971120Y-104563170D01*
X196971120Y-104455516D01*
X196882181Y-104240798D01*
X196717843Y-104076459D01*
X196619998Y-104035930D01*
X196619998Y-103771720D01*
X196602256Y-103682525D01*
X196578332Y-103646720D01*
X196602256Y-103610915D01*
X196619998Y-103521720D01*
X196619998Y-102971720D01*
X196602256Y-102882525D01*
X196578332Y-102846720D01*
X196602256Y-102810915D01*
X196619998Y-102721720D01*
X196619998Y-102171720D01*
X196602256Y-102082525D01*
X196578332Y-102046720D01*
X196602256Y-102010915D01*
X196619998Y-101921720D01*
X196619998Y-101371720D01*
X196602256Y-101282525D01*
X196551731Y-101206909D01*
X196476115Y-101156384D01*
X196386920Y-101138642D01*
X195881643Y-101138642D01*
X195874035Y-101100393D01*
X195864361Y-101085915D01*
X195823672Y-101025019D01*
X195823670Y-101025017D01*
X195806668Y-100999572D01*
X195781224Y-100982571D01*
X194058261Y-99259609D01*
X196578600Y-99259610D01*
X196546584Y-99307525D01*
X196528842Y-99396720D01*
X196528842Y-100996720D01*
X196546584Y-101085915D01*
X196597109Y-101161531D01*
X196672725Y-101212056D01*
X196761920Y-101229798D01*
X197311920Y-101229798D01*
X197401115Y-101212056D01*
X197436920Y-101188132D01*
X197472725Y-101212056D01*
X197561920Y-101229798D01*
X198111920Y-101229798D01*
X198201115Y-101212056D01*
X198236920Y-101188132D01*
X198272725Y-101212056D01*
X198361920Y-101229798D01*
X198911920Y-101229798D01*
X199001115Y-101212056D01*
X199036920Y-101188132D01*
X199072725Y-101212056D01*
X199161920Y-101229798D01*
X199711920Y-101229798D01*
X199801115Y-101212056D01*
X199836920Y-101188132D01*
X199872725Y-101212056D01*
X199961920Y-101229798D01*
X200511920Y-101229798D01*
X200601115Y-101212056D01*
X200636920Y-101188132D01*
X200672725Y-101212056D01*
X200761920Y-101229798D01*
X201311920Y-101229798D01*
X201401115Y-101212056D01*
X201436920Y-101188132D01*
X201472725Y-101212056D01*
X201561920Y-101229798D01*
X202111920Y-101229798D01*
X202201115Y-101212056D01*
X202236920Y-101188132D01*
X202272725Y-101212056D01*
X202361920Y-101229798D01*
X202911920Y-101229798D01*
X203001115Y-101212056D01*
X203076731Y-101161531D01*
X203127256Y-101085915D01*
X203144998Y-100996720D01*
X203144998Y-99396720D01*
X203127256Y-99307525D01*
X203076731Y-99231909D01*
X203001115Y-99181384D01*
X202911920Y-99163642D01*
X202361920Y-99163642D01*
X202272725Y-99181384D01*
X202236920Y-99205308D01*
X202201115Y-99181384D01*
X202111920Y-99163642D01*
X201561920Y-99163642D01*
X201472725Y-99181384D01*
X201436920Y-99205308D01*
X201401115Y-99181384D01*
X201341720Y-99169570D01*
X201341720Y-98700582D01*
X201342147Y-98700405D01*
X201492195Y-98550357D01*
X201573400Y-98354310D01*
X201573400Y-98142110D01*
X201522659Y-98019609D01*
X204981433Y-98019609D01*
X203772840Y-99228202D01*
X203772840Y-99228202D01*
G37*
X203772840Y-99228202D02*
X203737846Y-99251584D01*
X203645217Y-99390215D01*
X203621602Y-99508934D01*
X203612690Y-99553738D01*
X203620900Y-99595012D01*
X203620900Y-99804758D01*
X203587805Y-99837853D01*
X203506600Y-100033900D01*
X203506600Y-100246100D01*
X203587805Y-100442147D01*
X203737853Y-100592195D01*
X203933900Y-100673400D01*
X204146100Y-100673400D01*
X204342147Y-100592195D01*
X204492195Y-100442147D01*
X204573400Y-100246100D01*
X204573400Y-100033900D01*
X204492195Y-99837853D01*
X204459100Y-99804758D01*
X204459100Y-99727334D01*
X205502862Y-98683572D01*
X205502862Y-99725020D01*
X205520604Y-99814215D01*
X205571129Y-99889831D01*
X205646745Y-99940356D01*
X205735940Y-99958098D01*
X205931140Y-99958098D01*
X205931141Y-100285122D01*
X205693700Y-100285122D01*
X205604505Y-100302864D01*
X205528889Y-100353389D01*
X205478364Y-100429005D01*
X205460622Y-100518200D01*
X205460622Y-101292646D01*
X205411348Y-101341920D01*
X205114070Y-101341920D01*
X205102256Y-101282525D01*
X205051731Y-101206909D01*
X204976115Y-101156384D01*
X204886920Y-101138642D01*
X203286920Y-101138642D01*
X203197725Y-101156384D01*
X203122109Y-101206909D01*
X203071584Y-101282525D01*
X203053842Y-101371720D01*
X203053842Y-101921720D01*
X203071584Y-102010915D01*
X203095508Y-102046720D01*
X203071584Y-102082525D01*
X203053842Y-102171720D01*
X203053842Y-102721720D01*
X203071584Y-102810915D01*
X203095508Y-102846720D01*
X203085136Y-102862242D01*
X202978678Y-102755784D01*
X203003400Y-102696100D01*
X203003400Y-102483900D01*
X202922195Y-102287853D01*
X202772147Y-102137805D01*
X202576100Y-102056600D01*
X202363900Y-102056600D01*
X202167853Y-102137805D01*
X202071258Y-102234400D01*
X200155890Y-102234400D01*
X200082087Y-102160597D01*
X199886040Y-102079392D01*
X199673840Y-102079392D01*
X199490094Y-102155502D01*
X199483292Y-102145322D01*
X199478268Y-102137803D01*
X199478268Y-101931850D01*
X199397063Y-101735803D01*
X199247015Y-101585755D01*
X199050968Y-101504550D01*
X198838768Y-101504550D01*
X198642721Y-101585755D01*
X198553581Y-101674896D01*
X198485299Y-101606614D01*
X198289252Y-101525409D01*
X198077052Y-101525409D01*
X197881005Y-101606614D01*
X197805981Y-101681639D01*
X197722147Y-101597805D01*
X197526100Y-101516600D01*
X197313900Y-101516600D01*
X197117853Y-101597805D01*
X196967805Y-101747853D01*
X196886600Y-101943900D01*
X196886600Y-102156100D01*
X196967805Y-102352147D01*
X197117853Y-102502195D01*
X197313900Y-102583400D01*
X197522348Y-102583400D01*
X198332121Y-103393174D01*
X198332120Y-107669570D01*
X198272725Y-107681384D01*
X198236920Y-107705308D01*
X198201115Y-107681384D01*
X198111920Y-107663642D01*
X197561920Y-107663642D01*
X197472725Y-107681384D01*
X197436920Y-107705308D01*
X197401115Y-107681384D01*
X197311920Y-107663642D01*
X196761920Y-107663642D01*
X196672725Y-107681384D01*
X196597109Y-107731909D01*
X196546584Y-107807525D01*
X196528842Y-107896720D01*
X196528842Y-109496720D01*
X196546584Y-109585915D01*
X196597109Y-109661531D01*
X196672725Y-109712056D01*
X196761920Y-109729798D01*
X197311920Y-109729798D01*
X197401115Y-109712056D01*
X197436920Y-109688132D01*
X197472725Y-109712056D01*
X197532120Y-109723870D01*
X197532120Y-109776827D01*
X197293748Y-110015200D01*
X196646818Y-110015200D01*
X195750690Y-109119072D01*
X195912147Y-109052195D01*
X196062195Y-108902147D01*
X196143400Y-108706100D01*
X196143400Y-108493900D01*
X196062195Y-108297853D01*
X195912147Y-108147805D01*
X195891720Y-108139344D01*
X195891720Y-107754798D01*
X196386920Y-107754798D01*
X196476115Y-107737056D01*
X196551731Y-107686531D01*
X196602256Y-107610915D01*
X196619998Y-107521720D01*
X196619998Y-106971720D01*
X196602256Y-106882525D01*
X196578332Y-106846720D01*
X196602256Y-106810915D01*
X196619998Y-106721720D01*
X196619998Y-106171720D01*
X196602256Y-106082525D01*
X196578332Y-106046720D01*
X196602256Y-106010915D01*
X196619998Y-105921720D01*
X196619998Y-105657510D01*
X196717843Y-105616981D01*
X196882181Y-105452642D01*
X196971120Y-105237924D01*
X196971120Y-105130270D01*
X196825070Y-104984220D01*
X195764720Y-104984220D01*
X195764720Y-105044520D01*
X195409120Y-105044520D01*
X195409120Y-104984220D01*
X194348770Y-104984220D01*
X194202720Y-105130270D01*
X194202720Y-105147800D01*
X193547800Y-105147800D01*
X193547800Y-105908150D01*
X193693850Y-106054200D01*
X194111204Y-106054200D01*
X194325922Y-105965261D01*
X194490261Y-105800923D01*
X194550276Y-105656033D01*
X194553842Y-105657510D01*
X194553842Y-105921720D01*
X194571584Y-106010915D01*
X194595508Y-106046720D01*
X194571584Y-106082525D01*
X194553842Y-106171720D01*
X194553842Y-106721720D01*
X194571584Y-106810915D01*
X194595508Y-106846720D01*
X194571584Y-106882525D01*
X194553842Y-106971720D01*
X194553842Y-107521720D01*
X194571584Y-107610915D01*
X194622109Y-107686531D01*
X194697725Y-107737056D01*
X194786920Y-107754798D01*
X195282120Y-107754798D01*
X195282121Y-108173537D01*
X195157805Y-108297853D01*
X195090928Y-108459310D01*
X192685818Y-106054200D01*
X193046150Y-106054200D01*
X193192200Y-105908150D01*
X193192200Y-105147800D01*
X193172200Y-105147800D01*
X193172200Y-104792200D01*
X193192200Y-104792200D01*
X193192200Y-104031850D01*
X193046150Y-103885800D01*
X192760252Y-103885800D01*
X192942975Y-103703078D01*
X193995000Y-103703078D01*
X194084195Y-103685336D01*
X194159811Y-103634811D01*
X194210336Y-103559195D01*
X194228078Y-103470000D01*
X194228078Y-102802320D01*
X194569874Y-102802320D01*
X194571584Y-102810915D01*
X194595508Y-102846720D01*
X194571584Y-102882525D01*
X194553842Y-102971720D01*
X194553842Y-103521720D01*
X194571584Y-103610915D01*
X194595508Y-103646720D01*
X194571584Y-103682525D01*
X194553842Y-103771720D01*
X194553842Y-104035930D01*
X194455997Y-104076459D01*
X194441820Y-104090636D01*
X194325922Y-103974739D01*
X194111204Y-103885800D01*
X193693850Y-103885800D01*
X193547800Y-104031850D01*
X193547800Y-104792200D01*
X194433150Y-104792200D01*
X194516130Y-104709220D01*
X195409120Y-104709220D01*
X195409120Y-104648920D01*
X195764720Y-104648920D01*
X195764720Y-104709220D01*
X196825070Y-104709220D01*
X196971120Y-104563170D01*
X196971120Y-104455516D01*
X196882181Y-104240798D01*
X196717843Y-104076459D01*
X196619998Y-104035930D01*
X196619998Y-103771720D01*
X196602256Y-103682525D01*
X196578332Y-103646720D01*
X196602256Y-103610915D01*
X196619998Y-103521720D01*
X196619998Y-102971720D01*
X196602256Y-102882525D01*
X196578332Y-102846720D01*
X196602256Y-102810915D01*
X196619998Y-102721720D01*
X196619998Y-102171720D01*
X196602256Y-102082525D01*
X196578332Y-102046720D01*
X196602256Y-102010915D01*
X196619998Y-101921720D01*
X196619998Y-101371720D01*
X196602256Y-101282525D01*
X196551731Y-101206909D01*
X196476115Y-101156384D01*
X196386920Y-101138642D01*
X195881643Y-101138642D01*
X195874035Y-101100393D01*
X195864361Y-101085915D01*
X195823672Y-101025019D01*
X195823670Y-101025017D01*
X195806668Y-100999572D01*
X195781224Y-100982571D01*
X194058261Y-99259609D01*
X196578600Y-99259610D01*
X196546584Y-99307525D01*
X196528842Y-99396720D01*
X196528842Y-100996720D01*
X196546584Y-101085915D01*
X196597109Y-101161531D01*
X196672725Y-101212056D01*
X196761920Y-101229798D01*
X197311920Y-101229798D01*
X197401115Y-101212056D01*
X197436920Y-101188132D01*
X197472725Y-101212056D01*
X197561920Y-101229798D01*
X198111920Y-101229798D01*
X198201115Y-101212056D01*
X198236920Y-101188132D01*
X198272725Y-101212056D01*
X198361920Y-101229798D01*
X198911920Y-101229798D01*
X199001115Y-101212056D01*
X199036920Y-101188132D01*
X199072725Y-101212056D01*
X199161920Y-101229798D01*
X199711920Y-101229798D01*
X199801115Y-101212056D01*
X199836920Y-101188132D01*
X199872725Y-101212056D01*
X199961920Y-101229798D01*
X200511920Y-101229798D01*
X200601115Y-101212056D01*
X200636920Y-101188132D01*
X200672725Y-101212056D01*
X200761920Y-101229798D01*
X201311920Y-101229798D01*
X201401115Y-101212056D01*
X201436920Y-101188132D01*
X201472725Y-101212056D01*
X201561920Y-101229798D01*
X202111920Y-101229798D01*
X202201115Y-101212056D01*
X202236920Y-101188132D01*
X202272725Y-101212056D01*
X202361920Y-101229798D01*
X202911920Y-101229798D01*
X203001115Y-101212056D01*
X203076731Y-101161531D01*
X203127256Y-101085915D01*
X203144998Y-100996720D01*
X203144998Y-99396720D01*
X203127256Y-99307525D01*
X203076731Y-99231909D01*
X203001115Y-99181384D01*
X202911920Y-99163642D01*
X202361920Y-99163642D01*
X202272725Y-99181384D01*
X202236920Y-99205308D01*
X202201115Y-99181384D01*
X202111920Y-99163642D01*
X201561920Y-99163642D01*
X201472725Y-99181384D01*
X201436920Y-99205308D01*
X201401115Y-99181384D01*
X201341720Y-99169570D01*
X201341720Y-98700582D01*
X201342147Y-98700405D01*
X201492195Y-98550357D01*
X201573400Y-98354310D01*
X201573400Y-98142110D01*
X201522659Y-98019609D01*
X204981433Y-98019609D01*
X203772840Y-99228202D01*
G36*
X204264720Y-105509220D02*
X204284720Y-105509220D01*
X204284720Y-105784220D01*
X204264720Y-105784220D01*
X204264720Y-105844520D01*
X203909120Y-105844520D01*
X203909120Y-105784220D01*
X203889120Y-105784220D01*
X203889120Y-105509220D01*
X203909120Y-105509220D01*
X203909120Y-105448920D01*
X204264720Y-105448920D01*
X204264720Y-105509220D01*
X204264720Y-105509220D01*
G37*
X204264720Y-105509220D02*
X204284720Y-105509220D01*
X204284720Y-105784220D01*
X204264720Y-105784220D01*
X204264720Y-105844520D01*
X203909120Y-105844520D01*
X203909120Y-105784220D01*
X203889120Y-105784220D01*
X203889120Y-105509220D01*
X203909120Y-105509220D01*
X203909120Y-105448920D01*
X204264720Y-105448920D01*
X204264720Y-105509220D01*
G36*
X204264720Y-103909220D02*
X204284720Y-103909220D01*
X204284720Y-104184220D01*
X204264720Y-104184220D01*
X204264720Y-104244520D01*
X203909120Y-104244520D01*
X203909120Y-104184220D01*
X203889120Y-104184220D01*
X203889120Y-103909220D01*
X203909120Y-103909220D01*
X203909120Y-103848920D01*
X204264720Y-103848920D01*
X204264720Y-103909220D01*
X204264720Y-103909220D01*
G37*
X204264720Y-103909220D02*
X204284720Y-103909220D01*
X204284720Y-104184220D01*
X204264720Y-104184220D01*
X204264720Y-104244520D01*
X203909120Y-104244520D01*
X203909120Y-104184220D01*
X203889120Y-104184220D01*
X203889120Y-103909220D01*
X203909120Y-103909220D01*
X203909120Y-103848920D01*
X204264720Y-103848920D01*
X204264720Y-103909220D01*
G36*
X206471500Y-103240400D02*
X206491500Y-103240400D01*
X206491500Y-103596000D01*
X206471500Y-103596000D01*
X206471500Y-103616000D01*
X206115900Y-103616000D01*
X206115900Y-103596000D01*
X206095900Y-103596000D01*
X206095900Y-103240400D01*
X206115900Y-103240400D01*
X206115900Y-103220400D01*
X206471500Y-103220400D01*
X206471500Y-103240400D01*
X206471500Y-103240400D01*
G37*
X206471500Y-103240400D02*
X206491500Y-103240400D01*
X206491500Y-103596000D01*
X206471500Y-103596000D01*
X206471500Y-103616000D01*
X206115900Y-103616000D01*
X206115900Y-103596000D01*
X206095900Y-103596000D01*
X206095900Y-103240400D01*
X206115900Y-103240400D01*
X206115900Y-103220400D01*
X206471500Y-103220400D01*
X206471500Y-103240400D01*
G36*
X208071500Y-101040400D02*
X208091500Y-101040400D01*
X208091500Y-101396000D01*
X208071500Y-101396000D01*
X208071500Y-101416000D01*
X207715900Y-101416000D01*
X207715900Y-101396000D01*
X207695900Y-101396000D01*
X207695900Y-101040400D01*
X207715900Y-101040400D01*
X207715900Y-101020400D01*
X208071500Y-101020400D01*
X208071500Y-101040400D01*
X208071500Y-101040400D01*
G37*
X208071500Y-101040400D02*
X208091500Y-101040400D01*
X208091500Y-101396000D01*
X208071500Y-101396000D01*
X208071500Y-101416000D01*
X207715900Y-101416000D01*
X207715900Y-101396000D01*
X207695900Y-101396000D01*
X207695900Y-101040400D01*
X207715900Y-101040400D01*
X207715900Y-101020400D01*
X208071500Y-101020400D01*
X208071500Y-101040400D01*
G36*
X202701850Y-92212500D02*
X202763800Y-92212500D01*
X202763800Y-92487500D01*
X202701850Y-92487500D01*
X202555800Y-92633550D01*
X202555800Y-92741204D01*
X202635995Y-92934811D01*
X202535922Y-92834739D01*
X202321204Y-92745800D01*
X201903850Y-92745800D01*
X201757800Y-92891850D01*
X201757800Y-93652200D01*
X201777800Y-93652200D01*
X201777800Y-94007800D01*
X201757800Y-94007800D01*
X201757800Y-94027800D01*
X201402200Y-94027800D01*
X201402200Y-94007800D01*
X199727800Y-94007800D01*
X199727800Y-94027800D01*
X199372200Y-94027800D01*
X199372200Y-94007800D01*
X198486850Y-94007800D01*
X198340800Y-94153850D01*
X198340800Y-94446205D01*
X198429739Y-94660923D01*
X198594078Y-94825261D01*
X198722826Y-94878590D01*
X198714664Y-94890805D01*
X198696922Y-94980000D01*
X198696922Y-95118270D01*
X198061399Y-94482747D01*
X198061399Y-93213795D01*
X198340800Y-93213795D01*
X198340800Y-93506150D01*
X198486850Y-93652200D01*
X199372200Y-93652200D01*
X199372200Y-92891850D01*
X199727800Y-92891850D01*
X199727800Y-93652200D01*
X201402200Y-93652200D01*
X201402200Y-92891850D01*
X201256150Y-92745800D01*
X200838796Y-92745800D01*
X200624078Y-92834739D01*
X200565000Y-92893817D01*
X200505922Y-92834739D01*
X200291204Y-92745800D01*
X199873850Y-92745800D01*
X199727800Y-92891850D01*
X199372200Y-92891850D01*
X199226150Y-92745800D01*
X198808796Y-92745800D01*
X198594078Y-92834739D01*
X198429739Y-92999077D01*
X198340800Y-93213795D01*
X198061399Y-93213795D01*
X198061399Y-92972253D01*
X198693868Y-92339784D01*
X198709664Y-92419195D01*
X198760189Y-92494811D01*
X198835805Y-92545336D01*
X198925000Y-92563078D01*
X200175000Y-92563078D01*
X200264195Y-92545336D01*
X200339811Y-92494811D01*
X200390336Y-92419195D01*
X200408078Y-92330000D01*
X200408078Y-92185600D01*
X200721922Y-92185600D01*
X200721922Y-92330000D01*
X200739664Y-92419195D01*
X200790189Y-92494811D01*
X200865805Y-92545336D01*
X200955000Y-92563078D01*
X202205000Y-92563078D01*
X202294195Y-92545336D01*
X202369811Y-92494811D01*
X202420336Y-92419195D01*
X202438078Y-92330000D01*
X202438078Y-92134800D01*
X202499986Y-92134800D01*
X202530000Y-92140770D01*
X202560014Y-92134800D01*
X202560018Y-92134800D01*
X202613510Y-92124160D01*
X202701850Y-92212500D01*
X202701850Y-92212500D01*
G37*
X202701850Y-92212500D02*
X202763800Y-92212500D01*
X202763800Y-92487500D01*
X202701850Y-92487500D01*
X202555800Y-92633550D01*
X202555800Y-92741204D01*
X202635995Y-92934811D01*
X202535922Y-92834739D01*
X202321204Y-92745800D01*
X201903850Y-92745800D01*
X201757800Y-92891850D01*
X201757800Y-93652200D01*
X201777800Y-93652200D01*
X201777800Y-94007800D01*
X201757800Y-94007800D01*
X201757800Y-94027800D01*
X201402200Y-94027800D01*
X201402200Y-94007800D01*
X199727800Y-94007800D01*
X199727800Y-94027800D01*
X199372200Y-94027800D01*
X199372200Y-94007800D01*
X198486850Y-94007800D01*
X198340800Y-94153850D01*
X198340800Y-94446205D01*
X198429739Y-94660923D01*
X198594078Y-94825261D01*
X198722826Y-94878590D01*
X198714664Y-94890805D01*
X198696922Y-94980000D01*
X198696922Y-95118270D01*
X198061399Y-94482747D01*
X198061399Y-93213795D01*
X198340800Y-93213795D01*
X198340800Y-93506150D01*
X198486850Y-93652200D01*
X199372200Y-93652200D01*
X199372200Y-92891850D01*
X199727800Y-92891850D01*
X199727800Y-93652200D01*
X201402200Y-93652200D01*
X201402200Y-92891850D01*
X201256150Y-92745800D01*
X200838796Y-92745800D01*
X200624078Y-92834739D01*
X200565000Y-92893817D01*
X200505922Y-92834739D01*
X200291204Y-92745800D01*
X199873850Y-92745800D01*
X199727800Y-92891850D01*
X199372200Y-92891850D01*
X199226150Y-92745800D01*
X198808796Y-92745800D01*
X198594078Y-92834739D01*
X198429739Y-92999077D01*
X198340800Y-93213795D01*
X198061399Y-93213795D01*
X198061399Y-92972253D01*
X198693868Y-92339784D01*
X198709664Y-92419195D01*
X198760189Y-92494811D01*
X198835805Y-92545336D01*
X198925000Y-92563078D01*
X200175000Y-92563078D01*
X200264195Y-92545336D01*
X200339811Y-92494811D01*
X200390336Y-92419195D01*
X200408078Y-92330000D01*
X200408078Y-92185600D01*
X200721922Y-92185600D01*
X200721922Y-92330000D01*
X200739664Y-92419195D01*
X200790189Y-92494811D01*
X200865805Y-92545336D01*
X200955000Y-92563078D01*
X202205000Y-92563078D01*
X202294195Y-92545336D01*
X202369811Y-92494811D01*
X202420336Y-92419195D01*
X202438078Y-92330000D01*
X202438078Y-92134800D01*
X202499986Y-92134800D01*
X202530000Y-92140770D01*
X202560014Y-92134800D01*
X202560018Y-92134800D01*
X202613510Y-92124160D01*
X202701850Y-92212500D01*
G36*
X201473791Y-79706686D02*
X201493627Y-79736373D01*
X201523314Y-79756209D01*
X201523315Y-79756210D01*
X201611252Y-79814967D01*
X201749999Y-79842566D01*
X201785019Y-79835600D01*
X205355126Y-79835600D01*
X205529586Y-80010060D01*
X205440530Y-80010060D01*
X205294480Y-80156110D01*
X205294480Y-82166460D01*
X206054830Y-82166460D01*
X206200880Y-82020410D01*
X206200880Y-80681354D01*
X206383602Y-80864076D01*
X206383602Y-84079556D01*
X206356200Y-84079556D01*
X206200880Y-84143891D01*
X206200880Y-82668110D01*
X206054830Y-82522060D01*
X205294480Y-82522060D01*
X205294480Y-82542060D01*
X204938880Y-82542060D01*
X204938880Y-82522060D01*
X204178530Y-82522060D01*
X204032480Y-82668110D01*
X204032480Y-84210464D01*
X204072945Y-84308156D01*
X203497058Y-84308156D01*
X203467044Y-84302186D01*
X203437029Y-84308156D01*
X203437026Y-84308156D01*
X203348117Y-84325841D01*
X203272743Y-84376204D01*
X203272741Y-84376206D01*
X203247296Y-84393208D01*
X203230294Y-84418653D01*
X202050088Y-85598860D01*
X202024643Y-85615862D01*
X202007641Y-85641307D01*
X202007638Y-85641310D01*
X201983078Y-85678067D01*
X201983078Y-85535000D01*
X201965336Y-85445805D01*
X201914811Y-85370189D01*
X201839195Y-85319664D01*
X201750000Y-85301922D01*
X201009200Y-85301922D01*
X201009200Y-85273795D01*
X200920261Y-85059077D01*
X200755922Y-84894739D01*
X200541204Y-84805800D01*
X200123850Y-84805800D01*
X199977800Y-84951850D01*
X199977800Y-85712200D01*
X199997800Y-85712200D01*
X199997800Y-86067800D01*
X199977800Y-86067800D01*
X199977800Y-86828150D01*
X200123850Y-86974200D01*
X200541204Y-86974200D01*
X200755922Y-86885261D01*
X200920261Y-86720923D01*
X201009200Y-86506205D01*
X201009200Y-86318078D01*
X201750000Y-86318078D01*
X201839195Y-86300336D01*
X201914811Y-86249811D01*
X201939591Y-86212725D01*
X201939590Y-87241757D01*
X201912621Y-87268726D01*
X201839195Y-87219664D01*
X201750000Y-87201922D01*
X200950000Y-87201922D01*
X200860805Y-87219664D01*
X200785189Y-87270189D01*
X200734664Y-87345805D01*
X200716922Y-87435000D01*
X200716922Y-87534400D01*
X200658078Y-87534400D01*
X200658078Y-87390000D01*
X200640336Y-87300805D01*
X200589811Y-87225189D01*
X200514195Y-87174664D01*
X200425000Y-87156922D01*
X199579816Y-87156922D01*
X199397094Y-86974200D01*
X199476150Y-86974200D01*
X199622200Y-86828150D01*
X199622200Y-86067800D01*
X198736850Y-86067800D01*
X198613772Y-86190878D01*
X198453078Y-86030184D01*
X198453078Y-85600000D01*
X198435336Y-85510805D01*
X198384811Y-85435189D01*
X198309195Y-85384664D01*
X198220000Y-85366922D01*
X197874800Y-85366922D01*
X197874800Y-85273795D01*
X198590800Y-85273795D01*
X198590800Y-85566150D01*
X198736850Y-85712200D01*
X199622200Y-85712200D01*
X199622200Y-84951850D01*
X199476150Y-84805800D01*
X199058796Y-84805800D01*
X198844078Y-84894739D01*
X198679739Y-85059077D01*
X198590800Y-85273795D01*
X197874800Y-85273795D01*
X197874800Y-83613900D01*
X197956600Y-83613900D01*
X197956600Y-83826100D01*
X198037805Y-84022147D01*
X198187853Y-84172195D01*
X198383900Y-84253400D01*
X198596100Y-84253400D01*
X198792147Y-84172195D01*
X198939542Y-84024800D01*
X200055833Y-84024800D01*
X200064664Y-84069195D01*
X200115189Y-84144811D01*
X200190805Y-84195336D01*
X200280000Y-84213078D01*
X201580000Y-84213078D01*
X201669195Y-84195336D01*
X201744811Y-84144811D01*
X201795336Y-84069195D01*
X201813078Y-83980000D01*
X201813078Y-83280000D01*
X201795336Y-83190805D01*
X201744811Y-83115189D01*
X201669195Y-83064664D01*
X201580000Y-83046922D01*
X200280000Y-83046922D01*
X200190805Y-83064664D01*
X200115189Y-83115189D01*
X200064664Y-83190805D01*
X200046922Y-83280000D01*
X200046922Y-83415200D01*
X198939542Y-83415200D01*
X198792147Y-83267805D01*
X198596100Y-83186600D01*
X198383900Y-83186600D01*
X198187853Y-83267805D01*
X198037805Y-83417853D01*
X197956600Y-83613900D01*
X197874800Y-83613900D01*
X197874800Y-82051050D01*
X199695800Y-82051050D01*
X199695800Y-82196205D01*
X199784739Y-82410923D01*
X199949078Y-82575261D01*
X200163796Y-82664200D01*
X200606150Y-82664200D01*
X200752200Y-82518150D01*
X200752200Y-81905000D01*
X201107800Y-81905000D01*
X201107800Y-82518150D01*
X201253850Y-82664200D01*
X201696204Y-82664200D01*
X201910922Y-82575261D01*
X202075261Y-82410923D01*
X202164200Y-82196205D01*
X202164200Y-82051050D01*
X202018150Y-81905000D01*
X201107800Y-81905000D01*
X200752200Y-81905000D01*
X199841850Y-81905000D01*
X199695800Y-82051050D01*
X197874800Y-82051050D01*
X197874800Y-82008210D01*
X197906100Y-82008210D01*
X198102147Y-81927005D01*
X198252195Y-81776957D01*
X198333400Y-81580910D01*
X198333400Y-81577742D01*
X198377853Y-81622195D01*
X198573900Y-81703400D01*
X198786100Y-81703400D01*
X198982147Y-81622195D01*
X199132195Y-81472147D01*
X199213400Y-81276100D01*
X199213400Y-81063900D01*
X199162659Y-80941400D01*
X199892417Y-80941400D01*
X199784739Y-81049077D01*
X199695800Y-81263795D01*
X199695800Y-81408950D01*
X199841850Y-81555000D01*
X200752200Y-81555000D01*
X200752200Y-81532200D01*
X201107800Y-81532200D01*
X201107800Y-81555000D01*
X202018150Y-81555000D01*
X202164200Y-81408950D01*
X202164200Y-81263795D01*
X202075261Y-81049077D01*
X201910922Y-80884739D01*
X201696204Y-80795800D01*
X201635535Y-80795800D01*
X201693400Y-80656100D01*
X201693400Y-80478056D01*
X204032480Y-80478056D01*
X204032480Y-82020410D01*
X204178530Y-82166460D01*
X204938880Y-82166460D01*
X204938880Y-80156110D01*
X204792830Y-80010060D01*
X204500475Y-80010060D01*
X204285757Y-80098999D01*
X204121419Y-80263338D01*
X204032480Y-80478056D01*
X201693400Y-80478056D01*
X201693400Y-80443900D01*
X201612195Y-80247853D01*
X201462147Y-80097805D01*
X201266100Y-80016600D01*
X201053900Y-80016600D01*
X200857853Y-80097805D01*
X200707805Y-80247853D01*
X200673033Y-80331800D01*
X197322659Y-80331800D01*
X197373400Y-80209299D01*
X197373400Y-79997099D01*
X197292195Y-79801052D01*
X197142147Y-79651004D01*
X196946100Y-79569799D01*
X196733900Y-79569799D01*
X196537853Y-79651004D01*
X196390458Y-79798399D01*
X195335749Y-79798399D01*
X195305735Y-79792429D01*
X195275720Y-79798399D01*
X195275717Y-79798399D01*
X195192424Y-79814967D01*
X195186808Y-79816084D01*
X195111434Y-79866447D01*
X195111432Y-79866449D01*
X195085987Y-79883451D01*
X195068985Y-79908896D01*
X194435232Y-80542649D01*
X194384491Y-80420149D01*
X194237096Y-80272754D01*
X194237096Y-78811446D01*
X194382195Y-78666347D01*
X194463400Y-78470300D01*
X194463400Y-78258100D01*
X194412659Y-78135600D01*
X199902706Y-78135600D01*
X201473791Y-79706686D01*
X201473791Y-79706686D01*
G37*
X201473791Y-79706686D02*
X201493627Y-79736373D01*
X201523314Y-79756209D01*
X201523315Y-79756210D01*
X201611252Y-79814967D01*
X201749999Y-79842566D01*
X201785019Y-79835600D01*
X205355126Y-79835600D01*
X205529586Y-80010060D01*
X205440530Y-80010060D01*
X205294480Y-80156110D01*
X205294480Y-82166460D01*
X206054830Y-82166460D01*
X206200880Y-82020410D01*
X206200880Y-80681354D01*
X206383602Y-80864076D01*
X206383602Y-84079556D01*
X206356200Y-84079556D01*
X206200880Y-84143891D01*
X206200880Y-82668110D01*
X206054830Y-82522060D01*
X205294480Y-82522060D01*
X205294480Y-82542060D01*
X204938880Y-82542060D01*
X204938880Y-82522060D01*
X204178530Y-82522060D01*
X204032480Y-82668110D01*
X204032480Y-84210464D01*
X204072945Y-84308156D01*
X203497058Y-84308156D01*
X203467044Y-84302186D01*
X203437029Y-84308156D01*
X203437026Y-84308156D01*
X203348117Y-84325841D01*
X203272743Y-84376204D01*
X203272741Y-84376206D01*
X203247296Y-84393208D01*
X203230294Y-84418653D01*
X202050088Y-85598860D01*
X202024643Y-85615862D01*
X202007641Y-85641307D01*
X202007638Y-85641310D01*
X201983078Y-85678067D01*
X201983078Y-85535000D01*
X201965336Y-85445805D01*
X201914811Y-85370189D01*
X201839195Y-85319664D01*
X201750000Y-85301922D01*
X201009200Y-85301922D01*
X201009200Y-85273795D01*
X200920261Y-85059077D01*
X200755922Y-84894739D01*
X200541204Y-84805800D01*
X200123850Y-84805800D01*
X199977800Y-84951850D01*
X199977800Y-85712200D01*
X199997800Y-85712200D01*
X199997800Y-86067800D01*
X199977800Y-86067800D01*
X199977800Y-86828150D01*
X200123850Y-86974200D01*
X200541204Y-86974200D01*
X200755922Y-86885261D01*
X200920261Y-86720923D01*
X201009200Y-86506205D01*
X201009200Y-86318078D01*
X201750000Y-86318078D01*
X201839195Y-86300336D01*
X201914811Y-86249811D01*
X201939591Y-86212725D01*
X201939590Y-87241757D01*
X201912621Y-87268726D01*
X201839195Y-87219664D01*
X201750000Y-87201922D01*
X200950000Y-87201922D01*
X200860805Y-87219664D01*
X200785189Y-87270189D01*
X200734664Y-87345805D01*
X200716922Y-87435000D01*
X200716922Y-87534400D01*
X200658078Y-87534400D01*
X200658078Y-87390000D01*
X200640336Y-87300805D01*
X200589811Y-87225189D01*
X200514195Y-87174664D01*
X200425000Y-87156922D01*
X199579816Y-87156922D01*
X199397094Y-86974200D01*
X199476150Y-86974200D01*
X199622200Y-86828150D01*
X199622200Y-86067800D01*
X198736850Y-86067800D01*
X198613772Y-86190878D01*
X198453078Y-86030184D01*
X198453078Y-85600000D01*
X198435336Y-85510805D01*
X198384811Y-85435189D01*
X198309195Y-85384664D01*
X198220000Y-85366922D01*
X197874800Y-85366922D01*
X197874800Y-85273795D01*
X198590800Y-85273795D01*
X198590800Y-85566150D01*
X198736850Y-85712200D01*
X199622200Y-85712200D01*
X199622200Y-84951850D01*
X199476150Y-84805800D01*
X199058796Y-84805800D01*
X198844078Y-84894739D01*
X198679739Y-85059077D01*
X198590800Y-85273795D01*
X197874800Y-85273795D01*
X197874800Y-83613900D01*
X197956600Y-83613900D01*
X197956600Y-83826100D01*
X198037805Y-84022147D01*
X198187853Y-84172195D01*
X198383900Y-84253400D01*
X198596100Y-84253400D01*
X198792147Y-84172195D01*
X198939542Y-84024800D01*
X200055833Y-84024800D01*
X200064664Y-84069195D01*
X200115189Y-84144811D01*
X200190805Y-84195336D01*
X200280000Y-84213078D01*
X201580000Y-84213078D01*
X201669195Y-84195336D01*
X201744811Y-84144811D01*
X201795336Y-84069195D01*
X201813078Y-83980000D01*
X201813078Y-83280000D01*
X201795336Y-83190805D01*
X201744811Y-83115189D01*
X201669195Y-83064664D01*
X201580000Y-83046922D01*
X200280000Y-83046922D01*
X200190805Y-83064664D01*
X200115189Y-83115189D01*
X200064664Y-83190805D01*
X200046922Y-83280000D01*
X200046922Y-83415200D01*
X198939542Y-83415200D01*
X198792147Y-83267805D01*
X198596100Y-83186600D01*
X198383900Y-83186600D01*
X198187853Y-83267805D01*
X198037805Y-83417853D01*
X197956600Y-83613900D01*
X197874800Y-83613900D01*
X197874800Y-82051050D01*
X199695800Y-82051050D01*
X199695800Y-82196205D01*
X199784739Y-82410923D01*
X199949078Y-82575261D01*
X200163796Y-82664200D01*
X200606150Y-82664200D01*
X200752200Y-82518150D01*
X200752200Y-81905000D01*
X201107800Y-81905000D01*
X201107800Y-82518150D01*
X201253850Y-82664200D01*
X201696204Y-82664200D01*
X201910922Y-82575261D01*
X202075261Y-82410923D01*
X202164200Y-82196205D01*
X202164200Y-82051050D01*
X202018150Y-81905000D01*
X201107800Y-81905000D01*
X200752200Y-81905000D01*
X199841850Y-81905000D01*
X199695800Y-82051050D01*
X197874800Y-82051050D01*
X197874800Y-82008210D01*
X197906100Y-82008210D01*
X198102147Y-81927005D01*
X198252195Y-81776957D01*
X198333400Y-81580910D01*
X198333400Y-81577742D01*
X198377853Y-81622195D01*
X198573900Y-81703400D01*
X198786100Y-81703400D01*
X198982147Y-81622195D01*
X199132195Y-81472147D01*
X199213400Y-81276100D01*
X199213400Y-81063900D01*
X199162659Y-80941400D01*
X199892417Y-80941400D01*
X199784739Y-81049077D01*
X199695800Y-81263795D01*
X199695800Y-81408950D01*
X199841850Y-81555000D01*
X200752200Y-81555000D01*
X200752200Y-81532200D01*
X201107800Y-81532200D01*
X201107800Y-81555000D01*
X202018150Y-81555000D01*
X202164200Y-81408950D01*
X202164200Y-81263795D01*
X202075261Y-81049077D01*
X201910922Y-80884739D01*
X201696204Y-80795800D01*
X201635535Y-80795800D01*
X201693400Y-80656100D01*
X201693400Y-80478056D01*
X204032480Y-80478056D01*
X204032480Y-82020410D01*
X204178530Y-82166460D01*
X204938880Y-82166460D01*
X204938880Y-80156110D01*
X204792830Y-80010060D01*
X204500475Y-80010060D01*
X204285757Y-80098999D01*
X204121419Y-80263338D01*
X204032480Y-80478056D01*
X201693400Y-80478056D01*
X201693400Y-80443900D01*
X201612195Y-80247853D01*
X201462147Y-80097805D01*
X201266100Y-80016600D01*
X201053900Y-80016600D01*
X200857853Y-80097805D01*
X200707805Y-80247853D01*
X200673033Y-80331800D01*
X197322659Y-80331800D01*
X197373400Y-80209299D01*
X197373400Y-79997099D01*
X197292195Y-79801052D01*
X197142147Y-79651004D01*
X196946100Y-79569799D01*
X196733900Y-79569799D01*
X196537853Y-79651004D01*
X196390458Y-79798399D01*
X195335749Y-79798399D01*
X195305735Y-79792429D01*
X195275720Y-79798399D01*
X195275717Y-79798399D01*
X195192424Y-79814967D01*
X195186808Y-79816084D01*
X195111434Y-79866447D01*
X195111432Y-79866449D01*
X195085987Y-79883451D01*
X195068985Y-79908896D01*
X194435232Y-80542649D01*
X194384491Y-80420149D01*
X194237096Y-80272754D01*
X194237096Y-78811446D01*
X194382195Y-78666347D01*
X194463400Y-78470300D01*
X194463400Y-78258100D01*
X194412659Y-78135600D01*
X199902706Y-78135600D01*
X201473791Y-79706686D01*
G36*
X206690901Y-86071402D02*
X206568827Y-86193477D01*
X206423150Y-86047800D01*
X205537800Y-86047800D01*
X205537800Y-86808150D01*
X205683850Y-86954200D01*
X205808104Y-86954200D01*
X205625382Y-87136922D01*
X204735000Y-87136922D01*
X204734200Y-87137081D01*
X204734200Y-87043550D01*
X204644850Y-86954200D01*
X205036150Y-86954200D01*
X205182200Y-86808150D01*
X205182200Y-86047800D01*
X205162200Y-86047800D01*
X205162200Y-85692200D01*
X205182200Y-85692200D01*
X205182200Y-85672200D01*
X205537800Y-85672200D01*
X205537800Y-85692200D01*
X206423150Y-85692200D01*
X206569200Y-85546150D01*
X206569200Y-85253795D01*
X206524697Y-85146356D01*
X206568400Y-85146356D01*
X206690900Y-85095615D01*
X206690901Y-86071402D01*
X206690901Y-86071402D01*
G37*
X206690901Y-86071402D02*
X206568827Y-86193477D01*
X206423150Y-86047800D01*
X205537800Y-86047800D01*
X205537800Y-86808150D01*
X205683850Y-86954200D01*
X205808104Y-86954200D01*
X205625382Y-87136922D01*
X204735000Y-87136922D01*
X204734200Y-87137081D01*
X204734200Y-87043550D01*
X204644850Y-86954200D01*
X205036150Y-86954200D01*
X205182200Y-86808150D01*
X205182200Y-86047800D01*
X205162200Y-86047800D01*
X205162200Y-85692200D01*
X205182200Y-85692200D01*
X205182200Y-85672200D01*
X205537800Y-85672200D01*
X205537800Y-85692200D01*
X206423150Y-85692200D01*
X206569200Y-85546150D01*
X206569200Y-85253795D01*
X206524697Y-85146356D01*
X206568400Y-85146356D01*
X206690900Y-85095615D01*
X206690901Y-86071402D01*
G36*
X203927800Y-86622500D02*
X203947800Y-86622500D01*
X203947800Y-86897500D01*
X203927800Y-86897500D01*
X203927800Y-86957800D01*
X203572200Y-86957800D01*
X203572200Y-86897500D01*
X203552200Y-86897500D01*
X203552200Y-86622500D01*
X203572200Y-86622500D01*
X203572200Y-86562200D01*
X203927800Y-86562200D01*
X203927800Y-86622500D01*
X203927800Y-86622500D01*
G37*
X203927800Y-86622500D02*
X203947800Y-86622500D01*
X203947800Y-86897500D01*
X203927800Y-86897500D01*
X203927800Y-86957800D01*
X203572200Y-86957800D01*
X203572200Y-86897500D01*
X203552200Y-86897500D01*
X203552200Y-86622500D01*
X203572200Y-86622500D01*
X203572200Y-86562200D01*
X203927800Y-86562200D01*
X203927800Y-86622500D01*
G36*
X193396600Y-78258100D02*
X193396600Y-78470300D01*
X193477805Y-78666347D01*
X193627497Y-78816039D01*
X193627496Y-80272754D01*
X193480101Y-80420149D01*
X193398896Y-80616196D01*
X193398896Y-80828396D01*
X193480101Y-81024443D01*
X193630149Y-81174491D01*
X193752649Y-81225232D01*
X189874652Y-85103230D01*
X189707642Y-85103230D01*
X189677628Y-85097260D01*
X189647613Y-85103230D01*
X189647610Y-85103230D01*
X189558701Y-85120915D01*
X189483327Y-85171278D01*
X189483325Y-85171280D01*
X189471129Y-85179429D01*
X189266729Y-85179429D01*
X189092631Y-85251542D01*
X189092631Y-84947843D01*
X189098601Y-84917830D01*
X189092631Y-84887817D01*
X189092631Y-84887813D01*
X189074946Y-84798904D01*
X189007579Y-84698083D01*
X188982132Y-84681080D01*
X188824800Y-84523748D01*
X188824800Y-84009142D01*
X188837853Y-84022195D01*
X189033900Y-84103400D01*
X189246100Y-84103400D01*
X189442147Y-84022195D01*
X189592195Y-83872147D01*
X189673400Y-83676100D01*
X189673400Y-83467652D01*
X190194301Y-82946751D01*
X190219748Y-82929748D01*
X190287115Y-82828927D01*
X190304800Y-82740018D01*
X190304800Y-82740015D01*
X190310770Y-82710000D01*
X190304800Y-82679985D01*
X190304800Y-79736877D01*
X191144570Y-79736877D01*
X191216230Y-79954801D01*
X191714050Y-80107908D01*
X192232567Y-80058854D01*
X192483770Y-79954801D01*
X192555430Y-79736877D01*
X191850000Y-79031447D01*
X191144570Y-79736877D01*
X190304800Y-79736877D01*
X190304800Y-79659909D01*
X190325000Y-79646412D01*
X190360805Y-79670336D01*
X190450000Y-79688078D01*
X190850000Y-79688078D01*
X190939195Y-79670336D01*
X191014811Y-79619811D01*
X191065336Y-79544195D01*
X191083078Y-79455000D01*
X191083078Y-79295475D01*
X191598553Y-78780000D01*
X191584411Y-78765858D01*
X191835858Y-78514411D01*
X191850000Y-78528553D01*
X191864143Y-78514411D01*
X192115590Y-78765858D01*
X192101447Y-78780000D01*
X192806877Y-79485430D01*
X193024801Y-79413770D01*
X193177908Y-78915950D01*
X193128854Y-78397433D01*
X193024801Y-78146230D01*
X192992474Y-78135600D01*
X193447341Y-78135600D01*
X193396600Y-78258100D01*
X193396600Y-78258100D01*
G37*
X193396600Y-78258100D02*
X193396600Y-78470300D01*
X193477805Y-78666347D01*
X193627497Y-78816039D01*
X193627496Y-80272754D01*
X193480101Y-80420149D01*
X193398896Y-80616196D01*
X193398896Y-80828396D01*
X193480101Y-81024443D01*
X193630149Y-81174491D01*
X193752649Y-81225232D01*
X189874652Y-85103230D01*
X189707642Y-85103230D01*
X189677628Y-85097260D01*
X189647613Y-85103230D01*
X189647610Y-85103230D01*
X189558701Y-85120915D01*
X189483327Y-85171278D01*
X189483325Y-85171280D01*
X189471129Y-85179429D01*
X189266729Y-85179429D01*
X189092631Y-85251542D01*
X189092631Y-84947843D01*
X189098601Y-84917830D01*
X189092631Y-84887817D01*
X189092631Y-84887813D01*
X189074946Y-84798904D01*
X189007579Y-84698083D01*
X188982132Y-84681080D01*
X188824800Y-84523748D01*
X188824800Y-84009142D01*
X188837853Y-84022195D01*
X189033900Y-84103400D01*
X189246100Y-84103400D01*
X189442147Y-84022195D01*
X189592195Y-83872147D01*
X189673400Y-83676100D01*
X189673400Y-83467652D01*
X190194301Y-82946751D01*
X190219748Y-82929748D01*
X190287115Y-82828927D01*
X190304800Y-82740018D01*
X190304800Y-82740015D01*
X190310770Y-82710000D01*
X190304800Y-82679985D01*
X190304800Y-79736877D01*
X191144570Y-79736877D01*
X191216230Y-79954801D01*
X191714050Y-80107908D01*
X192232567Y-80058854D01*
X192483770Y-79954801D01*
X192555430Y-79736877D01*
X191850000Y-79031447D01*
X191144570Y-79736877D01*
X190304800Y-79736877D01*
X190304800Y-79659909D01*
X190325000Y-79646412D01*
X190360805Y-79670336D01*
X190450000Y-79688078D01*
X190850000Y-79688078D01*
X190939195Y-79670336D01*
X191014811Y-79619811D01*
X191065336Y-79544195D01*
X191083078Y-79455000D01*
X191083078Y-79295475D01*
X191598553Y-78780000D01*
X191584411Y-78765858D01*
X191835858Y-78514411D01*
X191850000Y-78528553D01*
X191864143Y-78514411D01*
X192115590Y-78765858D01*
X192101447Y-78780000D01*
X192806877Y-79485430D01*
X193024801Y-79413770D01*
X193177908Y-78915950D01*
X193128854Y-78397433D01*
X193024801Y-78146230D01*
X192992474Y-78135600D01*
X193447341Y-78135600D01*
X193396600Y-78258100D01*
G04 #@! TD*
M02*
