G04 #@! TF.GenerationSoftware,KiCad,Pcbnew,5.0.0-fee4fd1~66~ubuntu16.04.1*
G04 #@! TF.CreationDate,2019-03-22T18:21:00-04:00*
G04 #@! TF.ProjectId,circuit,636972637569742E6B696361645F7063,rev?*
G04 #@! TF.SameCoordinates,Original*
G04 #@! TF.FileFunction,Paste,Top*
G04 #@! TF.FilePolarity,Positive*
%FSLAX46Y46*%
G04 Gerber Fmt 4.6, Leading zero omitted, Abs format (unit mm)*
G04 Created by KiCad (PCBNEW 5.0.0-fee4fd1~66~ubuntu16.04.1) date Fri Mar 22 18:21:00 2019*
%MOMM*%
%LPD*%
G01*
G04 APERTURE LIST*
%ADD10R,1.500000X0.600000*%
%ADD11R,0.550000X1.545000*%
%ADD12R,1.545000X0.550000*%
%ADD13R,1.250000X1.000000*%
%ADD14R,1.000000X1.250000*%
%ADD15R,1.200000X1.200000*%
%ADD16R,1.000000X3.500000*%
%ADD17R,1.500000X3.400000*%
%ADD18R,1.300000X0.700000*%
%ADD19R,0.700000X1.300000*%
%ADD20R,1.400000X1.500000*%
%ADD21R,1.600000X0.550000*%
%ADD22R,0.550000X1.600000*%
%ADD23R,0.800000X0.550000*%
%ADD24R,1.500000X1.900000*%
%ADD25R,0.400000X1.350000*%
G04 APERTURE END LIST*
D10*
G04 #@! TO.C,U6*
X191320000Y-87665000D03*
X191320000Y-88935000D03*
X191320000Y-90205000D03*
X191320000Y-91475000D03*
X191320000Y-92745000D03*
X191320000Y-94015000D03*
X191320000Y-95285000D03*
X191320000Y-96555000D03*
X185920000Y-96555000D03*
X185920000Y-95285000D03*
X185920000Y-94015000D03*
X185920000Y-92745000D03*
X185920000Y-91475000D03*
X185920000Y-90205000D03*
X185920000Y-88935000D03*
X185920000Y-87665000D03*
G04 #@! TD*
D11*
G04 #@! TO.C,U3*
X205210000Y-95847500D03*
X205210000Y-91252500D03*
D12*
X206507500Y-93950000D03*
X206507500Y-93150000D03*
X203912500Y-93950000D03*
X203912500Y-93150000D03*
X206507500Y-94750000D03*
X206507500Y-95550000D03*
X206507500Y-92350000D03*
X206507500Y-91550000D03*
X203912500Y-92350000D03*
X203912500Y-94750000D03*
X203912500Y-91550000D03*
X203912500Y-95550000D03*
G04 #@! TD*
D13*
G04 #@! TO.C,C1*
X186070000Y-112640000D03*
X186070000Y-110640000D03*
G04 #@! TD*
G04 #@! TO.C,C4*
X209857220Y-101508700D03*
X209857220Y-103508700D03*
G04 #@! TD*
D14*
G04 #@! TO.C,C5*
X206235940Y-99100020D03*
X208235940Y-99100020D03*
G04 #@! TD*
D13*
G04 #@! TO.C,C6*
X193370000Y-104970000D03*
X193370000Y-102970000D03*
G04 #@! TD*
G04 #@! TO.C,C7*
X206329160Y-107262060D03*
X206329160Y-105262060D03*
G04 #@! TD*
D15*
G04 #@! TO.C,D1*
X200660000Y-75750000D03*
X198460000Y-75750000D03*
G04 #@! TD*
G04 #@! TO.C,D2*
X208373580Y-110446720D03*
X208373580Y-112646720D03*
G04 #@! TD*
G04 #@! TO.C,D3*
X211528660Y-79651500D03*
X211528660Y-81851500D03*
G04 #@! TD*
D16*
G04 #@! TO.C,J1*
X207116680Y-82344260D03*
X205116680Y-82344260D03*
D17*
X209466680Y-76794260D03*
X202766680Y-76794260D03*
G04 #@! TD*
D18*
G04 #@! TO.C,R1*
X210380180Y-110998040D03*
X210380180Y-112898040D03*
G04 #@! TD*
D19*
G04 #@! TO.C,R2*
X194860000Y-75780000D03*
X196760000Y-75780000D03*
G04 #@! TD*
D18*
G04 #@! TO.C,R3*
X211576920Y-83550720D03*
X211576920Y-85450720D03*
G04 #@! TD*
G04 #@! TO.C,R4*
X200930000Y-83630000D03*
X200930000Y-81730000D03*
G04 #@! TD*
D19*
G04 #@! TO.C,R5*
X189725380Y-106011980D03*
X187825380Y-106011980D03*
G04 #@! TD*
G04 #@! TO.C,R6*
X202597940Y-110878000D03*
X200697940Y-110878000D03*
G04 #@! TD*
D18*
G04 #@! TO.C,R7*
X191360000Y-102830000D03*
X191360000Y-104730000D03*
G04 #@! TD*
D20*
G04 #@! TO.C,U1*
X191843820Y-108157920D03*
X188043820Y-108157920D03*
X191843820Y-112557920D03*
X188043820Y-112557920D03*
G04 #@! TD*
D21*
G04 #@! TO.C,U4*
X204086920Y-107246720D03*
X204086920Y-106446720D03*
X204086920Y-105646720D03*
X204086920Y-104846720D03*
X204086920Y-104046720D03*
X204086920Y-103246720D03*
X204086920Y-102446720D03*
X204086920Y-101646720D03*
D22*
X202636920Y-100196720D03*
X201836920Y-100196720D03*
X201036920Y-100196720D03*
X200236920Y-100196720D03*
X199436920Y-100196720D03*
X198636920Y-100196720D03*
X197836920Y-100196720D03*
X197036920Y-100196720D03*
D21*
X195586920Y-101646720D03*
X195586920Y-102446720D03*
X195586920Y-103246720D03*
X195586920Y-104046720D03*
X195586920Y-104846720D03*
X195586920Y-105646720D03*
X195586920Y-106446720D03*
X195586920Y-107246720D03*
D22*
X197036920Y-108696720D03*
X197836920Y-108696720D03*
X198636920Y-108696720D03*
X199436920Y-108696720D03*
X200236920Y-108696720D03*
X201036920Y-108696720D03*
X201836920Y-108696720D03*
X202636920Y-108696720D03*
G04 #@! TD*
D13*
G04 #@! TO.C,C2*
X205360000Y-85870000D03*
X205360000Y-87870000D03*
G04 #@! TD*
G04 #@! TO.C,C3*
X199800000Y-87890000D03*
X199800000Y-85890000D03*
G04 #@! TD*
D18*
G04 #@! TO.C,R8*
X195490000Y-87830000D03*
X195490000Y-85930000D03*
G04 #@! TD*
D19*
G04 #@! TO.C,R9*
X199280000Y-95630000D03*
X201180000Y-95630000D03*
G04 #@! TD*
D18*
G04 #@! TO.C,R10*
X197570000Y-87850000D03*
X197570000Y-85950000D03*
G04 #@! TD*
G04 #@! TO.C,R11*
X210810000Y-92350000D03*
X210810000Y-90450000D03*
G04 #@! TD*
D23*
G04 #@! TO.C,U2*
X201350000Y-87710000D03*
X201350000Y-85810000D03*
X203750000Y-85810000D03*
X203750000Y-86760000D03*
X203750000Y-87710000D03*
G04 #@! TD*
D24*
G04 #@! TO.C,U5*
X190350000Y-76080000D03*
D25*
X189350000Y-78780000D03*
X188700000Y-78780000D03*
X188050000Y-78780000D03*
X190650000Y-78780000D03*
X190000000Y-78780000D03*
D24*
X188350000Y-76080000D03*
G04 #@! TD*
D13*
G04 #@! TO.C,C8*
X199550000Y-93830000D03*
X199550000Y-91830000D03*
G04 #@! TD*
G04 #@! TO.C,C9*
X201580000Y-91830000D03*
X201580000Y-93830000D03*
G04 #@! TD*
M02*
