G04 #@! TF.GenerationSoftware,KiCad,Pcbnew,5.0.0-fee4fd1~66~ubuntu16.04.1*
G04 #@! TF.CreationDate,2019-03-22T18:21:00-04:00*
G04 #@! TF.ProjectId,circuit,636972637569742E6B696361645F7063,rev?*
G04 #@! TF.SameCoordinates,Original*
G04 #@! TF.FileFunction,Legend,Top*
G04 #@! TF.FilePolarity,Positive*
%FSLAX46Y46*%
G04 Gerber Fmt 4.6, Leading zero omitted, Abs format (unit mm)*
G04 Created by KiCad (PCBNEW 5.0.0-fee4fd1~66~ubuntu16.04.1) date Fri Mar 22 18:21:00 2019*
%MOMM*%
%LPD*%
G01*
G04 APERTURE LIST*
%ADD10C,0.250000*%
%ADD11C,0.200000*%
%ADD12C,0.150000*%
%ADD13C,0.120000*%
%ADD14C,0.100000*%
%ADD15C,0.500000*%
%ADD16C,0.125000*%
G04 APERTURE END LIST*
D10*
X209681904Y-94936666D02*
X210158095Y-94936666D01*
X209586666Y-95222380D02*
X209920000Y-94222380D01*
X210253333Y-95222380D01*
X210586666Y-95222380D02*
X210586666Y-94222380D01*
X210824761Y-94222380D01*
X210967619Y-94270000D01*
X211062857Y-94365238D01*
X211110476Y-94460476D01*
X211158095Y-94650952D01*
X211158095Y-94793809D01*
X211110476Y-94984285D01*
X211062857Y-95079523D01*
X210967619Y-95174761D01*
X210824761Y-95222380D01*
X210586666Y-95222380D01*
X212158095Y-95222380D02*
X211824761Y-94746190D01*
X211586666Y-95222380D02*
X211586666Y-94222380D01*
X211967619Y-94222380D01*
X212062857Y-94270000D01*
X212110476Y-94317619D01*
X212158095Y-94412857D01*
X212158095Y-94555714D01*
X212110476Y-94650952D01*
X212062857Y-94698571D01*
X211967619Y-94746190D01*
X211586666Y-94746190D01*
D11*
X194627619Y-79448571D02*
X194627619Y-77948571D01*
X194932380Y-77948571D01*
X195008571Y-78020000D01*
X195046666Y-78091428D01*
X195084761Y-78234285D01*
X195084761Y-78448571D01*
X195046666Y-78591428D01*
X195008571Y-78662857D01*
X194932380Y-78734285D01*
X194627619Y-78734285D01*
X195808571Y-79448571D02*
X195427619Y-79448571D01*
X195427619Y-77948571D01*
X196075238Y-77948571D02*
X196075238Y-79162857D01*
X196113333Y-79305714D01*
X196151428Y-79377142D01*
X196227619Y-79448571D01*
X196380000Y-79448571D01*
X196456190Y-79377142D01*
X196494285Y-79305714D01*
X196532380Y-79162857D01*
X196532380Y-77948571D01*
X197332380Y-78020000D02*
X197256190Y-77948571D01*
X197141904Y-77948571D01*
X197027619Y-78020000D01*
X196951428Y-78162857D01*
X196913333Y-78305714D01*
X196875238Y-78591428D01*
X196875238Y-78805714D01*
X196913333Y-79091428D01*
X196951428Y-79234285D01*
X197027619Y-79377142D01*
X197141904Y-79448571D01*
X197218095Y-79448571D01*
X197332380Y-79377142D01*
X197370476Y-79305714D01*
X197370476Y-78805714D01*
X197218095Y-78805714D01*
X198322857Y-79448571D02*
X198322857Y-77948571D01*
X198703809Y-79448571D02*
X198703809Y-77948571D01*
X199160952Y-79448571D01*
X199160952Y-77948571D01*
X200113333Y-79377142D02*
X200227619Y-79448571D01*
X200418095Y-79448571D01*
X200494285Y-79377142D01*
X200532380Y-79305714D01*
X200570476Y-79162857D01*
X200570476Y-79020000D01*
X200532380Y-78877142D01*
X200494285Y-78805714D01*
X200418095Y-78734285D01*
X200265714Y-78662857D01*
X200189523Y-78591428D01*
X200151428Y-78520000D01*
X200113333Y-78377142D01*
X200113333Y-78234285D01*
X200151428Y-78091428D01*
X200189523Y-78020000D01*
X200265714Y-77948571D01*
X200456190Y-77948571D01*
X200570476Y-78020000D01*
X200913333Y-79448571D02*
X200913333Y-77948571D01*
X201103809Y-77948571D01*
X201218095Y-78020000D01*
X201294285Y-78162857D01*
X201332380Y-78305714D01*
X201370476Y-78591428D01*
X201370476Y-78805714D01*
X201332380Y-79091428D01*
X201294285Y-79234285D01*
X201218095Y-79377142D01*
X201103809Y-79448571D01*
X200913333Y-79448571D01*
D12*
G04 #@! TO.C,U6*
X186545000Y-87060000D02*
X185170000Y-87060000D01*
X186545000Y-97185000D02*
X190695000Y-97185000D01*
X186545000Y-87035000D02*
X190695000Y-87035000D01*
X186545000Y-97185000D02*
X186545000Y-97080000D01*
X190695000Y-97185000D02*
X190695000Y-97080000D01*
X190695000Y-87035000D02*
X190695000Y-87140000D01*
X186545000Y-87035000D02*
X186545000Y-87060000D01*
G04 #@! TO.C,U3*
X203559000Y-96217000D02*
X203559000Y-90883000D01*
X203559000Y-90883000D02*
X206861000Y-90883000D01*
X206861000Y-90883000D02*
X206861000Y-96217000D01*
X206861000Y-96217000D02*
X203559000Y-96217000D01*
D13*
G04 #@! TO.C,C1*
X185220000Y-111140000D02*
X185220000Y-112140000D01*
X186920000Y-112140000D02*
X186920000Y-111140000D01*
G04 #@! TO.C,C4*
X210707220Y-103008700D02*
X210707220Y-102008700D01*
X209007220Y-102008700D02*
X209007220Y-103008700D01*
G04 #@! TO.C,C5*
X207735940Y-98250020D02*
X206735940Y-98250020D01*
X206735940Y-99950020D02*
X207735940Y-99950020D01*
G04 #@! TO.C,C6*
X192520000Y-103470000D02*
X192520000Y-104470000D01*
X194220000Y-104470000D02*
X194220000Y-103470000D01*
G04 #@! TO.C,C7*
X205479160Y-105762060D02*
X205479160Y-106762060D01*
X207179160Y-106762060D02*
X207179160Y-105762060D01*
G04 #@! TO.C,D1*
X201360000Y-76450000D02*
X198560000Y-76450000D01*
X201360000Y-75050000D02*
X198560000Y-75050000D01*
X201360000Y-76450000D02*
X201360000Y-75050000D01*
D14*
X199760000Y-75750000D02*
X199460000Y-76050000D01*
X199460000Y-76050000D02*
X199410000Y-76100000D01*
X199410000Y-76100000D02*
X199410000Y-75450000D01*
X199410000Y-75400000D02*
X199410000Y-75450000D01*
X199410000Y-75450000D02*
X199410000Y-75400000D01*
X199410000Y-75400000D02*
X199760000Y-75750000D01*
X199760000Y-75750000D02*
X199760000Y-76100000D01*
X199760000Y-75400000D02*
X199760000Y-75750000D01*
G04 #@! TO.C,D2*
X208723580Y-111746720D02*
X208373580Y-111746720D01*
X208373580Y-111746720D02*
X208023580Y-111746720D01*
X208723580Y-111396720D02*
X208373580Y-111746720D01*
X208673580Y-111396720D02*
X208723580Y-111396720D01*
X208723580Y-111396720D02*
X208673580Y-111396720D01*
X208023580Y-111396720D02*
X208673580Y-111396720D01*
X208073580Y-111446720D02*
X208023580Y-111396720D01*
X208373580Y-111746720D02*
X208073580Y-111446720D01*
D13*
X207673580Y-113346720D02*
X209073580Y-113346720D01*
X209073580Y-113346720D02*
X209073580Y-110546720D01*
X207673580Y-113346720D02*
X207673580Y-110546720D01*
D14*
G04 #@! TO.C,D3*
X211878660Y-80951500D02*
X211528660Y-80951500D01*
X211528660Y-80951500D02*
X211178660Y-80951500D01*
X211878660Y-80601500D02*
X211528660Y-80951500D01*
X211828660Y-80601500D02*
X211878660Y-80601500D01*
X211878660Y-80601500D02*
X211828660Y-80601500D01*
X211178660Y-80601500D02*
X211828660Y-80601500D01*
X211228660Y-80651500D02*
X211178660Y-80601500D01*
X211528660Y-80951500D02*
X211228660Y-80651500D01*
D13*
X210828660Y-82551500D02*
X212228660Y-82551500D01*
X212228660Y-82551500D02*
X212228660Y-79751500D01*
X210828660Y-82551500D02*
X210828660Y-79751500D01*
D12*
G04 #@! TO.C,J1*
X210066680Y-73744260D02*
X202166680Y-73744260D01*
X210066680Y-84094260D02*
X202166680Y-84094260D01*
X210164680Y-73708260D02*
X210164680Y-84122260D01*
X202036680Y-84122260D02*
X202036680Y-73708260D01*
D13*
G04 #@! TO.C,R1*
X209500180Y-112548040D02*
X209500180Y-111348040D01*
X211260180Y-111348040D02*
X211260180Y-112548040D01*
G04 #@! TO.C,R2*
X196410000Y-76660000D02*
X195210000Y-76660000D01*
X195210000Y-74900000D02*
X196410000Y-74900000D01*
G04 #@! TO.C,R3*
X210696920Y-85100720D02*
X210696920Y-83900720D01*
X212456920Y-83900720D02*
X212456920Y-85100720D01*
G04 #@! TO.C,R4*
X201810000Y-82080000D02*
X201810000Y-83280000D01*
X200050000Y-83280000D02*
X200050000Y-82080000D01*
G04 #@! TO.C,R5*
X188175380Y-105131980D02*
X189375380Y-105131980D01*
X189375380Y-106891980D02*
X188175380Y-106891980D01*
G04 #@! TO.C,R6*
X201047940Y-109998000D02*
X202247940Y-109998000D01*
X202247940Y-111758000D02*
X201047940Y-111758000D01*
G04 #@! TO.C,R7*
X190480000Y-104380000D02*
X190480000Y-103180000D01*
X192240000Y-103180000D02*
X192240000Y-104380000D01*
D12*
G04 #@! TO.C,U1*
X187443820Y-113057920D02*
X187443820Y-107657920D01*
X187443820Y-107665520D02*
X192443820Y-107665520D01*
X187443820Y-113057920D02*
X192443820Y-113057920D01*
X192438020Y-113057920D02*
X192438020Y-107657920D01*
G36*
X192438020Y-108021120D02*
X192920620Y-108021120D01*
X192920620Y-107309920D01*
X192438020Y-107309920D01*
X192438020Y-108021120D01*
G37*
X192438020Y-108021120D02*
X192920620Y-108021120D01*
X192920620Y-107309920D01*
X192438020Y-107309920D01*
X192438020Y-108021120D01*
D15*
G04 #@! TO.C,U4*
X202554720Y-107088320D02*
G75*
G03X202554720Y-107088320I-50800J0D01*
G01*
X204104120Y-108840920D02*
G75*
G03X204104120Y-108840920I-50800J0D01*
G01*
D12*
X203461920Y-108071720D02*
X203461920Y-107846720D01*
X196211920Y-108071720D02*
X196211920Y-107746720D01*
X196211920Y-100821720D02*
X196211920Y-101146720D01*
X203461920Y-100821720D02*
X203461920Y-101146720D01*
X203461920Y-108071720D02*
X203136920Y-108071720D01*
X203461920Y-100821720D02*
X203136920Y-100821720D01*
X196211920Y-100821720D02*
X196536920Y-100821720D01*
X196211920Y-108071720D02*
X196536920Y-108071720D01*
X203461920Y-107846720D02*
X204886920Y-107846720D01*
D14*
G04 #@! TO.C,Y1*
X205493700Y-104318200D02*
X205493700Y-102318200D01*
X205493700Y-104318200D02*
X207093700Y-104318200D01*
D13*
G04 #@! TO.C,C2*
X206210000Y-87370000D02*
X206210000Y-86370000D01*
X204510000Y-86370000D02*
X204510000Y-87370000D01*
G04 #@! TO.C,C3*
X198950000Y-86390000D02*
X198950000Y-87390000D01*
X200650000Y-87390000D02*
X200650000Y-86390000D01*
G04 #@! TO.C,R8*
X196370000Y-86280000D02*
X196370000Y-87480000D01*
X194610000Y-87480000D02*
X194610000Y-86280000D01*
G04 #@! TO.C,R9*
X200830000Y-96510000D02*
X199630000Y-96510000D01*
X199630000Y-94750000D02*
X200830000Y-94750000D01*
G04 #@! TO.C,R10*
X198450000Y-86300000D02*
X198450000Y-87500000D01*
X196690000Y-87500000D02*
X196690000Y-86300000D01*
G04 #@! TO.C,R11*
X211690000Y-90800000D02*
X211690000Y-92000000D01*
X209930000Y-92000000D02*
X209930000Y-90800000D01*
D11*
G04 #@! TO.C,U2*
X203050000Y-87810000D02*
G75*
G03X203050000Y-87810000I-100000J0D01*
G01*
D12*
X201750000Y-88210000D02*
X201750000Y-85310000D01*
X201750000Y-85310000D02*
X203350000Y-85310000D01*
X203350000Y-85310000D02*
X203350000Y-88210000D01*
X203350000Y-88210000D02*
X201750000Y-88210000D01*
D13*
G04 #@! TO.C,U5*
X191050000Y-79630000D02*
X191050000Y-79180000D01*
X191050000Y-79630000D02*
X190600000Y-79630000D01*
X185450000Y-79080000D02*
X185900000Y-79080000D01*
X185450000Y-77230000D02*
X185450000Y-79080000D01*
X193250000Y-74680000D02*
X193250000Y-74930000D01*
X185450000Y-74680000D02*
X185450000Y-74930000D01*
X193250000Y-77230000D02*
X193250000Y-79080000D01*
X193250000Y-79080000D02*
X192800000Y-79080000D01*
G04 #@! TO.C,C8*
X198700000Y-92330000D02*
X198700000Y-93330000D01*
X200400000Y-93330000D02*
X200400000Y-92330000D01*
G04 #@! TO.C,C9*
X202430000Y-93330000D02*
X202430000Y-92330000D01*
X200730000Y-92330000D02*
X200730000Y-93330000D01*
G04 #@! TO.C,U6*
D16*
X188862857Y-87561904D02*
X188862857Y-88209523D01*
X188891428Y-88285714D01*
X188920000Y-88323809D01*
X188977142Y-88361904D01*
X189091428Y-88361904D01*
X189148571Y-88323809D01*
X189177142Y-88285714D01*
X189205714Y-88209523D01*
X189205714Y-87561904D01*
X189748571Y-87561904D02*
X189634285Y-87561904D01*
X189577142Y-87600000D01*
X189548571Y-87638095D01*
X189491428Y-87752380D01*
X189462857Y-87904761D01*
X189462857Y-88209523D01*
X189491428Y-88285714D01*
X189520000Y-88323809D01*
X189577142Y-88361904D01*
X189691428Y-88361904D01*
X189748571Y-88323809D01*
X189777142Y-88285714D01*
X189805714Y-88209523D01*
X189805714Y-88019047D01*
X189777142Y-87942857D01*
X189748571Y-87904761D01*
X189691428Y-87866666D01*
X189577142Y-87866666D01*
X189520000Y-87904761D01*
X189491428Y-87942857D01*
X189462857Y-88019047D01*
G04 #@! TO.C,U3*
X205832857Y-89801904D02*
X205832857Y-90449523D01*
X205861428Y-90525714D01*
X205890000Y-90563809D01*
X205947142Y-90601904D01*
X206061428Y-90601904D01*
X206118571Y-90563809D01*
X206147142Y-90525714D01*
X206175714Y-90449523D01*
X206175714Y-89801904D01*
X206404285Y-89801904D02*
X206775714Y-89801904D01*
X206575714Y-90106666D01*
X206661428Y-90106666D01*
X206718571Y-90144761D01*
X206747142Y-90182857D01*
X206775714Y-90259047D01*
X206775714Y-90449523D01*
X206747142Y-90525714D01*
X206718571Y-90563809D01*
X206661428Y-90601904D01*
X206490000Y-90601904D01*
X206432857Y-90563809D01*
X206404285Y-90525714D01*
D12*
X205972000Y-96764714D02*
X205210095Y-97050428D01*
X205972000Y-97336142D01*
X206352952Y-96764714D02*
X206591047Y-97431380D01*
X206829142Y-96764714D02*
X206591047Y-97431380D01*
X206495809Y-97669476D01*
X206448190Y-97717095D01*
X206352952Y-97764714D01*
X208075380Y-96208952D02*
X207408714Y-95685142D01*
X207408714Y-96208952D02*
X208075380Y-95685142D01*
X207408714Y-95304190D02*
X207694428Y-94542285D01*
X207980142Y-95304190D01*
D16*
X203705014Y-90611480D02*
X203133585Y-90611480D01*
X203419300Y-90611480D02*
X203419300Y-89611480D01*
X203324061Y-89754338D01*
X203228823Y-89849576D01*
X203133585Y-89897195D01*
G04 #@! TO.C,C1*
X184630000Y-109575714D02*
X184601428Y-109613809D01*
X184515714Y-109651904D01*
X184458571Y-109651904D01*
X184372857Y-109613809D01*
X184315714Y-109537619D01*
X184287142Y-109461428D01*
X184258571Y-109309047D01*
X184258571Y-109194761D01*
X184287142Y-109042380D01*
X184315714Y-108966190D01*
X184372857Y-108890000D01*
X184458571Y-108851904D01*
X184515714Y-108851904D01*
X184601428Y-108890000D01*
X184630000Y-108928095D01*
X185201428Y-109651904D02*
X184858571Y-109651904D01*
X185030000Y-109651904D02*
X185030000Y-108851904D01*
X184972857Y-108966190D01*
X184915714Y-109042380D01*
X184858571Y-109080476D01*
G04 #@! TO.C,C4*
X211392980Y-102781714D02*
X211364408Y-102819809D01*
X211278694Y-102857904D01*
X211221551Y-102857904D01*
X211135837Y-102819809D01*
X211078694Y-102743619D01*
X211050122Y-102667428D01*
X211021551Y-102515047D01*
X211021551Y-102400761D01*
X211050122Y-102248380D01*
X211078694Y-102172190D01*
X211135837Y-102096000D01*
X211221551Y-102057904D01*
X211278694Y-102057904D01*
X211364408Y-102096000D01*
X211392980Y-102134095D01*
X211907265Y-102324571D02*
X211907265Y-102857904D01*
X211764408Y-102019809D02*
X211621551Y-102591238D01*
X211992980Y-102591238D01*
G04 #@! TO.C,C5*
X209490520Y-99916594D02*
X209461948Y-99954689D01*
X209376234Y-99992784D01*
X209319091Y-99992784D01*
X209233377Y-99954689D01*
X209176234Y-99878499D01*
X209147662Y-99802308D01*
X209119091Y-99649927D01*
X209119091Y-99535641D01*
X209147662Y-99383260D01*
X209176234Y-99307070D01*
X209233377Y-99230880D01*
X209319091Y-99192784D01*
X209376234Y-99192784D01*
X209461948Y-99230880D01*
X209490520Y-99268975D01*
X210033377Y-99192784D02*
X209747662Y-99192784D01*
X209719091Y-99573737D01*
X209747662Y-99535641D01*
X209804805Y-99497546D01*
X209947662Y-99497546D01*
X210004805Y-99535641D01*
X210033377Y-99573737D01*
X210061948Y-99649927D01*
X210061948Y-99840403D01*
X210033377Y-99916594D01*
X210004805Y-99954689D01*
X209947662Y-99992784D01*
X209804805Y-99992784D01*
X209747662Y-99954689D01*
X209719091Y-99916594D01*
G04 #@! TO.C,C6*
X192030000Y-101805714D02*
X192001428Y-101843809D01*
X191915714Y-101881904D01*
X191858571Y-101881904D01*
X191772857Y-101843809D01*
X191715714Y-101767619D01*
X191687142Y-101691428D01*
X191658571Y-101539047D01*
X191658571Y-101424761D01*
X191687142Y-101272380D01*
X191715714Y-101196190D01*
X191772857Y-101120000D01*
X191858571Y-101081904D01*
X191915714Y-101081904D01*
X192001428Y-101120000D01*
X192030000Y-101158095D01*
X192544285Y-101081904D02*
X192430000Y-101081904D01*
X192372857Y-101120000D01*
X192344285Y-101158095D01*
X192287142Y-101272380D01*
X192258571Y-101424761D01*
X192258571Y-101729523D01*
X192287142Y-101805714D01*
X192315714Y-101843809D01*
X192372857Y-101881904D01*
X192487142Y-101881904D01*
X192544285Y-101843809D01*
X192572857Y-101805714D01*
X192601428Y-101729523D01*
X192601428Y-101539047D01*
X192572857Y-101462857D01*
X192544285Y-101424761D01*
X192487142Y-101386666D01*
X192372857Y-101386666D01*
X192315714Y-101424761D01*
X192287142Y-101462857D01*
X192258571Y-101539047D01*
G04 #@! TO.C,C7*
X207722680Y-106509674D02*
X207694108Y-106547769D01*
X207608394Y-106585864D01*
X207551251Y-106585864D01*
X207465537Y-106547769D01*
X207408394Y-106471579D01*
X207379822Y-106395388D01*
X207351251Y-106243007D01*
X207351251Y-106128721D01*
X207379822Y-105976340D01*
X207408394Y-105900150D01*
X207465537Y-105823960D01*
X207551251Y-105785864D01*
X207608394Y-105785864D01*
X207694108Y-105823960D01*
X207722680Y-105862055D01*
X207922680Y-105785864D02*
X208322680Y-105785864D01*
X208065537Y-106585864D01*
G04 #@! TO.C,D1*
X197897142Y-77551904D02*
X197897142Y-76751904D01*
X198040000Y-76751904D01*
X198125714Y-76790000D01*
X198182857Y-76866190D01*
X198211428Y-76942380D01*
X198240000Y-77094761D01*
X198240000Y-77209047D01*
X198211428Y-77361428D01*
X198182857Y-77437619D01*
X198125714Y-77513809D01*
X198040000Y-77551904D01*
X197897142Y-77551904D01*
X198811428Y-77551904D02*
X198468571Y-77551904D01*
X198640000Y-77551904D02*
X198640000Y-76751904D01*
X198582857Y-76866190D01*
X198525714Y-76942380D01*
X198468571Y-76980476D01*
G04 #@! TO.C,D2*
X208321882Y-109307664D02*
X208321882Y-108507664D01*
X208464740Y-108507664D01*
X208550454Y-108545760D01*
X208607597Y-108621950D01*
X208636168Y-108698140D01*
X208664740Y-108850521D01*
X208664740Y-108964807D01*
X208636168Y-109117188D01*
X208607597Y-109193379D01*
X208550454Y-109269569D01*
X208464740Y-109307664D01*
X208321882Y-109307664D01*
X208893311Y-108583855D02*
X208921882Y-108545760D01*
X208979025Y-108507664D01*
X209121882Y-108507664D01*
X209179025Y-108545760D01*
X209207597Y-108583855D01*
X209236168Y-108660045D01*
X209236168Y-108736236D01*
X209207597Y-108850521D01*
X208864740Y-109307664D01*
X209236168Y-109307664D01*
G04 #@! TO.C,D3*
X210997142Y-78341904D02*
X210997142Y-77541904D01*
X211140000Y-77541904D01*
X211225714Y-77580000D01*
X211282857Y-77656190D01*
X211311428Y-77732380D01*
X211340000Y-77884761D01*
X211340000Y-77999047D01*
X211311428Y-78151428D01*
X211282857Y-78227619D01*
X211225714Y-78303809D01*
X211140000Y-78341904D01*
X210997142Y-78341904D01*
X211540000Y-77541904D02*
X211911428Y-77541904D01*
X211711428Y-77846666D01*
X211797142Y-77846666D01*
X211854285Y-77884761D01*
X211882857Y-77922857D01*
X211911428Y-77999047D01*
X211911428Y-78189523D01*
X211882857Y-78265714D01*
X211854285Y-78303809D01*
X211797142Y-78341904D01*
X211625714Y-78341904D01*
X211568571Y-78303809D01*
X211540000Y-78265714D01*
G04 #@! TO.C,J1*
X205900680Y-79162964D02*
X205900680Y-79734393D01*
X205872108Y-79848679D01*
X205814965Y-79924869D01*
X205729251Y-79962964D01*
X205672108Y-79962964D01*
X206500680Y-79962964D02*
X206157822Y-79962964D01*
X206329251Y-79962964D02*
X206329251Y-79162964D01*
X206272108Y-79277250D01*
X206214965Y-79353440D01*
X206157822Y-79391536D01*
G04 #@! TO.C,R1*
X210820000Y-109211904D02*
X210620000Y-108830952D01*
X210477142Y-109211904D02*
X210477142Y-108411904D01*
X210705714Y-108411904D01*
X210762857Y-108450000D01*
X210791428Y-108488095D01*
X210820000Y-108564285D01*
X210820000Y-108678571D01*
X210791428Y-108754761D01*
X210762857Y-108792857D01*
X210705714Y-108830952D01*
X210477142Y-108830952D01*
X211391428Y-109211904D02*
X211048571Y-109211904D01*
X211220000Y-109211904D02*
X211220000Y-108411904D01*
X211162857Y-108526190D01*
X211105714Y-108602380D01*
X211048571Y-108640476D01*
G04 #@! TO.C,R2*
X195830000Y-77601904D02*
X195630000Y-77220952D01*
X195487142Y-77601904D02*
X195487142Y-76801904D01*
X195715714Y-76801904D01*
X195772857Y-76840000D01*
X195801428Y-76878095D01*
X195830000Y-76954285D01*
X195830000Y-77068571D01*
X195801428Y-77144761D01*
X195772857Y-77182857D01*
X195715714Y-77220952D01*
X195487142Y-77220952D01*
X196058571Y-76878095D02*
X196087142Y-76840000D01*
X196144285Y-76801904D01*
X196287142Y-76801904D01*
X196344285Y-76840000D01*
X196372857Y-76878095D01*
X196401428Y-76954285D01*
X196401428Y-77030476D01*
X196372857Y-77144761D01*
X196030000Y-77601904D01*
X196401428Y-77601904D01*
G04 #@! TO.C,R3*
X209910000Y-86891904D02*
X209710000Y-86510952D01*
X209567142Y-86891904D02*
X209567142Y-86091904D01*
X209795714Y-86091904D01*
X209852857Y-86130000D01*
X209881428Y-86168095D01*
X209910000Y-86244285D01*
X209910000Y-86358571D01*
X209881428Y-86434761D01*
X209852857Y-86472857D01*
X209795714Y-86510952D01*
X209567142Y-86510952D01*
X210110000Y-86091904D02*
X210481428Y-86091904D01*
X210281428Y-86396666D01*
X210367142Y-86396666D01*
X210424285Y-86434761D01*
X210452857Y-86472857D01*
X210481428Y-86549047D01*
X210481428Y-86739523D01*
X210452857Y-86815714D01*
X210424285Y-86853809D01*
X210367142Y-86891904D01*
X210195714Y-86891904D01*
X210138571Y-86853809D01*
X210110000Y-86815714D01*
G04 #@! TO.C,R4*
X199180000Y-82991904D02*
X198980000Y-82610952D01*
X198837142Y-82991904D02*
X198837142Y-82191904D01*
X199065714Y-82191904D01*
X199122857Y-82230000D01*
X199151428Y-82268095D01*
X199180000Y-82344285D01*
X199180000Y-82458571D01*
X199151428Y-82534761D01*
X199122857Y-82572857D01*
X199065714Y-82610952D01*
X198837142Y-82610952D01*
X199694285Y-82458571D02*
X199694285Y-82991904D01*
X199551428Y-82153809D02*
X199408571Y-82725238D01*
X199780000Y-82725238D01*
G04 #@! TO.C,R5*
X186460000Y-104701904D02*
X186260000Y-104320952D01*
X186117142Y-104701904D02*
X186117142Y-103901904D01*
X186345714Y-103901904D01*
X186402857Y-103940000D01*
X186431428Y-103978095D01*
X186460000Y-104054285D01*
X186460000Y-104168571D01*
X186431428Y-104244761D01*
X186402857Y-104282857D01*
X186345714Y-104320952D01*
X186117142Y-104320952D01*
X187002857Y-103901904D02*
X186717142Y-103901904D01*
X186688571Y-104282857D01*
X186717142Y-104244761D01*
X186774285Y-104206666D01*
X186917142Y-104206666D01*
X186974285Y-104244761D01*
X187002857Y-104282857D01*
X187031428Y-104359047D01*
X187031428Y-104549523D01*
X187002857Y-104625714D01*
X186974285Y-104663809D01*
X186917142Y-104701904D01*
X186774285Y-104701904D01*
X186717142Y-104663809D01*
X186688571Y-104625714D01*
G04 #@! TO.C,R6*
X199220000Y-111331904D02*
X199020000Y-110950952D01*
X198877142Y-111331904D02*
X198877142Y-110531904D01*
X199105714Y-110531904D01*
X199162857Y-110570000D01*
X199191428Y-110608095D01*
X199220000Y-110684285D01*
X199220000Y-110798571D01*
X199191428Y-110874761D01*
X199162857Y-110912857D01*
X199105714Y-110950952D01*
X198877142Y-110950952D01*
X199734285Y-110531904D02*
X199620000Y-110531904D01*
X199562857Y-110570000D01*
X199534285Y-110608095D01*
X199477142Y-110722380D01*
X199448571Y-110874761D01*
X199448571Y-111179523D01*
X199477142Y-111255714D01*
X199505714Y-111293809D01*
X199562857Y-111331904D01*
X199677142Y-111331904D01*
X199734285Y-111293809D01*
X199762857Y-111255714D01*
X199791428Y-111179523D01*
X199791428Y-110989047D01*
X199762857Y-110912857D01*
X199734285Y-110874761D01*
X199677142Y-110836666D01*
X199562857Y-110836666D01*
X199505714Y-110874761D01*
X199477142Y-110912857D01*
X199448571Y-110989047D01*
G04 #@! TO.C,R7*
X190150000Y-101951904D02*
X189950000Y-101570952D01*
X189807142Y-101951904D02*
X189807142Y-101151904D01*
X190035714Y-101151904D01*
X190092857Y-101190000D01*
X190121428Y-101228095D01*
X190150000Y-101304285D01*
X190150000Y-101418571D01*
X190121428Y-101494761D01*
X190092857Y-101532857D01*
X190035714Y-101570952D01*
X189807142Y-101570952D01*
X190350000Y-101151904D02*
X190750000Y-101151904D01*
X190492857Y-101951904D01*
G04 #@! TO.C,U1*
X189511997Y-109879184D02*
X189511997Y-110526803D01*
X189540568Y-110602994D01*
X189569140Y-110641089D01*
X189626282Y-110679184D01*
X189740568Y-110679184D01*
X189797711Y-110641089D01*
X189826282Y-110602994D01*
X189854854Y-110526803D01*
X189854854Y-109879184D01*
X190454854Y-110679184D02*
X190111997Y-110679184D01*
X190283425Y-110679184D02*
X190283425Y-109879184D01*
X190226282Y-109993470D01*
X190169140Y-110069660D01*
X190111997Y-110107756D01*
G04 #@! TO.C,U4*
X199455977Y-105212584D02*
X199455977Y-105860203D01*
X199484548Y-105936394D01*
X199513120Y-105974489D01*
X199570262Y-106012584D01*
X199684548Y-106012584D01*
X199741691Y-105974489D01*
X199770262Y-105936394D01*
X199798834Y-105860203D01*
X199798834Y-105212584D01*
X200341691Y-105479251D02*
X200341691Y-106012584D01*
X200198834Y-105174489D02*
X200055977Y-105745918D01*
X200427405Y-105745918D01*
G04 #@! TO.C,Y1*
X208644285Y-105030952D02*
X208644285Y-105411904D01*
X208444285Y-104611904D02*
X208644285Y-105030952D01*
X208844285Y-104611904D01*
X209358571Y-105411904D02*
X209015714Y-105411904D01*
X209187142Y-105411904D02*
X209187142Y-104611904D01*
X209130000Y-104726190D01*
X209072857Y-104802380D01*
X209015714Y-104840476D01*
G04 #@! TO.C,C2*
X204145714Y-86970000D02*
X204183809Y-86998571D01*
X204221904Y-87084285D01*
X204221904Y-87141428D01*
X204183809Y-87227142D01*
X204107619Y-87284285D01*
X204031428Y-87312857D01*
X203879047Y-87341428D01*
X203764761Y-87341428D01*
X203612380Y-87312857D01*
X203536190Y-87284285D01*
X203460000Y-87227142D01*
X203421904Y-87141428D01*
X203421904Y-87084285D01*
X203460000Y-86998571D01*
X203498095Y-86970000D01*
X203498095Y-86741428D02*
X203460000Y-86712857D01*
X203421904Y-86655714D01*
X203421904Y-86512857D01*
X203460000Y-86455714D01*
X203498095Y-86427142D01*
X203574285Y-86398571D01*
X203650476Y-86398571D01*
X203764761Y-86427142D01*
X204221904Y-86770000D01*
X204221904Y-86398571D01*
G04 #@! TO.C,C3*
X198840000Y-84855714D02*
X198811428Y-84893809D01*
X198725714Y-84931904D01*
X198668571Y-84931904D01*
X198582857Y-84893809D01*
X198525714Y-84817619D01*
X198497142Y-84741428D01*
X198468571Y-84589047D01*
X198468571Y-84474761D01*
X198497142Y-84322380D01*
X198525714Y-84246190D01*
X198582857Y-84170000D01*
X198668571Y-84131904D01*
X198725714Y-84131904D01*
X198811428Y-84170000D01*
X198840000Y-84208095D01*
X199040000Y-84131904D02*
X199411428Y-84131904D01*
X199211428Y-84436666D01*
X199297142Y-84436666D01*
X199354285Y-84474761D01*
X199382857Y-84512857D01*
X199411428Y-84589047D01*
X199411428Y-84779523D01*
X199382857Y-84855714D01*
X199354285Y-84893809D01*
X199297142Y-84931904D01*
X199125714Y-84931904D01*
X199068571Y-84893809D01*
X199040000Y-84855714D01*
G04 #@! TO.C,R8*
X195310000Y-84901904D02*
X195110000Y-84520952D01*
X194967142Y-84901904D02*
X194967142Y-84101904D01*
X195195714Y-84101904D01*
X195252857Y-84140000D01*
X195281428Y-84178095D01*
X195310000Y-84254285D01*
X195310000Y-84368571D01*
X195281428Y-84444761D01*
X195252857Y-84482857D01*
X195195714Y-84520952D01*
X194967142Y-84520952D01*
X195652857Y-84444761D02*
X195595714Y-84406666D01*
X195567142Y-84368571D01*
X195538571Y-84292380D01*
X195538571Y-84254285D01*
X195567142Y-84178095D01*
X195595714Y-84140000D01*
X195652857Y-84101904D01*
X195767142Y-84101904D01*
X195824285Y-84140000D01*
X195852857Y-84178095D01*
X195881428Y-84254285D01*
X195881428Y-84292380D01*
X195852857Y-84368571D01*
X195824285Y-84406666D01*
X195767142Y-84444761D01*
X195652857Y-84444761D01*
X195595714Y-84482857D01*
X195567142Y-84520952D01*
X195538571Y-84597142D01*
X195538571Y-84749523D01*
X195567142Y-84825714D01*
X195595714Y-84863809D01*
X195652857Y-84901904D01*
X195767142Y-84901904D01*
X195824285Y-84863809D01*
X195852857Y-84825714D01*
X195881428Y-84749523D01*
X195881428Y-84597142D01*
X195852857Y-84520952D01*
X195824285Y-84482857D01*
X195767142Y-84444761D01*
G04 #@! TO.C,R9*
X197830000Y-95421904D02*
X197630000Y-95040952D01*
X197487142Y-95421904D02*
X197487142Y-94621904D01*
X197715714Y-94621904D01*
X197772857Y-94660000D01*
X197801428Y-94698095D01*
X197830000Y-94774285D01*
X197830000Y-94888571D01*
X197801428Y-94964761D01*
X197772857Y-95002857D01*
X197715714Y-95040952D01*
X197487142Y-95040952D01*
X198115714Y-95421904D02*
X198230000Y-95421904D01*
X198287142Y-95383809D01*
X198315714Y-95345714D01*
X198372857Y-95231428D01*
X198401428Y-95079047D01*
X198401428Y-94774285D01*
X198372857Y-94698095D01*
X198344285Y-94660000D01*
X198287142Y-94621904D01*
X198172857Y-94621904D01*
X198115714Y-94660000D01*
X198087142Y-94698095D01*
X198058571Y-94774285D01*
X198058571Y-94964761D01*
X198087142Y-95040952D01*
X198115714Y-95079047D01*
X198172857Y-95117142D01*
X198287142Y-95117142D01*
X198344285Y-95079047D01*
X198372857Y-95040952D01*
X198401428Y-94964761D01*
G04 #@! TO.C,R10*
X196894285Y-84901904D02*
X196694285Y-84520952D01*
X196551428Y-84901904D02*
X196551428Y-84101904D01*
X196780000Y-84101904D01*
X196837142Y-84140000D01*
X196865714Y-84178095D01*
X196894285Y-84254285D01*
X196894285Y-84368571D01*
X196865714Y-84444761D01*
X196837142Y-84482857D01*
X196780000Y-84520952D01*
X196551428Y-84520952D01*
X197465714Y-84901904D02*
X197122857Y-84901904D01*
X197294285Y-84901904D02*
X197294285Y-84101904D01*
X197237142Y-84216190D01*
X197180000Y-84292380D01*
X197122857Y-84330476D01*
X197837142Y-84101904D02*
X197894285Y-84101904D01*
X197951428Y-84140000D01*
X197980000Y-84178095D01*
X198008571Y-84254285D01*
X198037142Y-84406666D01*
X198037142Y-84597142D01*
X198008571Y-84749523D01*
X197980000Y-84825714D01*
X197951428Y-84863809D01*
X197894285Y-84901904D01*
X197837142Y-84901904D01*
X197780000Y-84863809D01*
X197751428Y-84825714D01*
X197722857Y-84749523D01*
X197694285Y-84597142D01*
X197694285Y-84406666D01*
X197722857Y-84254285D01*
X197751428Y-84178095D01*
X197780000Y-84140000D01*
X197837142Y-84101904D01*
G04 #@! TO.C,R11*
X210514285Y-93911904D02*
X210314285Y-93530952D01*
X210171428Y-93911904D02*
X210171428Y-93111904D01*
X210400000Y-93111904D01*
X210457142Y-93150000D01*
X210485714Y-93188095D01*
X210514285Y-93264285D01*
X210514285Y-93378571D01*
X210485714Y-93454761D01*
X210457142Y-93492857D01*
X210400000Y-93530952D01*
X210171428Y-93530952D01*
X211085714Y-93911904D02*
X210742857Y-93911904D01*
X210914285Y-93911904D02*
X210914285Y-93111904D01*
X210857142Y-93226190D01*
X210800000Y-93302380D01*
X210742857Y-93340476D01*
X211657142Y-93911904D02*
X211314285Y-93911904D01*
X211485714Y-93911904D02*
X211485714Y-93111904D01*
X211428571Y-93226190D01*
X211371428Y-93302380D01*
X211314285Y-93340476D01*
G04 #@! TO.C,U2*
X202032857Y-86261904D02*
X202032857Y-86909523D01*
X202061428Y-86985714D01*
X202090000Y-87023809D01*
X202147142Y-87061904D01*
X202261428Y-87061904D01*
X202318571Y-87023809D01*
X202347142Y-86985714D01*
X202375714Y-86909523D01*
X202375714Y-86261904D01*
X202632857Y-86338095D02*
X202661428Y-86300000D01*
X202718571Y-86261904D01*
X202861428Y-86261904D01*
X202918571Y-86300000D01*
X202947142Y-86338095D01*
X202975714Y-86414285D01*
X202975714Y-86490476D01*
X202947142Y-86604761D01*
X202604285Y-87061904D01*
X202975714Y-87061904D01*
G04 #@! TO.C,U5*
X188892857Y-79991904D02*
X188892857Y-80639523D01*
X188921428Y-80715714D01*
X188950000Y-80753809D01*
X189007142Y-80791904D01*
X189121428Y-80791904D01*
X189178571Y-80753809D01*
X189207142Y-80715714D01*
X189235714Y-80639523D01*
X189235714Y-79991904D01*
X189807142Y-79991904D02*
X189521428Y-79991904D01*
X189492857Y-80372857D01*
X189521428Y-80334761D01*
X189578571Y-80296666D01*
X189721428Y-80296666D01*
X189778571Y-80334761D01*
X189807142Y-80372857D01*
X189835714Y-80449047D01*
X189835714Y-80639523D01*
X189807142Y-80715714D01*
X189778571Y-80753809D01*
X189721428Y-80791904D01*
X189578571Y-80791904D01*
X189521428Y-80753809D01*
X189492857Y-80715714D01*
G04 #@! TO.C,C8*
X198330000Y-90205714D02*
X198301428Y-90243809D01*
X198215714Y-90281904D01*
X198158571Y-90281904D01*
X198072857Y-90243809D01*
X198015714Y-90167619D01*
X197987142Y-90091428D01*
X197958571Y-89939047D01*
X197958571Y-89824761D01*
X197987142Y-89672380D01*
X198015714Y-89596190D01*
X198072857Y-89520000D01*
X198158571Y-89481904D01*
X198215714Y-89481904D01*
X198301428Y-89520000D01*
X198330000Y-89558095D01*
X198672857Y-89824761D02*
X198615714Y-89786666D01*
X198587142Y-89748571D01*
X198558571Y-89672380D01*
X198558571Y-89634285D01*
X198587142Y-89558095D01*
X198615714Y-89520000D01*
X198672857Y-89481904D01*
X198787142Y-89481904D01*
X198844285Y-89520000D01*
X198872857Y-89558095D01*
X198901428Y-89634285D01*
X198901428Y-89672380D01*
X198872857Y-89748571D01*
X198844285Y-89786666D01*
X198787142Y-89824761D01*
X198672857Y-89824761D01*
X198615714Y-89862857D01*
X198587142Y-89900952D01*
X198558571Y-89977142D01*
X198558571Y-90129523D01*
X198587142Y-90205714D01*
X198615714Y-90243809D01*
X198672857Y-90281904D01*
X198787142Y-90281904D01*
X198844285Y-90243809D01*
X198872857Y-90205714D01*
X198901428Y-90129523D01*
X198901428Y-89977142D01*
X198872857Y-89900952D01*
X198844285Y-89862857D01*
X198787142Y-89824761D01*
G04 #@! TO.C,C9*
X201670000Y-90055714D02*
X201641428Y-90093809D01*
X201555714Y-90131904D01*
X201498571Y-90131904D01*
X201412857Y-90093809D01*
X201355714Y-90017619D01*
X201327142Y-89941428D01*
X201298571Y-89789047D01*
X201298571Y-89674761D01*
X201327142Y-89522380D01*
X201355714Y-89446190D01*
X201412857Y-89370000D01*
X201498571Y-89331904D01*
X201555714Y-89331904D01*
X201641428Y-89370000D01*
X201670000Y-89408095D01*
X201955714Y-90131904D02*
X202070000Y-90131904D01*
X202127142Y-90093809D01*
X202155714Y-90055714D01*
X202212857Y-89941428D01*
X202241428Y-89789047D01*
X202241428Y-89484285D01*
X202212857Y-89408095D01*
X202184285Y-89370000D01*
X202127142Y-89331904D01*
X202012857Y-89331904D01*
X201955714Y-89370000D01*
X201927142Y-89408095D01*
X201898571Y-89484285D01*
X201898571Y-89674761D01*
X201927142Y-89750952D01*
X201955714Y-89789047D01*
X202012857Y-89827142D01*
X202127142Y-89827142D01*
X202184285Y-89789047D01*
X202212857Y-89750952D01*
X202241428Y-89674761D01*
G04 #@! TD*
M02*
