M48
;DRILL file {KiCad 5.0.0-fee4fd1~66~ubuntu16.04.1} date Fri Mar 22 18:20:57 2019
;FORMAT={-:-/ absolute / inch / decimal}
FMAT,2
INCH,TZ
T1C0.0120
T2C0.0236
T3C0.0335
%
G90
G05
M72
T1
X7.2555Y-3.2811
X7.2563Y-3.1378
X7.2646Y-4.0161
X7.2646Y-4.2563
X7.3189Y-3.839
X7.3248Y-4.3098
X7.3468Y-3.2976
X7.3756Y-3.7492
X7.3764Y-3.6484
X7.3772Y-3.5488
X7.3813Y-3.2803
X7.4116Y-3.372
X7.4465Y-3.2902
X7.4536Y-3.6378
X7.4536Y-3.7382
X7.4547Y-3.2301
X7.4556Y-3.3745
X7.4949Y-4.2567
X7.5763Y-3.3472
X7.5925Y-3.4701
X7.5986Y-3.3991
X7.6087Y-4.1839
X7.6106Y-4.0016
X7.624Y-3.3567
X7.635Y-3.0852
X7.6351Y-3.178
X7.64Y-3.6846
X7.648Y-3.6039
X7.6638Y-3.0354
X7.6771Y-3.2464
X7.6882Y-3.8295
X7.694Y-3.6035
X7.694Y-3.6835
X7.7005Y-3.2077
X7.7012Y-4.2756
X7.7016Y-4.3433
X7.7043Y-3.8579
X7.727Y-3.6492
X7.7496Y-3.1537
X7.7512Y-3.8629
X7.7528Y-3.2953
X7.7539Y-4.3942
X7.7548Y-3.6036
X7.7596Y-4.1163
X7.7724Y-4.0177
X7.7748Y-3.8102
X7.7811Y-3.8642
X7.7874Y-3.2077
X7.7919Y-3.5962
X7.802Y-3.7888
X7.8025Y-4.0181
X7.8067Y-3.6925
X7.8102Y-4.4452
X7.8146Y-3.2961
X7.822Y-3.1957
X7.8325Y-4.0172
X7.8638Y-3.5634
X7.865Y-3.5022
X7.8654Y-4.0399
X7.8665Y-3.3358
X7.8712Y-3.8267
X7.8867Y-3.8875
X7.8921Y-3.0311
X7.915Y-3.868
X7.9197Y-3.1713
X7.9268Y-3.5004
X7.9272Y-3.5622
X7.9685Y-3.2173
X7.9697Y-3.2933
X7.9705Y-4.2126
X7.9713Y-4.039
X7.9736Y-3.7912
X8.0055Y-3.2571
X8.0079Y-3.1898
X8.0331Y-3.9425
X8.0331Y-4.2831
X8.0419Y-3.814
X8.1284Y-3.3312
X8.1284Y-3.3783
X8.178Y-4.2232
X8.1783Y-4.1315
X8.1894Y-3.635
X8.202Y-3.2744
X8.2425Y-3.635
X8.256Y-3.8733
X8.283Y-4.318
X8.2988Y-3.5169
X8.3284Y-3.433
X8.3449Y-3.7697
X8.3449Y-4.2484
X8.3457Y-4.0126
T3
X7.3563Y-3.1016
X7.5531Y-3.1016
T2
X7.3169Y-3.0091G85X7.3169Y-2.9815
G05
X7.5925Y-2.9815G85X7.5925Y-3.0091
G05
T0
M30
