G04 #@! TF.GenerationSoftware,KiCad,Pcbnew,5.0.0-fee4fd1~66~ubuntu16.04.1*
G04 #@! TF.CreationDate,2019-03-22T18:21:00-04:00*
G04 #@! TF.ProjectId,circuit,636972637569742E6B696361645F7063,rev?*
G04 #@! TF.SameCoordinates,Original*
G04 #@! TF.FileFunction,Copper,L2,Bot,Signal*
G04 #@! TF.FilePolarity,Positive*
%FSLAX46Y46*%
G04 Gerber Fmt 4.6, Leading zero omitted, Abs format (unit mm)*
G04 Created by KiCad (PCBNEW 5.0.0-fee4fd1~66~ubuntu16.04.1) date Fri Mar 22 18:21:00 2019*
%MOMM*%
%LPD*%
G01*
G04 APERTURE LIST*
G04 #@! TA.AperFunction,SMDPad,CuDef*
%ADD10R,1.700000X0.450000*%
G04 #@! TD*
G04 #@! TA.AperFunction,SMDPad,CuDef*
%ADD11R,0.650000X2.140000*%
G04 #@! TD*
G04 #@! TA.AperFunction,SMDPad,CuDef*
%ADD12R,0.650000X1.600000*%
G04 #@! TD*
G04 #@! TA.AperFunction,SMDPad,CuDef*
%ADD13R,0.650000X1.300000*%
G04 #@! TD*
G04 #@! TA.AperFunction,SMDPad,CuDef*
%ADD14R,0.600000X1.150000*%
G04 #@! TD*
G04 #@! TA.AperFunction,SMDPad,CuDef*
%ADD15R,1.160000X1.500000*%
G04 #@! TD*
G04 #@! TA.AperFunction,SMDPad,CuDef*
%ADD16R,0.800000X1.400000*%
G04 #@! TD*
G04 #@! TA.AperFunction,ComponentPad*
%ADD17O,1.200000X1.900000*%
G04 #@! TD*
G04 #@! TA.AperFunction,ComponentPad*
%ADD18C,1.450000*%
G04 #@! TD*
G04 #@! TA.AperFunction,ViaPad*
%ADD19C,0.609600*%
G04 #@! TD*
G04 #@! TA.AperFunction,Conductor*
%ADD20C,0.152400*%
G04 #@! TD*
G04 #@! TA.AperFunction,Conductor*
%ADD21C,0.381000*%
G04 #@! TD*
G04 #@! TA.AperFunction,Conductor*
%ADD22C,0.254000*%
G04 #@! TD*
G04 APERTURE END LIST*
D10*
G04 #@! TO.P,SD1,10*
G04 #@! TO.N,/cardIN*
X193680000Y-89805000D03*
D11*
G04 #@! TO.P,SD1,*
G04 #@! TO.N,*
X193940000Y-83320000D03*
D12*
X193940000Y-88400000D03*
D10*
G04 #@! TO.P,SD1,9*
G04 #@! TO.N,VCC*
X193680000Y-90665000D03*
D13*
G04 #@! TO.P,SD1,*
G04 #@! TO.N,*
X207565000Y-90340000D03*
D14*
X207540000Y-84415000D03*
D15*
X207540000Y-76440000D03*
D16*
G04 #@! TO.P,SD1,1*
G04 #@! TO.N,Net-(SD1-Pad1)*
X194820000Y-78740000D03*
G04 #@! TO.P,SD1,2*
G04 #@! TO.N,/SD_CS_3V*
X195920000Y-78740000D03*
G04 #@! TO.P,SD1,3*
G04 #@! TO.N,/MOSI_3V*
X197020000Y-78740000D03*
G04 #@! TO.P,SD1,8*
G04 #@! TO.N,Net-(SD1-Pad8)*
X202520000Y-78740000D03*
G04 #@! TO.P,SD1,7*
G04 #@! TO.N,/MISO_3V*
X201420000Y-78740000D03*
G04 #@! TO.P,SD1,6*
G04 #@! TO.N,GND*
X200320000Y-78740000D03*
G04 #@! TO.P,SD1,5*
G04 #@! TO.N,/SCK_3V*
X199220000Y-78740000D03*
G04 #@! TO.P,SD1,4*
G04 #@! TO.N,VCC*
X198120000Y-78740000D03*
G04 #@! TD*
D17*
G04 #@! TO.P,U5,6*
G04 #@! TO.N,GND*
X185850000Y-76080000D03*
X192850000Y-76080000D03*
D18*
X186850000Y-78780000D03*
X191850000Y-78780000D03*
G04 #@! TD*
D19*
G04 #@! TO.N,GND*
X211541360Y-87198200D03*
X209702280Y-98381200D03*
X210387800Y-109677280D03*
X197093720Y-104553400D03*
X200460000Y-76990000D03*
X207720000Y-107270000D03*
X207730000Y-104940000D03*
X190370000Y-108120000D03*
X186050000Y-109470000D03*
X193260000Y-106270000D03*
X185900000Y-97510000D03*
X202400000Y-81720000D03*
X203400000Y-81020000D03*
X203340000Y-82730000D03*
X202430000Y-83650000D03*
X199810000Y-84730000D03*
X206462300Y-85809506D03*
X198290000Y-93790000D03*
X210790000Y-89330000D03*
X184310000Y-79700000D03*
X184290000Y-83340000D03*
X211960000Y-107910000D03*
X211980000Y-101920000D03*
X211960000Y-95750000D03*
X184520000Y-108110000D03*
X184520000Y-102010000D03*
G04 #@! TO.N,/Battery+*
X202450000Y-107000000D03*
X204040000Y-108790000D03*
X204040000Y-100140000D03*
X202470000Y-102590000D03*
X199779940Y-102612792D03*
X193310000Y-101640000D03*
G04 #@! TO.N,/P_LED_1*
X195610000Y-108600000D03*
X195620000Y-110320000D03*
X196950000Y-111612300D03*
X198380000Y-112907700D03*
G04 #@! TO.N,/RESET*
X198944868Y-102037950D03*
X195690000Y-97990000D03*
G04 #@! TO.N,/cardIN*
X200323324Y-98743324D03*
X198170000Y-96236600D03*
X196266409Y-92690000D03*
X192850000Y-88140000D03*
X193004902Y-86336723D03*
X193650000Y-85260000D03*
X196920000Y-83700000D03*
X198490000Y-83720000D03*
X194998237Y-82458237D03*
X193932296Y-80722296D03*
X193930000Y-78364200D03*
X194660000Y-77100000D03*
G04 #@! TO.N,VCC*
X199770000Y-88956600D03*
X199740000Y-90510000D03*
X201340000Y-88910000D03*
X201350000Y-90480000D03*
X197913164Y-91343164D03*
X188254431Y-85650000D03*
X192438237Y-85018237D03*
X197800000Y-81474810D03*
X206462300Y-84612956D03*
X208330000Y-83170000D03*
G04 #@! TO.N,/SCL_3V*
X194260000Y-91540000D03*
X195428210Y-91530000D03*
X196970993Y-91530993D03*
G04 #@! TO.N,Net-(R9-Pad2)*
X202530000Y-96296600D03*
X204265406Y-96876600D03*
G04 #@! TO.N,/SDA_3V*
X194056600Y-93590000D03*
X195428210Y-93560000D03*
G04 #@! TO.N,Net-(R11-Pad1)*
X209360000Y-92330000D03*
X208010000Y-92330000D03*
G04 #@! TO.N,/SCK_3V*
X187340000Y-95230000D03*
X189321231Y-94950000D03*
X198680000Y-81170000D03*
G04 #@! TO.N,/MISO_3V*
X187360000Y-92670000D03*
X189321231Y-92400000D03*
X201160000Y-80550000D03*
G04 #@! TO.N,/MOSI_3V*
X196840000Y-80103199D03*
X187380000Y-90140000D03*
X189372829Y-85712829D03*
G04 #@! TO.N,/SD_CS_3V*
X195592704Y-81474810D03*
G04 #@! TO.N,/SD_CS*
X201040000Y-98248210D03*
X199928449Y-97198449D03*
X197480000Y-96780000D03*
X195279529Y-97270471D03*
G04 #@! TO.N,/MISO*
X187486129Y-83319529D03*
X189350000Y-82043400D03*
G04 #@! TO.N,/SCK*
X186607829Y-83757829D03*
X189140000Y-83570000D03*
G04 #@! TO.N,/SDA*
X197420000Y-102050000D03*
X196880000Y-98116600D03*
G04 #@! TO.N,/SCL*
X198183152Y-102058809D03*
X197641206Y-98151427D03*
G04 #@! TD*
D20*
G04 #@! TO.N,GND*
X202700000Y-81720000D02*
X203400000Y-81020000D01*
X202400000Y-81720000D02*
X202700000Y-81720000D01*
X203340000Y-82740000D02*
X202430000Y-83650000D01*
X203340000Y-82730000D02*
X203340000Y-82740000D01*
D21*
X184310000Y-83320000D02*
X184290000Y-83340000D01*
X184310000Y-79700000D02*
X184310000Y-83320000D01*
X211960000Y-101940000D02*
X211980000Y-101920000D01*
X211960000Y-107910000D02*
X211960000Y-101940000D01*
X184520000Y-108110000D02*
X184520000Y-102010000D01*
G04 #@! TO.N,/Battery+*
X202450000Y-107200000D02*
X204040000Y-108790000D01*
X202450000Y-107000000D02*
X202450000Y-107200000D01*
X204040000Y-101020000D02*
X202470000Y-102590000D01*
X204040000Y-100140000D02*
X204040000Y-101020000D01*
D22*
X199204426Y-102643010D02*
X194313010Y-102643010D01*
X199779940Y-102612792D02*
X199234644Y-102612792D01*
X199234644Y-102612792D02*
X199204426Y-102643010D01*
X194313010Y-102643010D02*
X193310000Y-101640000D01*
D20*
G04 #@! TO.N,/P_LED_1*
X195610000Y-110310000D02*
X195620000Y-110320000D01*
X195610000Y-108600000D02*
X195610000Y-110310000D01*
X198245400Y-112907700D02*
X198380000Y-112907700D01*
X196950000Y-111612300D02*
X198245400Y-112907700D01*
G04 #@! TO.N,/RESET*
X198944868Y-102037950D02*
X198220000Y-101313082D01*
X198220000Y-97940787D02*
X197659213Y-97380000D01*
X198220000Y-101313082D02*
X198220000Y-97940787D01*
X196300000Y-97380000D02*
X195690000Y-97990000D01*
X197659213Y-97380000D02*
X196300000Y-97380000D01*
G04 #@! TO.N,/cardIN*
X198170000Y-96590000D02*
X198170000Y-96236600D01*
X200323324Y-98743324D02*
X198170000Y-96590000D01*
X195649810Y-92073401D02*
X193173401Y-92073401D01*
X196266409Y-92690000D02*
X195649810Y-92073401D01*
X193173401Y-92073401D02*
X192170000Y-91070000D01*
X192170000Y-91070000D02*
X192170000Y-90150000D01*
X192515000Y-89805000D02*
X193680000Y-89805000D01*
X192170000Y-90150000D02*
X192515000Y-89805000D01*
X193680000Y-89805000D02*
X193680000Y-89428601D01*
X193680000Y-89428601D02*
X193432119Y-89428601D01*
X193432119Y-89428601D02*
X192850000Y-88846482D01*
X192850000Y-88846482D02*
X192850000Y-88140000D01*
X193004902Y-85905098D02*
X193650000Y-85260000D01*
X193004902Y-86336723D02*
X193004902Y-85905098D01*
X198470000Y-83700000D02*
X198490000Y-83720000D01*
X196920000Y-83700000D02*
X198470000Y-83700000D01*
X193932296Y-81392296D02*
X193932296Y-80722296D01*
X194998237Y-82458237D02*
X193932296Y-81392296D01*
X193930000Y-77830000D02*
X194660000Y-77100000D01*
X193930000Y-78364200D02*
X193930000Y-77830000D01*
G04 #@! TO.N,VCC*
X199770000Y-90480000D02*
X199740000Y-90510000D01*
X199770000Y-88956600D02*
X199770000Y-90480000D01*
X201340000Y-90470000D02*
X201350000Y-90480000D01*
X201340000Y-88910000D02*
X201340000Y-90470000D01*
X194682400Y-90665000D02*
X193680000Y-90665000D01*
X196894434Y-90665000D02*
X194682400Y-90665000D01*
X197267799Y-91038365D02*
X196894434Y-90665000D01*
X197608365Y-91038365D02*
X197267799Y-91038365D01*
X197913164Y-91343164D02*
X197608365Y-91038365D01*
X188254431Y-85650000D02*
X188904431Y-85000000D01*
X192420000Y-85000000D02*
X192438237Y-85018237D01*
X188904431Y-85000000D02*
X192420000Y-85000000D01*
X198104799Y-81170011D02*
X198104799Y-79914799D01*
X197800000Y-81474810D02*
X198104799Y-81170011D01*
X198120000Y-79899598D02*
X198120000Y-78740000D01*
X198104799Y-79914799D02*
X198120000Y-79899598D01*
X206767099Y-83901419D02*
X207498518Y-83170000D01*
X206462300Y-84612956D02*
X206767099Y-84308157D01*
X206767099Y-84308157D02*
X206767099Y-83901419D01*
X207498518Y-83170000D02*
X208330000Y-83170000D01*
G04 #@! TO.N,/SCL_3V*
X195418210Y-91540000D02*
X195428210Y-91530000D01*
X194260000Y-91540000D02*
X195418210Y-91540000D01*
X196970000Y-91530000D02*
X196970993Y-91530993D01*
X195428210Y-91530000D02*
X196970000Y-91530000D01*
G04 #@! TO.N,Net-(R9-Pad2)*
X203685406Y-96296600D02*
X204265406Y-96876600D01*
X202530000Y-96296600D02*
X203685406Y-96296600D01*
G04 #@! TO.N,/SDA_3V*
X195398210Y-93590000D02*
X195428210Y-93560000D01*
X194056600Y-93590000D02*
X195398210Y-93590000D01*
G04 #@! TO.N,Net-(R11-Pad1)*
X209360000Y-92330000D02*
X208010000Y-92330000D01*
G04 #@! TO.N,/SCK_3V*
X189041231Y-95230000D02*
X189321231Y-94950000D01*
X187340000Y-95230000D02*
X189041231Y-95230000D01*
X199220000Y-80630000D02*
X199220000Y-78740000D01*
X198680000Y-81170000D02*
X199220000Y-80630000D01*
G04 #@! TO.N,/MISO_3V*
X201160000Y-80550000D02*
X201464799Y-80245201D01*
X201160000Y-80550000D02*
X201480000Y-80230000D01*
X201420000Y-79592400D02*
X201420000Y-78740000D01*
X201480000Y-79620000D02*
X201470000Y-79610000D01*
X201437600Y-79610000D02*
X201420000Y-79592400D01*
X201480000Y-80230000D02*
X201480000Y-79620000D01*
X201470000Y-79610000D02*
X201437600Y-79610000D01*
X189051231Y-92670000D02*
X189321231Y-92400000D01*
X187360000Y-92670000D02*
X189051231Y-92670000D01*
G04 #@! TO.N,/MOSI_3V*
X197150000Y-78870000D02*
X197020000Y-78740000D01*
X197144799Y-79798400D02*
X197144799Y-79614799D01*
X196840000Y-80103199D02*
X197144799Y-79798400D01*
X197144799Y-79614799D02*
X197150000Y-79609598D01*
X197150000Y-79609598D02*
X197150000Y-78870000D01*
X187684799Y-89835201D02*
X187684799Y-87695201D01*
X187380000Y-90140000D02*
X187684799Y-89835201D01*
X187684799Y-87695201D02*
X187684799Y-87465201D01*
X187684799Y-87400859D02*
X189372829Y-85712829D01*
X187684799Y-87465201D02*
X187684799Y-87400859D01*
G04 #@! TO.N,/SD_CS_3V*
X195920000Y-81147514D02*
X195920000Y-78740000D01*
X195592704Y-81474810D02*
X195920000Y-81147514D01*
G04 #@! TO.N,/SD_CS*
X199990239Y-97198449D02*
X199928449Y-97198449D01*
X201040000Y-98248210D02*
X199990239Y-97198449D01*
X195978463Y-97270471D02*
X195279529Y-97270471D01*
X196468934Y-96780000D02*
X195978463Y-97270471D01*
X197480000Y-96780000D02*
X196468934Y-96780000D01*
G04 #@! TO.N,/MISO*
X188073871Y-83319529D02*
X188583400Y-82810000D01*
X187486129Y-83319529D02*
X188073871Y-83319529D01*
X188583400Y-82810000D02*
X189350000Y-82043400D01*
G04 #@! TO.N,/SCK*
X188647372Y-84062628D02*
X189140000Y-83570000D01*
X186912628Y-84062628D02*
X188647372Y-84062628D01*
X186607829Y-83757829D02*
X186912628Y-84062628D01*
G04 #@! TO.N,/SDA*
X196880000Y-101510000D02*
X196880000Y-98116600D01*
X197420000Y-102050000D02*
X196880000Y-101510000D01*
G04 #@! TO.N,/SCL*
X197641206Y-101516863D02*
X197641206Y-98151427D01*
X198183152Y-102058809D02*
X197641206Y-101516863D01*
G04 #@! TD*
G04 #@! TO.N,GND*
G36*
X210757442Y-74989169D02*
X211338545Y-75200100D01*
X211855543Y-75539059D01*
X212280691Y-75987854D01*
X212591193Y-76522423D01*
X212771694Y-77118388D01*
X212814801Y-77601399D01*
X212814800Y-111567665D01*
X212740985Y-112200796D01*
X212530054Y-112781901D01*
X212191097Y-113298895D01*
X211742301Y-113724044D01*
X211207731Y-114034547D01*
X210611764Y-114215048D01*
X210128766Y-114258154D01*
X186162489Y-114258154D01*
X185529358Y-114184339D01*
X184948253Y-113973408D01*
X184431259Y-113634451D01*
X184006110Y-113185655D01*
X183695607Y-112651085D01*
X183515106Y-112055118D01*
X183472000Y-111572120D01*
X183472000Y-111506200D01*
X196416600Y-111506200D01*
X196416600Y-111718400D01*
X196497805Y-111914447D01*
X196647853Y-112064495D01*
X196843900Y-112145700D01*
X197052348Y-112145700D01*
X197846600Y-112939952D01*
X197846600Y-113013800D01*
X197927805Y-113209847D01*
X198077853Y-113359895D01*
X198273900Y-113441100D01*
X198486100Y-113441100D01*
X198682147Y-113359895D01*
X198832195Y-113209847D01*
X198913400Y-113013800D01*
X198913400Y-112801600D01*
X198832195Y-112605553D01*
X198682147Y-112455505D01*
X198486100Y-112374300D01*
X198273900Y-112374300D01*
X198181376Y-112412624D01*
X197483400Y-111714648D01*
X197483400Y-111506200D01*
X197402195Y-111310153D01*
X197252147Y-111160105D01*
X197056100Y-111078900D01*
X196843900Y-111078900D01*
X196647853Y-111160105D01*
X196497805Y-111310153D01*
X196416600Y-111506200D01*
X183472000Y-111506200D01*
X183472000Y-108493900D01*
X195076600Y-108493900D01*
X195076600Y-108706100D01*
X195157805Y-108902147D01*
X195305200Y-109049542D01*
X195305201Y-109880457D01*
X195167805Y-110017853D01*
X195086600Y-110213900D01*
X195086600Y-110426100D01*
X195167805Y-110622147D01*
X195317853Y-110772195D01*
X195513900Y-110853400D01*
X195726100Y-110853400D01*
X195922147Y-110772195D01*
X196072195Y-110622147D01*
X196153400Y-110426100D01*
X196153400Y-110213900D01*
X196072195Y-110017853D01*
X195922147Y-109867805D01*
X195914800Y-109864762D01*
X195914800Y-109049542D01*
X196062195Y-108902147D01*
X196143400Y-108706100D01*
X196143400Y-108493900D01*
X196062195Y-108297853D01*
X195912147Y-108147805D01*
X195716100Y-108066600D01*
X195503900Y-108066600D01*
X195307853Y-108147805D01*
X195157805Y-108297853D01*
X195076600Y-108493900D01*
X183472000Y-108493900D01*
X183472000Y-106893900D01*
X201916600Y-106893900D01*
X201916600Y-107106100D01*
X201997805Y-107302147D01*
X202054232Y-107358574D01*
X202055217Y-107363524D01*
X202147847Y-107502154D01*
X202182838Y-107525534D01*
X203506600Y-108849297D01*
X203506600Y-108896100D01*
X203587805Y-109092147D01*
X203737853Y-109242195D01*
X203933900Y-109323400D01*
X204146100Y-109323400D01*
X204342147Y-109242195D01*
X204492195Y-109092147D01*
X204573400Y-108896100D01*
X204573400Y-108683900D01*
X204492195Y-108487853D01*
X204342147Y-108337805D01*
X204146100Y-108256600D01*
X204099297Y-108256600D01*
X202973265Y-107130569D01*
X202983400Y-107106100D01*
X202983400Y-106893900D01*
X202902195Y-106697853D01*
X202752147Y-106547805D01*
X202556100Y-106466600D01*
X202343900Y-106466600D01*
X202147853Y-106547805D01*
X201997805Y-106697853D01*
X201916600Y-106893900D01*
X183472000Y-106893900D01*
X183472000Y-101533900D01*
X192776600Y-101533900D01*
X192776600Y-101746100D01*
X192857805Y-101942147D01*
X193007853Y-102092195D01*
X193203900Y-102173400D01*
X193340506Y-102173400D01*
X194036799Y-102869693D01*
X194056637Y-102899383D01*
X194174262Y-102977977D01*
X194277990Y-102998610D01*
X194277994Y-102998610D01*
X194313009Y-103005575D01*
X194348024Y-102998610D01*
X199169406Y-102998610D01*
X199204426Y-103005576D01*
X199239446Y-102998610D01*
X199343174Y-102977977D01*
X199357519Y-102968392D01*
X199381198Y-102968392D01*
X199477793Y-103064987D01*
X199673840Y-103146192D01*
X199886040Y-103146192D01*
X200082087Y-103064987D01*
X200232135Y-102914939D01*
X200313340Y-102718892D01*
X200313340Y-102506692D01*
X200303900Y-102483900D01*
X201936600Y-102483900D01*
X201936600Y-102696100D01*
X202017805Y-102892147D01*
X202167853Y-103042195D01*
X202363900Y-103123400D01*
X202576100Y-103123400D01*
X202772147Y-103042195D01*
X202922195Y-102892147D01*
X203003400Y-102696100D01*
X203003400Y-102649296D01*
X204307163Y-101345534D01*
X204342154Y-101322154D01*
X204434783Y-101183524D01*
X204459100Y-101061274D01*
X204467310Y-101020001D01*
X204459100Y-100978728D01*
X204459100Y-100475242D01*
X204492195Y-100442147D01*
X204573400Y-100246100D01*
X204573400Y-100033900D01*
X204492195Y-99837853D01*
X204342147Y-99687805D01*
X204146100Y-99606600D01*
X203933900Y-99606600D01*
X203737853Y-99687805D01*
X203587805Y-99837853D01*
X203506600Y-100033900D01*
X203506600Y-100246100D01*
X203587805Y-100442147D01*
X203620900Y-100475242D01*
X203620901Y-100846402D01*
X202410704Y-102056600D01*
X202363900Y-102056600D01*
X202167853Y-102137805D01*
X202017805Y-102287853D01*
X201936600Y-102483900D01*
X200303900Y-102483900D01*
X200232135Y-102310645D01*
X200082087Y-102160597D01*
X199886040Y-102079392D01*
X199673840Y-102079392D01*
X199477793Y-102160597D01*
X199466903Y-102171487D01*
X199478268Y-102144050D01*
X199478268Y-101931850D01*
X199397063Y-101735803D01*
X199247015Y-101585755D01*
X199050968Y-101504550D01*
X198842520Y-101504550D01*
X198524800Y-101186830D01*
X198524800Y-97970802D01*
X198530770Y-97940787D01*
X198524800Y-97910772D01*
X198524800Y-97910769D01*
X198507115Y-97821860D01*
X198439748Y-97721039D01*
X198414300Y-97704035D01*
X197895965Y-97185700D01*
X197878961Y-97160252D01*
X197864052Y-97150290D01*
X197932195Y-97082147D01*
X198013400Y-96886100D01*
X198013400Y-96864452D01*
X199789924Y-98640977D01*
X199789924Y-98849424D01*
X199871129Y-99045471D01*
X200021177Y-99195519D01*
X200217224Y-99276724D01*
X200429424Y-99276724D01*
X200625471Y-99195519D01*
X200775519Y-99045471D01*
X200856724Y-98849424D01*
X200856724Y-98749643D01*
X200933900Y-98781610D01*
X201146100Y-98781610D01*
X201342147Y-98700405D01*
X201492195Y-98550357D01*
X201573400Y-98354310D01*
X201573400Y-98142110D01*
X201492195Y-97946063D01*
X201342147Y-97796015D01*
X201146100Y-97714810D01*
X200937652Y-97714810D01*
X200461849Y-97239007D01*
X200461849Y-97092349D01*
X200380644Y-96896302D01*
X200230596Y-96746254D01*
X200034549Y-96665049D01*
X199822349Y-96665049D01*
X199626302Y-96746254D01*
X199476254Y-96896302D01*
X199395049Y-97092349D01*
X199395049Y-97304549D01*
X199451226Y-97440174D01*
X198585997Y-96574945D01*
X198622195Y-96538747D01*
X198703400Y-96342700D01*
X198703400Y-96190500D01*
X201996600Y-96190500D01*
X201996600Y-96402700D01*
X202077805Y-96598747D01*
X202227853Y-96748795D01*
X202423900Y-96830000D01*
X202636100Y-96830000D01*
X202832147Y-96748795D01*
X202979542Y-96601400D01*
X203559154Y-96601400D01*
X203732006Y-96774252D01*
X203732006Y-96982700D01*
X203813211Y-97178747D01*
X203963259Y-97328795D01*
X204159306Y-97410000D01*
X204371506Y-97410000D01*
X204567553Y-97328795D01*
X204717601Y-97178747D01*
X204798806Y-96982700D01*
X204798806Y-96770500D01*
X204717601Y-96574453D01*
X204567553Y-96424405D01*
X204371506Y-96343200D01*
X204163058Y-96343200D01*
X203922158Y-96102300D01*
X203905154Y-96076852D01*
X203804333Y-96009485D01*
X203715424Y-95991800D01*
X203715420Y-95991800D01*
X203685406Y-95985830D01*
X203655392Y-95991800D01*
X202979542Y-95991800D01*
X202832147Y-95844405D01*
X202636100Y-95763200D01*
X202423900Y-95763200D01*
X202227853Y-95844405D01*
X202077805Y-95994453D01*
X201996600Y-96190500D01*
X198703400Y-96190500D01*
X198703400Y-96130500D01*
X198622195Y-95934453D01*
X198472147Y-95784405D01*
X198276100Y-95703200D01*
X198063900Y-95703200D01*
X197867853Y-95784405D01*
X197717805Y-95934453D01*
X197636600Y-96130500D01*
X197636600Y-96267518D01*
X197586100Y-96246600D01*
X197373900Y-96246600D01*
X197177853Y-96327805D01*
X197030458Y-96475200D01*
X196498949Y-96475200D01*
X196468934Y-96469230D01*
X196438919Y-96475200D01*
X196438916Y-96475200D01*
X196350007Y-96492885D01*
X196274633Y-96543248D01*
X196274631Y-96543250D01*
X196249186Y-96560252D01*
X196232184Y-96585697D01*
X195852211Y-96965671D01*
X195729071Y-96965671D01*
X195581676Y-96818276D01*
X195385629Y-96737071D01*
X195173429Y-96737071D01*
X194977382Y-96818276D01*
X194827334Y-96968324D01*
X194746129Y-97164371D01*
X194746129Y-97376571D01*
X194827334Y-97572618D01*
X194977382Y-97722666D01*
X195173429Y-97803871D01*
X195189749Y-97803871D01*
X195156600Y-97883900D01*
X195156600Y-98096100D01*
X195237805Y-98292147D01*
X195387853Y-98442195D01*
X195583900Y-98523400D01*
X195796100Y-98523400D01*
X195992147Y-98442195D01*
X196142195Y-98292147D01*
X196223400Y-98096100D01*
X196223400Y-97887652D01*
X196426252Y-97684800D01*
X196557458Y-97684800D01*
X196427805Y-97814453D01*
X196346600Y-98010500D01*
X196346600Y-98222700D01*
X196427805Y-98418747D01*
X196575201Y-98566143D01*
X196575200Y-101479986D01*
X196569230Y-101510000D01*
X196575200Y-101540014D01*
X196575200Y-101540017D01*
X196592885Y-101628926D01*
X196660252Y-101729748D01*
X196685700Y-101746752D01*
X196886600Y-101947652D01*
X196886600Y-102156100D01*
X196940990Y-102287410D01*
X194460304Y-102287410D01*
X193843400Y-101670506D01*
X193843400Y-101533900D01*
X193762195Y-101337853D01*
X193612147Y-101187805D01*
X193416100Y-101106600D01*
X193203900Y-101106600D01*
X193007853Y-101187805D01*
X192857805Y-101337853D01*
X192776600Y-101533900D01*
X183472000Y-101533900D01*
X183472000Y-95123900D01*
X186806600Y-95123900D01*
X186806600Y-95336100D01*
X186887805Y-95532147D01*
X187037853Y-95682195D01*
X187233900Y-95763400D01*
X187446100Y-95763400D01*
X187642147Y-95682195D01*
X187789542Y-95534800D01*
X189011217Y-95534800D01*
X189041231Y-95540770D01*
X189071245Y-95534800D01*
X189071249Y-95534800D01*
X189160158Y-95517115D01*
X189212344Y-95482245D01*
X189215131Y-95483400D01*
X189427331Y-95483400D01*
X189623378Y-95402195D01*
X189773426Y-95252147D01*
X189854631Y-95056100D01*
X189854631Y-94843900D01*
X189773426Y-94647853D01*
X189623378Y-94497805D01*
X189427331Y-94416600D01*
X189215131Y-94416600D01*
X189019084Y-94497805D01*
X188869036Y-94647853D01*
X188787831Y-94843900D01*
X188787831Y-94925200D01*
X187789542Y-94925200D01*
X187642147Y-94777805D01*
X187446100Y-94696600D01*
X187233900Y-94696600D01*
X187037853Y-94777805D01*
X186887805Y-94927853D01*
X186806600Y-95123900D01*
X183472000Y-95123900D01*
X183472000Y-93483900D01*
X193523200Y-93483900D01*
X193523200Y-93696100D01*
X193604405Y-93892147D01*
X193754453Y-94042195D01*
X193950500Y-94123400D01*
X194162700Y-94123400D01*
X194358747Y-94042195D01*
X194506142Y-93894800D01*
X195008668Y-93894800D01*
X195126063Y-94012195D01*
X195322110Y-94093400D01*
X195534310Y-94093400D01*
X195730357Y-94012195D01*
X195880405Y-93862147D01*
X195961610Y-93666100D01*
X195961610Y-93453900D01*
X195880405Y-93257853D01*
X195730357Y-93107805D01*
X195534310Y-93026600D01*
X195322110Y-93026600D01*
X195126063Y-93107805D01*
X194976015Y-93257853D01*
X194964688Y-93285200D01*
X194506142Y-93285200D01*
X194358747Y-93137805D01*
X194162700Y-93056600D01*
X193950500Y-93056600D01*
X193754453Y-93137805D01*
X193604405Y-93287853D01*
X193523200Y-93483900D01*
X183472000Y-93483900D01*
X183472000Y-92563900D01*
X186826600Y-92563900D01*
X186826600Y-92776100D01*
X186907805Y-92972147D01*
X187057853Y-93122195D01*
X187253900Y-93203400D01*
X187466100Y-93203400D01*
X187662147Y-93122195D01*
X187809542Y-92974800D01*
X189021217Y-92974800D01*
X189051231Y-92980770D01*
X189081245Y-92974800D01*
X189081249Y-92974800D01*
X189170158Y-92957115D01*
X189209278Y-92930976D01*
X189215131Y-92933400D01*
X189427331Y-92933400D01*
X189623378Y-92852195D01*
X189773426Y-92702147D01*
X189854631Y-92506100D01*
X189854631Y-92293900D01*
X189773426Y-92097853D01*
X189623378Y-91947805D01*
X189427331Y-91866600D01*
X189215131Y-91866600D01*
X189019084Y-91947805D01*
X188869036Y-92097853D01*
X188787831Y-92293900D01*
X188787831Y-92365200D01*
X187809542Y-92365200D01*
X187662147Y-92217805D01*
X187466100Y-92136600D01*
X187253900Y-92136600D01*
X187057853Y-92217805D01*
X186907805Y-92367853D01*
X186826600Y-92563900D01*
X183472000Y-92563900D01*
X183472000Y-90033900D01*
X186846600Y-90033900D01*
X186846600Y-90246100D01*
X186927805Y-90442147D01*
X187077853Y-90592195D01*
X187273900Y-90673400D01*
X187486100Y-90673400D01*
X187682147Y-90592195D01*
X187832195Y-90442147D01*
X187913400Y-90246100D01*
X187913400Y-90150000D01*
X191859230Y-90150000D01*
X191865201Y-90180019D01*
X191865200Y-91039985D01*
X191859230Y-91070000D01*
X191865200Y-91100014D01*
X191865200Y-91100017D01*
X191882885Y-91188926D01*
X191950252Y-91289748D01*
X191975700Y-91306752D01*
X192936649Y-92267701D01*
X192953653Y-92293149D01*
X193054474Y-92360516D01*
X193143383Y-92378201D01*
X193143387Y-92378201D01*
X193173400Y-92384171D01*
X193203413Y-92378201D01*
X195523558Y-92378201D01*
X195733009Y-92587652D01*
X195733009Y-92796100D01*
X195814214Y-92992147D01*
X195964262Y-93142195D01*
X196160309Y-93223400D01*
X196372509Y-93223400D01*
X196568556Y-93142195D01*
X196718604Y-92992147D01*
X196799809Y-92796100D01*
X196799809Y-92583900D01*
X196718604Y-92387853D01*
X196568556Y-92237805D01*
X196534987Y-92223900D01*
X207476600Y-92223900D01*
X207476600Y-92436100D01*
X207557805Y-92632147D01*
X207707853Y-92782195D01*
X207903900Y-92863400D01*
X208116100Y-92863400D01*
X208312147Y-92782195D01*
X208459542Y-92634800D01*
X208910458Y-92634800D01*
X209057853Y-92782195D01*
X209253900Y-92863400D01*
X209466100Y-92863400D01*
X209662147Y-92782195D01*
X209812195Y-92632147D01*
X209893400Y-92436100D01*
X209893400Y-92223900D01*
X209812195Y-92027853D01*
X209662147Y-91877805D01*
X209466100Y-91796600D01*
X209253900Y-91796600D01*
X209057853Y-91877805D01*
X208910458Y-92025200D01*
X208459542Y-92025200D01*
X208312147Y-91877805D01*
X208116100Y-91796600D01*
X207903900Y-91796600D01*
X207707853Y-91877805D01*
X207557805Y-92027853D01*
X207476600Y-92223900D01*
X196534987Y-92223900D01*
X196372509Y-92156600D01*
X196164061Y-92156600D01*
X195886561Y-91879100D01*
X195869558Y-91853653D01*
X195863168Y-91849384D01*
X195877752Y-91834800D01*
X196520458Y-91834800D01*
X196668846Y-91983188D01*
X196864893Y-92064393D01*
X197077093Y-92064393D01*
X197273140Y-91983188D01*
X197423188Y-91833140D01*
X197489267Y-91673609D01*
X197611017Y-91795359D01*
X197807064Y-91876564D01*
X198019264Y-91876564D01*
X198215311Y-91795359D01*
X198365359Y-91645311D01*
X198446564Y-91449264D01*
X198446564Y-91237064D01*
X198365359Y-91041017D01*
X198215311Y-90890969D01*
X198019264Y-90809764D01*
X197814864Y-90809764D01*
X197727292Y-90751250D01*
X197638383Y-90733565D01*
X197638379Y-90733565D01*
X197608365Y-90727595D01*
X197578351Y-90733565D01*
X197394052Y-90733565D01*
X197131186Y-90470700D01*
X197114182Y-90445252D01*
X197052295Y-90403900D01*
X199206600Y-90403900D01*
X199206600Y-90616100D01*
X199287805Y-90812147D01*
X199437853Y-90962195D01*
X199633900Y-91043400D01*
X199846100Y-91043400D01*
X200042147Y-90962195D01*
X200192195Y-90812147D01*
X200273400Y-90616100D01*
X200273400Y-90403900D01*
X200192195Y-90207853D01*
X200074800Y-90090458D01*
X200074800Y-89406142D01*
X200222195Y-89258747D01*
X200303400Y-89062700D01*
X200303400Y-88850500D01*
X200284098Y-88803900D01*
X200806600Y-88803900D01*
X200806600Y-89016100D01*
X200887805Y-89212147D01*
X201035200Y-89359542D01*
X201035201Y-90040457D01*
X200897805Y-90177853D01*
X200816600Y-90373900D01*
X200816600Y-90586100D01*
X200897805Y-90782147D01*
X201047853Y-90932195D01*
X201243900Y-91013400D01*
X201456100Y-91013400D01*
X201652147Y-90932195D01*
X201802195Y-90782147D01*
X201883400Y-90586100D01*
X201883400Y-90373900D01*
X201802195Y-90177853D01*
X201652147Y-90027805D01*
X201644800Y-90024762D01*
X201644800Y-89690000D01*
X207006922Y-89690000D01*
X207006922Y-90990000D01*
X207024664Y-91079195D01*
X207075189Y-91154811D01*
X207150805Y-91205336D01*
X207240000Y-91223078D01*
X207890000Y-91223078D01*
X207979195Y-91205336D01*
X208054811Y-91154811D01*
X208105336Y-91079195D01*
X208123078Y-90990000D01*
X208123078Y-89690000D01*
X208105336Y-89600805D01*
X208054811Y-89525189D01*
X207979195Y-89474664D01*
X207890000Y-89456922D01*
X207240000Y-89456922D01*
X207150805Y-89474664D01*
X207075189Y-89525189D01*
X207024664Y-89600805D01*
X207006922Y-89690000D01*
X201644800Y-89690000D01*
X201644800Y-89359542D01*
X201792195Y-89212147D01*
X201873400Y-89016100D01*
X201873400Y-88803900D01*
X201792195Y-88607853D01*
X201642147Y-88457805D01*
X201446100Y-88376600D01*
X201233900Y-88376600D01*
X201037853Y-88457805D01*
X200887805Y-88607853D01*
X200806600Y-88803900D01*
X200284098Y-88803900D01*
X200222195Y-88654453D01*
X200072147Y-88504405D01*
X199876100Y-88423200D01*
X199663900Y-88423200D01*
X199467853Y-88504405D01*
X199317805Y-88654453D01*
X199236600Y-88850500D01*
X199236600Y-89062700D01*
X199317805Y-89258747D01*
X199465200Y-89406142D01*
X199465201Y-90046477D01*
X199437853Y-90057805D01*
X199287805Y-90207853D01*
X199206600Y-90403900D01*
X197052295Y-90403900D01*
X197013361Y-90377885D01*
X196924452Y-90360200D01*
X196924448Y-90360200D01*
X196894434Y-90354230D01*
X196864420Y-90360200D01*
X194747205Y-90360200D01*
X194745336Y-90350805D01*
X194694811Y-90275189D01*
X194634664Y-90235000D01*
X194694811Y-90194811D01*
X194745336Y-90119195D01*
X194763078Y-90030000D01*
X194763078Y-89580000D01*
X194745336Y-89490805D01*
X194694811Y-89415189D01*
X194619195Y-89364664D01*
X194530000Y-89346922D01*
X194441764Y-89346922D01*
X194480336Y-89289195D01*
X194498078Y-89200000D01*
X194498078Y-87600000D01*
X194480336Y-87510805D01*
X194429811Y-87435189D01*
X194354195Y-87384664D01*
X194265000Y-87366922D01*
X193615000Y-87366922D01*
X193525805Y-87384664D01*
X193450189Y-87435189D01*
X193399664Y-87510805D01*
X193381922Y-87600000D01*
X193381922Y-88030332D01*
X193302195Y-87837853D01*
X193152147Y-87687805D01*
X192956100Y-87606600D01*
X192743900Y-87606600D01*
X192547853Y-87687805D01*
X192397805Y-87837853D01*
X192316600Y-88033900D01*
X192316600Y-88246100D01*
X192397805Y-88442147D01*
X192545200Y-88589542D01*
X192545200Y-88816467D01*
X192539230Y-88846482D01*
X192545200Y-88876496D01*
X192545200Y-88876499D01*
X192562885Y-88965408D01*
X192630252Y-89066230D01*
X192655700Y-89083234D01*
X192919388Y-89346922D01*
X192830000Y-89346922D01*
X192740805Y-89364664D01*
X192665189Y-89415189D01*
X192614664Y-89490805D01*
X192612795Y-89500200D01*
X192545015Y-89500200D01*
X192515000Y-89494230D01*
X192484985Y-89500200D01*
X192484982Y-89500200D01*
X192396073Y-89517885D01*
X192295252Y-89585252D01*
X192278248Y-89610700D01*
X191975698Y-89913250D01*
X191950253Y-89930252D01*
X191933251Y-89955697D01*
X191933248Y-89955700D01*
X191882885Y-90031074D01*
X191859230Y-90150000D01*
X187913400Y-90150000D01*
X187913400Y-90041700D01*
X187921549Y-90029504D01*
X187921551Y-90029502D01*
X187971914Y-89954128D01*
X187977921Y-89923927D01*
X187989599Y-89865219D01*
X187989599Y-89865216D01*
X187995569Y-89835201D01*
X187989599Y-89805187D01*
X187989599Y-87527111D01*
X189270482Y-86246229D01*
X189478929Y-86246229D01*
X189516605Y-86230623D01*
X192471502Y-86230623D01*
X192471502Y-86442823D01*
X192552707Y-86638870D01*
X192702755Y-86788918D01*
X192898802Y-86870123D01*
X193111002Y-86870123D01*
X193307049Y-86788918D01*
X193457097Y-86638870D01*
X193538302Y-86442823D01*
X193538302Y-86230623D01*
X193457097Y-86034576D01*
X193381787Y-85959266D01*
X193547652Y-85793400D01*
X193756100Y-85793400D01*
X193952147Y-85712195D01*
X194102195Y-85562147D01*
X194183400Y-85366100D01*
X194183400Y-85153900D01*
X194102195Y-84957853D01*
X193952147Y-84807805D01*
X193756100Y-84726600D01*
X193543900Y-84726600D01*
X193347853Y-84807805D01*
X193197805Y-84957853D01*
X193116600Y-85153900D01*
X193116600Y-85362348D01*
X192810600Y-85668348D01*
X192785155Y-85685350D01*
X192768153Y-85710795D01*
X192768150Y-85710798D01*
X192717787Y-85786172D01*
X192708720Y-85831756D01*
X192700102Y-85875080D01*
X192700102Y-85875084D01*
X192697098Y-85890185D01*
X192552707Y-86034576D01*
X192471502Y-86230623D01*
X189516605Y-86230623D01*
X189674976Y-86165024D01*
X189825024Y-86014976D01*
X189906229Y-85818929D01*
X189906229Y-85606729D01*
X189825024Y-85410682D01*
X189719142Y-85304800D01*
X191979587Y-85304800D01*
X191986042Y-85320384D01*
X192136090Y-85470432D01*
X192332137Y-85551637D01*
X192544337Y-85551637D01*
X192740384Y-85470432D01*
X192890432Y-85320384D01*
X192971637Y-85124337D01*
X192971637Y-84912137D01*
X192890432Y-84716090D01*
X192740384Y-84566042D01*
X192544337Y-84484837D01*
X192332137Y-84484837D01*
X192136090Y-84566042D01*
X192006932Y-84695200D01*
X188934446Y-84695200D01*
X188904431Y-84689230D01*
X188874416Y-84695200D01*
X188874413Y-84695200D01*
X188785504Y-84712885D01*
X188710130Y-84763248D01*
X188710128Y-84763250D01*
X188684683Y-84780252D01*
X188667681Y-84805697D01*
X188356779Y-85116600D01*
X188148331Y-85116600D01*
X187952284Y-85197805D01*
X187802236Y-85347853D01*
X187721031Y-85543900D01*
X187721031Y-85756100D01*
X187802236Y-85952147D01*
X187952284Y-86102195D01*
X188148331Y-86183400D01*
X188360531Y-86183400D01*
X188549463Y-86105142D01*
X187490497Y-87164109D01*
X187465052Y-87181111D01*
X187448049Y-87206557D01*
X187448047Y-87206559D01*
X187422059Y-87245453D01*
X187397684Y-87281932D01*
X187379999Y-87370841D01*
X187379999Y-87370845D01*
X187374029Y-87400859D01*
X187379999Y-87430873D01*
X187379999Y-87725218D01*
X187380000Y-87725223D01*
X187379999Y-89606600D01*
X187273900Y-89606600D01*
X187077853Y-89687805D01*
X186927805Y-89837853D01*
X186846600Y-90033900D01*
X183472000Y-90033900D01*
X183472000Y-83651729D01*
X186074429Y-83651729D01*
X186074429Y-83863929D01*
X186155634Y-84059976D01*
X186305682Y-84210024D01*
X186501729Y-84291229D01*
X186706129Y-84291229D01*
X186718325Y-84299378D01*
X186718327Y-84299380D01*
X186776387Y-84338174D01*
X186793701Y-84349743D01*
X186882610Y-84367428D01*
X186882613Y-84367428D01*
X186912628Y-84373398D01*
X186942642Y-84367428D01*
X188617358Y-84367428D01*
X188647372Y-84373398D01*
X188677386Y-84367428D01*
X188677390Y-84367428D01*
X188766299Y-84349743D01*
X188867120Y-84282376D01*
X188884124Y-84256928D01*
X189037652Y-84103400D01*
X189246100Y-84103400D01*
X189442147Y-84022195D01*
X189592195Y-83872147D01*
X189673400Y-83676100D01*
X189673400Y-83463900D01*
X189592195Y-83267853D01*
X189442147Y-83117805D01*
X189246100Y-83036600D01*
X189033900Y-83036600D01*
X188837853Y-83117805D01*
X188687805Y-83267853D01*
X188606600Y-83463900D01*
X188606600Y-83672348D01*
X188521120Y-83757828D01*
X187802172Y-83757828D01*
X187935671Y-83624329D01*
X188043857Y-83624329D01*
X188073871Y-83630299D01*
X188103885Y-83624329D01*
X188103889Y-83624329D01*
X188192798Y-83606644D01*
X188293619Y-83539277D01*
X188310623Y-83513829D01*
X188820152Y-83004301D01*
X188820154Y-83004298D01*
X189247652Y-82576800D01*
X189456100Y-82576800D01*
X189652147Y-82495595D01*
X189802195Y-82345547D01*
X189841771Y-82250000D01*
X193381922Y-82250000D01*
X193381922Y-84390000D01*
X193399664Y-84479195D01*
X193450189Y-84554811D01*
X193525805Y-84605336D01*
X193615000Y-84623078D01*
X194265000Y-84623078D01*
X194354195Y-84605336D01*
X194429811Y-84554811D01*
X194461853Y-84506856D01*
X205928900Y-84506856D01*
X205928900Y-84719056D01*
X206010105Y-84915103D01*
X206160153Y-85065151D01*
X206356200Y-85146356D01*
X206568400Y-85146356D01*
X206764447Y-85065151D01*
X206914495Y-84915103D01*
X206995700Y-84719056D01*
X206995700Y-84514656D01*
X207003849Y-84502460D01*
X207003851Y-84502458D01*
X207006922Y-84497862D01*
X207006922Y-84990000D01*
X207024664Y-85079195D01*
X207075189Y-85154811D01*
X207150805Y-85205336D01*
X207240000Y-85223078D01*
X207840000Y-85223078D01*
X207929195Y-85205336D01*
X208004811Y-85154811D01*
X208055336Y-85079195D01*
X208073078Y-84990000D01*
X208073078Y-83840000D01*
X208055336Y-83750805D01*
X208004811Y-83675189D01*
X207929195Y-83624664D01*
X207840000Y-83606922D01*
X207492648Y-83606922D01*
X207624770Y-83474800D01*
X207880458Y-83474800D01*
X208027853Y-83622195D01*
X208223900Y-83703400D01*
X208436100Y-83703400D01*
X208632147Y-83622195D01*
X208782195Y-83472147D01*
X208863400Y-83276100D01*
X208863400Y-83063900D01*
X208782195Y-82867853D01*
X208632147Y-82717805D01*
X208436100Y-82636600D01*
X208223900Y-82636600D01*
X208027853Y-82717805D01*
X207880458Y-82865200D01*
X207528533Y-82865200D01*
X207498518Y-82859230D01*
X207468503Y-82865200D01*
X207468500Y-82865200D01*
X207379591Y-82882885D01*
X207278770Y-82950252D01*
X207261766Y-82975700D01*
X206572797Y-83664669D01*
X206547352Y-83681671D01*
X206530350Y-83707116D01*
X206530347Y-83707119D01*
X206479984Y-83782493D01*
X206472737Y-83818926D01*
X206462299Y-83871401D01*
X206462299Y-83871405D01*
X206456329Y-83901419D01*
X206462299Y-83931433D01*
X206462299Y-84079556D01*
X206356200Y-84079556D01*
X206160153Y-84160761D01*
X206010105Y-84310809D01*
X205928900Y-84506856D01*
X194461853Y-84506856D01*
X194480336Y-84479195D01*
X194498078Y-84390000D01*
X194498078Y-83593900D01*
X196386600Y-83593900D01*
X196386600Y-83806100D01*
X196467805Y-84002147D01*
X196617853Y-84152195D01*
X196813900Y-84233400D01*
X197026100Y-84233400D01*
X197222147Y-84152195D01*
X197369542Y-84004800D01*
X198030620Y-84004800D01*
X198037805Y-84022147D01*
X198187853Y-84172195D01*
X198383900Y-84253400D01*
X198596100Y-84253400D01*
X198792147Y-84172195D01*
X198942195Y-84022147D01*
X199023400Y-83826100D01*
X199023400Y-83613900D01*
X198942195Y-83417853D01*
X198792147Y-83267805D01*
X198596100Y-83186600D01*
X198383900Y-83186600D01*
X198187853Y-83267805D01*
X198060458Y-83395200D01*
X197369542Y-83395200D01*
X197222147Y-83247805D01*
X197026100Y-83166600D01*
X196813900Y-83166600D01*
X196617853Y-83247805D01*
X196467805Y-83397853D01*
X196386600Y-83593900D01*
X194498078Y-83593900D01*
X194498078Y-82644588D01*
X194546042Y-82760384D01*
X194696090Y-82910432D01*
X194892137Y-82991637D01*
X195104337Y-82991637D01*
X195300384Y-82910432D01*
X195450432Y-82760384D01*
X195531637Y-82564337D01*
X195531637Y-82352137D01*
X195450432Y-82156090D01*
X195300384Y-82006042D01*
X195104337Y-81924837D01*
X194895889Y-81924837D01*
X194237096Y-81266044D01*
X194237096Y-81171838D01*
X194384491Y-81024443D01*
X194465696Y-80828396D01*
X194465696Y-80616196D01*
X194384491Y-80420149D01*
X194234443Y-80270101D01*
X194038396Y-80188896D01*
X193826196Y-80188896D01*
X193630149Y-80270101D01*
X193480101Y-80420149D01*
X193398896Y-80616196D01*
X193398896Y-80828396D01*
X193480101Y-81024443D01*
X193627496Y-81171838D01*
X193627496Y-81362281D01*
X193621526Y-81392296D01*
X193627496Y-81422310D01*
X193627496Y-81422313D01*
X193645181Y-81511222D01*
X193712548Y-81612044D01*
X193737996Y-81629048D01*
X194125870Y-82016922D01*
X193615000Y-82016922D01*
X193525805Y-82034664D01*
X193450189Y-82085189D01*
X193399664Y-82160805D01*
X193381922Y-82250000D01*
X189841771Y-82250000D01*
X189883400Y-82149500D01*
X189883400Y-81937300D01*
X189802195Y-81741253D01*
X189652147Y-81591205D01*
X189456100Y-81510000D01*
X189243900Y-81510000D01*
X189047853Y-81591205D01*
X188897805Y-81741253D01*
X188816600Y-81937300D01*
X188816600Y-82145748D01*
X188389102Y-82573246D01*
X188389099Y-82573248D01*
X187947619Y-83014729D01*
X187935671Y-83014729D01*
X187788276Y-82867334D01*
X187592229Y-82786129D01*
X187380029Y-82786129D01*
X187183982Y-82867334D01*
X187033934Y-83017382D01*
X186952729Y-83213429D01*
X186952729Y-83348387D01*
X186909976Y-83305634D01*
X186713929Y-83224429D01*
X186501729Y-83224429D01*
X186305682Y-83305634D01*
X186155634Y-83455682D01*
X186074429Y-83651729D01*
X183472000Y-83651729D01*
X183472000Y-78258100D01*
X193396600Y-78258100D01*
X193396600Y-78470300D01*
X193477805Y-78666347D01*
X193627853Y-78816395D01*
X193823900Y-78897600D01*
X194036100Y-78897600D01*
X194186922Y-78835128D01*
X194186922Y-79440000D01*
X194204664Y-79529195D01*
X194255189Y-79604811D01*
X194330805Y-79655336D01*
X194420000Y-79673078D01*
X195220000Y-79673078D01*
X195309195Y-79655336D01*
X195370000Y-79614707D01*
X195430805Y-79655336D01*
X195520000Y-79673078D01*
X195615201Y-79673078D01*
X195615200Y-80941410D01*
X195486604Y-80941410D01*
X195290557Y-81022615D01*
X195140509Y-81172663D01*
X195059304Y-81368710D01*
X195059304Y-81580910D01*
X195140509Y-81776957D01*
X195290557Y-81927005D01*
X195486604Y-82008210D01*
X195698804Y-82008210D01*
X195894851Y-81927005D01*
X196044899Y-81776957D01*
X196126104Y-81580910D01*
X196126104Y-81376379D01*
X196139748Y-81367262D01*
X196207115Y-81266441D01*
X196224800Y-81177532D01*
X196224800Y-81177528D01*
X196230770Y-81147515D01*
X196224800Y-81117502D01*
X196224800Y-79673078D01*
X196320000Y-79673078D01*
X196409195Y-79655336D01*
X196470000Y-79614707D01*
X196530805Y-79655336D01*
X196533070Y-79655787D01*
X196387805Y-79801052D01*
X196306600Y-79997099D01*
X196306600Y-80209299D01*
X196387805Y-80405346D01*
X196537853Y-80555394D01*
X196733900Y-80636599D01*
X196946100Y-80636599D01*
X197142147Y-80555394D01*
X197292195Y-80405346D01*
X197373400Y-80209299D01*
X197373400Y-80004899D01*
X197381549Y-79992703D01*
X197381551Y-79992701D01*
X197431914Y-79917327D01*
X197435934Y-79897115D01*
X197449599Y-79828418D01*
X197449599Y-79828415D01*
X197455569Y-79798400D01*
X197449599Y-79768386D01*
X197449599Y-79667190D01*
X197509195Y-79655336D01*
X197570000Y-79614707D01*
X197630805Y-79655336D01*
X197720000Y-79673078D01*
X197815200Y-79673078D01*
X197815200Y-79808361D01*
X197794029Y-79914799D01*
X197800000Y-79944818D01*
X197799999Y-80941410D01*
X197693900Y-80941410D01*
X197497853Y-81022615D01*
X197347805Y-81172663D01*
X197266600Y-81368710D01*
X197266600Y-81580910D01*
X197347805Y-81776957D01*
X197497853Y-81927005D01*
X197693900Y-82008210D01*
X197906100Y-82008210D01*
X198102147Y-81927005D01*
X198252195Y-81776957D01*
X198333400Y-81580910D01*
X198333400Y-81577742D01*
X198377853Y-81622195D01*
X198573900Y-81703400D01*
X198786100Y-81703400D01*
X198982147Y-81622195D01*
X199132195Y-81472147D01*
X199213400Y-81276100D01*
X199213400Y-81067652D01*
X199414301Y-80866751D01*
X199439748Y-80849748D01*
X199507115Y-80748927D01*
X199524800Y-80660018D01*
X199524800Y-80660014D01*
X199530770Y-80630001D01*
X199524800Y-80599988D01*
X199524800Y-80443900D01*
X200626600Y-80443900D01*
X200626600Y-80656100D01*
X200707805Y-80852147D01*
X200857853Y-81002195D01*
X201053900Y-81083400D01*
X201266100Y-81083400D01*
X201462147Y-81002195D01*
X201612195Y-80852147D01*
X201693400Y-80656100D01*
X201693400Y-80453990D01*
X201699748Y-80449748D01*
X201767115Y-80348927D01*
X201784800Y-80260018D01*
X201784800Y-80260014D01*
X201790770Y-80230001D01*
X201784800Y-80199988D01*
X201784800Y-79673078D01*
X201820000Y-79673078D01*
X201909195Y-79655336D01*
X201970000Y-79614707D01*
X202030805Y-79655336D01*
X202120000Y-79673078D01*
X202920000Y-79673078D01*
X203009195Y-79655336D01*
X203084811Y-79604811D01*
X203135336Y-79529195D01*
X203153078Y-79440000D01*
X203153078Y-78040000D01*
X203135336Y-77950805D01*
X203084811Y-77875189D01*
X203009195Y-77824664D01*
X202920000Y-77806922D01*
X202120000Y-77806922D01*
X202030805Y-77824664D01*
X201970000Y-77865293D01*
X201909195Y-77824664D01*
X201820000Y-77806922D01*
X201020000Y-77806922D01*
X200930805Y-77824664D01*
X200855189Y-77875189D01*
X200804664Y-77950805D01*
X200786922Y-78040000D01*
X200786922Y-79440000D01*
X200804664Y-79529195D01*
X200855189Y-79604811D01*
X200930805Y-79655336D01*
X201020000Y-79673078D01*
X201125277Y-79673078D01*
X201132885Y-79711326D01*
X201147852Y-79733725D01*
X201175201Y-79774656D01*
X201175200Y-80016600D01*
X201053900Y-80016600D01*
X200857853Y-80097805D01*
X200707805Y-80247853D01*
X200626600Y-80443900D01*
X199524800Y-80443900D01*
X199524800Y-79673078D01*
X199620000Y-79673078D01*
X199709195Y-79655336D01*
X199784811Y-79604811D01*
X199835336Y-79529195D01*
X199853078Y-79440000D01*
X199853078Y-78040000D01*
X199835336Y-77950805D01*
X199784811Y-77875189D01*
X199709195Y-77824664D01*
X199620000Y-77806922D01*
X198820000Y-77806922D01*
X198730805Y-77824664D01*
X198670000Y-77865293D01*
X198609195Y-77824664D01*
X198520000Y-77806922D01*
X197720000Y-77806922D01*
X197630805Y-77824664D01*
X197570000Y-77865293D01*
X197509195Y-77824664D01*
X197420000Y-77806922D01*
X196620000Y-77806922D01*
X196530805Y-77824664D01*
X196470000Y-77865293D01*
X196409195Y-77824664D01*
X196320000Y-77806922D01*
X195520000Y-77806922D01*
X195430805Y-77824664D01*
X195370000Y-77865293D01*
X195309195Y-77824664D01*
X195220000Y-77806922D01*
X194420000Y-77806922D01*
X194375224Y-77815829D01*
X194557653Y-77633400D01*
X194766100Y-77633400D01*
X194962147Y-77552195D01*
X195112195Y-77402147D01*
X195193400Y-77206100D01*
X195193400Y-76993900D01*
X195112195Y-76797853D01*
X194962147Y-76647805D01*
X194766100Y-76566600D01*
X194553900Y-76566600D01*
X194357853Y-76647805D01*
X194207805Y-76797853D01*
X194126600Y-76993900D01*
X194126600Y-77202347D01*
X193735698Y-77593250D01*
X193710253Y-77610252D01*
X193693251Y-77635697D01*
X193693248Y-77635700D01*
X193642885Y-77711074D01*
X193619230Y-77830000D01*
X193625201Y-77860019D01*
X193625201Y-77914657D01*
X193477805Y-78062053D01*
X193396600Y-78258100D01*
X183472000Y-78258100D01*
X183472000Y-77605843D01*
X183545815Y-76972712D01*
X183756746Y-76391609D01*
X184095705Y-75874611D01*
X184290584Y-75690000D01*
X206726922Y-75690000D01*
X206726922Y-77190000D01*
X206744664Y-77279195D01*
X206795189Y-77354811D01*
X206870805Y-77405336D01*
X206960000Y-77423078D01*
X208120000Y-77423078D01*
X208209195Y-77405336D01*
X208284811Y-77354811D01*
X208335336Y-77279195D01*
X208353078Y-77190000D01*
X208353078Y-75690000D01*
X208335336Y-75600805D01*
X208284811Y-75525189D01*
X208209195Y-75474664D01*
X208120000Y-75456922D01*
X206960000Y-75456922D01*
X206870805Y-75474664D01*
X206795189Y-75525189D01*
X206744664Y-75600805D01*
X206726922Y-75690000D01*
X184290584Y-75690000D01*
X184544500Y-75449463D01*
X185079069Y-75138961D01*
X185675034Y-74958460D01*
X186158034Y-74915354D01*
X210124311Y-74915354D01*
X210757442Y-74989169D01*
X210757442Y-74989169D01*
G37*
X210757442Y-74989169D02*
X211338545Y-75200100D01*
X211855543Y-75539059D01*
X212280691Y-75987854D01*
X212591193Y-76522423D01*
X212771694Y-77118388D01*
X212814801Y-77601399D01*
X212814800Y-111567665D01*
X212740985Y-112200796D01*
X212530054Y-112781901D01*
X212191097Y-113298895D01*
X211742301Y-113724044D01*
X211207731Y-114034547D01*
X210611764Y-114215048D01*
X210128766Y-114258154D01*
X186162489Y-114258154D01*
X185529358Y-114184339D01*
X184948253Y-113973408D01*
X184431259Y-113634451D01*
X184006110Y-113185655D01*
X183695607Y-112651085D01*
X183515106Y-112055118D01*
X183472000Y-111572120D01*
X183472000Y-111506200D01*
X196416600Y-111506200D01*
X196416600Y-111718400D01*
X196497805Y-111914447D01*
X196647853Y-112064495D01*
X196843900Y-112145700D01*
X197052348Y-112145700D01*
X197846600Y-112939952D01*
X197846600Y-113013800D01*
X197927805Y-113209847D01*
X198077853Y-113359895D01*
X198273900Y-113441100D01*
X198486100Y-113441100D01*
X198682147Y-113359895D01*
X198832195Y-113209847D01*
X198913400Y-113013800D01*
X198913400Y-112801600D01*
X198832195Y-112605553D01*
X198682147Y-112455505D01*
X198486100Y-112374300D01*
X198273900Y-112374300D01*
X198181376Y-112412624D01*
X197483400Y-111714648D01*
X197483400Y-111506200D01*
X197402195Y-111310153D01*
X197252147Y-111160105D01*
X197056100Y-111078900D01*
X196843900Y-111078900D01*
X196647853Y-111160105D01*
X196497805Y-111310153D01*
X196416600Y-111506200D01*
X183472000Y-111506200D01*
X183472000Y-108493900D01*
X195076600Y-108493900D01*
X195076600Y-108706100D01*
X195157805Y-108902147D01*
X195305200Y-109049542D01*
X195305201Y-109880457D01*
X195167805Y-110017853D01*
X195086600Y-110213900D01*
X195086600Y-110426100D01*
X195167805Y-110622147D01*
X195317853Y-110772195D01*
X195513900Y-110853400D01*
X195726100Y-110853400D01*
X195922147Y-110772195D01*
X196072195Y-110622147D01*
X196153400Y-110426100D01*
X196153400Y-110213900D01*
X196072195Y-110017853D01*
X195922147Y-109867805D01*
X195914800Y-109864762D01*
X195914800Y-109049542D01*
X196062195Y-108902147D01*
X196143400Y-108706100D01*
X196143400Y-108493900D01*
X196062195Y-108297853D01*
X195912147Y-108147805D01*
X195716100Y-108066600D01*
X195503900Y-108066600D01*
X195307853Y-108147805D01*
X195157805Y-108297853D01*
X195076600Y-108493900D01*
X183472000Y-108493900D01*
X183472000Y-106893900D01*
X201916600Y-106893900D01*
X201916600Y-107106100D01*
X201997805Y-107302147D01*
X202054232Y-107358574D01*
X202055217Y-107363524D01*
X202147847Y-107502154D01*
X202182838Y-107525534D01*
X203506600Y-108849297D01*
X203506600Y-108896100D01*
X203587805Y-109092147D01*
X203737853Y-109242195D01*
X203933900Y-109323400D01*
X204146100Y-109323400D01*
X204342147Y-109242195D01*
X204492195Y-109092147D01*
X204573400Y-108896100D01*
X204573400Y-108683900D01*
X204492195Y-108487853D01*
X204342147Y-108337805D01*
X204146100Y-108256600D01*
X204099297Y-108256600D01*
X202973265Y-107130569D01*
X202983400Y-107106100D01*
X202983400Y-106893900D01*
X202902195Y-106697853D01*
X202752147Y-106547805D01*
X202556100Y-106466600D01*
X202343900Y-106466600D01*
X202147853Y-106547805D01*
X201997805Y-106697853D01*
X201916600Y-106893900D01*
X183472000Y-106893900D01*
X183472000Y-101533900D01*
X192776600Y-101533900D01*
X192776600Y-101746100D01*
X192857805Y-101942147D01*
X193007853Y-102092195D01*
X193203900Y-102173400D01*
X193340506Y-102173400D01*
X194036799Y-102869693D01*
X194056637Y-102899383D01*
X194174262Y-102977977D01*
X194277990Y-102998610D01*
X194277994Y-102998610D01*
X194313009Y-103005575D01*
X194348024Y-102998610D01*
X199169406Y-102998610D01*
X199204426Y-103005576D01*
X199239446Y-102998610D01*
X199343174Y-102977977D01*
X199357519Y-102968392D01*
X199381198Y-102968392D01*
X199477793Y-103064987D01*
X199673840Y-103146192D01*
X199886040Y-103146192D01*
X200082087Y-103064987D01*
X200232135Y-102914939D01*
X200313340Y-102718892D01*
X200313340Y-102506692D01*
X200303900Y-102483900D01*
X201936600Y-102483900D01*
X201936600Y-102696100D01*
X202017805Y-102892147D01*
X202167853Y-103042195D01*
X202363900Y-103123400D01*
X202576100Y-103123400D01*
X202772147Y-103042195D01*
X202922195Y-102892147D01*
X203003400Y-102696100D01*
X203003400Y-102649296D01*
X204307163Y-101345534D01*
X204342154Y-101322154D01*
X204434783Y-101183524D01*
X204459100Y-101061274D01*
X204467310Y-101020001D01*
X204459100Y-100978728D01*
X204459100Y-100475242D01*
X204492195Y-100442147D01*
X204573400Y-100246100D01*
X204573400Y-100033900D01*
X204492195Y-99837853D01*
X204342147Y-99687805D01*
X204146100Y-99606600D01*
X203933900Y-99606600D01*
X203737853Y-99687805D01*
X203587805Y-99837853D01*
X203506600Y-100033900D01*
X203506600Y-100246100D01*
X203587805Y-100442147D01*
X203620900Y-100475242D01*
X203620901Y-100846402D01*
X202410704Y-102056600D01*
X202363900Y-102056600D01*
X202167853Y-102137805D01*
X202017805Y-102287853D01*
X201936600Y-102483900D01*
X200303900Y-102483900D01*
X200232135Y-102310645D01*
X200082087Y-102160597D01*
X199886040Y-102079392D01*
X199673840Y-102079392D01*
X199477793Y-102160597D01*
X199466903Y-102171487D01*
X199478268Y-102144050D01*
X199478268Y-101931850D01*
X199397063Y-101735803D01*
X199247015Y-101585755D01*
X199050968Y-101504550D01*
X198842520Y-101504550D01*
X198524800Y-101186830D01*
X198524800Y-97970802D01*
X198530770Y-97940787D01*
X198524800Y-97910772D01*
X198524800Y-97910769D01*
X198507115Y-97821860D01*
X198439748Y-97721039D01*
X198414300Y-97704035D01*
X197895965Y-97185700D01*
X197878961Y-97160252D01*
X197864052Y-97150290D01*
X197932195Y-97082147D01*
X198013400Y-96886100D01*
X198013400Y-96864452D01*
X199789924Y-98640977D01*
X199789924Y-98849424D01*
X199871129Y-99045471D01*
X200021177Y-99195519D01*
X200217224Y-99276724D01*
X200429424Y-99276724D01*
X200625471Y-99195519D01*
X200775519Y-99045471D01*
X200856724Y-98849424D01*
X200856724Y-98749643D01*
X200933900Y-98781610D01*
X201146100Y-98781610D01*
X201342147Y-98700405D01*
X201492195Y-98550357D01*
X201573400Y-98354310D01*
X201573400Y-98142110D01*
X201492195Y-97946063D01*
X201342147Y-97796015D01*
X201146100Y-97714810D01*
X200937652Y-97714810D01*
X200461849Y-97239007D01*
X200461849Y-97092349D01*
X200380644Y-96896302D01*
X200230596Y-96746254D01*
X200034549Y-96665049D01*
X199822349Y-96665049D01*
X199626302Y-96746254D01*
X199476254Y-96896302D01*
X199395049Y-97092349D01*
X199395049Y-97304549D01*
X199451226Y-97440174D01*
X198585997Y-96574945D01*
X198622195Y-96538747D01*
X198703400Y-96342700D01*
X198703400Y-96190500D01*
X201996600Y-96190500D01*
X201996600Y-96402700D01*
X202077805Y-96598747D01*
X202227853Y-96748795D01*
X202423900Y-96830000D01*
X202636100Y-96830000D01*
X202832147Y-96748795D01*
X202979542Y-96601400D01*
X203559154Y-96601400D01*
X203732006Y-96774252D01*
X203732006Y-96982700D01*
X203813211Y-97178747D01*
X203963259Y-97328795D01*
X204159306Y-97410000D01*
X204371506Y-97410000D01*
X204567553Y-97328795D01*
X204717601Y-97178747D01*
X204798806Y-96982700D01*
X204798806Y-96770500D01*
X204717601Y-96574453D01*
X204567553Y-96424405D01*
X204371506Y-96343200D01*
X204163058Y-96343200D01*
X203922158Y-96102300D01*
X203905154Y-96076852D01*
X203804333Y-96009485D01*
X203715424Y-95991800D01*
X203715420Y-95991800D01*
X203685406Y-95985830D01*
X203655392Y-95991800D01*
X202979542Y-95991800D01*
X202832147Y-95844405D01*
X202636100Y-95763200D01*
X202423900Y-95763200D01*
X202227853Y-95844405D01*
X202077805Y-95994453D01*
X201996600Y-96190500D01*
X198703400Y-96190500D01*
X198703400Y-96130500D01*
X198622195Y-95934453D01*
X198472147Y-95784405D01*
X198276100Y-95703200D01*
X198063900Y-95703200D01*
X197867853Y-95784405D01*
X197717805Y-95934453D01*
X197636600Y-96130500D01*
X197636600Y-96267518D01*
X197586100Y-96246600D01*
X197373900Y-96246600D01*
X197177853Y-96327805D01*
X197030458Y-96475200D01*
X196498949Y-96475200D01*
X196468934Y-96469230D01*
X196438919Y-96475200D01*
X196438916Y-96475200D01*
X196350007Y-96492885D01*
X196274633Y-96543248D01*
X196274631Y-96543250D01*
X196249186Y-96560252D01*
X196232184Y-96585697D01*
X195852211Y-96965671D01*
X195729071Y-96965671D01*
X195581676Y-96818276D01*
X195385629Y-96737071D01*
X195173429Y-96737071D01*
X194977382Y-96818276D01*
X194827334Y-96968324D01*
X194746129Y-97164371D01*
X194746129Y-97376571D01*
X194827334Y-97572618D01*
X194977382Y-97722666D01*
X195173429Y-97803871D01*
X195189749Y-97803871D01*
X195156600Y-97883900D01*
X195156600Y-98096100D01*
X195237805Y-98292147D01*
X195387853Y-98442195D01*
X195583900Y-98523400D01*
X195796100Y-98523400D01*
X195992147Y-98442195D01*
X196142195Y-98292147D01*
X196223400Y-98096100D01*
X196223400Y-97887652D01*
X196426252Y-97684800D01*
X196557458Y-97684800D01*
X196427805Y-97814453D01*
X196346600Y-98010500D01*
X196346600Y-98222700D01*
X196427805Y-98418747D01*
X196575201Y-98566143D01*
X196575200Y-101479986D01*
X196569230Y-101510000D01*
X196575200Y-101540014D01*
X196575200Y-101540017D01*
X196592885Y-101628926D01*
X196660252Y-101729748D01*
X196685700Y-101746752D01*
X196886600Y-101947652D01*
X196886600Y-102156100D01*
X196940990Y-102287410D01*
X194460304Y-102287410D01*
X193843400Y-101670506D01*
X193843400Y-101533900D01*
X193762195Y-101337853D01*
X193612147Y-101187805D01*
X193416100Y-101106600D01*
X193203900Y-101106600D01*
X193007853Y-101187805D01*
X192857805Y-101337853D01*
X192776600Y-101533900D01*
X183472000Y-101533900D01*
X183472000Y-95123900D01*
X186806600Y-95123900D01*
X186806600Y-95336100D01*
X186887805Y-95532147D01*
X187037853Y-95682195D01*
X187233900Y-95763400D01*
X187446100Y-95763400D01*
X187642147Y-95682195D01*
X187789542Y-95534800D01*
X189011217Y-95534800D01*
X189041231Y-95540770D01*
X189071245Y-95534800D01*
X189071249Y-95534800D01*
X189160158Y-95517115D01*
X189212344Y-95482245D01*
X189215131Y-95483400D01*
X189427331Y-95483400D01*
X189623378Y-95402195D01*
X189773426Y-95252147D01*
X189854631Y-95056100D01*
X189854631Y-94843900D01*
X189773426Y-94647853D01*
X189623378Y-94497805D01*
X189427331Y-94416600D01*
X189215131Y-94416600D01*
X189019084Y-94497805D01*
X188869036Y-94647853D01*
X188787831Y-94843900D01*
X188787831Y-94925200D01*
X187789542Y-94925200D01*
X187642147Y-94777805D01*
X187446100Y-94696600D01*
X187233900Y-94696600D01*
X187037853Y-94777805D01*
X186887805Y-94927853D01*
X186806600Y-95123900D01*
X183472000Y-95123900D01*
X183472000Y-93483900D01*
X193523200Y-93483900D01*
X193523200Y-93696100D01*
X193604405Y-93892147D01*
X193754453Y-94042195D01*
X193950500Y-94123400D01*
X194162700Y-94123400D01*
X194358747Y-94042195D01*
X194506142Y-93894800D01*
X195008668Y-93894800D01*
X195126063Y-94012195D01*
X195322110Y-94093400D01*
X195534310Y-94093400D01*
X195730357Y-94012195D01*
X195880405Y-93862147D01*
X195961610Y-93666100D01*
X195961610Y-93453900D01*
X195880405Y-93257853D01*
X195730357Y-93107805D01*
X195534310Y-93026600D01*
X195322110Y-93026600D01*
X195126063Y-93107805D01*
X194976015Y-93257853D01*
X194964688Y-93285200D01*
X194506142Y-93285200D01*
X194358747Y-93137805D01*
X194162700Y-93056600D01*
X193950500Y-93056600D01*
X193754453Y-93137805D01*
X193604405Y-93287853D01*
X193523200Y-93483900D01*
X183472000Y-93483900D01*
X183472000Y-92563900D01*
X186826600Y-92563900D01*
X186826600Y-92776100D01*
X186907805Y-92972147D01*
X187057853Y-93122195D01*
X187253900Y-93203400D01*
X187466100Y-93203400D01*
X187662147Y-93122195D01*
X187809542Y-92974800D01*
X189021217Y-92974800D01*
X189051231Y-92980770D01*
X189081245Y-92974800D01*
X189081249Y-92974800D01*
X189170158Y-92957115D01*
X189209278Y-92930976D01*
X189215131Y-92933400D01*
X189427331Y-92933400D01*
X189623378Y-92852195D01*
X189773426Y-92702147D01*
X189854631Y-92506100D01*
X189854631Y-92293900D01*
X189773426Y-92097853D01*
X189623378Y-91947805D01*
X189427331Y-91866600D01*
X189215131Y-91866600D01*
X189019084Y-91947805D01*
X188869036Y-92097853D01*
X188787831Y-92293900D01*
X188787831Y-92365200D01*
X187809542Y-92365200D01*
X187662147Y-92217805D01*
X187466100Y-92136600D01*
X187253900Y-92136600D01*
X187057853Y-92217805D01*
X186907805Y-92367853D01*
X186826600Y-92563900D01*
X183472000Y-92563900D01*
X183472000Y-90033900D01*
X186846600Y-90033900D01*
X186846600Y-90246100D01*
X186927805Y-90442147D01*
X187077853Y-90592195D01*
X187273900Y-90673400D01*
X187486100Y-90673400D01*
X187682147Y-90592195D01*
X187832195Y-90442147D01*
X187913400Y-90246100D01*
X187913400Y-90150000D01*
X191859230Y-90150000D01*
X191865201Y-90180019D01*
X191865200Y-91039985D01*
X191859230Y-91070000D01*
X191865200Y-91100014D01*
X191865200Y-91100017D01*
X191882885Y-91188926D01*
X191950252Y-91289748D01*
X191975700Y-91306752D01*
X192936649Y-92267701D01*
X192953653Y-92293149D01*
X193054474Y-92360516D01*
X193143383Y-92378201D01*
X193143387Y-92378201D01*
X193173400Y-92384171D01*
X193203413Y-92378201D01*
X195523558Y-92378201D01*
X195733009Y-92587652D01*
X195733009Y-92796100D01*
X195814214Y-92992147D01*
X195964262Y-93142195D01*
X196160309Y-93223400D01*
X196372509Y-93223400D01*
X196568556Y-93142195D01*
X196718604Y-92992147D01*
X196799809Y-92796100D01*
X196799809Y-92583900D01*
X196718604Y-92387853D01*
X196568556Y-92237805D01*
X196534987Y-92223900D01*
X207476600Y-92223900D01*
X207476600Y-92436100D01*
X207557805Y-92632147D01*
X207707853Y-92782195D01*
X207903900Y-92863400D01*
X208116100Y-92863400D01*
X208312147Y-92782195D01*
X208459542Y-92634800D01*
X208910458Y-92634800D01*
X209057853Y-92782195D01*
X209253900Y-92863400D01*
X209466100Y-92863400D01*
X209662147Y-92782195D01*
X209812195Y-92632147D01*
X209893400Y-92436100D01*
X209893400Y-92223900D01*
X209812195Y-92027853D01*
X209662147Y-91877805D01*
X209466100Y-91796600D01*
X209253900Y-91796600D01*
X209057853Y-91877805D01*
X208910458Y-92025200D01*
X208459542Y-92025200D01*
X208312147Y-91877805D01*
X208116100Y-91796600D01*
X207903900Y-91796600D01*
X207707853Y-91877805D01*
X207557805Y-92027853D01*
X207476600Y-92223900D01*
X196534987Y-92223900D01*
X196372509Y-92156600D01*
X196164061Y-92156600D01*
X195886561Y-91879100D01*
X195869558Y-91853653D01*
X195863168Y-91849384D01*
X195877752Y-91834800D01*
X196520458Y-91834800D01*
X196668846Y-91983188D01*
X196864893Y-92064393D01*
X197077093Y-92064393D01*
X197273140Y-91983188D01*
X197423188Y-91833140D01*
X197489267Y-91673609D01*
X197611017Y-91795359D01*
X197807064Y-91876564D01*
X198019264Y-91876564D01*
X198215311Y-91795359D01*
X198365359Y-91645311D01*
X198446564Y-91449264D01*
X198446564Y-91237064D01*
X198365359Y-91041017D01*
X198215311Y-90890969D01*
X198019264Y-90809764D01*
X197814864Y-90809764D01*
X197727292Y-90751250D01*
X197638383Y-90733565D01*
X197638379Y-90733565D01*
X197608365Y-90727595D01*
X197578351Y-90733565D01*
X197394052Y-90733565D01*
X197131186Y-90470700D01*
X197114182Y-90445252D01*
X197052295Y-90403900D01*
X199206600Y-90403900D01*
X199206600Y-90616100D01*
X199287805Y-90812147D01*
X199437853Y-90962195D01*
X199633900Y-91043400D01*
X199846100Y-91043400D01*
X200042147Y-90962195D01*
X200192195Y-90812147D01*
X200273400Y-90616100D01*
X200273400Y-90403900D01*
X200192195Y-90207853D01*
X200074800Y-90090458D01*
X200074800Y-89406142D01*
X200222195Y-89258747D01*
X200303400Y-89062700D01*
X200303400Y-88850500D01*
X200284098Y-88803900D01*
X200806600Y-88803900D01*
X200806600Y-89016100D01*
X200887805Y-89212147D01*
X201035200Y-89359542D01*
X201035201Y-90040457D01*
X200897805Y-90177853D01*
X200816600Y-90373900D01*
X200816600Y-90586100D01*
X200897805Y-90782147D01*
X201047853Y-90932195D01*
X201243900Y-91013400D01*
X201456100Y-91013400D01*
X201652147Y-90932195D01*
X201802195Y-90782147D01*
X201883400Y-90586100D01*
X201883400Y-90373900D01*
X201802195Y-90177853D01*
X201652147Y-90027805D01*
X201644800Y-90024762D01*
X201644800Y-89690000D01*
X207006922Y-89690000D01*
X207006922Y-90990000D01*
X207024664Y-91079195D01*
X207075189Y-91154811D01*
X207150805Y-91205336D01*
X207240000Y-91223078D01*
X207890000Y-91223078D01*
X207979195Y-91205336D01*
X208054811Y-91154811D01*
X208105336Y-91079195D01*
X208123078Y-90990000D01*
X208123078Y-89690000D01*
X208105336Y-89600805D01*
X208054811Y-89525189D01*
X207979195Y-89474664D01*
X207890000Y-89456922D01*
X207240000Y-89456922D01*
X207150805Y-89474664D01*
X207075189Y-89525189D01*
X207024664Y-89600805D01*
X207006922Y-89690000D01*
X201644800Y-89690000D01*
X201644800Y-89359542D01*
X201792195Y-89212147D01*
X201873400Y-89016100D01*
X201873400Y-88803900D01*
X201792195Y-88607853D01*
X201642147Y-88457805D01*
X201446100Y-88376600D01*
X201233900Y-88376600D01*
X201037853Y-88457805D01*
X200887805Y-88607853D01*
X200806600Y-88803900D01*
X200284098Y-88803900D01*
X200222195Y-88654453D01*
X200072147Y-88504405D01*
X199876100Y-88423200D01*
X199663900Y-88423200D01*
X199467853Y-88504405D01*
X199317805Y-88654453D01*
X199236600Y-88850500D01*
X199236600Y-89062700D01*
X199317805Y-89258747D01*
X199465200Y-89406142D01*
X199465201Y-90046477D01*
X199437853Y-90057805D01*
X199287805Y-90207853D01*
X199206600Y-90403900D01*
X197052295Y-90403900D01*
X197013361Y-90377885D01*
X196924452Y-90360200D01*
X196924448Y-90360200D01*
X196894434Y-90354230D01*
X196864420Y-90360200D01*
X194747205Y-90360200D01*
X194745336Y-90350805D01*
X194694811Y-90275189D01*
X194634664Y-90235000D01*
X194694811Y-90194811D01*
X194745336Y-90119195D01*
X194763078Y-90030000D01*
X194763078Y-89580000D01*
X194745336Y-89490805D01*
X194694811Y-89415189D01*
X194619195Y-89364664D01*
X194530000Y-89346922D01*
X194441764Y-89346922D01*
X194480336Y-89289195D01*
X194498078Y-89200000D01*
X194498078Y-87600000D01*
X194480336Y-87510805D01*
X194429811Y-87435189D01*
X194354195Y-87384664D01*
X194265000Y-87366922D01*
X193615000Y-87366922D01*
X193525805Y-87384664D01*
X193450189Y-87435189D01*
X193399664Y-87510805D01*
X193381922Y-87600000D01*
X193381922Y-88030332D01*
X193302195Y-87837853D01*
X193152147Y-87687805D01*
X192956100Y-87606600D01*
X192743900Y-87606600D01*
X192547853Y-87687805D01*
X192397805Y-87837853D01*
X192316600Y-88033900D01*
X192316600Y-88246100D01*
X192397805Y-88442147D01*
X192545200Y-88589542D01*
X192545200Y-88816467D01*
X192539230Y-88846482D01*
X192545200Y-88876496D01*
X192545200Y-88876499D01*
X192562885Y-88965408D01*
X192630252Y-89066230D01*
X192655700Y-89083234D01*
X192919388Y-89346922D01*
X192830000Y-89346922D01*
X192740805Y-89364664D01*
X192665189Y-89415189D01*
X192614664Y-89490805D01*
X192612795Y-89500200D01*
X192545015Y-89500200D01*
X192515000Y-89494230D01*
X192484985Y-89500200D01*
X192484982Y-89500200D01*
X192396073Y-89517885D01*
X192295252Y-89585252D01*
X192278248Y-89610700D01*
X191975698Y-89913250D01*
X191950253Y-89930252D01*
X191933251Y-89955697D01*
X191933248Y-89955700D01*
X191882885Y-90031074D01*
X191859230Y-90150000D01*
X187913400Y-90150000D01*
X187913400Y-90041700D01*
X187921549Y-90029504D01*
X187921551Y-90029502D01*
X187971914Y-89954128D01*
X187977921Y-89923927D01*
X187989599Y-89865219D01*
X187989599Y-89865216D01*
X187995569Y-89835201D01*
X187989599Y-89805187D01*
X187989599Y-87527111D01*
X189270482Y-86246229D01*
X189478929Y-86246229D01*
X189516605Y-86230623D01*
X192471502Y-86230623D01*
X192471502Y-86442823D01*
X192552707Y-86638870D01*
X192702755Y-86788918D01*
X192898802Y-86870123D01*
X193111002Y-86870123D01*
X193307049Y-86788918D01*
X193457097Y-86638870D01*
X193538302Y-86442823D01*
X193538302Y-86230623D01*
X193457097Y-86034576D01*
X193381787Y-85959266D01*
X193547652Y-85793400D01*
X193756100Y-85793400D01*
X193952147Y-85712195D01*
X194102195Y-85562147D01*
X194183400Y-85366100D01*
X194183400Y-85153900D01*
X194102195Y-84957853D01*
X193952147Y-84807805D01*
X193756100Y-84726600D01*
X193543900Y-84726600D01*
X193347853Y-84807805D01*
X193197805Y-84957853D01*
X193116600Y-85153900D01*
X193116600Y-85362348D01*
X192810600Y-85668348D01*
X192785155Y-85685350D01*
X192768153Y-85710795D01*
X192768150Y-85710798D01*
X192717787Y-85786172D01*
X192708720Y-85831756D01*
X192700102Y-85875080D01*
X192700102Y-85875084D01*
X192697098Y-85890185D01*
X192552707Y-86034576D01*
X192471502Y-86230623D01*
X189516605Y-86230623D01*
X189674976Y-86165024D01*
X189825024Y-86014976D01*
X189906229Y-85818929D01*
X189906229Y-85606729D01*
X189825024Y-85410682D01*
X189719142Y-85304800D01*
X191979587Y-85304800D01*
X191986042Y-85320384D01*
X192136090Y-85470432D01*
X192332137Y-85551637D01*
X192544337Y-85551637D01*
X192740384Y-85470432D01*
X192890432Y-85320384D01*
X192971637Y-85124337D01*
X192971637Y-84912137D01*
X192890432Y-84716090D01*
X192740384Y-84566042D01*
X192544337Y-84484837D01*
X192332137Y-84484837D01*
X192136090Y-84566042D01*
X192006932Y-84695200D01*
X188934446Y-84695200D01*
X188904431Y-84689230D01*
X188874416Y-84695200D01*
X188874413Y-84695200D01*
X188785504Y-84712885D01*
X188710130Y-84763248D01*
X188710128Y-84763250D01*
X188684683Y-84780252D01*
X188667681Y-84805697D01*
X188356779Y-85116600D01*
X188148331Y-85116600D01*
X187952284Y-85197805D01*
X187802236Y-85347853D01*
X187721031Y-85543900D01*
X187721031Y-85756100D01*
X187802236Y-85952147D01*
X187952284Y-86102195D01*
X188148331Y-86183400D01*
X188360531Y-86183400D01*
X188549463Y-86105142D01*
X187490497Y-87164109D01*
X187465052Y-87181111D01*
X187448049Y-87206557D01*
X187448047Y-87206559D01*
X187422059Y-87245453D01*
X187397684Y-87281932D01*
X187379999Y-87370841D01*
X187379999Y-87370845D01*
X187374029Y-87400859D01*
X187379999Y-87430873D01*
X187379999Y-87725218D01*
X187380000Y-87725223D01*
X187379999Y-89606600D01*
X187273900Y-89606600D01*
X187077853Y-89687805D01*
X186927805Y-89837853D01*
X186846600Y-90033900D01*
X183472000Y-90033900D01*
X183472000Y-83651729D01*
X186074429Y-83651729D01*
X186074429Y-83863929D01*
X186155634Y-84059976D01*
X186305682Y-84210024D01*
X186501729Y-84291229D01*
X186706129Y-84291229D01*
X186718325Y-84299378D01*
X186718327Y-84299380D01*
X186776387Y-84338174D01*
X186793701Y-84349743D01*
X186882610Y-84367428D01*
X186882613Y-84367428D01*
X186912628Y-84373398D01*
X186942642Y-84367428D01*
X188617358Y-84367428D01*
X188647372Y-84373398D01*
X188677386Y-84367428D01*
X188677390Y-84367428D01*
X188766299Y-84349743D01*
X188867120Y-84282376D01*
X188884124Y-84256928D01*
X189037652Y-84103400D01*
X189246100Y-84103400D01*
X189442147Y-84022195D01*
X189592195Y-83872147D01*
X189673400Y-83676100D01*
X189673400Y-83463900D01*
X189592195Y-83267853D01*
X189442147Y-83117805D01*
X189246100Y-83036600D01*
X189033900Y-83036600D01*
X188837853Y-83117805D01*
X188687805Y-83267853D01*
X188606600Y-83463900D01*
X188606600Y-83672348D01*
X188521120Y-83757828D01*
X187802172Y-83757828D01*
X187935671Y-83624329D01*
X188043857Y-83624329D01*
X188073871Y-83630299D01*
X188103885Y-83624329D01*
X188103889Y-83624329D01*
X188192798Y-83606644D01*
X188293619Y-83539277D01*
X188310623Y-83513829D01*
X188820152Y-83004301D01*
X188820154Y-83004298D01*
X189247652Y-82576800D01*
X189456100Y-82576800D01*
X189652147Y-82495595D01*
X189802195Y-82345547D01*
X189841771Y-82250000D01*
X193381922Y-82250000D01*
X193381922Y-84390000D01*
X193399664Y-84479195D01*
X193450189Y-84554811D01*
X193525805Y-84605336D01*
X193615000Y-84623078D01*
X194265000Y-84623078D01*
X194354195Y-84605336D01*
X194429811Y-84554811D01*
X194461853Y-84506856D01*
X205928900Y-84506856D01*
X205928900Y-84719056D01*
X206010105Y-84915103D01*
X206160153Y-85065151D01*
X206356200Y-85146356D01*
X206568400Y-85146356D01*
X206764447Y-85065151D01*
X206914495Y-84915103D01*
X206995700Y-84719056D01*
X206995700Y-84514656D01*
X207003849Y-84502460D01*
X207003851Y-84502458D01*
X207006922Y-84497862D01*
X207006922Y-84990000D01*
X207024664Y-85079195D01*
X207075189Y-85154811D01*
X207150805Y-85205336D01*
X207240000Y-85223078D01*
X207840000Y-85223078D01*
X207929195Y-85205336D01*
X208004811Y-85154811D01*
X208055336Y-85079195D01*
X208073078Y-84990000D01*
X208073078Y-83840000D01*
X208055336Y-83750805D01*
X208004811Y-83675189D01*
X207929195Y-83624664D01*
X207840000Y-83606922D01*
X207492648Y-83606922D01*
X207624770Y-83474800D01*
X207880458Y-83474800D01*
X208027853Y-83622195D01*
X208223900Y-83703400D01*
X208436100Y-83703400D01*
X208632147Y-83622195D01*
X208782195Y-83472147D01*
X208863400Y-83276100D01*
X208863400Y-83063900D01*
X208782195Y-82867853D01*
X208632147Y-82717805D01*
X208436100Y-82636600D01*
X208223900Y-82636600D01*
X208027853Y-82717805D01*
X207880458Y-82865200D01*
X207528533Y-82865200D01*
X207498518Y-82859230D01*
X207468503Y-82865200D01*
X207468500Y-82865200D01*
X207379591Y-82882885D01*
X207278770Y-82950252D01*
X207261766Y-82975700D01*
X206572797Y-83664669D01*
X206547352Y-83681671D01*
X206530350Y-83707116D01*
X206530347Y-83707119D01*
X206479984Y-83782493D01*
X206472737Y-83818926D01*
X206462299Y-83871401D01*
X206462299Y-83871405D01*
X206456329Y-83901419D01*
X206462299Y-83931433D01*
X206462299Y-84079556D01*
X206356200Y-84079556D01*
X206160153Y-84160761D01*
X206010105Y-84310809D01*
X205928900Y-84506856D01*
X194461853Y-84506856D01*
X194480336Y-84479195D01*
X194498078Y-84390000D01*
X194498078Y-83593900D01*
X196386600Y-83593900D01*
X196386600Y-83806100D01*
X196467805Y-84002147D01*
X196617853Y-84152195D01*
X196813900Y-84233400D01*
X197026100Y-84233400D01*
X197222147Y-84152195D01*
X197369542Y-84004800D01*
X198030620Y-84004800D01*
X198037805Y-84022147D01*
X198187853Y-84172195D01*
X198383900Y-84253400D01*
X198596100Y-84253400D01*
X198792147Y-84172195D01*
X198942195Y-84022147D01*
X199023400Y-83826100D01*
X199023400Y-83613900D01*
X198942195Y-83417853D01*
X198792147Y-83267805D01*
X198596100Y-83186600D01*
X198383900Y-83186600D01*
X198187853Y-83267805D01*
X198060458Y-83395200D01*
X197369542Y-83395200D01*
X197222147Y-83247805D01*
X197026100Y-83166600D01*
X196813900Y-83166600D01*
X196617853Y-83247805D01*
X196467805Y-83397853D01*
X196386600Y-83593900D01*
X194498078Y-83593900D01*
X194498078Y-82644588D01*
X194546042Y-82760384D01*
X194696090Y-82910432D01*
X194892137Y-82991637D01*
X195104337Y-82991637D01*
X195300384Y-82910432D01*
X195450432Y-82760384D01*
X195531637Y-82564337D01*
X195531637Y-82352137D01*
X195450432Y-82156090D01*
X195300384Y-82006042D01*
X195104337Y-81924837D01*
X194895889Y-81924837D01*
X194237096Y-81266044D01*
X194237096Y-81171838D01*
X194384491Y-81024443D01*
X194465696Y-80828396D01*
X194465696Y-80616196D01*
X194384491Y-80420149D01*
X194234443Y-80270101D01*
X194038396Y-80188896D01*
X193826196Y-80188896D01*
X193630149Y-80270101D01*
X193480101Y-80420149D01*
X193398896Y-80616196D01*
X193398896Y-80828396D01*
X193480101Y-81024443D01*
X193627496Y-81171838D01*
X193627496Y-81362281D01*
X193621526Y-81392296D01*
X193627496Y-81422310D01*
X193627496Y-81422313D01*
X193645181Y-81511222D01*
X193712548Y-81612044D01*
X193737996Y-81629048D01*
X194125870Y-82016922D01*
X193615000Y-82016922D01*
X193525805Y-82034664D01*
X193450189Y-82085189D01*
X193399664Y-82160805D01*
X193381922Y-82250000D01*
X189841771Y-82250000D01*
X189883400Y-82149500D01*
X189883400Y-81937300D01*
X189802195Y-81741253D01*
X189652147Y-81591205D01*
X189456100Y-81510000D01*
X189243900Y-81510000D01*
X189047853Y-81591205D01*
X188897805Y-81741253D01*
X188816600Y-81937300D01*
X188816600Y-82145748D01*
X188389102Y-82573246D01*
X188389099Y-82573248D01*
X187947619Y-83014729D01*
X187935671Y-83014729D01*
X187788276Y-82867334D01*
X187592229Y-82786129D01*
X187380029Y-82786129D01*
X187183982Y-82867334D01*
X187033934Y-83017382D01*
X186952729Y-83213429D01*
X186952729Y-83348387D01*
X186909976Y-83305634D01*
X186713929Y-83224429D01*
X186501729Y-83224429D01*
X186305682Y-83305634D01*
X186155634Y-83455682D01*
X186074429Y-83651729D01*
X183472000Y-83651729D01*
X183472000Y-78258100D01*
X193396600Y-78258100D01*
X193396600Y-78470300D01*
X193477805Y-78666347D01*
X193627853Y-78816395D01*
X193823900Y-78897600D01*
X194036100Y-78897600D01*
X194186922Y-78835128D01*
X194186922Y-79440000D01*
X194204664Y-79529195D01*
X194255189Y-79604811D01*
X194330805Y-79655336D01*
X194420000Y-79673078D01*
X195220000Y-79673078D01*
X195309195Y-79655336D01*
X195370000Y-79614707D01*
X195430805Y-79655336D01*
X195520000Y-79673078D01*
X195615201Y-79673078D01*
X195615200Y-80941410D01*
X195486604Y-80941410D01*
X195290557Y-81022615D01*
X195140509Y-81172663D01*
X195059304Y-81368710D01*
X195059304Y-81580910D01*
X195140509Y-81776957D01*
X195290557Y-81927005D01*
X195486604Y-82008210D01*
X195698804Y-82008210D01*
X195894851Y-81927005D01*
X196044899Y-81776957D01*
X196126104Y-81580910D01*
X196126104Y-81376379D01*
X196139748Y-81367262D01*
X196207115Y-81266441D01*
X196224800Y-81177532D01*
X196224800Y-81177528D01*
X196230770Y-81147515D01*
X196224800Y-81117502D01*
X196224800Y-79673078D01*
X196320000Y-79673078D01*
X196409195Y-79655336D01*
X196470000Y-79614707D01*
X196530805Y-79655336D01*
X196533070Y-79655787D01*
X196387805Y-79801052D01*
X196306600Y-79997099D01*
X196306600Y-80209299D01*
X196387805Y-80405346D01*
X196537853Y-80555394D01*
X196733900Y-80636599D01*
X196946100Y-80636599D01*
X197142147Y-80555394D01*
X197292195Y-80405346D01*
X197373400Y-80209299D01*
X197373400Y-80004899D01*
X197381549Y-79992703D01*
X197381551Y-79992701D01*
X197431914Y-79917327D01*
X197435934Y-79897115D01*
X197449599Y-79828418D01*
X197449599Y-79828415D01*
X197455569Y-79798400D01*
X197449599Y-79768386D01*
X197449599Y-79667190D01*
X197509195Y-79655336D01*
X197570000Y-79614707D01*
X197630805Y-79655336D01*
X197720000Y-79673078D01*
X197815200Y-79673078D01*
X197815200Y-79808361D01*
X197794029Y-79914799D01*
X197800000Y-79944818D01*
X197799999Y-80941410D01*
X197693900Y-80941410D01*
X197497853Y-81022615D01*
X197347805Y-81172663D01*
X197266600Y-81368710D01*
X197266600Y-81580910D01*
X197347805Y-81776957D01*
X197497853Y-81927005D01*
X197693900Y-82008210D01*
X197906100Y-82008210D01*
X198102147Y-81927005D01*
X198252195Y-81776957D01*
X198333400Y-81580910D01*
X198333400Y-81577742D01*
X198377853Y-81622195D01*
X198573900Y-81703400D01*
X198786100Y-81703400D01*
X198982147Y-81622195D01*
X199132195Y-81472147D01*
X199213400Y-81276100D01*
X199213400Y-81067652D01*
X199414301Y-80866751D01*
X199439748Y-80849748D01*
X199507115Y-80748927D01*
X199524800Y-80660018D01*
X199524800Y-80660014D01*
X199530770Y-80630001D01*
X199524800Y-80599988D01*
X199524800Y-80443900D01*
X200626600Y-80443900D01*
X200626600Y-80656100D01*
X200707805Y-80852147D01*
X200857853Y-81002195D01*
X201053900Y-81083400D01*
X201266100Y-81083400D01*
X201462147Y-81002195D01*
X201612195Y-80852147D01*
X201693400Y-80656100D01*
X201693400Y-80453990D01*
X201699748Y-80449748D01*
X201767115Y-80348927D01*
X201784800Y-80260018D01*
X201784800Y-80260014D01*
X201790770Y-80230001D01*
X201784800Y-80199988D01*
X201784800Y-79673078D01*
X201820000Y-79673078D01*
X201909195Y-79655336D01*
X201970000Y-79614707D01*
X202030805Y-79655336D01*
X202120000Y-79673078D01*
X202920000Y-79673078D01*
X203009195Y-79655336D01*
X203084811Y-79604811D01*
X203135336Y-79529195D01*
X203153078Y-79440000D01*
X203153078Y-78040000D01*
X203135336Y-77950805D01*
X203084811Y-77875189D01*
X203009195Y-77824664D01*
X202920000Y-77806922D01*
X202120000Y-77806922D01*
X202030805Y-77824664D01*
X201970000Y-77865293D01*
X201909195Y-77824664D01*
X201820000Y-77806922D01*
X201020000Y-77806922D01*
X200930805Y-77824664D01*
X200855189Y-77875189D01*
X200804664Y-77950805D01*
X200786922Y-78040000D01*
X200786922Y-79440000D01*
X200804664Y-79529195D01*
X200855189Y-79604811D01*
X200930805Y-79655336D01*
X201020000Y-79673078D01*
X201125277Y-79673078D01*
X201132885Y-79711326D01*
X201147852Y-79733725D01*
X201175201Y-79774656D01*
X201175200Y-80016600D01*
X201053900Y-80016600D01*
X200857853Y-80097805D01*
X200707805Y-80247853D01*
X200626600Y-80443900D01*
X199524800Y-80443900D01*
X199524800Y-79673078D01*
X199620000Y-79673078D01*
X199709195Y-79655336D01*
X199784811Y-79604811D01*
X199835336Y-79529195D01*
X199853078Y-79440000D01*
X199853078Y-78040000D01*
X199835336Y-77950805D01*
X199784811Y-77875189D01*
X199709195Y-77824664D01*
X199620000Y-77806922D01*
X198820000Y-77806922D01*
X198730805Y-77824664D01*
X198670000Y-77865293D01*
X198609195Y-77824664D01*
X198520000Y-77806922D01*
X197720000Y-77806922D01*
X197630805Y-77824664D01*
X197570000Y-77865293D01*
X197509195Y-77824664D01*
X197420000Y-77806922D01*
X196620000Y-77806922D01*
X196530805Y-77824664D01*
X196470000Y-77865293D01*
X196409195Y-77824664D01*
X196320000Y-77806922D01*
X195520000Y-77806922D01*
X195430805Y-77824664D01*
X195370000Y-77865293D01*
X195309195Y-77824664D01*
X195220000Y-77806922D01*
X194420000Y-77806922D01*
X194375224Y-77815829D01*
X194557653Y-77633400D01*
X194766100Y-77633400D01*
X194962147Y-77552195D01*
X195112195Y-77402147D01*
X195193400Y-77206100D01*
X195193400Y-76993900D01*
X195112195Y-76797853D01*
X194962147Y-76647805D01*
X194766100Y-76566600D01*
X194553900Y-76566600D01*
X194357853Y-76647805D01*
X194207805Y-76797853D01*
X194126600Y-76993900D01*
X194126600Y-77202347D01*
X193735698Y-77593250D01*
X193710253Y-77610252D01*
X193693251Y-77635697D01*
X193693248Y-77635700D01*
X193642885Y-77711074D01*
X193619230Y-77830000D01*
X193625201Y-77860019D01*
X193625201Y-77914657D01*
X193477805Y-78062053D01*
X193396600Y-78258100D01*
X183472000Y-78258100D01*
X183472000Y-77605843D01*
X183545815Y-76972712D01*
X183756746Y-76391609D01*
X184095705Y-75874611D01*
X184290584Y-75690000D01*
X206726922Y-75690000D01*
X206726922Y-77190000D01*
X206744664Y-77279195D01*
X206795189Y-77354811D01*
X206870805Y-77405336D01*
X206960000Y-77423078D01*
X208120000Y-77423078D01*
X208209195Y-77405336D01*
X208284811Y-77354811D01*
X208335336Y-77279195D01*
X208353078Y-77190000D01*
X208353078Y-75690000D01*
X208335336Y-75600805D01*
X208284811Y-75525189D01*
X208209195Y-75474664D01*
X208120000Y-75456922D01*
X206960000Y-75456922D01*
X206870805Y-75474664D01*
X206795189Y-75525189D01*
X206744664Y-75600805D01*
X206726922Y-75690000D01*
X184290584Y-75690000D01*
X184544500Y-75449463D01*
X185079069Y-75138961D01*
X185675034Y-74958460D01*
X186158034Y-74915354D01*
X210124311Y-74915354D01*
X210757442Y-74989169D01*
G04 #@! TD*
M02*
